<?xml version="1.0" encoding="utf-8"?>
<!-- Generator: Adobe Illustrator 25.2.0, SVG Export Plug-In . SVG Version: 6.00 Build 0)  -->
<svg version="1.1" id="Layer_1" xmlns="http://www.w3.org/2000/svg" xmlns:xlink="http://www.w3.org/1999/xlink" x="0px" y="0px"
	 viewBox="0 0 500 500" style="enable-background:new 0 0 500 500;" xml:space="preserve">
<style type="text/css">
	.st0{clip-path:url(#SVGID_3_);}
	.st1{clip-path:url(#SVGID_4_);}
	.st2{fill:#92E3A9;}
	.st3{opacity:0.5;fill:#FFFFFF;enable-background:new    ;}
	.st4{fill:#FFFFFF;}
	.st5{fill:#2E353A;}
	.st6{opacity:0.7;fill:#FFFFFF;enable-background:new    ;}
	.st7{opacity:0.1;fill:#92E3A9;enable-background:new    ;}
	.st8{opacity:0.8;fill:#92E3A9;enable-background:new    ;}
	.st9{fill:none;}
</style>
<g>
	<defs>
		<polygon id="SVGID_1_" points="1,1 2,1 1,2 		"/>
	</defs>
	<defs>
		<polygon id="SVGID_2_" points="-1,-1 -2,-1 -1,-2 		"/>
	</defs>
	<clipPath id="SVGID_3_">
		<use xlink:href="#SVGID_1_"  style="overflow:visible;"/>
	</clipPath>
	<clipPath id="SVGID_4_" class="st0">
		<use xlink:href="#SVGID_2_"  style="overflow:visible;"/>
	</clipPath>
	<g class="st1">
		<path class="st2" d="M303.3,155.2c0,0-2.6,7.8-5.2,10.1c-2,1.7-4.2,3.1-6.5,4.4c0,0-1.5-5.4-5.4-5.4s-9.8,2.6-9.8,2.6
			s0-2.1,4.9-4.7l4.9-2.6l11.4-4.4H303.3z"/>
		<path class="st3" d="M303.3,155.2c0,0-2.6,7.8-5.2,10.1c-2,1.7-4.2,3.1-6.5,4.4c0,0-1.5-5.4-5.4-5.4s-9.8,2.6-9.8,2.6
			s0-2.1,4.9-4.7l4.9-2.6l11.4-4.4H303.3z"/>
		<path class="st4" d="M281,148.9c3.3,3.6,5.6,8,6.7,12.8c1.8,7.9,13.3,17.2,16,17.2s2.5-13.6,1.6-17.5s-4.6-14.6-4.6-14.6
			S286.2,139.8,281,148.9z"/>
		<path class="st5" d="M303.7,179.4c-2.9,0-14.6-9.6-16.5-17.6c-1.1-4.7-3.4-9-6.6-12.5c-0.2-0.2-0.2-0.4-0.1-0.6
			c5.3-9.4,20.3-2.4,20.4-2.3c0.1,0.1,0.2,0.2,0.3,0.3c0.1,0.4,3.7,10.7,4.6,14.6c0.8,3.5,1.2,14.8-0.9,17.5
			C304.6,179.1,304.2,179.4,303.7,179.4z M281.7,148.8c3.2,3.6,5.5,8,6.5,12.7c1.8,7.9,13.2,16.8,15.5,16.8c0,0,0.2,0,0.4-0.3
			c1.7-2.1,1.6-13,0.8-16.6s-4-12.9-4.5-14.4C298.7,146.4,286.4,141.2,281.7,148.8L281.7,148.8z"/>
	</g>
</g>
<g>
	<path class="st2" d="M386.7,145.2c0,0-32.2-43.2-85.7-46.2s-83.3,33.4-105.2,60.8s-88.2,11.6-128.4,53.5s-20.7,66.3-3,90.6
		S99,332,99,352.1s9.7,46.8,48.1,52.9s77.9-31,105.2-17s73.3,24.9,101.4,17s19.6-37.1,50-46.8s59.6-40.1,55.4-73
		s-28.6-38.9-38.9-70.6S395.2,158.6,386.7,145.2z"/>
	<path class="st6" d="M386.7,145.2c0,0-32.2-43.2-85.7-46.2s-83.3,33.4-105.2,60.8s-88.2,11.6-128.4,53.5s-20.7,66.3-3,90.6
		S99,332,99,352.1s9.7,46.8,48.1,52.9s77.9-31,105.2-17s73.3,24.9,101.4,17s19.6-37.1,50-46.8s59.6-40.1,55.4-73
		s-28.6-38.9-38.9-70.6S395.2,158.6,386.7,145.2z"/>
	<g id="freepik--Shadow--inject-2">
		<path class="st5" d="M423.4,411.8c0,1.8-56,3.2-125,3.2s-125-1.4-125-3.2s56-3.2,125-3.2S423.4,410.1,423.4,411.8z"/>
	</g>
	<path class="st2" d="M207,115.2h117.5c3.7,0,6.6,3,6.6,6.6v45.9c0,3.7-3,6.6-6.6,6.6H207c-3.7,0-6.6-3-6.6-6.6v-45.9
		C200.4,118.2,203.4,115.2,207,115.2z"/>
	<polyline class="st2" points="200.4,164 200.4,185.4 212.3,171.6 	"/>
	<path class="st2" d="M324.5,115.2H207c-3.7,0-6.6,3-6.6,6.6c0,0,0,0,0,0v63.5l9.5-10.9h114.6c3.7,0,6.6-3,6.6-6.6c0,0,0,0,0,0
		v-45.9C331.1,118.2,328.2,115.3,324.5,115.2C324.5,115.2,324.5,115.2,324.5,115.2z"/>
	<path class="st7" d="M324.5,115.2H207c-3.7,0-6.6,3-6.6,6.6c0,0,0,0,0,0v63.5l9.5-10.9h114.6c3.7,0,6.6-3,6.6-6.6c0,0,0,0,0,0
		v-45.9C331.1,118.2,328.2,115.3,324.5,115.2C324.5,115.2,324.5,115.2,324.5,115.2z"/>
	<path class="st4" d="M301,147.7h-84.4c-1.3,0-2.4-1.1-2.4-2.4l0,0l0,0c0-1.3,1.1-2.4,2.4-2.4H301c1.3,0,2.4,1.1,2.4,2.4l0,0
		C303.4,146.6,302.3,147.7,301,147.7z"/>
	<path class="st4" d="M301,158.5h-84.4c-1.3,0-2.4-1.1-2.4-2.4l0,0l0,0c0-1.3,1.1-2.4,2.4-2.4H301c1.3,0,2.4,1.1,2.4,2.4l0,0
		C303.4,157.5,302.3,158.5,301,158.5z"/>
	<circle class="st4" cx="221.3" cy="128.4" r="8.5"/>
	<path class="st2" d="M207,195.3h117.5c3.7,0,6.6,3,6.6,6.6v45.9c0,3.7-3,6.6-6.6,6.6H207c-3.7,0-6.6-3-6.6-6.6v-45.9
		C200.4,198.3,203.4,195.3,207,195.3z"/>
	<polyline class="st2" points="200.4,244 200.4,265.4 212.3,251.7 	"/>
	<path class="st2" d="M324.5,195.3H207c-3.7,0-6.6,3-6.6,6.6l0,0v63.5l9.5-11h114.6c3.7,0,6.6-3,6.6-6.6v-45.9
		C331.1,198.3,328.1,195.3,324.5,195.3z"/>
	<path class="st7" d="M324.5,195.3H207c-3.7,0-6.6,3-6.6,6.6l0,0v63.5l9.5-11h114.6c3.7,0,6.6-3,6.6-6.6v-45.9
		C331.1,198.3,328.1,195.3,324.5,195.3z"/>
	<path class="st4" d="M301,227.7h-84.4c-1.3,0-2.4-1.1-2.4-2.4l0,0c0-1.3,1.1-2.4,2.4-2.4l0,0H301c1.3,0,2.4,1.1,2.4,2.4l0,0
		C303.4,226.7,302.3,227.7,301,227.7z"/>
	<path class="st4" d="M301,238.6h-84.4c-1.3,0-2.4-1.1-2.4-2.4l0,0c0-1.3,1.1-2.4,2.4-2.4l0,0H301c1.3,0,2.4,1.1,2.4,2.4l0,0
		C303.4,237.5,302.3,238.6,301,238.6z"/>
	<circle class="st4" cx="221.3" cy="208.4" r="8.5"/>
	<path class="st5" d="M109.7,312.5c-0.1,0-0.5-6.3-0.5-6.7c0.2-4.6,3.4-13.5,8.4-14.8c3.3-0.8,6.6,1.2,7.4,4.5
		c0.1,0.2,0.1,0.4,0.1,0.7c0.6,3.6-1.8,7.5-4.2,10C118.2,309.2,109.7,312.5,109.7,312.5z"/>
	<path class="st5" d="M103.1,288.3c-0.1,0,0.5-6.3,0.5-6.7c0.9-4.5,5.4-12.8,10.6-13.3c3.4-0.3,6.4,2.2,6.6,5.6c0,0.2,0,0.4,0,0.7
		c0,3.7-2.9,7.1-5.6,9.2C112,286.4,103.1,288.3,103.1,288.3z"/>
	<path class="st5" d="M101.4,259.8c-0.1,0,0.5-6.3,0.6-6.7c0.9-4.5,5.4-12.8,10.6-13.3c3.4-0.3,6.3,2.2,6.6,5.6c0,0.2,0,0.4,0,0.7
		c0,3.7-2.9,7.1-5.6,9.2C110.3,257.8,101.4,259.8,101.4,259.8z"/>
	<path class="st5" d="M98.6,233c-0.1,0,0.5-6.3,0.6-6.7c0.9-4.6,5.4-12.8,10.6-13.4c3.4-0.3,6.4,2.3,6.6,5.6c0,0.2,0,0.4,0,0.7
		c0,3.7-2.9,7.1-5.6,9.2C107.5,231,98.6,233,98.6,233z"/>
	<path class="st5" d="M90,211.5c-0.1,0-1.2-6.2-1.2-6.6c-0.3-4.6,1.8-13.8,6.7-15.7c3.2-1.2,6.7,0.5,7.9,3.7
		c0.1,0.2,0.1,0.4,0.2,0.6c1,3.5-0.9,7.6-3,10.4C98.1,207.2,90,211.5,90,211.5z"/>
	<path class="st5" d="M107,312.6c0.1,0-2.6-5.7-2.8-6c-2.5-3.9-9.6-10.1-14.6-8.8c-3.3,0.9-5.1,4.3-4.2,7.6c0.1,0.2,0.1,0.4,0.2,0.6
		c1.3,3.5,5.2,5.7,8.5,6.7C98,313.8,107,312.6,107,312.6z"/>
	<path class="st5" d="M101.8,285.1c0.1,0-3.5-5.2-3.7-5.5c-3-3.5-11-8.5-15.8-6.5c-3.1,1.4-4.4,5-3,8.1c0.1,0.2,0.2,0.4,0.3,0.6
		c1.8,3.2,6,4.8,9.4,5.3C93,287.7,101.8,285.1,101.8,285.1z"/>
	<path class="st5" d="M100.2,258.2c0.1,0-3.5-5.2-3.7-5.5c-3-3.5-11-8.5-15.8-6.5c-3.1,1.4-4.5,5-3.1,8.1c0.1,0.2,0.2,0.4,0.3,0.7
		c1.8,3.2,6,4.8,9.4,5.3C91.5,260.8,100.2,258.2,100.2,258.2z"/>
	<path class="st5" d="M97.7,233.5c0.1,0-3.5-5.2-3.7-5.5c-3-3.5-11-8.5-15.8-6.5c-3.1,1.4-4.4,5-3,8.1c0.1,0.2,0.2,0.4,0.3,0.6
		c1.8,3.2,6,4.8,9.4,5.3C88.9,236.1,97.7,233.5,97.7,233.5z"/>
	<path class="st5" d="M90.1,212.3c0.1,0-4-4.8-4.3-5.1c-3.4-3.1-11.8-7.2-16.4-4.7c-2.9,1.7-3.9,5.5-2.1,8.4
		c0.1,0.2,0.3,0.4,0.4,0.6c2.1,3,6.5,4.1,10,4.2C81.7,215.8,90.1,212.3,90.1,212.3z"/>
	<path class="st5" d="M79.2,194.7c0.1,0-1.3-6.1-1.5-6.5c-1.6-4.4-7.2-11.9-12.4-11.7c-3.4,0.2-6,3.1-5.8,6.5c0,0.2,0,0.4,0.1,0.7
		c0.5,3.6,3.9,6.6,6.9,8.3C70.1,194,79.1,194.7,79.2,194.7z"/>
	<path class="st5" d="M118.4,344.9c0,0-1.1-2.5-2.8-6.7s-4-10.5-6.5-18c-1.2-3.8-2.5-7.9-3.7-12.2c-0.6-2.2-1.2-4.4-1.8-6.8
		c-0.3-1.2-0.5-2.3-0.8-3.5s-0.4-2.4-0.7-3.7c-0.8-5-1.3-10.1-1.5-15.2c-0.2-5.2-0.3-10.4-0.5-15.7s-0.3-10.5-0.7-15.6
		c-0.4-5-1.1-10-2.2-14.9c-1.1-4.6-2.6-9-4.4-13.4c-1.7-3.9-3.6-7.7-5.7-11.3c-1.9-3.4-3.9-6.4-5.7-9.1s-3.4-4.9-4.8-6.7
		c-2.8-3.7-4.5-5.6-4.5-5.6s1.8,1.9,4.7,5.5c1.4,1.8,3.1,4,5,6.6s3.9,5.6,5.9,9c2.2,3.6,4.2,7.4,6,11.3c2,4.3,3.6,8.8,4.8,13.4
		c1.2,4.9,2,9.9,2.5,15c0.5,5.2,0.8,10.4,1,15.7s0.4,10.5,0.8,15.6c0.3,5,0.9,10,1.8,14.9c0.2,1.2,0.4,2.4,0.7,3.5s0.6,2.3,0.8,3.5
		c0.6,2.2,1.2,4.5,1.9,6.6c1.3,4.3,2.6,8.3,3.9,12c2.6,7.4,5,13.5,6.8,17.7s2.9,6.6,2.9,6.6c0.4,0.9-0.1,2-1.1,2.4
		c-0.9,0.3-1.8,0-2.3-0.8l0,0L118.4,344.9z"/>
	<path class="st5" d="M141.9,306.1c-0.1,0,1.3-6.1,1.4-6.5c1.5-4.4,7.1-11.9,12.3-11.8c3.4,0.2,6,3.1,5.8,6.5c0,0.2,0,0.4-0.1,0.7
		c-0.5,3.6-3.8,6.7-6.8,8.4C151,305.4,142,306.1,141.9,306.1z"/>
	<path class="st5" d="M142.5,281.1c-0.1,0,2.2-5.9,2.4-6.2c2.2-4.1,8.8-10.7,13.9-9.8c3.3,0.7,5.5,4,4.8,7.3c0,0.2-0.1,0.4-0.2,0.6
		c-1,3.5-4.8,6-8,7.2C151.6,281.7,142.5,281.1,142.5,281.1z"/>
	<path class="st5" d="M149,253.3c-0.1,0,2.2-5.9,2.4-6.2c2.2-4.1,8.8-10.7,13.9-9.8c3.3,0.7,5.5,4,4.8,7.3c0,0.2-0.1,0.4-0.2,0.6
		c-1,3.5-4.8,6-8,7.2C158.1,253.9,149,253.3,149,253.3z"/>
	<path class="st5" d="M153.9,226.8c-0.1,0,2.2-5.9,2.4-6.2c2.2-4.1,8.8-10.7,13.9-9.8c3.3,0.7,5.4,3.9,4.8,7.3
		c0,0.2-0.1,0.4-0.2,0.7c-1,3.5-4.8,6-8,7.2C163,227.4,153.9,226.8,153.9,226.8z"/>
	<path class="st5" d="M151.8,203.7c-0.1,0,0.6-6.2,0.7-6.6c1-4.5,5.7-12.7,10.9-13.1c3.4-0.2,6.3,2.4,6.5,5.8c0,0.2,0,0.4,0,0.7
		c0,3.7-3,7.1-5.8,9.1C160.8,201.9,151.8,203.7,151.8,203.7z"/>
	<path class="st5" d="M139.4,305.5c0.1,0-0.9-6.2-1-6.6c-1.2-4.5-6.3-12.4-11.5-12.6c-3.4,0-6.2,2.7-6.2,6.1c0,0.2,0,0.4,0,0.7
		c0.2,3.7,3.4,6.9,6.3,8.8C130.4,304.1,139.4,305.5,139.4,305.5z"/>
	<path class="st5" d="M142.2,277.6c0.1,0-1.8-6-2-6.4c-1.9-4.2-8.1-11.3-13.3-10.7c-3.4,0.5-5.7,3.6-5.2,7c0,0.2,0.1,0.4,0.1,0.7
		c0.8,3.6,4.4,6.3,7.5,7.8C133,277.7,142.1,277.6,142.2,277.6z"/>
	<path class="st5" d="M148.4,251.4c0.1,0-1.8-6-2-6.4c-1.9-4.2-8.1-11.3-13.3-10.7c-3.4,0.5-5.7,3.6-5.2,6.9c0,0.2,0.1,0.5,0.1,0.7
		c0.8,3.6,4.4,6.3,7.5,7.8C139.2,251.4,148.4,251.4,148.4,251.4z"/>
	<path class="st5" d="M152.9,227c0.1,0-1.8-6-2-6.4c-1.9-4.2-8.1-11.3-13.3-10.7c-3.4,0.5-5.7,3.6-5.2,6.9c0,0.2,0.1,0.4,0.1,0.7
		c0.8,3.6,4.4,6.3,7.5,7.8C143.8,227,152.9,227,152.9,227z"/>
	<path class="st5" d="M151.6,204.5c0.1,0-2.5-5.8-2.7-6.1c-2.4-4-9.3-10.3-14.4-9.1c-3.3,0.8-5.3,4.2-4.4,7.5
		c0.1,0.2,0.1,0.4,0.2,0.6c1.2,3.5,5.1,5.8,8.3,6.9C142.6,205.5,151.6,204.5,151.6,204.5z"/>
	<path class="st5" d="M146.2,184.6c0.1,0,0.4-6.3,0.4-6.7c-0.3-4.6-3.5-13.4-8.5-14.8c-3.3-0.8-6.6,1.3-7.4,4.6
		c0,0.2-0.1,0.4-0.1,0.7c-0.6,3.6,1.8,7.5,4.2,10C137.7,181.3,146.2,184.5,146.2,184.6z"/>
	<path class="st5" d="M141.1,339.7c0,0-0.3-2.6-0.7-7.2s-0.9-11.2-1.1-19.1c-0.1-4-0.1-8.2-0.1-12.8c0-2.3,0.1-4.6,0.2-7
		c0.1-1.2,0.2-2.4,0.2-3.6s0.3-2.5,0.4-3.7c0.7-5,1.6-10.1,2.9-15c1.2-5,2.6-10.1,4-15.2s2.7-10.1,3.8-15.2
		c1.1-4.9,1.8-9.9,2.2-14.9c0.3-4.7,0.1-9.4-0.5-14.1c-0.5-4.2-1.2-8.4-2.2-12.5c-0.9-3.8-1.9-7.3-2.9-10.3s-1.9-5.7-2.7-7.8
		c-1.6-4.3-2.7-6.7-2.7-6.7s1.2,2.4,2.9,6.6c0.9,2.1,1.9,4.7,2.9,7.8s2.1,6.5,3.1,10.3c1.1,4.1,1.9,8.3,2.5,12.5
		c0.7,4.7,1,9.5,0.8,14.2c-0.3,5.1-0.9,10.1-1.9,15.1c-1,5.1-2.2,10.2-3.5,15.3c-1.3,5.1-2.6,10.2-3.7,15.2
		c-1.1,4.9-1.9,9.8-2.5,14.8c-0.1,1.2-0.3,2.4-0.3,3.6s-0.1,2.4-0.2,3.6c0,2.3-0.1,4.6,0,6.9c0,4.5,0.1,8.7,0.4,12.6
		c0.4,7.8,1,14.3,1.5,18.9s0.9,7.1,0.9,7.1c0.1,1-0.5,1.9-1.5,2.1C142.3,341.5,141.3,340.8,141.1,339.7L141.1,339.7L141.1,339.7
		L141.1,339.7z"/>
	<polygon class="st5" points="152.7,405.8 110.4,405.8 98.5,336.5 164.6,336.5 	"/>
	<circle class="st2" cx="227.3" cy="320.3" r="92.1"/>
	<path class="st5" d="M227.3,412.8c-51.1,0-92.5-41.4-92.5-92.5c0-51.1,41.4-92.5,92.5-92.5c51.1,0,92.5,41.4,92.5,92.5
		C319.8,371.4,278.4,412.8,227.3,412.8z M227.3,228.7c-50.6,0-91.6,41-91.6,91.6s41,91.6,91.6,91.6s91.6-41,91.6-91.6
		C318.9,269.7,277.9,228.7,227.3,228.7z"/>
	<path class="st5" d="M202.9,380.9c-7.8-2.9-14.9-7.3-21-12.9c-6.1-5.9-10.9-13.1-13.9-21c-3.4-8.9-5.1-18.4-5-27.9
		c-0.1-8.1,1.4-16.2,4.2-23.9c2.6-7,6.5-13.4,11.4-19c9.8-10.8,22.5-18.5,36.6-22.3c6.9-1.9,14-2.8,21.2-2.8
		c5.9,0,11.9,0.7,17.6,2.1c5.6,1.4,10.9,3.6,15.8,6.6c4.9,2.9,9.2,6.6,12.9,10.9c3.8,4.6,6.8,10,8.6,15.7c2.2,6.5,3.2,13.4,3.1,20.2
		c-0.1,13.2-4.8,26-13.4,36.1c-3.7,4.2-8.1,7.8-13,10.5c-4.2,2.4-9,3.8-13.9,3.9c-3.3,0-6.6-1-9.3-3c-2.8-2-4.4-5.2-4.4-8.7
		c-5.7,8-13.4,12.1-23.2,12.1c-7.9,0-14.3-2.7-19-8.1c-4.7-5.4-7.1-12.1-7.1-20c0-6,1.1-12,3.1-17.7c2-5.7,4.8-11.1,8.4-16
		c3.6-4.8,8.2-8.8,13.4-11.7c5.2-3,11.2-4.5,17.2-4.5c4.2,0,8.3,1,12,2.9c3.6,1.9,6.5,4.9,8.4,8.5l0.8-2.5c1.3-3.7,5.3-5.8,9-4.5
		c0.7,0.2,1.4,0.6,2,1c1.2,1,1.8,2.4,1.7,3.9c0,0.7-0.1,1.4-0.4,2.1l-12.4,41.2c-1.4,4.7-2.1,8-2.1,9.7c0,3,1.5,4.5,4.5,4.5
		c4,0,7.9-1.8,11.7-5.5c4.1-4.1,7.3-9.1,9.3-14.5c2.4-6,3.6-12.3,3.6-18.8c0.1-5.7-0.8-11.3-2.5-16.7c-1.4-4.7-3.6-9-6.6-12.9
		c-2.8-3.5-6.2-6.5-10-8.9c-3.8-2.4-8-4.2-12.3-5.3c-4.5-1.2-9.1-1.8-13.7-1.8c-5.9,0-11.7,0.8-17.4,2.5c-5.8,1.7-11.3,4.1-16.4,7.4
		c-5.1,3.2-9.8,7.2-13.8,11.7c-4.1,4.8-7.4,10.3-9.5,16.2c-2.4,6.5-3.6,13.3-3.5,20.2c-0.1,8.2,1.4,16.3,4.4,23.9
		c2.6,6.6,6.7,12.5,11.9,17.2c5.1,4.4,11,7.8,17.3,10.1c6.7,2.4,13.7,3.6,20.9,3.5c7.6,0,15.1-1.1,22.4-3.4c0.7-0.2,1.5-0.4,2.3-0.4
		c1.5-0.1,2.9,0.5,3.9,1.6c1,1,1.5,2.3,1.5,3.7c0.2,2.3-1.3,4.4-3.6,4.9c-9,2.8-18.4,4.2-27.9,4.3
		C220.2,385.5,211.3,384,202.9,380.9z M234.5,341.2c3.8-2.7,6.6-6.6,8-11l8-28.1l-0.5-1.1c-0.5-0.9-1.1-1.8-1.8-2.6
		c-1-1.1-2-2.1-3.1-3.1c-1.4-1.2-3.1-2-4.8-2.6c-4.5-1.6-9.5-1.4-13.9,0.5c-2.4,1-4.6,2.5-6.5,4.2c-2,1.9-3.8,3.9-5.3,6.2
		c-1.6,2.3-2.9,4.8-4,7.5c-1.1,2.6-1.9,5.3-2.5,8.1c-0.6,2.6-0.9,5.3-0.9,8c0,1.7,0.1,3.4,0.3,5.2c0.2,1.5,0.5,3,1,4.5
		c0.4,1.3,1,2.6,1.8,3.7c0.7,1.1,1.6,2,2.6,2.8c1.1,0.8,2.3,1.4,3.6,1.8c1.5,0.4,3.1,0.6,4.7,0.6C226,345.6,230.7,344.1,234.5,341.2
		L234.5,341.2z"/>
	<path class="st4" d="M352.5,242.9c0,0-3,5.6-3.4,6.4s-2,5-1.6,6c0.5,1,0.9,1.6,1.9,1.7s1.7,1.9,3.3,2.2c1,0.2,2,0.3,3,0.3
		c0.5,0.4,1.1,0.5,1.7,0.3c0.9-0.3,1.7-0.8,2.4-3.5c0.4-1.3,0.5-2.7,0.3-4.1l-0.3-5.4L352.5,242.9z"/>
	<path class="st5" d="M356.9,260.4c-0.5,0-0.9-0.1-1.3-0.4c-1,0-2-0.1-2.9-0.3c-0.9-0.2-1.7-0.8-2.3-1.5c-0.3-0.3-0.6-0.6-1-0.7
		c-1-0.2-1.9-1-2.2-2c-0.6-1.3,1.2-5.9,1.6-6.5c0.5-0.8,3.4-6.3,3.4-6.4c0.1-0.1,0.2-0.2,0.3-0.2c0.1,0,0.3,0,0.4,0l7.3,3.9
		c0.2,0.1,0.2,0.2,0.3,0.4l0.3,5.4l0,0c0.2,1.4,0.1,2.9-0.3,4.2c-0.6,2.7-1.4,3.4-2.7,3.8C357.3,260.3,357.1,260.4,356.9,260.4z
		 M352.7,243.5c-0.7,1.3-2.8,5.3-3.2,5.9c-0.5,0.9-1.9,4.9-1.6,5.5c0.5,1,0.9,1.4,1.5,1.5c0.6,0.2,1.1,0.5,1.5,1
		c0.5,0.6,1.1,1,1.8,1.2c1,0.2,1.9,0.3,2.9,0.3c0.1,0,0.2,0,0.3,0.1c0.4,0.3,0.8,0.3,1.3,0.2c0.7-0.2,1.4-0.5,2-3.1
		c0.4-1.3,0.5-2.6,0.3-3.9l-0.3-5.2L352.7,243.5z"/>
	<path class="st4" d="M369.9,393.1c0,0-4.3,7-4.3,8.6s5.9,4.8,8.4,5.9s7,2,10.6,2.5s11.2,2,9-0.8s-15.7-10.3-16.3-11.2
		c-0.7-0.8-1.5-1.6-2.3-2.3L369.9,393.1z"/>
	<path class="st5" d="M391.8,411.5c-2.1-0.1-4.3-0.3-6.4-0.7l-0.9-0.1c-5.1-0.8-8.7-1.6-10.8-2.6c-0.4-0.2-8.7-3.9-8.7-6.3
		c0-1.8,3.9-8.2,4.3-8.9c0.1-0.2,0.4-0.3,0.7-0.2l5.2,2.7c0.9,0.7,1.8,1.5,2.5,2.4c0.2,0.3,2.4,1.7,4.6,3c4.5,2.8,10.2,6.4,11.6,8.2
		c0.5,0.7,0.7,1.2,0.4,1.7S393.2,411.5,391.8,411.5z M370,393.8c-1.6,2.7-4,6.9-4,8s4.3,3.7,8.1,5.4c2,0.9,5.5,1.7,10.5,2.5l0.9,0.1
		c1.8,0.3,7.4,1.2,7.9,0.4c0,0,0-0.2-0.3-0.6c-1.4-1.7-7.1-5.3-11.4-8c-3.4-2.1-4.6-2.9-4.9-3.3c-0.7-0.8-1.4-1.5-2.2-2.1L370,393.8
		z"/>
	<path class="st4" d="M376.5,404.1l1.5,2.2c1.6,2.4,3.8,4.5,6.4,5.9c4,2.2,10.2,4.6,15.5,3.1c8.8-2.4-13.4-15.8-13.4-15.8
		S378.7,405,376.5,404.1z"/>
	<path class="st5" d="M396.5,416.3c-4.4,0-9-1.9-12.3-3.7c-2.6-1.4-4.9-3.5-6.6-6l-1.5-2.2c-0.1-0.2-0.1-0.4,0-0.6
		c0.1-0.2,0.4-0.2,0.6-0.1c1.3,0.6,6.4-2.3,9.5-4.5c0.2-0.1,0.4-0.1,0.5,0c1.7,1,16.3,10,15.7,14.6c-0.1,1-1,1.8-2.4,2.2
		C398.9,416.1,397.7,416.3,396.5,416.3z M377.5,404.6l0.9,1.4c1.6,2.4,3.7,4.3,6.2,5.7c4.1,2.2,10,4.5,15.2,3.1
		c1.6-0.4,1.7-1.1,1.7-1.3c0.5-3.3-10.4-10.6-14.9-13.4C385,401.2,380.2,404.3,377.5,404.6L377.5,404.6z"/>
	<path class="st4" d="M379.1,405.1c2.4,3.7,6.1,6.3,10.4,7.5c7.2,2.1,9.3,1.5,10.9-0.5"/>
	<path class="st5" d="M396.4,414.5c-2.4-0.1-4.8-0.6-7-1.3c-4.4-1.2-8.2-3.9-10.7-7.7c-0.1-0.2-0.1-0.5,0.2-0.7c0,0,0,0,0,0
		c0.2-0.1,0.5-0.1,0.7,0.2c2.4,3.5,5.9,6.1,10.1,7.3c7.1,2,9,1.5,10.3-0.3c0.2-0.2,0.5-0.3,0.7-0.1c0.2,0.2,0.3,0.5,0.1,0.7l0,0
		C399.7,413.8,398.1,414.6,396.4,414.5z"/>
	<path class="st4" d="M366.1,400.5c0,0,8,5.7,11.9,5.8"/>
	<path class="st5" d="M378,406.8L378,406.8c-4-0.1-11.9-5.7-12.2-5.9c-0.2-0.2-0.3-0.5-0.1-0.7c0.2-0.2,0.5-0.3,0.7-0.1c0,0,0,0,0,0
		c0.1,0.1,7.9,5.6,11.6,5.8c0.3,0,0.5,0.2,0.5,0.5C378.5,406.6,378.3,406.8,378,406.8C378,406.8,378,406.8,378,406.8z"/>
	<path class="st5" d="M348.8,244.8c0,0,7.1,11.8,8.6,14.5s20.7,24.6,28.3,43.5s14.9,35.9,14.6,41.4S375,395.9,375,395.9l-5.2-2.7
		c0,0,7.9-43.5,7-48.1S348,295.2,348,295.2s-13.1-9.1-18.5-19.8"/>
	<path class="st5" d="M349.8,274.2c0,0-4,8.5-4,9.7s22.2,66.6,28.6,81.5c4,9.5,7.6,19.3,10.6,29.2c0,0,2.4,3,0.6,6.1
		s-9.1,5.2-10.6,2.4s-16.4-17-22.8-31.3s-15.5-38.6-20.7-47.8c-6.8-11.7-12.9-23.8-18.2-36.2c-6.7-15.8-13.6-32.9-13.6-32.9
		c9,0.8,18.1-0.3,26.8-3c14-4.6,20-13.3,20-13.3s3.6,9.1,4.5,10.9"/>
	<path class="st4" d="M351.9,299.9c-0.1,0-0.3-0.1-0.3-0.2l-7-18.2c0-0.1,0-0.3,0.1-0.4l7.8-6.7c0.1-0.1,0.4-0.1,0.5,0
		c0.1,0.1,0.1,0.3,0,0.5l-7.7,6.6l6.9,18c0.1,0.2,0,0.4-0.2,0.5L351.9,299.9z"/>
	<path class="st4" d="M344.9,281.7c-0.1,0-0.2,0-0.2-0.1c-0.1-0.1-0.1-0.2-0.1-0.2c0,0,0-5.5-2.5-9c-0.6-0.9-1.1-1.6-1.5-2.2
		c-1.3-1.8-1.7-2.4-1.9-3.3c-0.2-1.1-0.2-2.1,0-3.2c0-0.2,0.2-0.3,0.4-0.3c0.2,0,0.3,0.2,0.3,0.4c0,0,0,0,0,0c-0.1,1-0.1,2,0,3
		c0.2,0.8,0.5,1.3,1.8,3c0.4,0.6,0.9,1.3,1.5,2.2c2.2,3.2,2.5,7.8,2.6,9.1l14.2-0.5c0.2,0,0.3,0.1,0.4,0.3c0,0.2-0.1,0.3-0.3,0.3
		c0,0,0,0,0,0L344.9,281.7L344.9,281.7z"/>
	<path class="st4" d="M392.5,346.4c-6.3,0-14.4-4.1-14.7-4.3c-0.2-0.1-0.2-0.3-0.1-0.5c0.1-0.2,0.3-0.2,0.5-0.2c0,0,0,0,0,0
		c0.1,0,9.2,4.7,15.5,4.2c0.2,0,0.4,0.1,0.4,0.3c0,0,0,0,0,0c0,0.2-0.1,0.4-0.3,0.4c0,0,0,0,0,0
		C393.2,346.4,392.9,346.4,392.5,346.4z"/>
	<path class="st4" d="M391.6,351.7L391.6,351.7c-5.7-1.4-12-6.6-12.3-6.8c-0.1-0.1-0.1-0.3,0-0.5c0.1-0.1,0.3-0.2,0.5-0.1
		c0,0,0,0,0,0c0.1,0,6.5,5.3,11.9,6.6c0.2,0,0.3,0.2,0.2,0.4c0,0,0,0,0,0C392,351.6,391.8,351.7,391.6,351.7z"/>
	<path class="st4" d="M344.6,276.4c-0.1,0-0.2-0.1-0.3-0.1c-0.1-0.2-0.1-0.4,0.1-0.5c0,0,0,0,0,0c1.4-0.9,3.5-2.8,3.5-3.6
		c0-0.6-0.7-1.3-1.5-2c-0.9-0.7-1.6-1.6-2.1-2.6c-0.5-1.2-2.3-5.9-2-7c0.1-0.2,0.2-0.3,0.4-0.2c0,0,0,0,0,0c0.2,0.1,0.3,0.3,0.2,0.4
		c-0.2,0.6,0.9,4,2,6.5c0.5,0.9,1.1,1.7,1.9,2.4c0.9,0.9,1.7,1.6,1.7,2.5c0,1.5-3.4,3.9-3.8,4.2
		C344.7,276.3,344.6,276.3,344.6,276.4z"/>
	<path class="st4" d="M311.2,278.3c-0.2,0-0.3-0.1-0.4-0.3c0-0.1,0-0.2,0.1-0.3l2.8-2.2c2.7-2.1,4.4-7.6,4.4-7.7
		c0.1-0.2,0.2-0.3,0.4-0.2c0.2,0.1,0.3,0.2,0.2,0.4c-0.1,0.2-1.8,5.7-4.6,8l-2.8,2.2C311.4,278.3,311.3,278.3,311.2,278.3z"/>
	<path class="st4" d="M377.7,404.5c-0.1,0-0.2-0.1-0.3-0.1c-3.6-4.4-6.8-9-9.7-13.9c-3.9-6.9-15-25.9-15.1-26
		c-1-2.3-1.8-4.7-2.3-7.1c-0.1-0.4-0.1-0.7-0.2-1c-0.4-2.5-0.5-3.6-3.9-5.7s-3.6-5.9-3.8-10c-0.1-1-0.1-1.9-0.2-2.9
		c-0.5-4-11.1-22-18.8-35.1c-1.8-3-3.4-5.7-4.7-7.9c-6.9-11.9-11.7-27.6-11.8-27.8c-0.1-0.2,0-0.4,0.2-0.4c0.2-0.1,0.4,0,0.4,0.2
		c0,0,0,0,0,0c0,0.2,4.8,15.8,11.7,27.6c1.3,2.2,2.9,4.9,4.7,7.9c7.8,13.1,18.5,31.2,18.9,35.4c0.1,1,0.2,2,0.2,2.9
		c0.3,4,0.5,7.5,3.5,9.4c3.6,2.3,3.8,3.5,4.2,6.2c0,0.3,0.1,0.7,0.2,1c0.5,2.4,1.2,4.7,2.2,6.9c0.1,0.2,11.2,19.1,15.1,26
		c2.8,4.9,6,9.5,9.6,13.8c0.1,0.1,0.1,0.4,0,0.5c0,0,0,0,0,0C377.9,404.5,377.8,404.5,377.7,404.5z"/>
	<path class="st4" d="M299.7,254.9c0,0,0.6,7.1,3.4,9.3s11.2,4.2,22.7,2s24.1-12,25.2-15.4s-4.6-12.2-4.6-12.2s-6.6,9.4-25.1,12.5
		S299.7,254.9,299.7,254.9z"/>
	<path class="st5" d="M316.1,267.7c-6.8,0-11.4-1.6-13.3-3.1c-2.9-2.4-3.6-9.4-3.6-9.7c0-0.2,0.1-0.5,0.4-0.5
		c0.1,0,3.4-0.8,21.7-3.9c18-3,24.7-12.2,24.8-12.3c0.1-0.1,0.2-0.2,0.4-0.2l0,0c0.2,0,0.3,0.1,0.4,0.2c0.6,0.9,5.8,9.1,4.6,12.6
		c-1.2,3.7-14.1,13.5-25.6,15.7C322.7,267.3,319.4,267.7,316.1,267.7z M300.2,255.3c0.2,1.5,1,6.8,3.2,8.5c2.5,2,10.5,4.2,22.3,1.9
		c11.6-2.3,23.8-12.1,24.8-15.1c0.8-2.4-2.4-8.4-4.2-11.2c-1.8,2.1-8.9,9.4-25,12.1C306.6,254.1,301.6,255,300.2,255.3L300.2,255.3z
		"/>
	<path class="st4" d="M373.5,186.3c-4.6-3-40.1-30.7-43.5-31.9s-10,0-10,0s-20.6,2.5-24.9,4.3c-0.4,0.2-9.7,5.5-10,5.8
		c-3.4,2.7-18,9.5-21.9,18c-4.5,9.6,34.8,67.7,36.6,72.5s11.4,6.1,20.2,4.8s16.6-3,23-10.3c1.2-1.5,2.1-3.1,2.9-4.8
		c0.9-1.9,1.1-4.1,0.7-6.1c-2.3-9.5-8.1-36.9-11.9-55c6.4,4.1,19.7,12.5,27.5,15.5c10.3,4,18.2,1.2,18.2-2.1
		S378.1,189.3,373.5,186.3z"/>
	<path class="st2" d="M361.1,192.2c-6.1-0.6-12-2.5-17.3-5.5c0,0,7.9-3.6,8.2-5.5s-11-0.3-9.4-0.9s3.6-2.1,0-2.1
		c-2.9-0.2-5.8-0.8-8.5-1.8l0.4,7.2c3.5,2.2,9,5.7,14.5,8.9c5.2,2.7,10.6,5.2,16.1,7.3C365.1,199.8,371.8,193.4,361.1,192.2z"/>
	<path class="st2" d="M319.9,259.8l1.1-0.2c2.4-1.2,6.6-1.9,10.6-2.9c6.1-1.5-0.6-1.5-10.6-6.7s-14-12.8-23.1-23.7
		s-12.8-16.4-10.9-17.6s-3.6-1.2-5.8-2.4s3-1.2,7.3-5.5s-8.2,0.9-9.4,0.6s1.2-4.3,1.2-4.3l-8.8,9.1l21.3,36.5l1.2,0.9l1.4,2l4,8.6
		c0.2,0.3,0.3,0.6,0.3,0.7C301.5,259.8,311.1,261,319.9,259.8z"/>
	<path class="st2" d="M279.6,174.7c6.7-1,25.5,9.7,25.5,9.7c-10.3-7-19.3-13.6-25.5-16.5l-11.4,8l-0.8,0.7
		C268.8,176.4,273.8,175.6,279.6,174.7z"/>
	<path class="st3" d="M361.1,192.2c-6.1-0.6-12-2.5-17.3-5.5c0,0,7.9-3.6,8.2-5.5s-11-0.3-9.4-0.9s3.6-2.1,0-2.1
		c-2.9-0.2-5.8-0.8-8.5-1.8l0.4,7.2c3.5,2.2,9,5.7,14.5,8.9c5.2,2.7,10.6,5.2,16.1,7.3C365.1,199.8,371.8,193.4,361.1,192.2z"/>
	<path class="st3" d="M319.9,259.8l1.1-0.2c2.4-1.2,6.6-1.9,10.6-2.9c6.1-1.5-0.6-1.5-10.6-6.7s-14-12.8-23.1-23.7
		s-12.8-16.4-10.9-17.6s-3.6-1.2-5.8-2.4s3-1.2,7.3-5.5s-8.2,0.9-9.4,0.6s1.2-4.3,1.2-4.3l-8.8,9.1l21.3,36.5l1.2,0.9l1.4,2l4,8.6
		c0.2,0.3,0.3,0.6,0.3,0.7C301.5,259.8,311.1,261,319.9,259.8z"/>
	<path class="st3" d="M279.6,174.7c6.7-1,25.5,9.7,25.5,9.7c-10.3-7-19.3-13.6-25.5-16.5l-11.4,8l-0.8,0.7
		C268.8,176.4,273.8,175.6,279.6,174.7z"/>
	<path class="st5" d="M313.5,260.7c-6.7,0-12.8-1.6-14.3-5.6c-0.4-1.2-3.4-6-7.1-12.1c-15.9-25.8-32.7-54-29.5-60.9
		c3-6.5,11.9-11.8,17.7-15.4c1.5-0.8,2.9-1.8,4.3-2.8c0.4-0.3,9.7-5.6,10.2-5.9c4.3-1.8,24.2-4.2,25.1-4.3c0.2-0.1,6.8-1.2,10.3,0
		c2.2,0.8,17.4,12.3,29.6,21.6c6.6,5,12.3,9.3,14,10.4c5.1,3.4,6.9,7.9,6.9,11.1c-0.1,1.2-0.7,2.2-1.8,2.8c-3,2-9.4,2.8-17.2-0.2
		c-5.4-2.1-14.6-7.2-26.5-14.9c4,19.1,9.5,44.7,11.7,53.8c0.5,2.2,0.3,4.4-0.7,6.4c-0.8,1.7-1.8,3.4-3,4.9
		c-6.7,7.6-14.8,9.3-23.2,10.5C317.8,260.5,315.7,260.7,313.5,260.7z M325.9,154.3c-2,0-3.9,0.2-5.9,0.5c-0.2,0-20.6,2.5-24.9,4.2
		c-0.5,0.2-9.5,5.4-9.9,5.7c-1.4,1-2.9,2-4.5,2.9c-5.8,3.5-14.5,8.7-17.3,15c-3.2,7,18,41.4,29.4,59.9c4.1,6.6,6.8,11,7.2,12.2
		c1.8,4.7,11.5,5.6,19.7,4.5s16.2-2.8,22.6-10.1c1.1-1.4,2.1-3,2.8-4.6c0.9-1.8,1.1-3.8,0.6-5.8c-2.2-9.3-7.9-35.9-11.9-55
		c0-0.2,0-0.4,0.2-0.5c0.2-0.1,0.4-0.1,0.5,0c12.4,8,21.8,13.3,27.4,15.4c7.4,2.8,13.6,2.2,16.2,0.3c0.7-0.4,1.2-1.2,1.3-2
		c0-2.9-1.7-7.1-6.5-10.2c-1.6-1.1-7.4-5.4-14-10.4c-11.5-8.7-27.3-20.7-29.4-21.4C328.6,154.5,327.3,154.3,325.9,154.3z"/>
	<path class="st4" d="M267.9,176.2c0,0-3.6,4-5.1,5.9c-7.6,9.8-31.9,41.2-32.1,43.7s0.9,4.2,6.8,6.5s45.6-37.5,45.6-37.5"/>
	<path class="st8" d="M268,176.3l-0.5,0.3c-0.7,0.8-2.3,2.6-3.6,4.1l-18.4,24.2c0,0-0.6,0.6-1.5,1.7c-6.9,9.2-12.9,17.5-13.3,19
		c0,0.1,0,0.1,0,0.1c-0.2,2.4,0.9,4.2,6.8,6.5c1.1,0.4,3.1-0.5,5.9-2.2c-1.4-0.3-2.7-0.8-3.9-1.6c-3.4-2.1-0.6-4.3-0.6-4.3
		s4.4,1.7,8.6,2.9c0.9-0.7,1.8-1.4,2.8-2.1c-0.9-0.6-1.8-1.3-2.6-2c-3.6-3.3-6.7-6.7-6.7-6.7l27.9-38.9L268,176.3z"/>
	<path class="st3" d="M268,176.3l-0.5,0.3c-0.7,0.8-2.3,2.6-3.6,4.1l-18.4,24.2c0,0-0.6,0.6-1.5,1.7c-6.9,9.2-12.9,17.5-13.3,19
		c0,0.1,0,0.1,0,0.1c-0.2,2.4,0.9,4.2,6.8,6.5c1.1,0.4,3.1-0.5,5.9-2.2c-1.4-0.3-2.7-0.8-3.9-1.6c-3.4-2.1-0.6-4.3-0.6-4.3
		s4.4,1.7,8.6,2.9c0.9-0.7,1.8-1.4,2.8-2.1c-0.9-0.6-1.8-1.3-2.6-2c-3.6-3.3-6.7-6.7-6.7-6.7l27.9-38.9L268,176.3z"/>
	<path class="st5" d="M238,232.8c-0.2,0-0.4,0-0.7-0.1c-5.5-2.1-7.5-4-7.1-7c0.3-2.5,20.3-28.6,32.2-43.9c1.4-1.8,5-5.7,5.1-5.9
		c0.2-0.2,0.5-0.2,0.7-0.1c0.2,0.2,0.2,0.5,0.1,0.7c0,0,0,0,0,0c0,0-3.7,4-5,5.8c-19.3,24.8-31.8,41.8-32,43.4
		c-0.2,2.1,0.8,3.8,6.5,6c4.1,1.6,29.2-21.5,45.1-37.4c0.2-0.2,0.5-0.2,0.7,0c0.2,0.2,0.2,0.5,0,0.7
		C279.5,199.1,245.7,232.8,238,232.8z"/>
	<path class="st4" d="M348.2,174.4l-13.7,9.2c2-0.3,11.5-3.6,11.5-3.6"/>
	<path class="st5" d="M334.5,184.1c-0.2,0-0.4-0.1-0.5-0.3c-0.1-0.2,0-0.5,0.2-0.6l13.7-9.2c0.2-0.2,0.5-0.1,0.7,0.1c0,0,0,0,0,0
		c0.2,0.2,0.1,0.5-0.1,0.7l-11.2,7.6c3.5-1.1,8.5-2.8,8.6-2.9c0.3-0.1,0.6,0.1,0.7,0.3c0.1,0.3-0.1,0.6-0.3,0.7l0,0
		C345.7,180.6,336.5,183.9,334.5,184.1L334.5,184.1z"/>
	<line class="st9" x1="347.6" y1="179.7" x2="350.7" y2="179.1"/>
	<path class="st5" d="M347.6,180.2c-0.2,0-0.4-0.2-0.5-0.4c0-0.3,0.1-0.5,0.4-0.6l3.1-0.6c0.3,0,0.5,0.1,0.6,0.4
		c0.1,0.3-0.1,0.5-0.4,0.6c0,0,0,0,0,0L347.6,180.2L347.6,180.2z"/>
	<path class="st4" d="M246,216c-2.1-0.1-4.2,0.3-6.2,1.2"/>
	<path class="st5" d="M239.8,217.7c-0.3,0.1-0.5-0.1-0.6-0.4s0.1-0.5,0.4-0.6c2-0.9,4.2-1.3,6.4-1.2c0.3,0,0.5,0.3,0.5,0.5
		c0,0,0,0,0,0c0,0.3-0.3,0.5-0.5,0.5c-2-0.1-4.1,0.3-5.9,1.1C240,217.7,239.9,217.7,239.8,217.7z"/>
	<path class="st4" d="M275.9,202.3c0,0,7.7-2.4,9.8-3.9"/>
	<path class="st5" d="M275.9,202.8c-0.3,0-0.5-0.2-0.6-0.4s0.2-0.5,0.4-0.6c0.1,0,7.6-2.3,9.6-3.8c0.2-0.2,0.5-0.1,0.7,0.1
		c0.2,0.2,0.1,0.5-0.1,0.7c-2.1,1.6-9.6,3.9-9.9,4C276,202.8,276,202.8,275.9,202.8z"/>
	<path class="st4" d="M287.5,197.6c0,0,1.3-1.1,1.7-1.1"/>
	<path class="st5" d="M287.5,198.1c-0.1,0-0.3-0.1-0.4-0.2c-0.2-0.2-0.2-0.5,0-0.7c0.6-0.6,1.3-1,2.1-1.2c0.3,0,0.5,0.2,0.5,0.5
		c0,0.3-0.2,0.5-0.5,0.5c-0.5,0.3-1,0.6-1.4,1C287.7,198,287.6,198.1,287.5,198.1z"/>
	<line class="st9" x1="334.5" y1="183.6" x2="333.2" y2="170.7"/>
	<path class="st5" d="M334.5,184.1c-0.3,0-0.5-0.2-0.5-0.4l-1.2-12.9c0-0.3,0.2-0.5,0.4-0.6c0.3,0,0.5,0.2,0.6,0.4l1.3,12.9
		C335,183.8,334.8,184.1,334.5,184.1C334.6,184.1,334.6,184.1,334.5,184.1L334.5,184.1z"/>
	<path class="st4" d="M230.7,225.8c0,0-1.8,6.8,9.6,9.6c5.4,1.3,41.1,10,41.1,10s3.2-6.8,1.4-6.8S248,216.7,248,216.7"/>
	<path class="st2" d="M236,233.9l41.4,10.6l1.1-2.6c0,0-15.6-3.1-25.3-8s-10.4-3.4-13.7-5.5s-0.6-4.3-0.6-4.3s9.1,3.6,14,3.9
		c4.9,0.3-1.5-1.8-5.2-5.2c-1.5-1.4-2.9-2.8-4-3.9l-13,6.8C230.7,225.8,229.4,230.7,236,233.9z"/>
	<path class="st3" d="M236,233.9l41.4,10.6l1.1-2.6c0,0-15.6-3.1-25.3-8s-10.4-3.4-13.7-5.5s-0.6-4.3-0.6-4.3s9.1,3.6,14,3.9
		c4.9,0.3-1.5-1.8-5.2-5.2c-1.5-1.4-2.9-2.8-4-3.9l-13,6.8C230.7,225.8,229.4,230.7,236,233.9z"/>
	<path class="st5" d="M281.3,246h-0.1c0,0-35.7-8.7-41.1-10c-4.5-1.1-7.6-3-9.1-5.5c-0.9-1.4-1.2-3.1-0.9-4.7
		c0.1-0.3,0.3-0.4,0.6-0.4c0.3,0.1,0.4,0.3,0.4,0.6l0,0c-0.2,1.4,0.1,2.8,0.8,3.9c1.4,2.3,4.2,4,8.4,5c5,1.2,36.7,9,40.7,9.9
		c1.2-2.7,2-5.4,1.6-5.8l0,0c-1.9,0-29.4-18.3-34.9-22c-0.2-0.2-0.3-0.5-0.1-0.7c0.1-0.2,0.5-0.3,0.7-0.1c0,0,0,0,0,0
		c13,8.6,32.8,21.6,34.4,21.8l0,0c0.3,0,0.6,0.2,0.8,0.4c0.8,1.3-1.1,5.8-1.8,7.1C281.7,245.9,281.5,246,281.3,246z"/>
	<path class="st4" d="M282.7,238.6c0,0,11.7,5.5,12.6,7s3,9.4,3,11.9s-0.3,2.4-1.8,2.4s-5.5-5.8-6.4-7s-3-1.2-5.8-3
		c-1.6-1-2.7-2.6-3-4.4L282.7,238.6z"/>
	<path class="st5" d="M296.5,260.4c-1.3,0-3.5-2.6-6.3-6.5c-0.2-0.3-0.4-0.5-0.5-0.7c-0.6-0.6-1.3-1-2.1-1.2c-1.3-0.4-2.5-1-3.6-1.8
		c-1.7-1.1-2.9-2.8-3.3-4.8c0,0,0-0.1,0-0.1l1.4-6.9c0-0.1,0.1-0.3,0.3-0.4c0.1-0.1,0.3-0.1,0.4,0c2,0.9,11.9,5.6,12.8,7.2
		s3.1,9.6,3.1,12.1C298.9,260,298.4,260.4,296.5,260.4z M281.8,245.5c0.4,1.7,1.4,3.1,2.8,4c1.1,0.7,2.2,1.2,3.4,1.7
		c1,0.3,1.8,0.8,2.5,1.5c0.1,0.1,0.3,0.4,0.5,0.7c3.7,5.1,5,6.1,5.5,6.1c1.3,0,1.3,0,1.3-1.9c0-2.4-2.1-10.1-3-11.6
		c-0.6-1-7.3-4.4-11.8-6.5L281.8,245.5z"/>
	<line class="st9" x1="277.7" y1="244.3" x2="279.5" y2="238.6"/>
	<path class="st5" d="M277.7,244.8c0,0-0.1,0-0.1,0c-0.3-0.1-0.4-0.4-0.3-0.6c0,0,0,0,0,0l1.8-5.6c0.1-0.3,0.4-0.4,0.6-0.3
		c0.3,0.1,0.4,0.4,0.3,0.6c0,0,0,0,0,0l-1.8,5.6C278.1,244.7,277.9,244.8,277.7,244.8z"/>
	<path class="st4" d="M366.5,196c0,0-3,10.3-4.3,16.4s-9.7,30.4-9.7,30.4l7.3,4.6c0,0,16.1-33.4,19.2-40.7s2.1-12.8-0.9-15.8"/>
	<path class="st5" d="M359.8,247.9c-0.1,0-0.2,0-0.3-0.1l-7.3-4.6c-0.2-0.1-0.3-0.4-0.2-0.6c0.1-0.2,8.5-24.4,9.7-30.3
		s4.2-16.4,4.2-16.5c0.1-0.3,0.4-0.4,0.6-0.4c0.3,0.1,0.4,0.4,0.4,0.6c0,0.1-3,10.4-4.2,16.4c-1.1,5.7-8.5,26.9-9.6,30.1l6.5,4.1
		c2-4.2,16.1-33.5,18.9-40.2c2.7-6.5,2.4-12-0.8-15.3c-0.2-0.2-0.2-0.5,0-0.7c0.2-0.2,0.5-0.2,0.7,0c3.5,3.5,3.9,9.5,1,16.4
		c-3,7.2-19,40.4-19.2,40.8c-0.1,0.1-0.2,0.2-0.3,0.3L359.8,247.9z"/>
	<path class="st5" d="M353.9,239.4c0.5,0,7.5,3.8,7.5,3.8"/>
	<path class="st4" d="M305.9,184.4c-1.7-0.3-10.6-6.2-16.8-10.9s-9.5-5.6-9.5-5.6l-4.2,2.8c-0.6-2-0.4-4.3,0.6-6.2
		c1.7-3.1,7.6-6.2,13.4-8.4s12.6-4.1,16.8-4.1s5.3,1.7,5.3,3.9s0,9.2-1.4,14.6S305.9,184.4,305.9,184.4z"/>
	<path class="st2" d="M303.3,155.2c0,0-2.6,7.8-5.2,10.1c-2,1.7-4.2,3.1-6.5,4.4c0,0-1.5-5.4-5.4-5.4s-9.8,2.6-9.8,2.6
		s0-2.1,4.9-4.7l4.9-2.6l11.4-4.4H303.3z"/>
	<path class="st3" d="M303.3,155.2c0,0-2.6,7.8-5.2,10.1c-2,1.7-4.2,3.1-6.5,4.4c0,0-1.5-5.4-5.4-5.4s-9.8,2.6-9.8,2.6
		s0-2.1,4.9-4.7l4.9-2.6l11.4-4.4H303.3z"/>
	<path class="st5" d="M305.9,184.9L305.9,184.9c-1.9-0.3-11.2-6.4-17.1-11c-5.1-4-8.3-5.2-9.1-5.4l-4,2.7c-0.1,0.1-0.3,0.1-0.4,0.1
		c-0.1-0.1-0.3-0.2-0.3-0.3c-0.7-2.2-0.5-4.5,0.6-6.6c2-3.7,9.5-7,13.7-8.6c3.3-1.3,11.7-4.2,17-4.2c3.9,0,5.8,1.4,5.8,4.4
		c0,2.3,0,9.3-1.4,14.7s-4.2,13.9-4.2,14C306.4,184.8,306.2,184.9,305.9,184.9z M279.6,167.4h0.1c0.1,0,3.5,0.9,9.7,5.7
		c5.8,4.5,13.9,9.8,16.2,10.7c0.6-1.9,2.9-9,4-13.5c1.4-5.2,1.4-12.2,1.4-14.4c0-1.7-0.6-3.4-4.8-3.4c-3.6,0-9.7,1.5-16.6,4.2
		s-11.8,5.6-13.2,8.2c-0.8,1.6-1.1,3.4-0.7,5.1l3.6-2.4C279.4,167.4,279.5,167.4,279.6,167.4z"/>
	<path class="st4" d="M281,148.9c3.3,3.6,5.6,8,6.7,12.8c1.8,7.9,13.3,17.2,16,17.2s2.5-13.6,1.6-17.5s-4.6-14.6-4.6-14.6
		S286.2,139.8,281,148.9z"/>
	<path class="st5" d="M303.7,179.4c-2.9,0-14.6-9.6-16.5-17.6c-1.1-4.7-3.4-9-6.6-12.5c-0.2-0.2-0.2-0.4-0.1-0.6
		c5.3-9.4,20.3-2.4,20.4-2.3c0.1,0.1,0.2,0.2,0.3,0.3c0.1,0.4,3.7,10.7,4.6,14.6c0.8,3.5,1.2,14.8-0.9,17.5
		C304.6,179.1,304.2,179.4,303.7,179.4z M281.7,148.8c3.2,3.6,5.5,8,6.5,12.7c1.8,7.9,13.2,16.8,15.5,16.8c0,0,0.2,0,0.4-0.3
		c1.7-2.1,1.6-13,0.8-16.6s-4-12.9-4.5-14.4C298.7,146.4,286.4,141.2,281.7,148.8L281.7,148.8z"/>
	<path class="st4" d="M271.4,134.2c2.1,5.8,4.8,11.5,7.9,16.8c4.6,7.6,13.5,11.9,18.5,9.9s8.3-8.4,7-18.3c-0.3-2.2-2.2-3.1-2.8-5
		c-2.2-7-4.4-13.8-5.2-16.3c-1-3.3-8.9-6.6-17.2-4.3S270.1,126.3,271.4,134.2z"/>
	<path class="st2" d="M298.8,128.2c0,0-3,2.2-9.7,0.9s-11.4-1-11.1,0.8s0.8,4.1,0.8,4.1s-8.1-7-0.8-8.9c5.3-1.4,8.3,0.7,9.6,1
		S298.8,128.2,298.8,128.2z"/>
	<path class="st3" d="M298.8,128.2c0,0-3,2.2-9.7,0.9s-11.4-1-11.1,0.8s0.8,4.1,0.8,4.1s-8.1-7-0.8-8.9c5.3-1.4,8.3,0.7,9.6,1
		S298.8,128.2,298.8,128.2z"/>
	<path class="st5" d="M295,162c-5.4,0-12.4-4.4-16.2-10.6c-3.2-5.4-5.8-11.1-8-16.9c0,0,0-0.1,0-0.1c-1.6-9.8,1.2-15.7,8.6-17.7
		c8.6-2.4,16.7,1.1,17.8,4.6c0.4,1.2,1,3.3,1.9,6c1,3,2.1,6.6,3.3,10.4c0.3,0.7,0.7,1.4,1.3,2c0.8,0.8,1.4,1.9,1.6,3.1
		c1.5,11.1-2.8,17-7.3,18.8C297.1,161.8,296.1,162,295,162z M271.9,134.1c2.1,5.8,4.8,11.4,7.9,16.7c4.6,7.6,13.4,11.5,17.9,9.7
		c4.1-1.7,8.1-7.2,6.7-17.7c-0.2-1-0.6-1.9-1.3-2.6c-0.6-0.7-1.1-1.5-1.4-2.4c-1.2-3.7-2.3-7.4-3.3-10.3c-0.9-2.6-1.5-4.8-1.9-6
		c-0.8-2.8-8.2-6.3-16.6-4C272.9,119.4,270.4,124.9,271.9,134.1z"/>
	<path class="st4" d="M277.3,145.1c0,0-5.3-2.3-5.6,0s2,4,4.3,5c1.2,0.6,2.6,0.5,3.6-0.3"/>
	<path class="st5" d="M277.7,151c-0.6,0-1.3-0.1-1.9-0.4c-3.3-1.4-4.9-3.4-4.6-5.5c0.1-0.5,0.3-0.9,0.8-1.2c1.6-0.9,5.1,0.6,5.5,0.8
		c0.2,0.1,0.3,0.4,0.2,0.7c-0.1,0.2-0.4,0.3-0.6,0.2c-1.3-0.6-3.8-1.3-4.6-0.8c-0.2,0.1-0.3,0.3-0.3,0.4c-0.3,2.2,2.4,3.7,4,4.4
		c1,0.5,2.2,0.5,3.1-0.2c0.2-0.2,0.5-0.2,0.7,0.1c0.2,0.2,0.2,0.5,0,0.7C279.4,150.7,278.5,151,277.7,151z"/>
	<path class="st4" d="M298.9,132.1c0,0-5.9-1.4-3.4,6.4c0.5,1.6,3.9,3.4,3.9,3.4s-0.3,2.5-1.7,2.8"/>
	<path class="st5" d="M297.8,145.2c-0.2,0-0.4-0.2-0.5-0.4c-0.1-0.3,0.1-0.5,0.4-0.6c0,0,0,0,0,0c0.7-0.1,1.1-1.3,1.2-2
		c-0.9-0.5-3.4-2-3.9-3.5c-0.9-2.9-0.9-5,0.2-6.2c1.3-1.4,3.6-0.9,3.7-0.9c0.3,0.1,0.4,0.3,0.4,0.6c-0.1,0.3-0.3,0.4-0.6,0.4
		c0,0,0,0,0,0c0,0-1.8-0.4-2.8,0.6s-0.8,2.7,0,5.2c0.3,1,2.4,2.4,3.7,3.1c0.2,0.1,0.3,0.3,0.3,0.5c0,0.3-0.4,2.9-2.1,3.2
		L297.8,145.2z"/>
	<path class="st4" d="M294.7,150.3c0,0-4.2,0.8-5.9-1.1"/>
	<path class="st5" d="M292.7,151c-1.6,0.1-3.1-0.4-4.2-1.5c-0.2-0.2-0.2-0.5,0.1-0.7c0.2-0.2,0.5-0.2,0.7,0.1c1.5,1.7,5.4,1,5.4,1
		c0.3-0.1,0.5,0.1,0.6,0.4c0,0,0,0,0,0c0.1,0.3-0.1,0.5-0.4,0.6c0,0,0,0,0,0C294.1,151,293.4,151,292.7,151z"/>
	<path class="st4" d="M288.6,137.1c0,0-3.1-1.1-4.8,0.3c-0.9,0.6-1.6,1.5-2,2.5"/>
	<path class="st5" d="M281.8,140.4h-0.1c-0.3-0.1-0.4-0.3-0.4-0.6c0,0,0,0,0,0c0.4-1.1,1.2-2.1,2.1-2.8c1.9-1.6,5.1-0.4,5.2-0.4
		c0.3,0.1,0.4,0.4,0.3,0.6c0,0,0,0,0,0c-0.1,0.3-0.4,0.4-0.6,0.3c0,0-2.8-1-4.3,0.2c-0.8,0.6-1.4,1.4-1.8,2.3
		C282.3,140.3,282.1,140.4,281.8,140.4z"/>
	<path class="st5" d="M288.5,141.9c0.4,0.9,0.3,1.9-0.2,2.1s-1.2-0.4-1.6-1.3s-0.3-1.8,0.2-2.1S288.1,141,288.5,141.9z"/>
	<path class="st5" d="M298.5,137c0.4,0.9,0.3,1.8-0.2,2.1s-1.2-0.4-1.6-1.3s-0.3-1.9,0.2-2.1S298.1,136.1,298.5,137z"/>
	<path class="st5" d="M275.9,146.4c0,0,3.3-2.4,2.7-4.6s-1.8-2.1-0.6-3.3s2.1-1.8,1.8-3.6s-5.2-4.9-3.6-6.7s0.9-4,13.4-0.9
		s20.4-1.8,16.7-6.4s-6.7-5.2-6.7-5.2s7-3,1.2-6.1s-18.9-3-26.2,2.7s-5.8,10.6-5.8,10.6s-4,0.6-4.3,6.7S275.9,146.4,275.9,146.4z"/>
	<path class="st4" d="M295.8,126.1c-2.7-0.1-5.3-0.7-7.7-1.7c-1.9-0.8-4-1.3-6.1-1.4c-4.8,0-5.8,2.7-5.9,2.9
		c-0.1,0.2-0.2,0.3-0.4,0.2c0,0,0,0,0,0c-0.2-0.1-0.3-0.2-0.2-0.4c0,0,0,0,0,0c0-0.1,1.2-3.3,6.5-3.3c2.2,0.1,4.3,0.6,6.3,1.5
		c3.1,1.1,6.3,2.3,10.4,1.4c2.2-0.5,3.5-1.3,3.8-2.3c0.4-1.3-0.9-2.8-0.9-2.8c-0.1-0.1-0.1-0.3,0-0.5c0.1-0.1,0.4-0.1,0.5,0
		c0.1,0.1,1.6,1.7,1,3.4c-0.4,1.3-1.9,2.2-4.3,2.8C297.8,126,296.8,126.1,295.8,126.1z"/>
	<path class="st4" d="M273.5,125.2L273.5,125.2c-0.2,0-0.3-0.2-0.3-0.4c0-0.1,0.6-6.7,6.4-8.2c3.5-0.9,7.4-0.2,10.6,0.3
		c2,0.3,3.8,0.6,4.5,0.3c0.2,0,0.4,0.1,0.4,0.3c0,0.2,0,0.3-0.2,0.4c-0.9,0.3-2.7,0.1-4.9-0.3c-3.1-0.5-7.1-1.2-10.4-0.3
		c-5.4,1.4-5.9,7.5-5.9,7.5C273.8,125.1,273.6,125.3,273.5,125.2C273.5,125.2,273.5,125.2,273.5,125.2z"/>
	<path class="st4" d="M269.6,135.6c-0.1,0-0.1,0-0.2-0.1c-1.8-1.5-2.8-3.9-2.5-6.2c0.3-4.4,3.7-4.4,3.7-4.4c0.2,0,0.3,0.2,0.3,0.4
		c0,0.1-0.1,0.3-0.3,0.3c-0.1,0-2.8,0.1-3,3.8c-0.3,2.1,0.5,4.2,2.2,5.6c0.2,0.1,0.2,0.3,0.1,0.5c0,0,0,0,0,0
		C269.8,135.5,269.7,135.6,269.6,135.6z"/>
	<path class="st4" d="M271.7,132.7c-0.1,0-0.3-0.1-0.3-0.2c-0.5-0.9-0.6-2-0.2-3c0.4-1,1.2-1.7,2.2-2.1c0.2-0.1,0.4,0,0.4,0.2
		c0,0,0,0,0,0c0.1,0.2,0,0.4-0.2,0.4c-0.8,0.3-1.4,1-1.8,1.7c-0.3,0.8-0.2,1.7,0.2,2.4c0.1,0.2,0,0.4-0.2,0.5
		C271.8,132.7,271.7,132.7,271.7,132.7z"/>
	<path class="st4" d="M272.4,138.1c-0.1,0-0.2-0.1-0.3-0.1l-1.3-1.8c-0.1-0.2-0.1-0.4,0.1-0.5c0.2-0.1,0.4-0.1,0.5,0.1l0,0l1.3,1.8
		c0.1,0.2,0.1,0.4-0.1,0.5C272.6,138.1,272.5,138.1,272.4,138.1z"/>
</g>
</svg>
