<?xml version="1.0" encoding="utf-8"?>
<!-- Generator: Adobe Illustrator 25.2.0, SVG Export Plug-In . SVG Version: 6.00 Build 0)  -->
<svg version="1.1" xmlns="http://www.w3.org/2000/svg" xmlns:xlink="http://www.w3.org/1999/xlink" x="0px" y="0px"
	 viewBox="0 0 3710 3710" style="enable-background:new 0 0 3710 3710;" xml:space="preserve">
<style type="text/css">
	.st0{fill:#FFFFFF;}
	.st1{fill:url(#SVGID_1_);}
	.st2{fill:#91B3FA;}
	.st3{fill:#BDD0FB;}
	.st4{opacity:0.88;}
	.st5{opacity:0.51;fill:#FFFFFF;}
	.st6{fill:url(#SVGID_2_);}
	.st7{fill:url(#SVGID_3_);}
	.st8{fill:#407BFF;}
	.st9{fill:url(#SVGID_4_);}
	.st10{fill:#7D97F4;}
	.st11{opacity:0.63;fill:#FFFFFF;}
	.st12{fill:url(#SVGID_5_);}
	.st13{fill:url(#SVGID_6_);}
	.st14{fill:url(#SVGID_7_);}
	.st15{fill:url(#SVGID_8_);}
	.st16{fill:url(#SVGID_9_);}
	.st17{fill:url(#SVGID_10_);}
	.st18{fill:url(#SVGID_11_);}
	.st19{fill:url(#SVGID_12_);}
	.st20{fill:url(#SVGID_13_);}
	.st21{fill:url(#SVGID_14_);}
	.st22{fill:url(#SVGID_15_);}
	.st23{fill:url(#SVGID_16_);}
	.st24{fill:url(#SVGID_17_);}
	.st25{fill:url(#SVGID_18_);}
	.st26{fill:url(#SVGID_19_);}
	.st27{fill:url(#SVGID_20_);}
	.st28{fill:url(#SVGID_21_);}
	.st29{fill:url(#SVGID_22_);}
	.st30{fill:url(#SVGID_23_);}
	.st31{fill:url(#SVGID_24_);}
	.st32{fill:url(#SVGID_25_);}
	.st33{fill:url(#SVGID_26_);}
	.st34{fill:url(#SVGID_27_);}
	.st35{fill:url(#SVGID_28_);}
	.st36{fill:url(#SVGID_29_);}
</style>
<g id="Background">
</g>
<g id="Illustration">
	<g>
		<rect x="0" class="st0" width="3710" height="3710"/>
		<g>
			<g>
				<g>
					<rect class="st0" width="3710" height="3710"/>
				</g>
			</g>
			<g>
				<linearGradient id="SVGID_1_" gradientUnits="userSpaceOnUse" x1="3473.7954" y1="3648.512" x2="1534.321" y2="1583.9105">
					<stop  offset="0" style="stop-color:#DAE3FE"/>
					<stop  offset="1" style="stop-color:#E9EFFD"/>
				</linearGradient>
				<path class="st1" d="M2891.5,2820.2c-71.6,73.8-135.7,117.2-184.7,149.9c-478.4,319.4-1025.2,227.3-1194.2,195.9
					c-272.8-50.8-503-86.6-700.8-265.3C362.2,2494.6,384,1647.4,727.5,1122.6c40.7-62.2,383.7-570.6,931.7-642.2
					c13.4-1.8,23.4-2.7,32.2-3.7c84.8-9,610.1-56.3,1038.5,302.5c61.3,51.4,160,144,251.5,285.4
					C3315.9,1581.3,3317,2381.6,2891.5,2820.2z"/>
				<g>
					<g>
						<g>
							<path class="st2" d="M1976.4,1344.7c-1.1,0-2.2-0.6-2.8-1.6c-2.3-3.8-4.6-7.7-6.8-11.6c-0.9-1.6-0.3-3.6,1.3-4.5
								c1.6-0.9,3.6-0.3,4.5,1.3c2.2,3.9,4.4,7.7,6.7,11.4c1,1.6,0.5,3.6-1.1,4.6C1977.6,1344.5,1977,1344.7,1976.4,1344.7z"/>
							<path class="st2" d="M1950.6,1293.8c-1.3,0-2.5-0.8-3.1-2.1c-3.4-8.3-6.6-16.9-9.5-25.5c-0.6-1.7,0.4-3.6,2.1-4.2
								c1.7-0.6,3.6,0.4,4.2,2.1c2.8,8.4,5.9,16.9,9.3,25c0.7,1.7-0.1,3.6-1.8,4.3C1951.5,1293.7,1951,1293.8,1950.6,1293.8z
								 M1929.8,1226.3c-1.5,0-2.9-1.1-3.3-2.6c-0.3-1.5-0.6-3-0.9-4.4c-1.4-7.4-2.7-14.9-3.7-22.4c-0.2-1.8,1-3.5,2.9-3.7
								c1.8-0.2,3.5,1,3.7,2.9c1,7.3,2.2,14.7,3.6,22c0.3,1.5,0.6,2.9,0.9,4.4c0.4,1.8-0.8,3.6-2.6,3.9
								C1930.3,1226.3,1930,1226.3,1929.8,1226.3z M1922,1156.1c-1.8,0-3.3-1.5-3.3-3.3c0-2.1,0-4.1-0.1-6.2c0-7,0.2-14.1,0.6-21
								c0.1-1.8,1.7-3.2,3.5-3.1c1.8,0.1,3.2,1.7,3.1,3.5c-0.4,6.8-0.6,13.7-0.6,20.6c0,2,0,4,0.1,6.1
								C1925.3,1154.5,1923.9,1156.1,1922,1156.1L1922,1156.1z M1927.6,1085.7c-0.2,0-0.4,0-0.6-0.1c-1.8-0.3-3-2-2.7-3.9
								c1.6-8.9,3.5-17.9,5.7-26.6c0.4-1.8,2.3-2.9,4-2.4c1.8,0.5,2.9,2.3,2.4,4c-2.2,8.6-4,17.4-5.6,26.1
								C1930.5,1084.5,1929.1,1085.7,1927.6,1085.7z M1946.4,1017.5c-0.4,0-0.8-0.1-1.2-0.2c-1.7-0.7-2.6-2.6-1.9-4.3
								c3.2-8.4,6.8-16.9,10.6-25c0.8-1.7,2.8-2.4,4.4-1.6c1.7,0.8,2.4,2.8,1.6,4.4c-3.8,8-7.3,16.3-10.4,24.6
								C1949,1016.7,1947.7,1017.5,1946.4,1017.5z M1977.7,954.2c-0.6,0-1.2-0.2-1.7-0.5c-1.6-1-2-3-1.1-4.6
								c4.8-7.7,9.8-15.3,15.1-22.6c1.1-1.5,3.2-1.8,4.6-0.8c1.5,1.1,1.8,3.2,0.8,4.6c-5.2,7.2-10.2,14.7-14.8,22.2
								C1979.9,953.7,1978.8,954.2,1977.7,954.2z M2020.3,897.9c-0.8,0-1.6-0.3-2.2-0.9c-1.4-1.2-1.4-3.3-0.2-4.7
								c6.1-6.6,12.5-13.2,19.1-19.4c1.3-1.3,3.4-1.2,4.7,0.1c1.3,1.3,1.2,3.4-0.1,4.7c-6.4,6.1-12.8,12.5-18.7,19
								C2022.1,897.5,2021.2,897.9,2020.3,897.9z M2072.7,850.6c-1,0-2-0.5-2.7-1.3c-1.1-1.5-0.8-3.6,0.7-4.7
								c7.3-5.4,14.8-10.6,22.4-15.4c1.6-1,3.6-0.5,4.6,1c1,1.6,0.5,3.6-1,4.6c-7.5,4.7-14.9,9.8-22,15.1
								C2074.1,850.4,2073.4,850.6,2072.7,850.6z M2133.2,814c-1.2,0-2.4-0.7-3-1.9c-0.8-1.7-0.1-3.6,1.6-4.4
								c8.1-3.9,16.5-7.6,24.9-10.9c1.7-0.7,3.6,0.2,4.3,1.9c0.7,1.7-0.2,3.6-1.9,4.3c-8.3,3.3-16.5,6.9-24.5,10.7
								C2134.1,813.9,2133.6,814,2133.2,814z M2199.4,789.6c-1.5,0-2.8-1-3.2-2.5c-0.5-1.8,0.6-3.6,2.4-4.1c8.1-2.1,16.3-4,24.6-5.6
								l1.9-0.4c1.8-0.3,3.5,0.9,3.9,2.7c0.3,1.8-0.9,3.5-2.7,3.9l-1.9,0.4c-8.1,1.6-16.2,3.4-24.2,5.5
								C2200,789.5,2199.7,789.6,2199.4,789.6z M2366.4,783.8c-0.2,0-0.4,0-0.6-0.1c-8.7-1.7-17.6-3.1-26.4-4.1
								c-1.8-0.2-3.1-1.9-2.9-3.7c0.2-1.8,1.9-3.1,3.7-2.9c9,1.1,18,2.5,26.9,4.2c1.8,0.4,3,2.1,2.6,3.9
								C2369.3,782.7,2367.9,783.8,2366.4,783.8z M2269.1,777.9c-1.7,0-3.2-1.3-3.3-3.1c-0.1-1.8,1.2-3.4,3.1-3.6
								c8.9-0.6,17.9-1,26.7-1c2,0,3.6,1.4,3.6,3.3c0,1.9-1.4,3.3-3.3,3.3c-9,0-17.8,0.3-26.6,0.9
								C2269.3,777.9,2269.2,777.9,2269.1,777.9z"/>
							<path class="st2" d="M2421.6,799c-0.4,0-0.8-0.1-1.1-0.2c-4.1-1.5-8.3-2.9-12.5-4.2c-1.7-0.6-2.7-2.4-2.2-4.2
								c0.6-1.7,2.4-2.7,4.2-2.2c4.2,1.4,8.5,2.8,12.7,4.3c1.7,0.6,2.6,2.5,2,4.3C2424.2,798.1,2422.9,799,2421.6,799z"/>
						</g>
						<g>
							<path class="st2" d="M2635.2,995.7c-1.3,0-2.5-0.7-3-2c-1.8-4.1-3.8-8.1-5.7-11.9c-0.8-1.6-0.2-3.6,1.5-4.5
								c1.6-0.8,3.6-0.2,4.5,1.5c2,3.9,3.9,8,5.8,12.1c0.8,1.7,0,3.6-1.7,4.4C2636.1,995.6,2635.6,995.7,2635.2,995.7z"/>
							<path class="st2" d="M2295.4,1523.8c-6.7-0.1-13.4-0.2-20-0.5c-1.8-0.1-3.2-1.7-3.1-3.5c0.1-1.8,1.6-3.3,3.5-3.1
								c6.5,0.3,13,0.6,19.6,0.5c2.2,0,4.4,0,6.6-0.1c0,0,0,0,0,0c1.8,0,3.3,1.4,3.3,3.3c0,1.8-1.4,3.4-3.3,3.4
								C2299.9,1523.7,2297.6,1523.8,2295.4,1523.8z M2345,1520.4c-1.6,0-3.1-1.2-3.3-2.9c-0.2-1.8,1-3.5,2.9-3.7
								c7.2-1,14.4-2.2,21.7-3.6c1.4-0.3,2.8-0.6,4.2-0.9c1.8-0.4,3.6,0.8,3.9,2.6c0.4,1.8-0.8,3.6-2.6,3.9
								c-1.4,0.3-2.9,0.6-4.3,0.9c-7.3,1.4-14.8,2.7-22,3.6C2345.3,1520.4,2345.1,1520.4,2345,1520.4z M2232.7,1518.5
								c-0.2,0-0.4,0-0.6,0c-8.8-1.5-17.6-3.3-26.2-5.4c-1.8-0.4-2.9-2.2-2.4-4c0.4-1.8,2.2-2.9,4-2.4c8.5,2.1,17.1,3.9,25.7,5.3
								c1.8,0.3,3,2,2.7,3.8C2235.7,1517.4,2234.3,1518.5,2232.7,1518.5z M2412.7,1504.8c-1.4,0-2.7-0.9-3.2-2.3
								c-0.6-1.7,0.4-3.6,2.1-4.2c8.3-2.7,16.6-5.8,24.6-9.1c1.7-0.7,3.6,0.1,4.3,1.8c0.7,1.7-0.1,3.6-1.8,4.3
								c-8.2,3.4-16.6,6.5-25.1,9.3C2413.4,1504.7,2413.1,1504.8,2412.7,1504.8z M2476.4,1476.9c-1.2,0-2.3-0.6-2.9-1.7
								c-0.9-1.6-0.3-3.6,1.3-4.5c7.6-4.2,15.2-8.8,22.5-13.5c1.5-1,3.6-0.6,4.6,1c1,1.5,0.6,3.6-1,4.6c-7.4,4.8-15.1,9.5-22.9,13.8
								C2477.5,1476.8,2477,1476.9,2476.4,1476.9z M2533.7,1437.7c-1,0-1.9-0.4-2.6-1.2c-1.2-1.4-1-3.5,0.4-4.7
								c6.7-5.6,13.3-11.5,19.6-17.5c1.3-1.3,3.4-1.2,4.7,0.1c1.3,1.3,1.2,3.4-0.1,4.7c-6.4,6.1-13.1,12.1-19.9,17.8
								C2535.2,1437.5,2534.5,1437.7,2533.7,1437.7z M2582.8,1388.5c-0.7,0-1.5-0.3-2.1-0.8c-1.4-1.2-1.6-3.3-0.4-4.7
								c5.6-6.7,10.9-13.7,16-20.8c1.1-1.5,3.1-1.8,4.6-0.8c1.5,1.1,1.8,3.1,0.8,4.6c-5.2,7.2-10.7,14.4-16.3,21.2
								C2584.7,1388.1,2583.8,1388.5,2582.8,1388.5z M2622,1331.1c-0.5,0-1.1-0.1-1.6-0.4c-1.6-0.9-2.2-2.9-1.3-4.5
								c4.2-7.6,8.2-15.5,11.9-23.4c0.8-1.7,2.8-2.4,4.4-1.6c1.7,0.8,2.4,2.8,1.6,4.4c-3.7,8-7.8,16.1-12.1,23.8
								C2624.3,1330.5,2623.1,1331.1,2622,1331.1z M2649.9,1267.4c-0.3,0-0.7-0.1-1-0.2c-1.7-0.6-2.7-2.5-2.1-4.2
								c2.7-8.3,5.2-16.8,7.4-25.2c0.5-1.8,2.3-2.9,4-2.4c1.8,0.5,2.9,2.3,2.4,4c-2.2,8.6-4.7,17.2-7.5,25.7
								C2652.6,1266.5,2651.3,1267.4,2649.9,1267.4z M2665.5,1199.6c-0.1,0-0.3,0-0.4,0c-1.8-0.2-3.1-1.9-2.9-3.7
								c1.2-8.6,2-17.4,2.5-26.2c0.1-1.8,1.7-3.2,3.5-3.1c1.8,0.1,3.2,1.7,3.1,3.5c-0.5,8.9-1.4,17.8-2.6,26.6
								C2668.5,1198.4,2667.1,1199.6,2665.5,1199.6z M2668.1,1130.2c-1.8,0-3.2-1.4-3.3-3.1c-0.5-8.7-1.3-17.5-2.4-26.2
								c-0.2-1.8,1.1-3.5,2.9-3.7c1.8-0.2,3.5,1.1,3.7,2.9c1.1,8.8,1.9,17.8,2.4,26.6c0.1,1.8-1.3,3.4-3.1,3.5
								C2668.3,1130.2,2668.2,1130.2,2668.1,1130.2z M2657.9,1061.4c-1.5,0-2.9-1-3.2-2.5c-2.1-8.5-4.5-17-7.1-25.3
								c-0.6-1.8,0.4-3.6,2.2-4.2c1.8-0.6,3.6,0.4,4.2,2.2c2.7,8.4,5.1,17.1,7.3,25.7c0.4,1.8-0.7,3.6-2.4,4
								C2658.4,1061.4,2658.1,1061.4,2657.9,1061.4z"/>
							<path class="st2" d="M2165.3,1500.4c-0.4,0-0.8-0.1-1.2-0.2c-4.3-1.6-8.5-3.3-12.5-4.9c-1.7-0.7-2.5-2.6-1.8-4.3
								c0.7-1.7,2.7-2.5,4.3-1.8c3.9,1.6,8,3.2,12.3,4.8c1.7,0.6,2.6,2.6,2,4.3C2167.9,1499.6,2166.7,1500.4,2165.3,1500.4z"/>
						</g>
						<g>
							<path class="st2" d="M2153.4,1396.3c1.6,1.1,3.6,1.1,5.2,0l44.6-31.4c23.5,9.8,48.8,15.9,74.9,17.7l25.8,48
								c0.9,1.7,2.8,2.6,4.7,2.3l64.6-10.5c1.9-0.3,3.4-1.8,3.7-3.7l9.3-53.7c24.2-10,46.2-23.8,65.5-40.5l52.2,15.7
								c1.8,0.6,3.8-0.1,4.9-1.7l38.2-53.1c1.1-1.6,1.1-3.6,0-5.2l-31.4-44.6c9.8-23.5,15.9-48.8,17.7-74.9l48-25.8
								c1.7-0.9,2.6-2.8,2.3-4.7l-10.5-64.6c-0.3-1.9-1.8-3.4-3.7-3.7l-53.7-9.3c-10-24.2-23.8-46.2-40.5-65.5l15.7-52.2
								c0.6-1.8-0.1-3.8-1.7-4.9l-53.1-38.2c-1.6-1.1-3.6-1.1-5.2,0l-44.6,31.4c-23.5-9.8-48.8-15.9-74.9-17.7l-25.8-48
								c-0.9-1.7-2.8-2.6-4.7-2.3l-64.6,10.5c-1.9,0.3-3.4,1.8-3.7,3.7l-9.3,53.7c-24.2,10-46.2,23.8-65.5,40.5l-52.2-15.7
								c-1.8-0.6-3.8,0.1-4.9,1.7l-38.2,53.1c-1.1,1.6-1.1,3.6,0,5.2l31.4,44.6c-9.8,23.5-15.9,48.8-17.7,74.9l-48,25.8
								c-1.7,0.9-2.6,2.8-2.3,4.7l10.5,64.6c0.3,1.9,1.8,3.4,3.7,3.7l53.7,9.3c10,24.2,23.8,46.2,40.5,65.5l-15.7,52.2
								c-0.6,1.8,0.1,3.8,1.7,4.9L2153.4,1396.3z"/>
							<g>
								<path class="st3" d="M2294.8,1207.2c-7.9,0-15.7-1.5-23.2-4.5c-15.7-6.2-28-18.1-34.7-33.6c-13.8-31.9,0.9-69.1,32.9-82.9
									c15.5-6.7,32.6-7,48.3-0.8c15.7,6.2,28,18.1,34.7,33.6c13.8,31.9-0.9,69.1-32.9,82.9l0,0
									C2311.8,1205.5,2303.3,1207.2,2294.8,1207.2z M2317.9,1197.4L2317.9,1197.4L2317.9,1197.4z M2294.8,1091
									c-7.2,0-14.3,1.5-21.1,4.4c-26.9,11.6-39.3,42.9-27.7,69.8c5.6,13,16,23.1,29.2,28.3c13.2,5.2,27.6,5,40.6-0.6l0,0
									c26.9-11.6,39.3-42.9,27.7-69.8c-5.6-13-16-23.1-29.2-28.3C2308,1092.3,2301.4,1091,2294.8,1091z"/>
							</g>
							<path class="st3" d="M2295.3,1305.8c-1,0-2.1,0-3.1,0c-0.7,0-1.4,0-2.1-0.1c-0.6,0-1.3,0-1.9-0.1c-0.3,0-0.6,0-0.9,0
								c-0.1,0-0.1,0-0.2,0l0.5-10c10.8,0.6,21.7,0,32.5-1.8c1.8-0.3,3.7-0.6,5.5-1c73.2-14.6,124.5-80.1,122.8-153.2
								c-0.2-7-0.8-14-2-21.1c-13.5-83.2-92.2-139.9-175.4-126.4c-74.9,12.2-128.4,77.2-128.4,150.8c0,8.1,0.6,16.3,2,24.6
								c4.4,27.3,16.2,52.9,34,74l-7.6,6.4c-18.9-22.4-31.5-49.7-36.2-78.8c-1.4-8.8-2.1-17.6-2.1-26.2
								c0-78.4,56.9-147.6,136.8-160.6c88.6-14.4,172.4,46,186.8,134.6c1.4,8.8,2.1,17.5,2.1,26.2c0,78.4-56.9,147.7-136.8,160.7
								l0,0C2312.9,1305.1,2304.1,1305.8,2295.3,1305.8z"/>
						</g>
					</g>
					<g>
						<g>
							<path class="st2" d="M2564.7,965.9c-1.1,0-2.2-0.6-2.8-1.6c-2.3-3.8-4.6-7.8-6.7-11.8c-0.9-1.6-0.2-3.6,1.4-4.5
								c1.6-0.9,3.6-0.2,4.5,1.4c2,3.9,4.2,7.7,6.5,11.4c1,1.6,0.5,3.6-1.1,4.6C2565.8,965.8,2565.2,965.9,2564.7,965.9z"/>
							<path class="st2" d="M2541.3,911.5c-1.5,0-2.8-1-3.2-2.5c-1.4-5-2.6-10.1-3.5-15.2c-0.8-4.3-1.6-8.6-2.1-13
								c-0.2-1.8,1-3.5,2.9-3.7c1.8-0.3,3.5,1,3.7,2.9c0.6,4.2,1.3,8.5,2.1,12.6c1,4.9,2.1,9.9,3.4,14.8c0.5,1.8-0.6,3.6-2.3,4.1
								C2541.8,911.4,2541.5,911.5,2541.3,911.5z M2534.6,837.6c-0.1,0-0.2,0-0.3,0c-1.8-0.2-3.2-1.8-3-3.6
								c0.8-9.5,2.3-19.1,4.4-28.5c0.4-1.8,2.2-2.9,4-2.5c1.8,0.4,2.9,2.2,2.5,4c-2.1,9.1-3.5,18.4-4.3,27.6
								C2537.8,836.3,2536.3,837.6,2534.6,837.6z M2554,766c-0.5,0-1-0.1-1.4-0.3c-1.7-0.8-2.4-2.8-1.6-4.4
								c4.1-8.7,8.8-17.2,14-25.2c1-1.5,3.1-2,4.6-1c1.5,1,2,3.1,1,4.6c-5,7.8-9.6,16-13.6,24.4C2556.4,765.3,2555.2,766,2554,766z
								 M2596.9,705.5c-0.9,0-1.7-0.3-2.4-1c-1.3-1.3-1.3-3.4,0-4.7c6.8-6.7,14.2-13.1,21.8-18.8c1.5-1.1,3.6-0.8,4.7,0.7
								c1.1,1.5,0.8,3.6-0.7,4.7c-7.4,5.6-14.5,11.7-21.1,18.2C2598.5,705.2,2597.7,705.5,2596.9,705.5z M2658,663.5
								c-1.3,0-2.5-0.7-3-2c-0.8-1.7,0-3.6,1.7-4.4c8.7-3.9,17.8-7.3,27-10.1c1.8-0.5,3.6,0.5,4.1,2.2c0.5,1.8-0.5,3.6-2.2,4.1
								c-8.9,2.7-17.7,5.9-26.2,9.7C2658.9,663.4,2658.4,663.5,2658,663.5z M2729.9,645.3c-1.7,0-3.2-1.3-3.3-3.1
								c-0.1-1.8,1.2-3.4,3.1-3.6c9.5-0.7,19.2-0.8,28.8-0.2c1.8,0.1,3.2,1.7,3.1,3.5s-1.7,3.2-3.5,3.1c-9.3-0.6-18.7-0.5-27.9,0.2
								C2730,645.3,2730,645.3,2729.9,645.3z"/>
							<path class="st2" d="M2816.5,657.2c-0.4,0-0.8-0.1-1.1-0.2c-4.1-1.5-8.3-2.8-12.5-4.1c-1.8-0.5-2.8-2.4-2.3-4.1
								c0.5-1.8,2.4-2.8,4.1-2.3c4.3,1.3,8.6,2.7,12.9,4.2c1.7,0.6,2.6,2.5,2,4.3C2819.1,656.4,2817.8,657.2,2816.5,657.2z"/>
						</g>
						<g>
							<path class="st2" d="M2939.7,773.8c-1.3,0-2.5-0.8-3.1-2c-1.7-4-3.5-8-5.5-11.9c-0.8-1.6-0.1-3.6,1.5-4.5
								c1.6-0.8,3.6-0.1,4.5,1.5c2,4,3.9,8.2,5.6,12.3c0.7,1.7-0.1,3.6-1.8,4.4C2940.5,773.7,2940.1,773.8,2939.7,773.8z"/>
							<path class="st2" d="M2744.8,1067.3c-8,0-16-0.5-23.9-1.3c-1.8-0.2-3.1-1.9-2.9-3.7c0.2-1.8,1.8-3.2,3.7-2.9
								c9.1,1,18.2,1.4,27.5,1.3c0,0,0,0,0.1,0c1.8,0,3.3,1.4,3.3,3.3c0,1.8-1.4,3.4-3.3,3.4
								C2747.8,1067.2,2746.3,1067.3,2744.8,1067.3z M2794.2,1061.4c-1.5,0-2.9-1-3.2-2.6c-0.4-1.8,0.7-3.6,2.5-4
								c8.9-2.1,17.7-4.9,26.2-8.1c1.7-0.7,3.6,0.2,4.3,1.9c0.7,1.7-0.2,3.6-1.9,4.3c-8.8,3.4-17.9,6.2-27.1,8.4
								C2794.7,1061.4,2794.4,1061.4,2794.2,1061.4z M2861.2,1032.5c-1.1,0-2.1-0.5-2.8-1.5c-1-1.5-0.6-3.6,0.9-4.6
								c7.6-5,15-10.6,21.9-16.6c1.4-1.2,3.5-1.1,4.7,0.3c1.2,1.4,1.1,3.5-0.3,4.7c-7.1,6.2-14.7,11.9-22.6,17.1
								C2862.4,1032.3,2861.8,1032.5,2861.2,1032.5z M2914.2,982.5c-0.7,0-1.4-0.2-2-0.7c-1.5-1.1-1.8-3.2-0.7-4.7
								c5.5-7.3,10.5-15.1,15-23c0.9-1.6,2.9-2.2,4.5-1.3c1.6,0.9,2.2,2.9,1.3,4.5c-4.6,8.2-9.8,16.2-15.4,23.8
								C2916.2,982,2915.2,982.5,2914.2,982.5z M2947.2,917.4c-0.3,0-0.6,0-1-0.1c-1.8-0.5-2.8-2.4-2.2-4.2
								c2.7-8.7,4.8-17.8,6.2-26.8c0.3-1.8,2-3.1,3.8-2.7c1.8,0.3,3,2,2.7,3.8c-1.5,9.3-3.7,18.6-6.4,27.6
								C2949.9,916.5,2948.6,917.4,2947.2,917.4z M2956,844.9c-1.8,0-3.2-1.4-3.3-3.1c-0.5-9.1-1.6-18.3-3.3-27.3
								c-0.3-1.8,0.9-3.5,2.7-3.9c1.8-0.3,3.5,0.9,3.9,2.7c1.7,9.3,2.9,18.8,3.4,28.2c0.1,1.8-1.3,3.4-3.1,3.5
								C2956.1,844.9,2956.1,844.9,2956,844.9z"/>
							<path class="st2" d="M2677,1056c-0.4,0-0.7-0.1-1.1-0.2c-4.3-1.5-8.5-3.1-12.6-4.8c-1.7-0.7-2.5-2.6-1.8-4.3s2.7-2.5,4.3-1.8
								c4,1.6,8.1,3.2,12.3,4.6c1.7,0.6,2.7,2.5,2.1,4.2C2679.6,1055.1,2678.3,1056,2677,1056z"/>
						</g>
						<g>
							<path class="st2" d="M2664.8,993.7c0.9,0.6,2.1,0.6,2.9,0l25.2-17.8c13.3,5.5,27.6,9,42.4,10l14.6,27.2
								c0.5,1,1.6,1.5,2.6,1.3l36.5-5.9c1.1-0.2,1.9-1,2.1-2.1l5.3-30.4c13.7-5.7,26.2-13.4,37-22.9l29.5,8.9c1,0.3,2.2-0.1,2.8-0.9
								l21.6-30c0.6-0.9,0.6-2.1,0-2.9l-17.8-25.2c5.5-13.3,9-27.6,10-42.4l27.2-14.6c1-0.5,1.5-1.6,1.3-2.6l-5.9-36.5
								c-0.2-1.1-1-1.9-2.1-2.1l-30.4-5.3c-5.7-13.7-13.4-26.2-22.9-37l8.9-29.5c0.3-1-0.1-2.2-0.9-2.8l-30-21.6
								c-0.9-0.6-2.1-0.6-2.9,0l-25.2,17.8c-13.3-5.5-27.6-9-42.4-10l-14.6-27.2c-0.5-1-1.6-1.5-2.6-1.3l-36.5,5.9
								c-1.1,0.2-1.9,1-2.1,2.1l-5.3,30.4c-13.7,5.7-26.2,13.4-37,22.9l-29.5-8.9c-1-0.3-2.2,0.1-2.8,0.9l-21.6,30
								c-0.6,0.9-0.6,2.1,0,2.9l17.8,25.2c-5.5,13.3-9,27.6-10,42.4l-27.2,14.6c-1,0.5-1.5,1.6-1.3,2.6l5.9,36.5
								c0.2,1.1,1,1.9,2.1,2.1l30.4,5.3c5.7,13.7,13.4,26.2,22.9,37l-8.9,29.5c-0.3,1,0.1,2.2,0.9,2.8L2664.8,993.7z"/>
							<g>
								<path class="st3" d="M2744.8,888.9c-14.6,0-28.6-8.5-34.8-22.8c-8.3-19.2,0.6-41.5,19.7-49.8c19.2-8.3,41.5,0.6,49.8,19.7
									c8.3,19.2-0.6,41.5-19.7,49.8l0,0C2754.9,887.9,2749.8,888.9,2744.8,888.9z M2757.8,881.2L2757.8,881.2L2757.8,881.2z
									 M2744.7,823.2c-3.7,0-7.4,0.7-11,2.3c-14.1,6.1-20.6,22.5-14.5,36.6c6.1,14.1,22.5,20.6,36.6,14.5l0,0
									c14.1-6.1,20.6-22.5,14.5-36.6C2765.8,829.5,2755.5,823.2,2744.7,823.2z"/>
							</g>
							<path class="st3" d="M2745,944.7c-0.6,0-1.2,0-1.7,0c-1,0-2-0.1-3-0.1c0,0,0,0,0,0l0.5-10c6,0.3,12,0,17.9-1l0,0
								c22.2-3.6,41.7-15.7,54.9-33.9c10.5-14.5,15.9-31.6,15.9-49.1c0-4.5-0.4-9.1-1.1-13.7c-7.4-45.9-50.9-77.1-96.7-69.7
								c-41.3,6.7-70.8,42.6-70.8,83.2c0,4.5,0.4,9,1.1,13.6c2.4,15.1,8.9,29.2,18.7,40.8l-7.6,6.4c-11-13-18.2-28.8-20.9-45.7
								c-0.8-5.1-1.2-10.2-1.2-15.2c0-45.4,33-85.5,79.2-93c51.3-8.4,99.8,26.6,108.2,78c0.8,5.1,1.2,10.2,1.2,15.3
								c0,19.6-6.1,38.7-17.8,54.9c-14.7,20.4-36.5,33.9-61.4,37.9c-0.1,0-0.1,0-0.2,0C2755.1,944.3,2750,944.7,2745,944.7z"/>
						</g>
					</g>
				</g>
				<g class="st4">
					<path class="st3" d="M541.4,1257c-14.3-21.1-47.4-7.8-43.2,17.4c21.9,129.9,50.4,356.8,14.4,507
						c-52.9,220.8-139.7,868.1,477.4,1010.4C990,2791.8,897.6,1782,541.4,1257z"/>
					<path class="st5" d="M604.8,1524.2c0,0,0.7,1.1,2,3.4c1.3,2.3,3.1,5.7,5.3,10.2c4.4,9,10.3,22.6,16.3,40.4
						c3.2,8.8,6,18.8,9.2,29.7c1.4,5.5,2.8,11.2,4.4,17.1c1.6,5.9,2.7,12.1,4.1,18.5c0.7,3.2,1.4,6.5,2.1,9.8
						c0.6,3.3,1.2,6.7,1.8,10.1c1.1,6.8,2.6,13.9,3.6,21.1c0.9,7.3,1.9,14.7,2.9,22.4c1.1,7.6,1.5,15.5,2.4,23.5
						c1.7,16,2.4,32.8,3.2,50.1c0.2,8.7,0.2,17.5,0.3,26.5c0,4.5,0.1,9,0.1,13.5c0,4.5-0.2,9.1-0.3,13.7c-0.2,9.2-0.5,18.6-0.8,28
						c-0.5,9.7-1,18.8-1.8,28.6c-1.6,19.5-3.6,39-5.8,58.9c-2.2,19.8-4.5,39.9-6.8,60.2c-1.1,10.1-2.3,20.3-3.3,30.6
						c-0.5,5.1-1,10.2-1.6,15.4c-0.4,5.1-0.9,10.3-1.3,15.4c-3.5,41.3-5.3,83.2-3.9,124.9c1.4,41.7,6.3,83.2,14.9,123.2
						c8.5,40,21,78.5,36.5,114.3c1.9,4.5,3.8,9,5.7,13.4c2.1,4.4,4.2,8.7,6.3,13c4.2,8.6,8.1,17.3,12.9,25.5
						c4.6,8.2,8.9,16.5,13.6,24.4c4.9,7.8,9.7,15.6,14.4,23.2c1.2,1.9,2.4,3.8,3.6,5.7c1.3,1.8,2.5,3.7,3.8,5.5
						c2.5,3.7,5,7.3,7.5,10.9c5,7.2,9.7,14.5,15,21.1c5.1,6.8,10.2,13.4,15.2,19.9c1.2,1.6,2.5,3.3,3.7,4.9c1.3,1.6,2.6,3.1,3.9,4.6
						c2.6,3.1,5.2,6.1,7.7,9.1c5.1,6,10.1,12,14.9,17.7c5.1,5.6,10.1,11,14.9,16.4c4.9,5.3,9.6,10.5,14.2,15.6
						c4.8,4.8,9.5,9.5,14.1,14.1c4.6,4.6,9,9,13.2,13.2c2.1,2.1,4.2,4.3,6.3,6.3c2.1,2,4.2,3.9,6.2,5.8c8.2,7.6,15.7,14.6,22.5,20.9
						c3.4,3.2,6.6,6.1,9.8,8.8c3.1,2.7,6,5.3,8.8,7.6c5.4,4.7,10.1,8.8,13.8,12c7.5,6.5,11.5,10,11.5,10l0,0
						c0.7,0.6,0.8,1.7,0.2,2.3c-0.6,0.7-1.6,0.8-2.2,0.2c0,0-4.3-3.1-12.3-9c-4-3-9-6.6-14.8-10.9c-5.8-4.4-12.7-9-19.8-15
						c-14.4-11.8-32.5-25.6-51.6-43.4c-4.9-4.3-9.9-8.8-15-13.5c-5-4.8-10.1-9.8-15.3-14.9c-5.2-5.1-10.6-10.4-16.1-15.8
						c-5.2-5.7-10.5-11.5-16-17.4c-21.9-23.5-44-50.7-65.3-81.1c-5.1-7.7-10.4-15.5-15.6-23.4c-5.1-8-9.9-16.4-14.9-24.8
						c-5.2-8.3-9.5-17.1-14.2-25.9c-2.3-4.4-4.6-8.9-7-13.3c-2.1-4.6-4.2-9.2-6.3-13.8c-16.9-36.9-30.7-76.9-40.3-118.5
						c-9.6-41.6-14.8-84.9-16.5-128.1l-0.4-8.1l-0.1-8.1l-0.2-16.2c-0.1-10.8,0.3-21.5,0.5-32.3c0.6-10.7,1-21.4,1.8-32
						c0.8-10.6,1.5-21.2,2.6-31.7c0.5-5.3,1-10.5,1.5-15.7c0.6-5.2,1.1-10.4,1.7-15.6c1.1-10.4,2.4-20.7,3.6-30.9
						c2.5-20.4,5.4-40.5,8-60.2c2.6-19.7,5.1-39.1,7-57.7c0.6-4.6,0.9-9.4,1.3-14.2c0.4-4.6,1-9.6,1.3-13.9
						c0.6-9.3,1.2-18.4,1.8-27.4c0.3-4.5,0.6-9,0.8-13.4c0.1-4.5,0.2-8.9,0.4-13.3c0.2-8.8,0.5-17.4,0.7-25.9
						c-0.3-17,0.2-33.4-0.8-49.2c-1-31.5-4-60.3-7.5-85.7c-3.5-25.4-8.1-47.3-12.6-65.2c-4.5-17.9-8.9-31.7-12.4-40.9
						c-1.7-4.6-3.1-8.2-4.1-10.5c-1-2.3-1.6-3.5-1.6-3.5c-0.4-0.8-0.1-1.8,0.8-2.2C603.4,1523.2,604.3,1523.5,604.8,1524.2
						L604.8,1524.2z"/>
				</g>
				<g>
					<g>
						<linearGradient id="SVGID_2_" gradientUnits="userSpaceOnUse" x1="258.7885" y1="-448.2763" x2="1665.6385" y2="1894.0411">
							<stop  offset="0" style="stop-color:#FEBBBA"/>
							<stop  offset="1" style="stop-color:#FF928E"/>
						</linearGradient>
						<path class="st6" d="M1227.8,455c-1.9,0-3.8,0-5.8,0c-291.1,0-527.1,238.6-527.1,532.9h532.9V455z"/>
						<path class="st2" d="M1225.5,988.9l287.2-449c-81-51.9-177-82.5-280.2-83.9c-3.3,0-6.5,0-9.7,0L1225.5,988.9z"/>
						<linearGradient id="SVGID_3_" gradientUnits="userSpaceOnUse" x1="1835.8452" y1="658.7739" x2="2914.2356" y2="24.7191">
							<stop  offset="0" style="stop-color:#4F52FF"/>
							<stop  offset="1" style="stop-color:#4042E2"/>
						</linearGradient>
						<path class="st7" d="M1227.8,987.9l532.4,23.9c0.1-3.3,0.3-6.7,0.4-10c5-193.5-93.7-365.5-245.6-462.8L1227.8,987.9z"/>
						<path class="st8" d="M1170.4,1041.4l-526.1-18.3c-8.5,245.5,150.3,457.9,374.1,527.4L1173,1045
							C1173.5,1043.2,1172.3,1041.4,1170.4,1041.4z"/>
						<linearGradient id="SVGID_4_" gradientUnits="userSpaceOnUse" x1="1260.2085" y1="709.4981" x2="1444.9335" y2="1533.2695">
							<stop  offset="0" style="stop-color:#FF928E"/>
							<stop  offset="1" style="stop-color:#FE7062"/>
						</linearGradient>
						<path class="st9" d="M1225.7,987.1L1083,1499.6c44.7,13.2,83.7,18.4,132.5,19.3c228,4.5,425.4-135,505.4-335L1225.7,987.1z"/>
						<path class="st10" d="M1721.4,1188.6c22.6-55.1,36.2-114.8,39-177.5l0,0l-532.3-24.4L1721.4,1188.6z"/>
					</g>
					<path class="st11" d="M1230,1502c-7.5,0-15-0.2-22.4-0.5c-3.7-0.2-6.5-3.3-6.4-6.9c0.2-3.7,3.3-6.5,6.9-6.4
						c7.2,0.3,14.5,0.5,21.8,0.5c161,0,313.8-77.8,408.8-208.1c2.2-3,6.3-3.6,9.3-1.5c3,2.2,3.6,6.3,1.5,9.3
						c-47.2,64.7-109.6,118.4-180.5,155.3C1395.8,1481.9,1313.1,1502,1230,1502z"/>
					<path class="st2" d="M1737.2,917.9c-3.3,0-6.1-2.4-6.6-5.7c-19.6-139.4-97.6-265.4-214.1-345.6c-3-2.1-3.8-6.2-1.7-9.3
						c2.1-3,6.2-3.8,9.3-1.7c119.6,82.4,199.6,211.7,219.7,354.7c0.5,3.6-2,7-5.7,7.5C1737.8,917.9,1737.5,917.9,1737.2,917.9z"/>
					<path class="st11" d="M792.7,722.9c-1.2,0-2.4-0.3-3.5-1c-3.1-1.9-4.1-6-2.2-9.2c56.3-92.1,138.3-163.3,237.1-206.1
						c3.4-1.5,7.3,0.1,8.8,3.5c1.5,3.4-0.1,7.3-3.5,8.8c-96.3,41.7-176.2,111.1-231,200.8C797.1,721.8,794.9,722.9,792.7,722.9z"/>
					<path class="st11" d="M1005.4,1531.8l-6.7-2.8c-43.1-17.8-83.7-39.8-127.7-69.1c-3.1-2-3.9-6.2-1.8-9.2c2-3.1,6.2-3.9,9.2-1.8
						c41,27.3,78.9,48.1,118.7,65.1l77.5-248.3c1.1-3.5,4.8-5.5,8.3-4.4c3.5,1.1,5.5,4.8,4.4,8.3L1005.4,1531.8z"/>
					<path class="st11" d="M1127.9,1124.1c-0.7,0-1.3-0.1-2-0.3c-3.5-1.1-5.5-4.8-4.4-8.3l14.7-47.1l-270.8-7.6
						c-3.7-0.1-6.6-3.2-6.5-6.8c0.1-3.6,3.1-6.5,6.7-6.5c0.1,0,0.1,0,0.2,0l276.7,7.7c2.8,0.1,5.3,1.4,6.9,3.7
						c1.6,2.3,2.1,5.1,1.2,7.8l-16.5,52.8C1133.3,1122.3,1130.7,1124.1,1127.9,1124.1z M1142.2,1068.5L1142.2,1068.5L1142.2,1068.5z
						"/>
				</g>
				<g>
					<path class="st2" d="M1126.8,2206.9c0-15.6-12.6-28.2-28.2-28.2H878.8c-15.6,0-28.2,12.6-28.2,28.2v958.8
						c0,15.6,12.6,28.2,28.2,28.2h219.8c15.6,0,28.2-12.6,28.2-28.2V2206.9z"/>
					<path class="st2" d="M764,2725.8c0-7.3-15.3-14.5-30.9-14.5H510.6c-15.6,0-29.5,7.2-29.5,14.5v451c0,7.3,13.9,17.1,29.5,17.1
						h222.5c15.6,0,30.9-9.8,30.9-17.1V2725.8z"/>
					<path class="st2" d="M1817.1,2088.9h-222.4c-15.6,0-28.5,14.1-28.5,31.2v1042.3c0,17,13,34.9,28.5,34.9h222.4
						c15.6,0,35.4-17.9,35.4-34.9V2120C1852.4,2103,1832.7,2088.9,1817.1,2088.9z"/>
					<path class="st2" d="M1479.6,1894.1c0-15.6-12.6-28.2-28.2-28.2h-219.8c-15.6,0-28.2,12.6-28.2,28.2v1271.6
						c0,15.6,12.6,28.2,28.2,28.2h219.8c15.6,0,28.2-12.6,28.2-28.2V1894.1z"/>
					<path class="st2" d="M3080.7,1346.4c0-16.4-15.8-29.8-31.4-29.8h-222.5c-15.6,0-29,13.4-29,29.8v1815.1
						c0,16.4,13.4,32.4,29,32.4h222.5c15.6,0,31.4-16,31.4-32.4V1346.4z"/>
					<path class="st2" d="M2271.8,1684.4c0-15.6-12.6-28.2-28.2-28.2h-219.8c-15.6,0-28.2,12.6-28.2,28.2v1481.3
						c0,15.6,12.6,28.2,28.2,28.2h219.8c15.6,0,28.2-12.6,28.2-28.2V1684.4z"/>
					<path class="st2" d="M2687.9,1441.4c0-15.6-12.6-28.2-28.2-28.2h-219.8c-15.6,0-28.2,12.6-28.2,28.2V3169
						c0,15.6,12.6,28.2,28.2,28.2h219.8c15.6,0,28.2-12.6,28.2-28.2V1441.4z"/>
				</g>
				<g>
					<linearGradient id="SVGID_5_" gradientUnits="userSpaceOnUse" x1="2761.207" y1="474.9489" x2="1639.8158" y2="1571.9622">
						<stop  offset="0" style="stop-color:#2B3582"/>
						<stop  offset="1" style="stop-color:#150E42"/>
					</linearGradient>
					<polygon class="st12" points="1416.8,1344 1412,1335.2 1840.2,1101.3 2239,1276.6 2581.8,940.3 2984.2,702.9 2989.2,711.5 
						2587.9,948.3 2241.2,1288.4 2238.1,1287.1 1840.7,1112.4 					"/>
					<linearGradient id="SVGID_6_" gradientUnits="userSpaceOnUse" x1="1487.9529" y1="1267.6472" x2="1378.4515" y2="1374.7682">
						<stop  offset="0" style="stop-color:#09005D"/>
						<stop  offset="1" style="stop-color:#1A0F91"/>
					</linearGradient>
					<circle class="st13" cx="1414.4" cy="1339.6" r="46.1"/>
					<linearGradient id="SVGID_7_" gradientUnits="userSpaceOnUse" x1="1913.9692" y1="1034.8757" x2="1804.4679" y2="1141.9966">
						<stop  offset="0" style="stop-color:#09005D"/>
						<stop  offset="1" style="stop-color:#1A0F91"/>
					</linearGradient>
					<circle class="st14" cx="1840.4" cy="1106.8" r="46.1"/>
					<linearGradient id="SVGID_8_" gradientUnits="userSpaceOnUse" x1="2313.634" y1="1201.7686" x2="2204.1326" y2="1308.8896">
						<stop  offset="0" style="stop-color:#09005D"/>
						<stop  offset="1" style="stop-color:#1A0F91"/>
					</linearGradient>
					<circle class="st15" cx="2240.1" cy="1273.7" r="46.1"/>
					<linearGradient id="SVGID_9_" gradientUnits="userSpaceOnUse" x1="2647.4199" y1="872.3745" x2="2537.9185" y2="979.4955">
						<stop  offset="0" style="stop-color:#09005D"/>
						<stop  offset="1" style="stop-color:#1A0F91"/>
					</linearGradient>
					<circle class="st16" cx="2573.9" cy="944.3" r="46.1"/>
					<linearGradient id="SVGID_10_" gradientUnits="userSpaceOnUse" x1="3060.2605" y1="635.2108" x2="2950.759" y2="742.3317">
						<stop  offset="0" style="stop-color:#09005D"/>
						<stop  offset="1" style="stop-color:#1A0F91"/>
					</linearGradient>
					<circle class="st17" cx="2986.7" cy="707.2" r="46.1"/>
				</g>
				<g>
					<linearGradient id="SVGID_11_" gradientUnits="userSpaceOnUse" x1="3426.175" y1="1134.4794" x2="2427.6174" y2="2825.3721">
						<stop  offset="0" style="stop-color:#FF928E"/>
						<stop  offset="1" style="stop-color:#FE7062"/>
					</linearGradient>
					<path class="st18" d="M2229.9,3003l511.2-979.3h-104.7c-19.3,0-29.9-22.5-17.7-37.4l544.8-664c23.6-28.8,70.3-10.5,68.1,26.6
						l-38.3,649.3c-2.2,37.2-35.2,64.9-72.1,60.6l-73-8.4l-507.2,1098.3c-13.2,28.6-41.8,46.9-73.3,46.9h-175.8L2229.9,3003z"/>
					<path class="st11" d="M2715.3,1954.4c-1.1,0-2.1-0.3-3-1c-2.2-1.7-2.6-4.8-0.9-7l449.9-584.5c5.3-6.9,13.9-9.2,21.9-6
						c8,3.3,12.6,10.9,11.6,19.5l-7.9,70.1c-0.3,2.7-2.8,4.7-5.5,4.4c-2.7-0.3-4.7-2.8-4.4-5.5l7.9-70.1c0.6-4.9-2.5-8-5.5-9.2
						c-3-1.2-7.3-1.1-10.3,2.8l-449.9,584.5C2718.2,1953.7,2716.8,1954.4,2715.3,1954.4z"/>
					<g>
						<path class="st3" d="M3221.7,2188.5c-159.1,70.5-581.7,314.6-764.2,972.6c0,0,246.1,4.1,430.8-390.6
							c157.9-337.6,248.7-473.9,345.5-563.7C3242.9,2198.2,3233.1,2183.4,3221.7,2188.5z"/>
						<path class="st5" d="M2487,3123.8c0,0,0.3-0.9,0.9-2.8c0.6-1.8,1.4-4.5,2.6-8c2.3-7,5.8-17.2,10.6-30.1
							c4.7-13,10.8-28.5,18-46.2c7.2-17.7,15.8-37.6,25.5-59.1c9.8-21.4,20.8-44.5,32.8-68.7c12.4-24,25.4-49.4,39.9-75.1
							c3.6-6.4,7.3-12.9,10.9-19.4c3.8-6.5,7.6-13,11.4-19.5c7.6-13.1,15.7-26.2,23.8-39.4c8.2-13.1,16.7-26.3,25.2-39.5
							c8.7-13,17.2-26.3,26.2-39.2c9-12.9,17.7-26,27.1-38.6c4.6-6.3,9.2-12.7,13.8-19c4.6-6.3,9.4-12.4,14.1-18.6
							c4.7-6.2,9.4-12.3,14.1-18.4c4.8-6,9.6-12,14.3-17.9c9.3-12,19.1-23.4,28.7-34.7c9.4-11.4,19.2-22.1,28.7-32.7
							c9.4-10.7,18.9-20.8,28.3-30.6c4.7-4.9,9.2-9.8,13.9-14.4c4.7-4.6,9.3-9.2,13.8-13.7c4.5-4.5,9-8.9,13.4-13.2
							c4.4-4.3,8.9-8.3,13.2-12.4c8.8-7.9,16.9-15.8,25.1-22.7c8.2-7,15.9-13.6,23.2-19.9c1.8-1.6,3.6-3.1,5.4-4.6
							c1.8-1.4,3.6-2.8,5.4-4.2c3.5-2.8,6.9-5.4,10.2-8c6.5-5.1,12.5-9.8,17.9-14.1c22.4-16,35.2-25.1,35.2-25.1
							c1.2-0.8,2.8-0.6,3.7,0.6c0.8,1.1,0.6,2.6-0.4,3.5l-0.1,0.1c0,0-11.8,10.2-32.5,28c-5,4.6-10.6,9.7-16.7,15.3
							c-3,2.8-6.2,5.7-9.5,8.7c-1.6,1.5-3.3,3-5,4.6c-1.6,1.6-3.3,3.2-5,4.9c-6.8,6.6-14,13.6-21.7,21.1c-7.6,7.4-15.2,15.7-23.4,24
							c-4,4.2-8.3,8.4-12.4,12.8c-4.1,4.5-8.3,9-12.5,13.7c-4.2,4.6-8.6,9.3-13,14.1c-4.3,4.8-8.6,9.9-13,14.9
							c-4.4,5-8.8,10.1-13.3,15.3c-4.6,5.1-8.9,10.6-13.4,15.9c-9,10.8-18.2,21.7-27.1,33.3c-4.5,5.7-9.1,11.5-13.6,17.3
							c-4.6,5.8-9,11.8-13.6,17.8c-4.5,6-9.1,12-13.7,18c-4.5,6.1-9,12.3-13.5,18.5c-4.5,6.2-9.1,12.4-13.5,18.7
							c-4.4,6.3-8.8,12.7-13.3,19c-8.9,12.7-17.5,25.6-26.3,38.4c-8.8,12.8-17.1,26-25.6,38.9c-8.3,13.1-16.6,26.1-24.6,39.2
							c-16,26.1-31.6,51.9-46.2,77.2c-7.3,12.6-14.5,25-21.6,37.2c-7,12.2-13.6,24.2-20.2,35.9c-12.9,23.5-25.3,45.6-36.1,66.3
							c-11.2,20.5-21,39.6-29.9,56.5c-8.8,16.9-16.3,31.7-22.5,43.8c-12.3,24.5-19.3,38.4-19.3,38.4l0,0c-0.7,1.3-2.2,1.8-3.5,1.2
							C2487.1,3126.3,2486.6,3125,2487,3123.8z"/>
					</g>
					<g>
						<path class="st3" d="M2462,3174.4c0,0,66.2-259.6,428.3-294.5c241.6-23.3,318.4-82.4,341-108.4c2.6-3,7.6-0.8,7,3.2
							c-7.5,49-48.3,200.4-267.7,288.9C2706.1,3170.2,2573.6,3086.4,2462,3174.4z"/>
						<path class="st5" d="M2480.6,3123.9c0,0,2-2.2,5.9-6.1c3.9-3.9,9.7-9.5,17.4-16.3c7.7-6.9,17.3-14.9,28.6-23.6
							c11.3-8.9,24.5-18.2,39.3-28c14.8-9.8,31.3-19.6,49.2-29.2c18-9.6,37.4-18.8,58.2-27.1c20.7-8.3,42.7-15.5,65.5-21.3
							c22.8-5.8,46.5-9.9,70.4-12.3c6-0.4,12-1.1,18-1.4c6-0.2,12-0.4,18-0.7c6,0.1,12,0.2,17.9,0.2c6,0.2,11.9,0.7,17.8,1.1
							c11.3,0.7,22.6,1.4,33.7,2.2c11.4,1.1,21.8,0.4,32.4,0.6c2.6,0,5.2,0,7.9,0l3.9,0l3.9-0.3c5.2-0.4,10.3-0.7,15.4-1.1
							c2.5-0.2,5.1-0.4,7.6-0.5l3.8-0.3c1.2-0.1,2.5-0.4,3.7-0.5c4.9-0.7,9.8-1.5,14.6-2.2c19.3-2.7,37-7.5,53-12.9
							c2.1-0.6,3.9-1.4,5.8-2.2c1.9-0.8,3.8-1.5,5.7-2.3c3.7-1.6,7.5-2.9,10.9-4.6c3.4-1.8,6.8-3.5,10-5.1c1.6-0.8,3.3-1.6,4.8-2.5
							c1.5-0.9,3-1.9,4.4-2.8c2.9-1.8,5.8-3.6,8.5-5.3c2.6-1.9,5.1-3.7,7.5-5.5c5-3.4,8.8-7.3,12.6-10.5c3.5-3.5,6.7-6.6,9.3-9.5
							c2.5-2.9,4.7-5.4,6.2-7.6c1.6-2.1,2.8-3.8,3.5-4.9c0.8-1.1,1.1-1.7,1.1-1.7c0.5-0.9,1.7-1.3,2.6-0.8c0.9,0.5,1.2,1.5,0.9,2.4
							l0,0c0,0-0.3,0.8-0.9,2.1c-0.6,1.3-1.5,3.3-2.9,5.7c-2.7,5-7.2,11.8-13.9,19.9c-3.6,3.8-7.2,8.4-12,12.6
							c-2.3,2.1-4.7,4.4-7.2,6.7c-2.7,2.1-5.5,4.3-8.4,6.5c-1.5,1.1-2.9,2.3-4.4,3.4c-1.5,1.1-3.2,2.1-4.8,3.1
							c-3.3,2.1-6.7,4.3-10.1,6.5c-3.5,2.2-7.3,3.9-11.1,6c-3.9,1.9-7.7,4.2-11.9,5.9c-16.6,7-35.1,13.6-55.2,17.9
							c-5,1-10.2,2.1-15.3,3.2c-1.3,0.3-2.6,0.6-3.9,0.8l-4,0.5c-2.6,0.3-5.3,0.7-8,1c-5.4,0.7-10.8,1.3-16.2,2l-4.1,0.5l-4.2,0.2
							c-2.8,0.1-5.6,0.3-8.4,0.4c-11.2,0.5-23,1.4-34.1,0.7c-5.6-0.2-11.3-0.3-16.9-0.5c-5.8-0.2-11.6-0.4-17.4-0.6
							c-22.1-1.2-44.7-0.5-67.1,2.1c-22.4,2.4-44.7,6.6-66.3,11.9c-21.6,5.4-42.7,11.8-62.7,19.1c-40.1,14.5-76.4,31.8-107,47.8
							c-15.3,8-28.9,16-41.1,23.1c-12.1,7.1-22.5,13.7-31.1,19.1c-8.5,5.5-15.2,9.9-19.7,12.9c-4.5,3.1-6.9,4.7-6.9,4.7
							c-0.9,0.6-2.1,0.4-2.7-0.5C2480,3125.5,2480.1,3124.5,2480.6,3123.9z"/>
					</g>
					<linearGradient id="SVGID_12_" gradientUnits="userSpaceOnUse" x1="2468.4448" y1="3285.0342" x2="1942.5371" y2="2399.646">
						<stop  offset="0" style="stop-color:#FF928E"/>
						<stop  offset="1" style="stop-color:#FE7062"/>
					</linearGradient>
					<path class="st19" d="M1807.3,2316.2l360.9,801.6c21.4,47.5,68.6,78,120.7,78h186c24.7,0,47.4-13.4,59.4-35l6.6-11.9l0,0
						c-20,0-38.3-11.2-47.4-29l-480.8-942.1L1807.3,2316.2z"/>
					<linearGradient id="SVGID_13_" gradientUnits="userSpaceOnUse" x1="2063.0464" y1="1931.3804" x2="1264.2009" y2="3089.7058">
						<stop  offset="0" style="stop-color:#FF928E"/>
						<stop  offset="1" style="stop-color:#FE7062"/>
					</linearGradient>
					<path class="st20" d="M2061.3,2273L2061.3,2273c-36.2-28.6-89.1-20.2-114.6,18.2l-530.6,797.1
						c-42.5,63.8-114.1,102.2-190.8,102.2h-74.7l-60.8-175c0,0,493.2-756.3,620.4-870.7c0,0,126.6-114.1,251.4-27.8
						c33,22.8,58,55.3,73.3,92.4L2061.3,2273z"/>
					<linearGradient id="SVGID_14_" gradientUnits="userSpaceOnUse" x1="1302.6818" y1="3181.6021" x2="617.0049" y2="2495.925">
						<stop  offset="0" style="stop-color:#FF928E"/>
						<stop  offset="1" style="stop-color:#FE7062"/>
					</linearGradient>
					<path class="st21" d="M512.8,2544.8c0,0,88.8-111,260.9-128.3c0,0,81.7,27.8,244.6,319.6c162.8,291.8,270.9,424.9,397.8,352.2
						l-10.5,17.4c-34.6,57.5-96.8,92.6-163.9,92.6h-70.2c-77.2,0-149.7-37.1-194.8-99.8C850,2922.3,590.7,2572.1,512.8,2544.8z"/>
					<path class="st11" d="M3170,1554.2c-0.2,0-0.4,0-0.6,0c-2.7-0.3-4.7-2.8-4.4-5.5l3.6-31.7c0.3-2.7,2.8-4.7,5.5-4.4
						c2.7,0.3,4.7,2.8,4.4,5.5l-3.6,31.7C3174.7,1552.3,3172.5,1554.2,3170,1554.2z"/>
				</g>
				<g>
					<linearGradient id="SVGID_15_" gradientUnits="userSpaceOnUse" x1="1758.9962" y1="1538.9296" x2="1859.8654" y2="1791.9574">
						<stop  offset="0" style="stop-color:#09005D"/>
						<stop  offset="1" style="stop-color:#1A0F91"/>
					</linearGradient>
					<path class="st22" d="M1818.8,1675c0,0,34,16.5,40.3,35.5c5,15.2,42.6,17.2,46.3,47.2c1.9,15.5,13.4,27.9,28.8,30.2
						c38.4,5.9,97.6,25.8,107.1,92.5c7.2,50.9-18.7,70.2-45.9,76.9c-20,4.9-33.3,24.4-29.2,44.5c3.9,19.4-1.9,41.8-35.5,59.5
						c-75.2,39.7-150.3-94-150.3-94L1765,1734L1818.8,1675z"/>
					<linearGradient id="SVGID_16_" gradientUnits="userSpaceOnUse" x1="1550.8888" y1="1685.1145" x2="1737.2407" y2="2109.1072">
						<stop  offset="0" style="stop-color:#FEBBBA"/>
						<stop  offset="1" style="stop-color:#FF928E"/>
					</linearGradient>
					<path class="st23" d="M1464.9,1552c0,0,96.7,263.7,261.6,346.1c0,0-54.9,89.5-83.5,94.9c0,0-176.1-225.4-194-410L1464.9,1552z"
						/>
					<linearGradient id="SVGID_17_" gradientUnits="userSpaceOnUse" x1="2127.7302" y1="3158.8401" x2="2213.2632" y2="3158.8401">
						<stop  offset="0" style="stop-color:#09005D"/>
						<stop  offset="1" style="stop-color:#1A0F91"/>
					</linearGradient>
					<path class="st24" d="M2127.8,3138.3l4.9,40c0.9,7.6,6.9,13.6,14.5,14.5c12.8,1.5,33.4,3,53.5,0.8c8.8-0.9,14.6-9.9,11.9-18.3
						c-4.9-15.4-13.9-38.6-26.8-52.3h-44.4C2133.2,3123,2126.8,3130.2,2127.8,3138.3z"/>
					<linearGradient id="SVGID_18_" gradientUnits="userSpaceOnUse" x1="1766.309" y1="3496.1353" x2="1889.3972" y2="2057.5405">
						<stop  offset="0" style="stop-color:#FEBBBA"/>
						<stop  offset="1" style="stop-color:#FF928E"/>
					</linearGradient>
					<path class="st25" d="M1780.3,2669.8l-7.5,44.1c0,0,25.1,254,29.5,355.6c0.7,15.9-3.4,31.7-11.8,45.2l-43.6,70.8l110.8-65.4
						l2.2-13.5l-18.1-24.9l23.8-284.6c1.4-16.7-2.1-33.5-9.9-48.3l-22.9-43.1L1780.3,2669.8z"/>
					<linearGradient id="SVGID_19_" gradientUnits="userSpaceOnUse" x1="1730.3511" y1="3143.2239" x2="1868.7501" y2="3143.2239">
						<stop  offset="0" style="stop-color:#09005D"/>
						<stop  offset="1" style="stop-color:#1A0F91"/>
					</linearGradient>
					<path class="st26" d="M1739.7,3195.8h35.4c6.6,0,12.9-3,16.9-8.3c11-14.3,33.9-42.3,44.8-43c14.7-1,12.8,51.3,12.8,51.3h8.2
						l10.4-65c2.6-16.3-5.5-32.5-20.2-40.2l0,0c0,0-3.4,24.9-21.6,35.9s-74.2,50.4-74.2,50.4s-6.9-1-14.4,0.4
						C1726.8,3179.3,1728.4,3195.8,1739.7,3195.8z"/>
					<linearGradient id="SVGID_20_" gradientUnits="userSpaceOnUse" x1="2013.9086" y1="3517.541" x2="2137.0291" y2="2078.5679">
						<stop  offset="0" style="stop-color:#FEBBBA"/>
						<stop  offset="1" style="stop-color:#FF928E"/>
					</linearGradient>
					<path class="st27" d="M1932.1,2690.7c0,0,146.9,278.7,170.3,342.3c23.4,63.6,31.5,116.7,31.8,121.7
						c0.5,7.9,10.3,15.4,37.2,15.4c13.9,0,20.7-5.6,24-11c2.8-4.6,3-10.4,0.6-15.2c-8.5-17.2-35.5-72.2-45.5-97.1
						c-11.9-29.8-37.6-164.6-51.6-211.5c-14.1-46.9-30-97.8-91.2-144.6C2007.7,2690.7,1965.7,2649.5,1932.1,2690.7z"/>
					<linearGradient id="SVGID_21_" gradientUnits="userSpaceOnUse" x1="1769.3496" y1="2045.4012" x2="1830.8965" y2="2616.4233">
						<stop  offset="0" style="stop-color:#4F52FF"/>
						<stop  offset="1" style="stop-color:#4042E2"/>
					</linearGradient>
					<path class="st28" d="M1839.3,2234.1c-37.9-160.6,58.1-251.4,58.1-251.4c-60.6-58.1-170.9-84.6-170.9-84.6
						s-105.3,77-92.8,137.3c7.3,35.3,74,211.6,74,211.6S1769.4,2276.1,1839.3,2234.1z"/>
					<linearGradient id="SVGID_22_" gradientUnits="userSpaceOnUse" x1="1918.0291" y1="2235.7556" x2="1791.5452" y2="2748.3491">
						<stop  offset="0" style="stop-color:#09005D"/>
						<stop  offset="1" style="stop-color:#1A0F91"/>
					</linearGradient>
					<path class="st29" d="M1923.3,2313.6c-15.4-46.5-84-79.5-84-79.5c-70,42-131.6,12.8-131.6,12.8s-13.8,52.9-4.3,102
						c9.5,49.1,69.4,364.9,69.4,364.9c94.4,19.1,239.5-19.2,239.5-19.2C1952.3,2587.9,1938.8,2360.1,1923.3,2313.6z"/>
					<linearGradient id="SVGID_23_" gradientUnits="userSpaceOnUse" x1="1752.8103" y1="2078.1116" x2="1775.932" y2="1908.9587">
						<stop  offset="0" style="stop-color:#FEBBBA"/>
						<stop  offset="1" style="stop-color:#FF928E"/>
					</linearGradient>
					<path class="st30" d="M1795.3,1792l30.8,138.4c2.9,12.2-8.2,10.2-20.5,7.9c-20.2-3.8-46.2-11.6-54.9-27.3
						c-0.9-1.6-1.3-3.4-1.6-5.2l-13.2-96c-1.1-7.6,3.1-15,10.1-18.1l25.5-11.3C1781.4,1775.9,1792.8,1781.5,1795.3,1792z"/>
					<linearGradient id="SVGID_24_" gradientUnits="userSpaceOnUse" x1="1882.5699" y1="2246.7483" x2="2062.9546" y2="1659.2096">
						<stop  offset="0" style="stop-color:#FEBBBA"/>
						<stop  offset="1" style="stop-color:#FF928E"/>
					</linearGradient>
					<path class="st31" d="M1897.4,1982.7c0,0,215,153.8,27.5,315.5c0,0-7.2,8.1-21.2,12.3c-7.1,2.1-28.1,18-38.8,26.3
						c-3.4,2.7-8.4,1.8-10.7-1.9l0,0c-1.8-2.9-2-6.5-0.6-9.6l26.6-56.3c7.4-6.9,18.7-7.4,26.7-1.2l0,0c5.1,4,12.5,2.3,15.4-3.5
						c14.5-29.5,41.9-116.4-70.2-214.5c-4.2-3.7-5.3-9.8-2.7-14.8C1857.4,2020.1,1875.4,1990,1897.4,1982.7z"/>
					<g>
						<linearGradient id="SVGID_25_" gradientUnits="userSpaceOnUse" x1="1694.4501" y1="1860.0219" x2="1896.1887" y2="1500.995">
							<stop  offset="0" style="stop-color:#FEBBBA"/>
							<stop  offset="1" style="stop-color:#FF928E"/>
						</linearGradient>
						<path class="st32" d="M1759.2,1660.2c0,0-36.5,15.4-61.3,68.1s-6.3,77.1,17,80.4c23.3,3.3,58.1,2.8,94.9-31.2
							C1846.6,1743.5,1806.6,1642,1759.2,1660.2z"/>
						<linearGradient id="SVGID_26_" gradientUnits="userSpaceOnUse" x1="1737.8337" y1="1547.3658" x2="1838.7028" y2="1800.3934">
							<stop  offset="0" style="stop-color:#09005D"/>
							<stop  offset="1" style="stop-color:#1A0F91"/>
						</linearGradient>
						<path class="st33" d="M1785,1749.4c0,0,27.5-77.1-40.9-78.1l-16.1,11.2c0,0-25.1-42.8,16.1-63.2s89.4-3.6,106.9,51.9
							c17.5,55.5,20.5,92.6-8.6,119.2s-41.2-3.6-41.2-3.6s15.9-24.8,9.4-38.1c-6.5-13.3-21.4,2.7-21.4,2.7L1785,1749.4z"/>
						<linearGradient id="SVGID_27_" gradientUnits="userSpaceOnUse" x1="1737.3923" y1="1884.1516" x2="1939.1307" y2="1525.1251">
							<stop  offset="0" style="stop-color:#FEBBBA"/>
							<stop  offset="1" style="stop-color:#FF928E"/>
						</linearGradient>
						<path class="st34" d="M1792.7,1758c0,0,13.9-39.7,32.5-23.9c18.6,15.8-15.1,36.7-28.3,43.5L1792.7,1758z"/>
					</g>
					<g>
						<linearGradient id="SVGID_28_" gradientUnits="userSpaceOnUse" x1="1514.0645" y1="1701.2997" x2="1700.4164" y2="2125.2927">
							<stop  offset="0" style="stop-color:#FEBBBA"/>
							<stop  offset="1" style="stop-color:#FF928E"/>
						</linearGradient>
						<path class="st35" d="M1455.6,1600c-1.5,4.7,15.6,11.8,25.7-7.4c0.4-9.2,5.9-48.6,0.4-56.1c-29.3-39.9-86-89.9-86-89.9
							c-9.6,9.5-1.7,18.8-1.7,18.8l27.5,28.7c-5.8,10.4-12.8,19.2-16.1,31.8c-2.5,9.5-1,19.7,3.8,28.4c4.8,8.7,11.4,20,17.7,28.9
							C1438.8,1599.8,1455.6,1600,1455.6,1600z"/>
						<linearGradient id="SVGID_29_" gradientUnits="userSpaceOnUse" x1="1425.4967" y1="1544.9634" x2="1468.9806" y2="1544.9634">
							<stop  offset="0" style="stop-color:#FEBBBA"/>
							<stop  offset="1" style="stop-color:#FF928E"/>
						</linearGradient>
						<path class="st36" d="M1441.7,1580.3c-2.1-11.6-8.4-43.1-12.8-50.2c-3-5-4-9.1-3-12.6c0.8-3,3-5.3,6.6-7.1l1.5-0.8l26.9,22.8
							l8.1,21.8l-4.8,1.8l-7.6-20.5l-23.2-19.7c-1.4,0.9-2.2,2-2.5,3.1c-0.6,2.1,0.3,4.9,2.5,8.6c5.8,9.4,13.1,50.3,13.4,52
							L1441.7,1580.3z"/>
					</g>
				</g>
			</g>
		</g>
	</g>
</g>
</svg>
