<svg xmlns="http://www.w3.org/2000/svg" viewBox="0 0 1525.41 1149.87"><defs><style>.cls-1{fill:#eec6c6;}.cls-2{fill:#f4f8f9;}.cls-3{fill:#fafcfc;}.cls-4{fill:#fff;}.cls-5{fill:#617f46;}.cls-6{fill:#f2c9a7;}.cls-7{fill:#f4bd5d;}.cls-8{fill:#cc5959;}.cls-9{fill:#8f2424;}.cls-10{fill:#9e3232;}.cls-11{fill:#0a162d;}.cls-12{fill:#bf3030;}.cls-13{fill:#0a0501;}.cls-14{fill:#0f2c6d;}.cls-15{fill:#9e3332;}.cls-16{fill:#2b2b87;}.cls-17{fill:#ff3f1f;}.cls-18{fill:#721111;}.cls-19{fill:#3b4557;}.cls-20{fill:#f4f48c;}.cls-21{fill:#c1bc6f;}.cls-22{fill:#f9f2f2;}.cls-23{fill:#f4b489;}.cls-24{fill:#070707;}</style></defs><g id="Layer_2" data-name="Layer 2"><g id="Ñëîé_2" data-name="Ñëîé 2"><path class="cls-1" d="M1525.37,651.09c0,.24,0,.26,0,0,2.15-123.51-76.92-247.23-138.17-350.93-22.13-37.48,135.58-98.78,108-176-40-112-182.69-101.18-241.19-97.3-63.49,4.22-121,30.1-183.25,36.43C1006.18,69.86,942.21,30.13,878,24c-118.48-11.3-231.32,39.5-347.89,26.16-87.47-10-171.83-38-259.4-47.72C-2.35-27.83-39.23,229,30.92,438.79c39.59,118.41,96.23,273.65,40.25,395-35.75,77.53-99.86,178.59-11.61,240,175.64,122.32,458.47,6.59,667.64-13.68,136.72-13.26,259.11,62.28,392,84,91,14.86,183.32-4.52,276,0,98.93,4.82,119-66.11,101.62-154.27-14.36-73-6.66-104.65,10.38-173.73C1519.5,766.32,1524.49,701.78,1525.37,651.09Z"/><path class="cls-2" d="M318,365c-11.66-23.68-5.41-67.79,29.9-62.55,29.94,4.44,25.35-33.16,45.06-45.63,41.23-26.06,28.21-3.76,63.08-48.16a134.92,134.92,0,0,1,42.07-35.32c26.15-13.48,49.35,6.35,71.63-3.82,4-39.05,45.7-71.63,83.1-48.89,40.42,24.58,38-12.08,87.8,5.64,32.81,11.67,56.83,35.8,87.78,49.94,27.22,12.44-16.83,50.85,3.24,58.65,16-11.59,79.43.28,106.24,3.74,46.6,6,115.17,16.19,70.42,82.19-30.29,44.68-52.24,84.78-113.22,93-22.56,3-59.63,1.6-82.54-.13-32.27-2.44-32.52-35.78-52.79-39.38C756.9,413,650.3,471.32,639.45,411.81c-7-38.36-38.24-15.46-64.18-31.78-24.12-40.31-63.85,11-90.65,26.64-32.23,18.82-47.11-10-68.53,21.08-22,31.83-47.27,22.89-62.95-6.07-11.23-20.73-48.88,4.39-68.34-2.92C257.57,408.52,287,344.08,318,365c-7.7-15.64-1.13-3.09,0,0Z"/><path class="cls-2" d="M1487.42,704.59c-8.15-7.61-33.14-24.33-43.45-28.7-26.52-11.25-37.68,3.15-60.43,6.63C1398,639,1261,649,1253.4,694.68c-24.9-7.55-80.42-29-86.92,15-8.24-.94-19.73-32.88-30.31-11.74-5.24,10.48-10.55,33.84-5.11,45-2.37-3.73,1.15,34.22,21.6,36.9,16.85,2.21,31.39-6.51,44-16.21,12.32-9.45,16.77,2.63,30.79,5.09,17.45,3.06,33.09-.72,50.06-4.48.31,11.72,12.46,14.84,21.74,15.39,27.48,1.64,71.77-8.63,83.94-35.78-7.66,37.44,44.4,39.88,65.65,26.82,15.38-9.44,63.16-43.14,38.53-66.13Z"/><path class="cls-2" d="M225,1013c-11.19,3-11.6-18.26-9.73-24,9.7-29.73,28.17-12.24,48.21-7,13.73-40.13,7.84-44.72,36.31-71.7,20.94-19.83,70.46-7.17,63.52,24.29,13.46,3.44,32.8-3.87,37.65,15.27,6.46,25.51,20,5.66,32,26.37,7.23,12.51-11,42.54-21.95,48.07-69.22,34.93-124.31,6.92-194.79-6-.31-1.37,7.79-4.86,8.77-5.25Z"/><path class="cls-3" d="M455,535.25c-11.7-1.84-21.62,6.8-21.62,6.8,1.79,4.34,11.31,7.91,13,8.24s23.79,4.07,25-2.17S466.68,537.09,455,535.25Z"/><path class="cls-4" d="M1510.61,429.9c-30.9-24.9-63.18-48.88-69.17-50.26,0,0-34.59-31.36-57.64-27.67s-22.14,6.92-22.14,6.92-32.28-34.13-51.18-26.29-21.68,18.45-21.68,18.45l-10.13-3.23a1035.35,1035.35,0,0,0-106.06,42.42L1058.25,446l-8.76,8.3L868.26,536,848,518.44l-33.66,18.44s58.1-49.34,51.19-62.71-17.07-13.84-17.07-13.84S921.75,409.61,919,388.4c0,0,11.53-35.51-40.12-30.9,0,0,63-69,52.11-86.69-7.38-12-26.29-10.14-26.29-10.14s45.19-50.72,33.2-73.32c0,0-7.84-13.83-15.21-6S761.28,308.63,760.36,315.08c0,0,4.15-35-23.06-28.59,0,0,40.58-76.08,36-86.23s-14.76-17.06-60.87,36S597.58,439.58,597.58,439.58l-.13,2.25a106.82,106.82,0,0,0-22.91-24.67c-38-29.67-62.34-67.67-117.34-65s-82,55.66-82,55.66-13.66,25.67,15.67,54.34c0,0-42.23,21.64-38.62,27.82,0,0-4.58,9.54,31.66,25.78l1.44,1a28.76,28.76,0,0,0,.43,4.26c.34,1.64,1.54,11.14,1.34,13.83s-.83,17-.83,17-5.09.34-13.09,10.34,15,17.5,15,17.5c1.45,25.81,5,23.71,5,23.71l-.5,9.29c2-1,10.23,4,10.23,4-3.55,16.84,3,33,3,33,26,18,73.74,2.5,73.74,2.5l10.46,13.93-1.92-.16s-55.8,14.47-75.78,7.58c0,0-158.46-97.83-157.77-110.92L252.62,566l-11-11L234,565.35l-11.43-55.07s.85-28.18-12.39-38.87l43.28-74.19L125.83,320.66,17,501.28l127.45,75.78,24.11-36.51s-1.37,44.09,33.76,51L198.2,595l11.71,11.71-2.76,2.07S333.92,729.32,343.56,732.07c9.42,2.69,53.64,24.09,158.08,37.69,6,12.67,29,46.49,126.62,93.3C750.72,921.79,869,942.19,869,942.19l144.11,48.73h3.75s121.21,58.73,152,46.65,107-187,117.87-202.84c0,0,14.16-34.57,7.08-43.73s-134.12-52.06-134.12-52.06-122.6-40.63-143-46.05a15.16,15.16,0,0,0-4.93-1.46,6.66,6.66,0,0,0-2.49.61c-4.25-.38-10.77-1.14-17.41-2l3.56-2.62s-4.42-13.69-10.16-22.08l260.14-136.79,125.89-65.48s37.36,26.28,62.26,1.84c0,0,18.44,6.46,45.65,21.68S1541.5,454.8,1510.61,429.9ZM400.92,483.4l.05-.21.73.28ZM533.7,623.16c2.5,0,8-1.5,5.5-5.5s2.7-6.15,5.67-10.17c6.67-9,20.39-10.46,19.06-37.21l6.61-24.46a49.78,49.78,0,0,0,21.17-3.12l-.1,1.73s-1.49,17.36-8.05,41.25l-.86-.52-20.5,54.5-6,.5C548.2,644.66,531.2,623.16,533.7,623.16ZM866.92,921s-70.81-10.41-76.64-12.08-137.45-35.4-201.59-81.22c-2.37-1.69-4.58-3.3-6.65-4.85,35.6,16.46,85.45,25.19,148.38,1.59,0,0,91.29,31.83,163.17,55.32h0S866.92,918.45,866.92,921ZM989.79,707.7l.19,1.24c-16.19,18-37.07,47.61-51.94,77.9l-66.26-30.48L970.29,706l.52-.39Z"/><path class="cls-5" d="M467.9,545.12c-.9,6.75-3.64,6.57-8.13,6.77-8.79.41-11.23-3.22-11.23-7s2.91-10.28,7.36-9.68C468.8,537,468.4,541.41,467.9,545.12Z"/><path class="cls-5" d="M389.37,539.7s-.79-6,2.56-8.91c4-3.53,9.76,4.42,9.76,4.42s-2.45,7.59-6.11,7.2A12.07,12.07,0,0,1,389.37,539.7Z"/><path class="cls-6" d="M232.53,566.67A364.32,364.32,0,0,0,221.32,517c-2.38-8-5.51-15.8-12.61-20.53-6.33-4.2-12.7-7.23-18.62-12.1-5.19-4.26-19.37-16.78-26.87-14.34-8.78,2.86,4.78,19.27,10.21,23.47,8,6.21,18.3,9.15,17.83,20-.39,9-1.87,17.58.06,26.55,1.75,8.09,5.12,16.65,10.47,23.2-3.08-1.25-11.59-17.67-13.19-25.91-1.45-7.42-.31-15.89-4.57-22.37-3.43,5.52-6.79,10.4-9.35,16.59-2.44,5.89-4,11.29-3.13,17.62.82,6.18,1.82,14.54,5.5,19.79,3.49,5,20.23,15.89,23.41,17.1a10,10,0,0,1,5.27,4c6.81-3.4,12.84-9.83,18.69-14.7C226.59,573.62,232.53,566.67,232.53,566.67Z"/><path class="cls-6" d="M212.18,474.26c-4.06,1.37-9.39,8.62-9.19,12.93.2,4.55,14.73,10.71,17.69,13.61-1-5.91-3.6-22.27-8.5-26.54C208.79,475.41,215.54,477.19,212.18,474.26Z"/><path class="cls-6" d="M523.8,618.92c-4.08-6.35-3.5-13.53-1.31-20.46,1.84-5.81,2.72-2,8.18-1.37,3.53.43,5.81-3,8.74-5.11-1.23.87-2.59,1.83,0,0,9.51-6.72,17-22.15,5-30.53-15-10.45-24.21,4.9-35.45,12,2.12-3.68,4.84-26.42,2.42-33.49-3.62,6.76-5.32,1.09-6-5.84-.75-7.21-3.16-10-4-17.13-1.81-14.64-14.5-16.84-26.61-18.5-14.9-2-28.23-9-43.2-10.78-13.46-1.56-28.72-7.05-36.6,7.79-2.74,5.15-4.14,10.9-5.69,16.5,2.38,4.15,1.38,13.88,1.38,18.4,6.46-.72,8.44.51,12.46,5.84a57.91,57.91,0,0,1-5,7.32c-.06-.19-9.28-1.42-10.72-4.58-.67,1.61-.87,5.06-1.09,6.79a18.71,18.71,0,0,0,.08,6.07c.9,2.89-11.06,6.2-11.12,12.89s11,9.22,13.49,15.23c2.92,7.09,2.35,13.61,5.2,20.84-.1-.41,3.89,10.57,8.39,13.27,6.09,3.66,3.52,10.87,3.34,16.87-.18,5.75,2.8,13.58,6.12,18.21a9.92,9.92,0,0,0,2.63,2.5c-1,.51-1.45,1.28-.6,2.43,1.41,1.92,4.72,2.55,6.91,2.61,1.49,0,3.09.25,4.65.2a24.35,24.35,0,0,0,2.36,1c13.43,4.55,27.73-1.51,41-3.43,16.54-2.39,26.6,11.5,38.87,20.19,10.61,7.52,23.46,10.3,32.42-1.09,6.14-7.8,9.81-20.44,6.56-30.19C542.78,632,529.91,628.43,523.8,618.92Zm-52.27-72c-.41,3.16-1.33,3.29-3.84,3.9a42.41,42.41,0,0,1-14.26.78c-4-.55-18.17-4.12-20.07-9.58,8.83-6.93,22.2-11.13,32.49-4C469.3,540.49,471.92,544,471.53,547Z"/><path class="cls-6" d="M991.7,899.66c5.94,4.58,96.18,52.31,96.59,51.73,4.94-6.92-3.24-20.17-6.76-26.23,9.27,2.4,57.87,21.94,64.45,13.94,4-4.9-12.94-17.47-16.37-19.5,3.74,2.81,24.08,15.74,28.21,9.54a15.42,15.42,0,0,0-6.75-10.73c19.66-1,6.73-14.14-10.87-23.34,30.69-7.06-41.23-28.13-59.81-33.23C1024,846.37,1015.25,843,991.7,899.66Z"/><path class="cls-7" d="M501.13,509.83c1.08,2.84,3.78,29.29,6.44,29.66a11.82,11.82,0,0,0,4.08-5.89c5.8,4.77.06,27,.9,33.65,12.73-14,44.4-19.74,41.27,8.4-1.34,12-10.72,15.33-19.78,20.72-6.91,4.11-15.19,17.53-5,23.45,9.11,5.3,23.2-19.37,27.53-24.74,9.63-11.92,12.55-20.54,4.16-34.66-13.7-23.08-36.5-42.91-61.39-52.7-.78,4.4,3.44,2.58,1.8,2.11Z"/><path class="cls-8" d="M936.29,186.77c-12.61-11.61-102.95,67.79-117.19,79.59-67.82,56.23-170.49,131.15-175.79,226.41-2.56,46.11-27,102.18-40,145.47-8.67,28.92,71.29,40.63,86.18,26,33.56-33,54.41-74,92.85-103.89,15.62-12.17,109.81-81.76,62.61-99.41,15.66-17.24,52.79-32.64,65.85-52.16,18.56-27.76-8.48-56.56-33-39,21-22.28,38-55.47,49.5-84,15.23-37.68-49.9,8.91-58.65,15.9C870.93,296.55,957.93,206.7,936.29,186.77Z"/><path class="cls-8" d="M735.19,288.21c5.94-20.47,19.68-39.82,22.95-60.78,4.82-30.94-28.92-9-39.14,1-16.38,16-26.43,36.19-37.59,55.83-11.35,20-25.38,38.14-36.9,58-10.33,17.78-17.94,37.13-26.85,55.64-8.27,17.15-17.47,35.34-8.16,53.83,9.59,19,15.45,34.7,9.89,56.43-4.44,17.37-15.74,31.76-22,48.44-6.92,18.52-13.15,36.33-21.62,54.26-3.13,6.65-8.74,17.13-4.5,24.45,4.45,7.65,17,7.14,24.51,7.47,0,0,18.69-16.1,23.78-28.28a344.32,344.32,0,0,0,15.73-47.62c7.92-31.24,8.64-61.08,8.56-93.16,0-16.17,3.28-27.95,12.9-41.25,8.88-12.28,17-24.77,26.7-36.43,8.49-10.17,13.9-22.92,22.83-32.58a227.2,227.2,0,0,1,30.28-27.11c10.31-7.75,21.06-18.92,24.64-31.78C766,287.34,746.83,286,735.19,288.21Z"/><path class="cls-9" d="M921.62,192c-14.84,6.82-23.68,31.2-29.91,44.83-7.78,17-14.78,34.37-25.17,50-11.19,16.86-25.13,31.78-39.2,46.25-15.4,15.84-32.41,31-44.69,49.48-11,16.52-14.85,34.79-17.35,54.15,3.14-3.62,80.62-74.61,103-120.27a259,259,0,0,1,28.42-46c12.93-16.62,26.56-33.76,33.08-54.1,2.32-7.22,6.94-31.33-8.18-24.38Z"/><path class="cls-9" d="M879,356.41c-5.48,3.27-7.57,9.45-10.61,14.94a165.75,165.75,0,0,1-10.51,16c-8.62,12.19-21.38,20.53-31.72,31.24-9.16,9.48-19,18.77-27.85,28.38-5.24,5.67-27.59,26-18,32.26l4.5-3c9.47-9.06,21.25-14.78,30.14-24.51s18.22-19.39,27.34-28.82,16.48-20.28,23.49-31.42C871.87,381.79,880.84,368.24,879,356.41Z"/><path class="cls-9" d="M854.35,462.62c-12.85-17.41-46,32.84-51.05,40.58C794.55,516.53,783,527.82,771.78,539c9.84,1.39,16.74-3.63,24.32-9.56,8.11-6.36,13.85-16.09,21.69-21.72l-1.5,4.5c5.5-9.67,12.32-19.18,20.77-26.51C842.1,481.37,861.06,471.72,854.35,462.62Z"/><path class="cls-9" d="M693.08,640c-6.15-2.45-13,.76-19.45-.76S658.83,633,654,628.29c-18.37-17.56-5.48-56.43-3-77.92,1.57-13.61,3.68-27.15,5.45-40.73,1.5-11.52,3.3-28.31-5.49-37.66-2.58,1-3.61,4.21-5.63,5.77l-9,15c-.64,36.4-3.41,69.94-16.1,104.12-3.33,9-7.73,17.48-11.51,26.26-3.24,7.54-5.43,16.42-10.86,22.72,5.68-.71,10.92,1.43,16.72,1.4,4.46,0,12-1.3,15.79.79,8.69.09,14.92,11.86,20.94,17.53,8.49,8,18.2,12,28.92,15.58,4.53-5,6.39-12.78,8.7-18.8C691.1,656.62,694.36,646.39,693.08,640Z"/><path class="cls-10" d="M373.71,416.37c2.14-13.1,17.79-20.16,27.53-26.87,12.94-8.92,22.52-20.82,37.55-26.84,34.84-14,77.09,10.46,106.44,27.85,29.8,17.66,58.4,50.48,68.22,84.3,9.59,33-2.33,73.81-43,71.14,1.21-4.86,2.1-9.79,3.38-14.63,1.68-6.39-3.27-13.74-5.9-19.71-5.76-13.06-13.68-25.38-21.88-37.06-17.89-25.49-50.48-44.81-80.81-51.44-14.77-3.23-31.88-3.52-45.86,3-10.58,4.92-14.62,14.6-19.32,24.56-1.91,4-3.11,9.58-8.66,7.39-4.19-1.66-7.14-6.11-9.32-9.82-5.22-8.86-10.11-21.38-8.41-31.86C376.15,401.38,371.37,430.77,373.71,416.37Z"/><path class="cls-10" d="M355.88,485.59c18.49-11.38,34-25.41,57-25.13,23.39.29,48,.69,69.86,9.68,20.91,8.59,40.28,20.1,56.21,36.24,7.76,7.86,27.71,31.22,30.23,42-.75,11.29-.37,11.66-3.76,22.57-5.85-19.68-25.92-42.09-40.75-55.27-16.88-15-39.55-20.4-61-26.37-20.65-5.74-45.31-7.95-66.72-8-14,0-28.94.82-41.11,4.23Z"/><path class="cls-10" d="M397.27,458.88c7.63-14.91,16.2-29.84,33.64-34.17s37.83.13,54.56,6c37.25,13,71.1,41.95,81.34,81,1.49,5.66,6,16.77,5.41,22.86C570.63,551.82,557.78,526,555,523c-12.67-13.53-24.5-26.52-39.44-37.87C499.8,473.22,479.84,467.87,461,463c-22-5.65-42.83-7-65.31-3.41a11.81,11.81,0,0,0,1.57-.75Z"/><path class="cls-11" d="M383.37,514.54c-7.6-4.13-28.79-11.7-26-23.7,1.54-6.7,10.91-5.2,15.9-5.91,5.76-.82,22.13-2.48,23.85-.82-4.49,9.39-12.65,20.51-13.71,30.43Z"/><path class="cls-12" d="M918.93,582.6l-47.21-46.22s123.91-43.26,177-79.65,234-105.22,234-105.22,35.4,14.75,45.23,27.53L1110.68,498Z"/><path class="cls-12" d="M984.81,666.19l412-218.31s8.85-45.24-37.37-68.84c-29.5,5.9-58,27-180,89.49-37.81,19.37-198.64,81.62-226.18,98.34L918.93,582.6Z"/><path class="cls-13" d="M1349.69,350.23c-4.18-3.46-9.72-5-14.5-7.44-5.11-2.59-10-6.16-15.76-7.24-10.79-2.05-22.94,3.64-25.39,14.66,9.88,5.27,20,8.35,26.21,18.51,2.61,4.31,5.39,10.13,10.46,12,4.77,1.75,9.76-1.22,13.68-3.7C1354.21,370.8,1360.58,359.24,1349.69,350.23Z"/><path class="cls-13" d="M1510.15,436.93c-9.9-13.26-25.44-21.09-39.06-29.86-27.66-17.81-52.1-44.15-85-51.95-2.93-.7-5.88-1.27-8.83-1.84l1.42,2.13c-6.37,3.47-25,11.08-16.88,20.72,3.87,4.61,9.65,7.76,14.32,11.48,5.63,4.48,10.8,9.55,14.48,15.78,6.6,11.14,6,24.8,12.35,35.86,6.77,11.69,21.46,16,33,21.23,14.25,6.4,27,15.61,41.21,22,12.1,5.43,26.35,5.79,35.15-5.62C1521.61,464.82,1518.73,448.41,1510.15,436.93Z"/><path class="cls-13" d="M1422,460c-7.31-2.95-14.71-9-22.84-8.9-9.12.14-16.73,5.19-23.28,11l-.72,1.42c6.64,4.29,12.62,8.87,20.67,9.88s17.6,1.93,25.15-1.16c2.51-1,7.66-3.5,7.84-6.79S1424.36,461,1422,460Z"/><path class="cls-12" d="M498.76,675.88s-12,34-9.86,53.87c4.61,42,23.56,49.31,36.05,63.76,0,0,17.83,23.63,69.73,52.54s128.78,56.5,128.78,56.5S853.55,940.66,865.38,940c0,0-2.63-17.08.66-17.74,0,0-84.76-12.48-103.16-19s-20.36-5.26-29.56-6.57-18.4-7.88-41.4-14.45-68.33-33.51-68.33-33.51-70.5-43.09-74.24-46c-18.41-14.32-48.09-46.25-52.56-76.87-2-13.91,5-37.79,12.51-41.5Z"/><path class="cls-12" d="M685.78,677.58l4.27-13.84,316.3,27.56s-16.67,13.33-16.67,15.24S685.78,677.58,685.78,677.58Z"/><path class="cls-12" d="M1292.06,789.4c-25,10-254-108-279-98.1-20.54,8.14-74.4,95.73-74.4,95.73l24.32,11.8s53.88,26.39,63.12,30.71c8.76,4.1,3.82,16.32,2.08,19.18l2,.4c1.72.32,3.89.8,6.43,1.4,23.69,5.44,62.86,16.63,62.86,16.63s4.83,1.65,11.45,4l2.08.61h-.35c14.24,5.16,35.05,13.14,36.09,16,1.59,4.37-6.35,8.35-6.35,8.35,17.48,9.14,20.87,15,20.87,15,1.81,14.6-12.13,7.25-12.13,7.25.4,1.19,9.14,7.15,6.75,10.73-3.85,5.78-28.21-9.54-28.21-9.54s14.7,13.11,16.59,15.06.44,5.94-7.81,7.19-56.86-16.69-56.86-16.69,7.16,14.7,8,19.87-4.1,11.2-6.49,8.42-30.45-24.56-51-29.93c-26.88-7-40.3-23.86-40.3-23.86s-.18,4-2.76,3.4c-4.84-1.11-10.74-.21-11,1.22-26-5.27-53.15-15.85-78.17-22l-7.8-1.06s-41.07,50.08-24.19,58.52,137.15,37,137.15,37,132.46,68.74,157.22,58C1185.6,1024.65,1303,785,1292.06,789.4Z"/><path class="cls-10" d="M707.59,680.39c-14.53-2.35-28.67-1.48-41.55-9.59a142.83,142.83,0,0,0-34.73-16.34c-4.38-1.39-52.88-11.66-52.53-9.76,1.64,8.89,40.17-.16,32,15.65-11.67,22.57-22.21,44.61-28.2,69.74.8-3.33,9.81-4.86,12.4-5.59,7.27-2,5.12,3.31,4.62,8.63-1.87,19.82,5.59,40.74,8.73,60,2,12.51,3.71,36.87,18.85,43.21,16,6.72,89.38-7,94.19-13.38-6.26-4-33.71-11.24-44.42-17.66C649,788.56,627.7,770,616.75,740c-2.62-14.55-.8-46.34,12.35-55.89,9.88-7.17,20.12-7.26,31.65-7.51,15-.32,40.15,8.63,59.39,15.67,13.38,4.89,125.12,54.14,144.12,59.57,20.37-6.07,79.21-34.78,97.94-46C958.45,704.2,755.62,688.14,707.59,680.39Z"/><path class="cls-14" d="M944.11,705.38Z"/><path class="cls-14" d="M944.11,705.38l1.83.16h0Z"/><path class="cls-10" d="M599.34,726.68c-4-1.2-17.47,8.53-20.9,10.23,3.84-12.33,29.27-77.67,30.53-80.88-2.88-3.72-27.25-7.24-31.83-10-2.95,8.44-2.74,13.08-8.31,27.7-4.53,11.9-15.76,85.17-9.09,107.58,14.45,45,38,45,55.66,51.37C603.09,806.42,595.06,751.3,599.34,726.68Z"/><path class="cls-15" d="M557.75,785.76c-.75-5-.69-7.87-5.46-10.23-4-2-8.14-3.83-11.82-6.44-7.69-5.47-13.76-10.75-18.76-18.81-5.23-8.42-9.35-19-10.55-28.9s.74-19.84.14-29.8c-.8-3.58,2.44-7.78-1.83-6.93-6.12,1.21-8.75,9.38-10.86,15.43-9.88,28.47,10.86,70.68,41.61,94.54,9.72,7.55,21.45,17.24,32.69,22.69C566.15,807.66,559.45,797.07,557.75,785.76Z"/><path class="cls-10" d="M629.31,687.07C579.54,747,674.8,802.14,741.17,825.69,780,839.47,933,888,972.25,901.11c1.72-34.75,37.85-72.53,43.47-75.42C985.58,809.23,713.87,692.16,694.07,684.4,686.08,681.26,643.05,670.53,629.31,687.07Z"/><path class="cls-10" d="M746.61,598.48c10.54-9.51,19.86-20.79,30.36-30.35,9.88-9,18-17.1,28.43-25.45,9.43-7.53,34.44-20.71,42.14-24.57C862,529.43,867.19,538.25,877.17,547c22.67,19.9,37.09,40,57.56,62.13,9.13,9.89,62.12,72.74,59.72,80.68-11.56.24-49.29-4.62-60.23-5-16.89-.65-33.73-2.18-50.58-3.49-64.31-5-194.45-18.53-193.59-17.56C700.33,645.75,725,618,746.61,598.48Z"/><path class="cls-10" d="M486.94,691.74c11-32.74-15.75-17.6-38.36-15.66-35.13,3-62.39-15.44-91.25-33.49C330.81,626,259,571.24,254.22,566c-10.11,4.72-34.26,34.67-41.33,43.08,13.49,20.44,34,39.62,44.38,47.85,15,11.87,39.15,39.31,75.24,66.95,21.77,16.69,54.85,19.38,80.95,24.85,27,5.66,48,8.75,75.82,12.3-5.07-24.23-10.17-46-2-70.27l-1.58,4.71c.42-1.25.84-2.49,1.25-3.74C489.67,683.62,483.23,702.8,486.94,691.74Z"/><path class="cls-8" d="M95.14,535.81c-30.59-22.21-53.22-35.54-37.92-75.89,11.91-31.39,36.15-59.76,53.25-88.39,9.08-15.19,14.4-27.37,18.9-34.54,18.79,11.13,55.48,29,72.76,42.58,32.82,25.88,5.64,58.63-8,86.36-7.56,15.37-8.58,14.11-21.86,4.29-17.1-12.65-17.09,7.08-8.72,16.78,8.75,10.15,15.72,9.76,8.29,24.61-6.92,13.83-26.33,40.3-28,48.55C137.79,562.19,104.81,542.84,95.14,535.81Z"/><path class="cls-16" d="M27.86,487c-.55-.64-2,1.34-2.44,3.62.58,1.39,1.06,8.31,2.8,7.36C31.21,496.36,28.82,488.13,27.86,487Z"/><path class="cls-16" d="M41.23,504.34c-1.36-.06-10.28,2.23-10.86,2.39.87,1.15,5.28,2.8,6.56,2.56,2.36-.45,7.45-1.31,9.65-2.19C47.69,506.65,45.32,504.55,41.23,504.34Z"/><path class="cls-16" d="M61.55,515.58c-1.54-2.1-5.69-3.06-8.5-2.62-1.36.22-7.62,2.1-8,2.62a8.4,8.4,0,0,0,5.55,2.24C53.05,517.69,61.08,516,61.55,515.58Z"/><path class="cls-16" d="M74.78,523.7c-1.54-2.1-5.69-3.07-8.5-2.62-1.36.22-7.62,2.1-8,2.62a8.39,8.39,0,0,0,5.56,2.23C66.28,525.81,74.31,524.12,74.78,523.7Z"/><path class="cls-16" d="M89,531.88c-1.54-2.11-5.69-3.07-8.5-2.62-1.36.22-7.62,2.1-8,2.62a8.39,8.39,0,0,0,5.56,2.23C80.53,534,88.56,532.29,89,531.88Z"/><path class="cls-16" d="M103,540.51c-1.54-2.11-5.69-3.07-8.5-2.62-1.36.21-7.62,2.1-8,2.62A8.44,8.44,0,0,0,92,542.74C94.46,542.61,102.49,540.92,103,540.51Z"/><path class="cls-16" d="M117.34,549.26c-1.54-2.1-5.69-3.07-8.5-2.62-1.36.22-7.62,2.1-8,2.62a8.45,8.45,0,0,0,5.56,2.24C108.84,551.37,116.87,549.68,117.34,549.26Z"/><path class="cls-16" d="M131.21,557.44c-1.54-2.1-5.69-3.07-8.5-2.62-1.37.22-7.63,2.1-8,2.62a8.45,8.45,0,0,0,5.56,2.24C122.71,559.55,130.74,557.86,131.21,557.44Z"/><path class="cls-16" d="M144,565.88c-2.37-3.26-5.69-3.07-8.5-2.62-1.37.21-7.62,2.1-8,2.62a8.44,8.44,0,0,0,5.56,2.23C135.49,568,143.52,566.29,144,565.88Z"/><path class="cls-16" d="M143.48,573.32c-1.71.52,1,2.07,1.19,1.7a1.51,1.51,0,0,0-1.19-1.7Z"/><path class="cls-16" d="M184.76,509.58c3.71-3.84,1.34-5.82-2.5-7.86C182.26,501.72,183.65,510.73,184.76,509.58Z"/><path class="cls-16" d="M194,484.08a29.63,29.63,0,0,0-1-4.41C189.65,479.19,192.24,486.51,194,484.08Z"/><path class="cls-16" d="M201.31,482.29c1-1.47,2.11-3.26,2.75-4.41-.92-5.26-1.8-12.07-2.45-13.14C200.92,465.4,197.67,470.79,201.31,482.29Z"/><path class="cls-16" d="M211.66,457.05c-.32-2.37-.57-5.12-1.4-6.46-2.49-.21-3.2,16.26-.7,17.18C212.83,469,211.84,458.35,211.66,457.05Z"/><path class="cls-16" d="M218.24,437.81c-.12-1.14-.57.07-1.47,1.47-2.28,3.27-.39,12.11,1.22,14.19,1.82,2.35,2.44-5.47,2.11-6.46C219.89,446.41,219,440,218.24,437.81Z"/><path class="cls-16" d="M245.15,399.53c-2.75-.12-5.31,3.52-1.6,12.27,1.23-.91,2.84-4.63,2.56-6.26C245.9,404.36,245.72,400.75,245.15,399.53Z"/><path class="cls-16" d="M143,333.58c2.76-1.77-9.27-2.75-10-2.68s-4.22.32-4.22,2.68C128.78,337.61,139.21,336,143,333.58Z"/><path class="cls-16" d="M126.47,322.92c-.53,1.78.09,2.93,1.78,2.6C130.82,325,127.88,323.36,126.47,322.92Z"/><path class="cls-16" d="M114,359.42c1.77-2.05.86-4.71.27-7.08A46.4,46.4,0,0,0,112,345c-2.23.43-2.11,5.08-2.1,6.84.25,1.26.49,2.54.78,3.78C111,357.25,111.63,362.13,114,359.42Z"/><path class="cls-16" d="M96.84,388c1.77-2.05.86-4.7.28-7.08a46.43,46.43,0,0,0-2.28-7.39c-2.23.43-2.1,5.09-2.1,6.85.26,1.26.5,2.53.79,3.78C93.92,385.82,94.5,390.7,96.84,388Z"/><path class="cls-16" d="M88.6,401.91c1.77-2.05.86-4.7.27-7.08a46.4,46.4,0,0,0-2.27-7.39c-2.23.44-2.11,5.09-2.1,6.85.25,1.26.49,2.53.78,3.78C85.67,399.75,86.26,404.63,88.6,401.91Z"/><path class="cls-16" d="M80.1,416.1c1.77-2.05.86-4.7.27-7.08a46.4,46.4,0,0,0-2.27-7.39c-2.23.43-2.11,5.09-2.1,6.84.25,1.27.49,2.54.78,3.79C77.18,413.94,77.76,418.82,80.1,416.1Z"/><path class="cls-16" d="M71.6,429.77c1.77-2,.86-4.71.27-7.08a46.4,46.4,0,0,0-2.27-7.39c-2.23.43-2.11,5.08-2.1,6.84.25,1.27.49,2.54.78,3.78C68.68,427.6,69.26,432.48,71.6,429.77Z"/><path class="cls-16" d="M63.43,444.77c1.77-2,.86-4.71.28-7.08a46.43,46.43,0,0,0-2.28-7.39c-2.23.43-2.1,5.08-2.1,6.84.26,1.27.5,2.54.79,3.78C60.51,442.6,61.09,447.48,63.43,444.77Z"/><path class="cls-16" d="M55.27,458.93c1.77-2.05.85-4.7.27-7.08a47.45,47.45,0,0,0-2.27-7.39c-2.23.44-2.11,5.09-2.1,6.85.25,1.26.49,2.53.78,3.78C52.34,456.77,52.93,461.65,55.27,458.93Z"/><path class="cls-16" d="M46.77,472.77c1.77-2,.85-4.71.27-7.08a47.45,47.45,0,0,0-2.27-7.39c-2.23.43-2.11,5.08-2.1,6.84.25,1.27.49,2.54.78,3.78C43.84,470.6,44.43,475.48,46.77,472.77Z"/><path class="cls-16" d="M37.93,486.43c1.77-2.05.86-4.7.28-7.08A46.43,46.43,0,0,0,35.93,472c-2.23.44-2.1,5.09-2.1,6.85.26,1.26.5,2.53.79,3.78C35,484.27,35.59,489.15,37.93,486.43Z"/><path class="cls-16" d="M105.47,373.73c1.77-2.05.86-4.7.27-7.08a45.39,45.39,0,0,0-2.27-7.39c-2.23.43-2.11,5.09-2.1,6.85.26,1.26.49,2.53.78,3.78C102.55,371.57,103.13,376.45,105.47,373.73Z"/><path class="cls-17" d="M33,494.93a9.75,9.75,0,0,0,1.31-5.05c0-1.89-1.7-9.15-2-10.73-.77-.61-2.27,3.2-2.56,4.21C29,485.79,31.56,496.78,33,494.93Z"/><path class="cls-17" d="M41.61,480.6a9.81,9.81,0,0,0,1.32-5.05c0-1.9-1.7-9.16-2-10.74-.77-.61-2.26,3.2-2.55,4.22C37.69,471.45,40.23,482.44,41.61,480.6Z"/><path class="cls-17" d="M49.78,466.77a9.71,9.71,0,0,0,1.31-5.06c0-1.89-1.7-9.15-2-10.73-.77-.61-2.26,3.2-2.55,4.21C45.86,457.62,48.39,468.61,49.78,466.77Z"/><path class="cls-17" d="M58.61,451.93a9.75,9.75,0,0,0,1.32-5.05c0-1.89-1.71-9.15-2-10.73-.77-.61-2.26,3.2-2.55,4.21C54.69,442.79,57.23,453.78,58.61,451.93Z"/><path class="cls-17" d="M126.35,338.19a18.26,18.26,0,0,0,.24-6.3,24.11,24.11,0,0,0-2.12-7.71c-1.55.55-2.14,6.13-2.15,7.62,0,.9,2,7.91,2.05,9.26C124.37,341.06,125,342.86,126.35,338.19Z"/><path class="cls-16" d="M122.13,345a18.26,18.26,0,0,0,.24-6.3,24,24,0,0,0-2.12-7.7c-1.54.55-2.13,6.12-2.14,7.61,0,.91,2,7.92,2,9.27C120.15,347.84,120.82,349.64,122.13,345Z"/><path class="cls-17" d="M118,351.29a18.26,18.26,0,0,0,.24-6.3,24.11,24.11,0,0,0-2.12-7.71c-1.54.55-2.13,6.13-2.14,7.62,0,.9,2,7.91,2,9.26C116.06,354.16,116.73,356,118,351.29Z"/><path class="cls-17" d="M109.61,365.28a18.24,18.24,0,0,0,.23-6.3,24.29,24.29,0,0,0-2.11-7.7c-1.55.55-2.14,6.13-2.15,7.61,0,.91,2,7.92,2,9.27C107.63,368.16,108.29,370,109.61,365.28Z"/><path class="cls-17" d="M101.17,379.66a18.25,18.25,0,0,0,.24-6.3,24,24,0,0,0-2.12-7.7c-1.54.55-2.13,6.12-2.14,7.61,0,.91,2,7.92,2,9.27C99.19,382.54,99.86,384.34,101.17,379.66Z"/><path class="cls-17" d="M92.67,393.4a18.26,18.26,0,0,0,.24-6.3,24,24,0,0,0-2.12-7.7c-1.54.55-2.13,6.12-2.14,7.61,0,.91,2,7.92,2,9.27C90.69,396.28,91.36,398.08,92.67,393.4Z"/><path class="cls-17" d="M75.8,422.41a18.25,18.25,0,0,0,.24-6.3,24.05,24.05,0,0,0-2.12-7.7c-1.54.55-2.13,6.13-2.14,7.61,0,.91,2,7.92,2,9.27C73.82,425.29,74.49,427.09,75.8,422.41Z"/><path class="cls-17" d="M67.64,435.91a18.24,18.24,0,0,0,.23-6.3,24.29,24.29,0,0,0-2.11-7.7c-1.55.55-2.14,6.13-2.15,7.61,0,.91,2,7.92,2,9.27C65.66,438.79,66.32,440.59,67.64,435.91Z"/><path class="cls-17" d="M84.34,408.12a18.25,18.25,0,0,0,.24-6.3,24.22,24.22,0,0,0-2.11-7.7c-1.55.55-2.14,6.12-2.15,7.61,0,.91,2,7.92,2,9.27C82.36,411,83,412.8,84.34,408.12Z"/><path class="cls-17" d="M135.11,328.22c-.44-.78-3.13-1.65-3.92-1.73-5-.51-3.47,4-2.74,4.87C129.59,331,135.91,329.64,135.11,328.22Z"/><path class="cls-17" d="M235,388.09c-1.54-2.17-5.81-2.38-7.29-2.1s-7.75,1.93-9.2,2.3c1,2.3,5.69,2.17,8.82,1.66C228.85,389.7,233,388.48,235,388.09Z"/><path class="cls-17" d="M221.18,379.72c-1.53-2.17-5.81-2.38-7.28-2.11s-7.75,1.93-9.2,2.3c1,2.31,5.68,2.18,8.82,1.67C215.05,381.33,219.2,380.11,221.18,379.72Z"/><path class="cls-17" d="M207.06,371.29c-1.53-2.17-6.26-2.77-7.73-2.49s-8.46,1.61-9.91,2c1,2.3,6.39,2.81,9.53,2.3C200.48,372.83,205.08,371.67,207.06,371.29Z"/><path class="cls-17" d="M193.26,362.92c-1.54-2.18-6.26-2.77-7.73-2.5s-8.46,1.62-9.91,2c1,2.3,6.39,2.81,9.52,2.3C186.67,364.46,191.28,363.3,193.26,362.92Z"/><path class="cls-17" d="M179.26,354.61c-1.53-2.17-6.25-2.77-7.73-2.49s-8.45,1.61-9.9,2c1,2.3,6.39,2.81,9.52,2.3C172.68,356.15,177.28,355,179.26,354.61Z"/><path class="cls-17" d="M165.78,346.43c-1.53-2.17-6.26-2.77-7.73-2.49s-8.46,1.61-9.91,2c1,2.3,6.39,2.81,9.52,2.3C159.2,348,163.8,346.81,165.78,346.43Z"/><path class="cls-17" d="M151.4,337.67c-1.53-2.17-6.26-2.76-7.73-2.49s-8.46,1.61-9.91,2c1,2.3,6.39,2.81,9.52,2.3C144.82,339.21,149.42,338.06,151.4,337.67Z"/><path class="cls-16" d="M242.08,392c-1.53-2.17-5.81-2.38-7.28-2.11s-7.76,1.93-9.21,2.3c1,2.31,5.69,2.18,8.82,1.67C235.94,393.6,240.1,392.38,242.08,392Z"/><path class="cls-16" d="M228.21,383.81c-1.53-2.17-5.81-2.38-7.28-2.11s-7.75,1.94-9.2,2.3c1,2.31,5.68,2.18,8.81,1.67C222.08,385.42,226.23,384.2,228.21,383.81Z"/><path class="cls-16" d="M213.77,375.06c-1.53-2.17-5.81-2.38-7.28-2.11s-7.76,1.93-9.21,2.3c1,2.3,5.95,2.75,9.08,2.24C207.89,377.24,211.79,375.44,213.77,375.06Z"/><path class="cls-16" d="M185.78,358.25c-1.53-2.17-5.81-2.38-7.29-2.11s-7.75,1.93-9.2,2.3c1,2.3,6,2.75,9.08,2.24C179.9,360.43,183.8,358.63,185.78,358.25Z"/><path class="cls-16" d="M171.91,350c-1.53-2.18-5.81-2.38-7.28-2.11s-7.75,1.93-9.2,2.3c.95,2.3,5.94,2.75,9.07,2.24C166,352.19,169.93,350.39,171.91,350Z"/><path class="cls-16" d="M157.92,341.76c-1.54-2.17-5.81-2.38-7.29-2.1s-7.75,1.93-9.2,2.3c1,2.3,5.94,2.74,9.08,2.23C152,343.94,155.94,342.15,157.92,341.76Z"/><path class="cls-16" d="M199.46,366.5c-1.54-2.18-5.81-2.39-7.29-2.11s-7.75,1.93-9.2,2.3c1,2.3,5.94,2.74,9.07,2.23C193.58,368.67,197.47,366.88,199.46,366.5Z"/><path class="cls-17" d="M249.3,396.27c-1.53-2.17-5.81-2.38-7.28-2.1s-7.75,1.93-9.21,2.3c1,2.3,5.69,2.17,8.82,1.66C243.17,397.88,247.32,396.66,249.3,396.27Z"/><path class="cls-17" d="M248.73,398.51a4.29,4.29,0,0,0-1.6.51c.13,1.28-.17,3.8,1.05,4.39,1.7.84,2.67-4.42,3.74-5.15C251.54,397.3,249.89,398.45,248.73,398.51Z"/><path class="cls-17" d="M214.15,443.82c-1.4,1.4-2.28,6.95-2.1,8.37.13,1.08,1.16,8.93,2.93,8.17.72-.32,1.5-3.15,1.65-3.9C216.85,455.44,214.86,445.29,214.15,443.82Z"/><path class="cls-17" d="M222.4,430c-1.41,1.4-2.28,7-2.11,8.37.13,1.08,1.34,7.15,2.11,8.62.73-.31,2.08-5.83,2.24-6.58C224.85,439.41,223.1,431.49,222.4,430Z"/><path class="cls-16" d="M226.94,422.86c-1.41,1.4-2.29,6.95-2.11,8.37.13,1.08,1.34,7.16,2.11,8.63.72-.32,2.08-5.83,2.23-6.59C229.38,432.25,227.64,424.33,226.94,422.86Z"/><path class="cls-17" d="M230.83,416.08c-1.4,1.41-2.28,7-2.11,8.38.14,1.08,1.35,7.15,2.11,8.62.73-.31,2.08-5.83,2.24-6.58C233.28,425.48,231.54,417.55,230.83,416.08Z"/><path class="cls-16" d="M234.86,409.57c-1.41,1.4-2.28,6.95-2.11,8.37.13,1.08,1.34,7.16,2.11,8.62.73-.31,2.08-5.82,2.24-6.58C237.31,419,235.56,411,234.86,409.57Z"/><path class="cls-17" d="M239,402c-1.4,1.41-2.28,7-2.11,8.37.14,1.08,1.35,7.16,2.11,8.63.73-.31,2.08-5.83,2.24-6.58C241.46,411.36,239.72,403.43,239,402Z"/><path class="cls-17" d="M206.23,457.81c0-1.35-.89.9-3,4.6A95.63,95.63,0,0,0,205,474.17c1,2.88,2.87-1.38,3.4-2.7C209,468.39,207.16,460.49,206.23,457.81Z"/><path class="cls-17" d="M194.61,480.84c-.27,5.22,5.62,11.11,5.26,3.65.11.33-1.82-8.74-2.78-12.17C196.78,471.31,194.73,478.57,194.61,480.84Z"/><path class="cls-17" d="M146.38,573.3c3.57-1.78,1.25-15-.28-15.92C143.6,559.74,144.65,570,146.38,573.3Z"/><path class="cls-16" d="M150.79,566.27c3.57-1.78,1.57-15.54,0-16.44C147.5,553.16,149.06,562.94,150.79,566.27Z"/><path class="cls-16" d="M159.23,552.21c3.56-1.78,1.57-15.54,0-16.43C155.94,539.1,157.5,548.88,159.23,552.21Z"/><path class="cls-16" d="M167.73,538.09c3.56-1.78,1.56-15.54,0-16.44C164.44,525,166,534.76,167.73,538.09Z"/><path class="cls-16" d="M176.29,523.52c3.56-1.78,1.57-15.54,0-16.44C173,510.41,174.56,520.19,176.29,523.52Z"/><path class="cls-17" d="M155.07,559.43c3.57-1.78,1.25-15-.28-15.92C152.3,545.87,153.34,556.11,155.07,559.43Z"/><path class="cls-17" d="M163.64,544c3.56-1.78,1.24-15-.29-15.92C160.86,530.47,161.91,540.7,163.64,544Z"/><path class="cls-17" d="M180.57,516c3.57-1.78,1.25-15-.28-15.92C177.79,502.48,178.84,512.71,180.57,516Z"/><path class="cls-17" d="M172.2,530.61c3.56-1.78,1.63-15.86.1-16.75C168.91,517.31,170.47,527.28,172.2,530.61Z"/><path class="cls-17" d="M141.43,568.69a29.75,29.75,0,0,0-5.37,1.21,10.08,10.08,0,0,0,4.61,2.75,14.39,14.39,0,0,0,3.2-.49C143.43,570.47,143.29,568.55,141.43,568.69Z"/><path class="cls-17" d="M58.68,517.63c-2.37.76-7.53,1.74-7.48,2,2.36,1.77,4.09,2.66,7.35,2.53,1.3,0,8.32-2.73,9.58-2.72C66.09,516.73,61.74,516.64,58.68,517.63Z"/><path class="cls-17" d="M72.74,525.74c-2.37.76-7.53,1.75-7.48,2,2.36,1.77,4.09,2.66,7.35,2.54,1.3,0,8.32-2.74,9.58-2.73C80.15,524.85,75.8,524.76,72.74,525.74Z"/><path class="cls-17" d="M86.79,534.05c-2.36.76-7.52,1.75-7.47,2,2.36,1.77,4.09,2.66,7.34,2.53,1.31,0,8.33-2.73,9.59-2.72C94.21,533.16,89.86,533.07,86.79,534.05Z"/><path class="cls-17" d="M101,542.74c-2.37.76-7.53,1.75-7.47,2,2.35,1.77,4.09,2.66,7.34,2.54,1.31-.06,8.33-2.74,9.59-2.73C108.39,541.85,104.05,541.76,101,542.74Z"/><path class="cls-17" d="M115.17,551.37c-2.37.76-7.53,1.74-7.48,2,2.36,1.77,4.09,2.66,7.35,2.53,1.3,0,8.33-2.73,9.59-2.72C122.58,550.47,118.23,550.39,115.17,551.37Z"/><path class="cls-17" d="M129,559.61c-2.37.76-7.53,1.75-7.47,2,2.35,1.77,4.09,2.66,7.34,2.54,1.31,0,8.33-2.74,9.59-2.73C136.39,558.72,132,558.63,129,559.61Z"/><path class="cls-17" d="M48.6,508.73c-1.37-.27-10.33,2.31-11.22,2.34,0,0,4.92,2.7,7.3,2.77,2,0,7.66-2,9.59-2.81C53.78,510.06,49.66,508.94,48.6,508.73Z"/><path class="cls-17" d="M36.57,499c1,.89-1.34-1.15,0,0Z"/><path class="cls-17" d="M36.57,499c-14.46.77-11-2.27-12.88-6.41-1.66,3.4-4.47,5.86-4.15,8.94,5.52,4.8,18.65,2.11,19.88,1.43A20.51,20.51,0,0,0,36.57,499Z"/><path class="cls-18" d="M131.42,338.73c5.56,10.23,7.59,25.16,9,36.56,1.07,8.73.27,45.69,9.59,50.34,8.67,4.33,68.74-18.67,82.63-22.31-3.53-7.3-39.19-25.71-47.84-33C179.09,365.47,131.42,338.73,131.42,338.73Z"/><path class="cls-18" d="M40.93,495.75c15.11,7.23,28.68,21.07,44,29.09,8.94,4.69,36.63,28.61,47.6,25.34,3.86-6.5-7.6-35.62-7.79-44.88-.2-9,6.85-34.24.71-41-13.39,3.68-25.53,14-39,18.71-9.16,3.19-45.53,12.92-45.47,12.78Z"/><path class="cls-19" d="M1028.28,848.62c3.52-3.58,5.23-17.37-6.95-19.42-6.69-1.13-10.9,4-10.9,4l14.16,6.35s1.08,6.45-.16,8.62A6.9,6.9,0,0,0,1028.28,848.62Z"/><path class="cls-19" d="M979,895.28s-2.6,9.38,1.41,9.87,4.72-3.63,4.72-3.63S979.56,896,979,895.28Z"/><path class="cls-20" d="M266.27,590a9.29,9.29,0,1,1-9.29-9.29A9.29,9.29,0,0,1,266.27,590Z"/><path class="cls-21" d="M262.53,587.49c-.56-1-4.59-4-6.25-2.21s-4.95,1.29-5.81,3.78a6.84,6.84,0,0,0,1.86,7.11c2.39,2,5.93,1.16,7.74-1.2S262.53,587.49,262.53,587.49Z"/><path d="M503.3,526.44c.67,4.11-1,27.74,6.73,15.42a109.77,109.77,0,0,1,.38,19.69c-.45,5-3.4,9-3.51,12.8,11.49-4.82,37.55-34.2,43.57-5.28,2,9.5-2.78,18.54-10.54,23.9-6.74,4.64-21.85,6.57-22.06-5.48-.33,10.49,12.38,11.42,19.48,8.15,8.94-4.11,15.45-13.25,15.19-23.22s-8.73-20.1-19.6-17.48c-9,2.17-15.24,10.1-22.49,15.21,4-9.92,1.87-22.88.5-33.15-1.08,2.34-2.34,6.41-5,7.23,2-11-3.31-25.49-6.1-36.07,1.28,6.06,2.45,12.16,3.43,18.28C503.8,529.5,502.81,523.38,503.3,526.44Z"/><path d="M532.89,573c5.21-5.82,10.58-10,11,1.17,2.33-13.18-6.67-8.63-12.42-2.49-4.57,5-1.27,7.51,3.47,10.4,5.24,3.27,2.65,8.75-3,8.75,4.61,1,9.7-3.12,6.43-7.88-2.59-3.78-10.19-4.6-5.41-10Z"/><path d="M549.45,601.89c-4.12,4-11.88,11-11.31,17.39.33,3.47-5,3.54-7.87,2.68-14.37-4.38-8.06-14.68-2.4-23.8-3.4,4.37-11.44,13.45-6.82,19,2.36,2.76,5.17,5.29,8.7,6.44,3.91,1.28,4,2.8,6.66,6,3.56,4.4,9.89,11.73,16.13,11.81-7.69-3.44-13.6-12-20-17.31a11.4,11.4,0,0,0,8.87-3.46c-4.83-3.41,4.39-12.26,6.8-14.86,8.59-9.26,21-21.53,15.63-35.7,3.1,12.62-6,23.62-14.42,31.73Z"/><path d="M525.1,710c-.26.65-9.26-17.36-9.9-21.15-2,10.07,3.91,20.48,10.67,27.41a105.5,105.5,0,0,0,3.33-15.41,85.14,85.14,0,0,0-4.1,9.15C525,710.21,525.5,708.94,525.1,710Z"/><path d="M599.43,683.15l-23.27,53.3c6.34-4.69,14-10.6,22.16-11.31a551,551,0,0,0,5.85,61.63c1.83,11.65,4.5,43.56,18.53,48.39-10.74-4.11-13.15-24.9-15-34.31a414.81,414.81,0,0,1-5.5-43c-.34-4,.3-33.25-2.14-34.59-4.56-2.51-15.72,5.21-19.31,7.53Q597.48,692,614,653.1q-18.37-4.19-36.77-8.28,17.61,4.56,35.24,9-6.51,14.65-13,29.29Z"/><path d="M461.79,596.83c0-3.16-3.3-6-6.45-5.11a10.17,10.17,0,0,1,6.45,5.11C461.78,595.3,461,595.52,461.79,596.83Z"/><path d="M413.38,674.75c24.95,2.72,51.74-.27,75.21-9.33-32.14,9.09-67.36,11.22-100.11,4.24a129.78,129.78,0,0,0,24.9,5.09C421.83,675.67,404.93,673.85,413.38,674.75Z"/><path d="M412.84,751.3c-20.28-5.35-40.74-10.71-60.38-18.16-14.92-6.09-27.56-17.46-39.77-27.72C278.5,676.67,246,645.87,213.55,615.2c.45.56-4.91-5-6.47-6.62,17.88-9.29,33-28.53,46.59-43,7.49,11.38,20.75,19.94,31.54,27.81,13,9.47,26.38,18.4,39.92,27.07,28.38,18.17,57.39,35.56,87,51.63-16.36-10.16-32.74-20.3-49-30.59-21.69-13.72-43.32-27.56-64.41-42.17-14.47-10-36.2-21.73-44.58-38a17.73,17.73,0,0,1-2.29,2.58l-10.28-9.67c-10.42,16.94-26.8,31.47-44.43,40.7l12.21,11.53a28.12,28.12,0,0,1-3.16,2c12.59,11,23.78,23.89,35.76,35.58,25.05,24.42,50.39,48.72,77.54,70.8,23.09,18.78,46,26.49,74.62,34.07C427,757.62,461.19,766,495.26,768.55c-27.8-3.5-55.34-10.19-82.42-17.25C399.27,747.72,426.43,754.84,412.84,751.3Zm-214-156.15c16.89-9.31,32.61-23,42.93-39.37,1.85,1.73,9.09,6.52,9.41,8.85-7.58,8.46-15.3,16.8-23.3,24.86C225.09,592.3,212,607.55,209,604.74l-10.16-9.59Z"/><path d="M246.62,590.49c0,12.77,19.81,12.77,19.81,0s-19.81-12.77-19.81,0Zm18.81,0c0,11.48-17.81,11.48-17.81,0s17.81-11.48,17.81,0Z"/><path d="M248.54,590.49c0,10.3,16,10.3,16,0s-16-10.3-16,0Zm15.17,0c0,9.26-14.36,9.26-14.36,0s14.36-9.26,14.36,0Z"/><path d="M195.06,588c-8.15-4.21-16.64-10-20.78-18.51-4-8.2-3.57-19.12-5.08-28,.28,10.56-.76,23.48,5.46,32.58s17.31,14.81,27.88,17.42a75.62,75.62,0,0,1-7.48-3.46C192.63,586.78,197.48,589.33,195.06,588Z"/><path d="M220.16,454.84q16.35-27.39,32.68-54.77c3.56-6-12.93-11.64-17.8-14.55L125,319.66,37.54,465.81,16.86,500.36c-.65,1.1,28.26,17.62,31.82,19.76l63.67,38.09,33.77,20.21q15.38-26,30.86-52c3.74-6.27,7.54-12.63,11.31-18.93,2.47,2.31-1.22,17.54-1,21.69.49,7,5.4,13.33,9.25,18.94-8.08-12.84-9.39-21.43-6.72-36.43,1.56-8.77-14.34-16-20.24-21.06-3.89-3.39-16.07-18-9-23.24,5.37-5,32.68,19.6,38.84,22.85,9.07,4.79,18.07,7.39,21.32,18.28A135.22,135.22,0,0,1,224,522.2l9.18,42q-4.27-24.61-9.38-49.07c-1.73-8.31-.57-17-2.59-25.45-1.42-5.62-3.47-11.61-7.67-15.8-1.45-2.87-3.63-3.38-.8-6.61Zm-1.77-.94.25-.42Zm0,.09c-1.42-6.93-3.66-11.08-.2-16.87C219.47,443.62,221.8,448.19,218.34,454Zm3.94-6.61c-1.49-7.3-3.52-11.28.35-17.75C224.1,436.9,226.14,440.93,222.28,447.38Zm4.47-7.48c-1.39-6.88-3.56-11.21.09-17.3C228.23,429.47,230.39,433.81,226.75,439.9Zm4.2-7c-1.38-6.84-3.55-11.2.08-17.26C232.41,422.44,234.57,426.8,231,432.86Zm4.19-7c-1.37-6.79-3.63-11.05-.16-16.85C236.38,415.85,238.62,420,235.14,425.85Zm4-6.65c-1.14-5.55-4.8-12.76.11-17.27C240.71,408.94,242.82,413,239.11,419.2Zm4.3-7.21c-1.27-5.93-4.81-10.52,1.67-12.49C246.38,405.49,246.66,406.53,243.41,412Zm8.25-13.85-3.54,5.95c-.69-1.41-.75-3.48-1.09-5A12.46,12.46,0,0,1,251.66,398.14Zm-2.12-1.61c-5.59,1.12-12.82,4.7-17.51,0C237.66,395.33,244.81,391.74,249.54,396.53ZM146.25,418.85c.06.85.1,1.29,0-.37-.21-2.86-.12-1.63,0-.35-2-27.25-8.82-54.43-16.54-80.55L235.8,401.09c-30.06,6.3-63,13.94-89.28,30.41A116.07,116.07,0,0,0,146.25,418.85Zm-96,73.82L54,491.54c25.52-7.7,52.15-16.35,74.58-30.86-5,32.52,4.07,69.08,13.09,100.2L34.84,497q7.24-1.92,14.45-4.05Zm39.88-15.28C72,484.62,53,492.17,34,496.5l28.48-47.59q33.3-55.65,66.59-111.3a585.83,585.83,0,0,1,12.48,57.53c2.47,15.26,8.7,41.55-2.68,54.6C126.75,463.38,106.58,470.78,90.08,477.39ZM242.31,392.2c-6.49,1.32-12.13,4.44-17.56-.07C230.41,391,237.55,387.39,242.31,392.2Zm-7.1-4.25c-5.11,1.05-12.63,4.74-16.93.31C223.35,387.25,231,383.58,235.21,388Zm-6.4-3.83c-5.75,1.15-12.91,4.69-17.72-.16C216.84,382.8,224,379.26,228.81,384.12Zm-7.2-4.31c-5.75,1.15-12.9,4.7-17.72-.16C209.64,378.5,216.79,375,221.61,379.81Zm-7.21-4.31c-6.63,1.33-12.18,4.39-17.76-.19C202.42,374.16,209.56,370.62,214.4,375.5Zm-7.24-4.33c-6.64,1.33-12.12,4.17-17.85-.24C196,369.53,201.35,366.71,207.16,371.17Zm-7.42-4.45c-5.31,1.1-12.7,4.78-17.15.18C188,365.75,195.22,362.05,199.74,366.72Zm-6.83-4.08c-6.69,1.44-12,4.54-17.51,0C181.12,361.37,188.1,357.76,192.91,362.64Zm-7.19-4.3c-5.15,1.11-12.52,4.84-16.86.35C173.93,357.65,181.46,353.94,185.72,358.34Zm-6.41-3.84c-6.62,1.36-12.05,4.22-17.76-.19C168.17,353,173.69,349.91,179.31,354.5ZM172,350.15c-6.25,1.27-12.06,4.52-16.92.31C160.16,349.46,167.85,345.62,172,350.15Zm-6.38-3.82c-5.75,1.14-12.91,4.68-17.73-.17C153.67,345,160.82,341.46,165.65,346.33ZM158.44,342c-5.75,1.15-12.9,4.7-17.72-.16C146.47,340.7,153.62,337.15,158.44,342Zm-7.2-4.31c-5.75,1.16-12.9,4.7-17.72-.16C139.29,336.37,146.4,332.82,151.24,337.7Zm-22.49-4c-.93-4.51,12.66-2.37,15.25-.35C140.72,334,129.76,338.62,128.75,333.73Zm7.82-4.8-8.45,1.75C125.31,324.72,133.9,326.41,136.57,328.93Zm-6.83-4.09-2.71.58c-.17-.84-.35-1.67-.52-2.51A22.78,22.78,0,0,1,129.74,324.84Zm-5-.8c1.36,6.55,4.11,11.73-.23,17.39C123.14,334.91,120.37,329.66,124.7,324Zm-4.34,7.26c1.09,5.35,4.7,12.38.27,16.55C119.62,342.86,116,335.49,120.36,331.3Zm-3.82,6.37c1.14,5.69,4.58,12.6-.21,17.36C115.18,349.35,111.74,342.44,116.54,337.67Zm-4.48,7.49c1.14,5.49,4.65,12.43,0,17C110.75,356.56,107.22,349.93,112.06,345.16Zm-4.31,7.2c1.19,5.25,4.84,12.19.24,16.62C107,363.93,103.4,356.59,107.75,352.36Zm-3.85,6.44c1.14,5.68,4.58,12.6-.21,17.36C102.54,370.47,99.1,363.57,103.9,358.8ZM99.6,366c1.14,5.68,4.59,12.59-.21,17.35C98.24,377.66,94.79,370.76,99.6,366Zm-4.31,7.19c1.12,5.53,4.6,12.51-.08,17.15C94.05,384.76,90.56,377.86,95.29,373.18Zm-4.22,7.05c1.14,5.5,4.65,12.44,0,17.06C89.94,391.84,86.44,384.81,91.07,380.23ZM87,387.13c1.15,5.68,4.6,12.58-.21,17.35C85.58,398.77,82.13,391.91,87,387.13Zm-4.32,7.21c1.15,5.6,4.62,12.52-.12,17.22C81,405,78.25,400.08,82.63,394.34Zm-4.4,7.37c1.45,6.42,4.52,11.5.09,16.85C77.15,413.14,73.59,406.27,78.23,401.71Zm-4.12,6.87c1.23,5.65,4.73,12.39-.08,17.14C72.8,420.07,69.3,413.34,74.11,408.58Zm-4.29,7.18C71,421,74.57,428,70,432.44,69,427.29,65.36,420.08,69.82,415.76Zm-3.94,6.58c1.16,5.62,4.64,12.49-.12,17.21C64.61,433.91,61,427,65.88,422.34Zm-4.23,7.07c1,5,4.77,12.4.27,16.56C60.9,440.9,57.2,433.54,61.65,429.41Zm-3.82,6.38c1.14,5.68,4.58,12.6-.21,17.36C56.47,447.46,53,440.56,57.83,435.79ZM53.53,443c1.14,5.68,4.59,12.59-.21,17.36C52.17,454.65,48.72,447.75,53.53,443Zm-4.31,7.19c1.15,5.69,4.6,12.59-.2,17.35C47.85,461.82,44.4,455,49.22,450.17Zm-4.31,7.22c1.07,5.27,4.63,12.46.08,16.87C43.88,469,40.31,461.84,44.91,457.39Zm-4.07,6.8c1.1,5.27,4.67,12.4.11,16.82C39.78,475.62,36.21,468.74,40.84,464.19ZM36.74,471c1.65,7.6,3.54,11.08-.44,17.74C34.65,481.17,32.75,477.7,36.74,471Zm-4.65,7.77c1.23,5.64,4.73,12.38-.08,17.13C30.82,490.29,27.37,483.58,32.09,478.81Zm-4.26,7.12c1,4.87,4.85,11.09-.82,12.43C26,493.8,24,489.71,27.83,485.93Zm-8.46,14.32c.1,0,2.89-5,4.38-7.5.72,3.36,1.38,5.41,0,6.49,3.16-.74,6.41-1.4,9.21-1C28.79,499.09,23.36,501.3,19.37,500.25Zm3.52,2.1c6.69-1.38,11.76-4.08,17.54.33C33.79,504,28.61,506.73,22.89,502.35Zm7.38,4.42c5.72-1.16,12.6-4.59,17.39.23C42,508.15,35.05,511.58,30.27,506.77Zm7.21,4.31c5.7-1.14,12.61-4.57,17.39.24C49.17,512.45,42.25,515.88,37.48,511.08Zm7.2,4.31c5.7-1.14,12.62-4.57,17.4.24C56.38,516.76,49.45,520.19,44.68,515.39Zm7.2,4.31c5.12-1,12.45-4.69,16.59-.25C63.46,520.47,56,524.21,51.88,519.7Zm6.43,3.85c6.67-1.35,11.89-4.29,17.43.26C69.18,525.15,64,527.9,58.31,523.55Zm7.31,4.37c5.07-1,12.39-4.76,16.54-.27C77.06,528.74,69.91,532.37,65.62,527.92Zm6.55,3.92c5.67-1.22,12.41-4.71,17.18.11C83.69,533.16,76.93,536.65,72.17,531.84Zm7.18,4.3c5.32-1.14,12.36-4.72,16.83-.1C90.92,537.12,83.76,540.69,79.35,536.14Zm6.73,4c6.7-1.39,11.77-4.09,17.54.32C97,541.83,91.81,544.54,86.08,540.17Zm7.39,4.41c5.72-1.15,12.59-4.59,17.38.24C105.15,546,98.24,549.39,93.47,544.58Zm7.2,4.31c5.7-1.14,12.62-4.57,17.39.24C112.36,550.27,105.44,553.7,100.67,548.89Zm7.2,4.31c5.7-1.14,12.62-4.56,17.4.24C119.57,554.58,112.64,558,107.87,553.2Zm7.2,4.31c5-1,12.45-4.71,16.59-.24C126.56,558.3,119.23,562,115.07,557.51Zm6.44,3.85c6.44-1.3,11.84-4.29,17.26.16C133.15,562.66,126.22,566.12,121.51,561.36Zm7.31,4.38c4.12-.85,13.66-5.82,13.79.79C137.69,567.52,132.89,569.85,128.82,565.74Zm7,4.19c3.56-.71,8.38-3.41,8,2.16l-3.35.62A50.07,50.07,0,0,1,135.82,569.93Zm8.65,5.17-1.4-.83C144.15,574.07,144.53,573.9,144.47,575.1Zm2.11-1.38c-.05.07-.12.2-.27.45-1.54-7.11-3.61-10.95.16-17.25,1.54,7.08,3.59,10.92-.16,17.25Zm4.22-7.13.24-.4Zm-.13.22c-1.56-7.19-3.57-10.93.25-17.31C152.47,556.68,154.46,560.41,150.67,566.81Zm4.72-7.95Zm-.29.48c-1.46-6.71-3.61-10.79,0-16.76C156.53,549.31,158.66,553.34,155.1,559.34Zm4.14-7c-1.53-7-3.57-10.81.17-17.06C160.89,542.27,162.92,546.17,159.24,552.36Zm4.3-7.24c-1.48-7-3.51-10.85.21-17.06C165.15,535,167.18,539,163.54,545.12ZM167.8,538c-1.43-7-3.42-11,.31-17.2C169.48,527.74,171.47,531.79,167.8,538Zm4.31-7.24c-1.4-7.11-3.45-10.88.25-17.07C173.79,520.62,175.79,524.56,172.11,530.73Zm3.74-2.37c.12-.21.31-.53.58-1C176.22,527.73,176,528.1,175.85,528.36Zm.66-1.11.4-.67Zm10.28-21.11-2.15,3.59L183.11,503Zm-6.16-5.22c1.31,6.35,3.3,10-.1,15.69C180.34,515.74,177.23,498.2,180.63,500.92Zm-4.21,22.58c-1.39-6.81-3.54-10.7,0-16.64C177.83,513.5,179.94,517.6,176.42,523.5Zm10.74-43c-1.25-.93-.44-.33-.06-.05-5.84-4.39-20.06-20.55-28-14.18-8.77,7.07,6.48,24.05,12.09,27.82,7.9,5.2,7.33,5.36,2.35,13.67l-13.8,23.06-17.3,28.92A616.51,616.51,0,0,1,130.6,498c-1.43-10.73-2.54-21.61-2.22-32.44.27-9.18,13.29-12.38,16.34-22a46.64,46.64,0,0,0,1.8-12A169.25,169.25,0,0,1,163,424.3c10.07-3.9,20.35-7.24,30.68-10.37,14.32-4.33,28.76-8.2,43.23-12Q213,441.87,189.05,481.8l-1.86-1.31ZM203,462.66c.2-.24,2.84-5,2.81-5,1.44,7.15,3.54,11.32-.25,17.65Q204.3,469,203,462.66Zm1,15.22c-.92,1.55-1.85,3.09-2.78,4.64-1.5-7.37-3.63-11.16.18-17.52Q202.75,471.44,204.06,477.88Zm-11.41,6.31c-.65-.41-2.73-2.4,0-4.55C193,480.9,195.54,486,192.65,484.19Zm5.62,3.37c-4.32.18-3.87-10.78-1.13-15.34C198.15,477.17,201.68,487.41,198.27,487.56Zm17.16-8.81c-.14-.31-.14-.3.28.58.66,1.44.53,1.17.25.58,4.33,9.78,5.58,20.89,7,31.38-2.92-13.33-11.73-16.71-23-22.77,3.35-5.61,6.67-11.15,10-16.75A18.57,18.57,0,0,1,215.43,478.75ZM210,468c-1.48-7.34-3.61-11.18.21-17.58C211.6,457.52,213.71,461.74,210,468Zm4.24-24.3c1.41,6.92,3.7,11,.09,17.05C212.91,453.9,210.61,449.7,214.2,443.71Z"/><path d="M215.71,479.33c-.09-.19-.19-.38-.28-.58l.53,1.16Z"/><path d="M23.77,499.24c-1.4.33-2.78.67-4.09.94C19.69,500.18,23.06,499.8,23.77,499.24Z"/><path d="M27.83,486c.06.26.09.42.11.52C27.91,486.31,27.85,486,27.83,486Z"/><path d="M27.94,486.47Z"/><path d="M187.16,480.47l0,0-.09-.07Z"/><path d="M140.47,572.71l.2,0Z"/><path d="M180.63,500.92c-.15-.11.46,2.26,0,0Z"/><path d="M143.13,574.26Z"/><path d="M742.87,907.1c-60.81-20.1-122.84-44.68-177.2-79-49.95-31.5-100.2-90.91-67.14-152.49-21.92,34.66-12.48,77.75,11.54,108.4,26.11,33.33,64.39,54.13,101.61,72.64,79,39.32,165.87,71.14,253.5,83.94-41.29-8.59-82.29-20.3-122.31-33.53Z"/><path d="M622.34,651.5a250.8,250.8,0,0,1,42.46,16.74c-25.26-16.32-57.1-25.29-87-27a350,350,0,0,1,44.54,10.26C629.63,653.67,615.05,649.3,622.34,651.5Z"/><path d="M917.85,733.67c16.12-8.15,32.17-16.43,47.94-25.24-16.47,7.42-32.69,15.37-48.84,23.45-8.06,4.08-16.1,8.17-24.09,12.37q-6.36,3.32-12.64,6.72c-8,4.34-8.84,4.37-17.15.59-35.39-16.1-71-31.74-107.15-46.08-30.46-12.07-66.19-29.63-99.57-29.65-15.23,0-31.46,4.78-37.8,20-6.52,15.65-5.71,33.46,1.11,48.84,23.76,53.56,92.2,73.46,142.67,92.22,36.81,13.64,73.71,27,111.18,38.73q27,8.43,54.22,16Q941.35,895.35,955,899c6.76,1.8,17.49,7,24.4,6.42,2.76-.23,4.79-.43,5.86-3.74,4.68,3.28,5.07,3.11,6.9-1.5,21.88,24.19,55.77,27.19,80.94,47.32,3,3.07,9.81,9.19,14.63,6.65,5.78-3,1.71-15.81-.19-20.07-7-15.85-26.81-23.5-42.84-25.89,19.76,4.29,41.81,14.86,43.84,37.38.91,11-8,6.27-13,1.53-6.14-5.74-13.31-9.88-20.7-13.85-20.39-11-42.16-14.15-59.65-30.3-6.11-5.65,7.25-25.38,10.83-32.56,3.35-6.62,11-28.82,19-30.7-7.63.89-15.53,19.92-18.65,25.75-6.35,11.88-12.6,24.41-16.34,37.4-11.66-2-10.76-10.28-8-19.07a164.81,164.81,0,0,1,11.12-27.11c5.49-10.53,20.89-37.65,36.07-25.12-8.05-7-22.1-11-31.73-15.85q-20.83-10.38-41.77-20.56c-27.72-13.41-55.53-26.63-83.54-39.41,15.4-7,30.6-14.45,45.73-22C925.91,729.59,909.77,737.71,917.85,733.67Zm65.93,166.84,1.41,1.08c-6.8,6.64-7.23.34-6.08-6.31a26.39,26.39,0,0,0,4.67,5.23C984.23,900.88,982,899,983.78,900.51Zm-71.1-123.44c36.69,16.77,73.2,34,109.68,51.18-14-1.84-24.81,18-30.22,27.87-6.89,12.72-17.07,31.66-15.32,46.69-75.66-20.76-149.69-45-223.3-72.13-29.27-10.78-58.76-21.34-85.3-38-29.36-18.48-61-49.42-52.16-87.61-1.62,10.8.22,22.25,3.82,32.49-8.29-26.14-2.86-56.62,29-59.53,28.16-2.56,58.68,11.8,84.36,21.59,60.89,23.2,120.17,50.52,179.45,77.49C931,785.45,894.31,768.71,912.68,777.07Z"/><path d="M931.1,287.67c5.29-17.47-6.55-28.29-23.91-27.75,30.95.63,25.23,27.83,12.1,46.29-13.51,19-29.93,36.07-45.8,53.07-17,18.2-34.23,36.19-51,54.55-7.91,8.67-15.79,17.37-23.38,26.31-5.87,7-19.17,19.35-19.19,29.18.42-7.59,9.82-16.27,14.47-21.65,6.7-7.74,13.67-15.26,20.7-22.71,13.74-14.56,27.71-28.89,41.52-43.39,13.48-14.15,26.89-28.39,39.78-43.09,13.06-15,28.82-31.39,34.75-50.81C932,284.81,930.23,290.52,931.1,287.67Z"/><path d="M902.06,419.1c12.41-10.83,22.09-25.63,18.44-43.07-3.77-18-25.74-20-40.68-17.36,15.07-1.76,37.12,1.2,38.86,19.94,1.85,20-11.28,32.71-25.55,44-15.5,12.31-31.76,23.64-47,36.26-13,10.68-30.77,24.23-35.28,41.35,6-17.89,26.1-31.37,40.35-42.32,16.91-13,34.76-24.87,50.89-38.83C905.53,416.07,898.58,422.11,902.06,419.1Z"/><path d="M728.36,618c29-29.54,59.85-57.21,90.39-85.16,15.41-14.1,75-57.35,30.14-73,34.38,13.95,2,40.61-13.43,54.46q-13.58,12.19-27.2,24.33c-22.21,19.86-44.24,40-65.32,61.06-11,11-21.75,22.29-31.83,34.15-9.52,11.23-25.66,28.07-25.39,43.88.38-11.77,10.67-23.44,17.71-32.08,7.81-9.64,16.27-18.73,24.93-27.6S719.7,626.88,728.36,618Z"/><path d="M573.54,615.73A328.27,328.27,0,0,0,586,580.85c3.11-10.64,8.28-25.48,4.67-36.58,2.59,16-7.46,36.49-12.55,51.29-4.89,14.23-10.12,28.35-15,42.6,3.79-7.31,7.17-14.83,10.34-22.43S570.37,623.33,573.54,615.73Z"/><path d="M657.31,325.57c21.72-37.51,44-76.44,73.67-108.36,4.83-5.2,36.79-35.4,41-16.08,3.92,17.45-13.12,42-20.89,56.44-19.7,36.53-36.34,73.95-53.3,111.81q16.2-33.31,31.8-66.91c2.64-5.71,4.54-15.44,11.32-15.77,12.92-.63,17.89,7.95,18.12,19.89.13,8.37-1.29,9.82-7.33,15.37q-7,6.42-13.93,13-15.28,14.43-30,29.46c-18.15,18.69-35.82,38.23-50.44,59.85-6.9,10.2-13.25,21-17.5,32.56-4.66,12.84-3.56,23.41-2.43,36.61,4.32,51-11.58,105.46-38.22,148.77,20.22-32.15,34.07-69.77,38.88-107.46,2.39-18.78.68-36.43-.29-55.14-1-19.46,10.94-38.6,21.54-54,44-63.9,107.84-115.37,167.1-164.44,30.1-24.92,61.82-48.18,91.17-74,6.33-5.56,13.42-12.2,18.54.55,6.67,16.64-6.78,37.79-15.69,51-16.74,24.78-38.51,46.9-57.89,69.59-24.79,29-50.77,57.86-72.79,89.07-1.62,2.31-4.95,5.87-5.13,8.92.6-8.25,13.83-20,18.71-26,8.69-10.7,17.58-21.24,26.52-31.74q15.86-18.62,32-37c17.4-20,35.86-39.55,52.22-60.42,12.09-15.43,36.16-47.07,22.77-67.58-4.19-6.37-11.85-8.39-16.76-2.3-6.49,8-16.56,14.29-24.6,20.7-45.88,36.6-91.82,73.13-135.4,112.48,4.08-15.88-3.11-35.9-22.72-27.76,7.27-13.26,15.14-26.19,22.16-39.58,6.57-12.54,18.37-31.65,15.16-46.5-3.9-17.22-27.39-2.28-34.58,3.81-12.72,10.78-23.19,24.18-33,37.58C663.83,301.14,629.53,368.28,599,434.81c18.41-36.92,37.67-73.48,58.27-109.24C667.65,307.72,647,343.45,657.31,325.57Z"/><path d="M1523.83,454.5c-3-33.45-49-57.54-74.67-72.11-23.89-13.57-58.92-50.16-88-23.22-15.93-23.72-52.86-44.36-70.92-10,19.51-24.89,45.73-14.95,65,4.07q3,3,5.88,6a20.75,20.75,0,0,0-6,10.1c-1.6,6.43-5.56,4.7-12,6.78-14.41,4.68-28.24,11.19-41.87,17.75-57.81,27.82-113,60.75-169.65,90.86-12.19,6.49-24.44,12.95-37.07,18.54-11.7,5.1-24.13,8-36,12.82-29.24,11.94-57.51,26.46-85.71,40.64-11.65,5.86-23.28,11.79-35,17.55-5.72,2.81-11.44,5.64-17.28,8.2-5.4,2.36-10.61-6.4-14.46-10.29Q887.89,553.73,868.89,536q61.77-25.25,122.65-52.72c35.58-16.14,68.77-35.72,103.55-53.3q62-31.25,125.54-59.27c18-7.94,37.27-18.24,56.69-22.09,5.83-1.14,12.77,3.93,17.87,6.3,8.38,3.9,21,8.58,26,16.83-6-10.31-22.54-16.13-32.8-20.89-11.62-5.38-19.26-1.58-31.18,2.83-28.87,10.68-57.07,23.41-85,36.22-29,13.31-58,27-86.44,41.49-24.63,12.53-47.8,27.19-72.81,39.07-39.48,18.76-79.44,36.51-119.32,54.4l-19.48,8.74c-7.93,3.56-8.84-1-15.6-7.16-8.71-8-8.32-11.33-17.63-5.68-7.69,4.65-15.39,9.29-23,14,6.76-3.65,13.48-7.37,20.2-11.08l7.91-4.37c3.37-1.86,9.15,6.43,11.62,8.82,10,9.71,20,19.56,29.88,29.4q6.78,6.76,13.49,13.58c2.35,2.39,12.32,13.74,12.42,13.76,5.94,1,15.64,15.33,19.91,19.93,7.46,8,14.83,16.15,22,24.42,14.85,17.08,32.27,35.9,40.37,57.38-2.31-7.36-6.13-14.17-10.15-20.71q205.26-103.57,407-214.46c-69.8,35.21-139.14,71.42-208.21,108-35.35,18.73-70.72,37.4-106,56.3l-42.24,22.65q-23.27,12.46-46.42,25.19c-5.59,3.06-4.13,2.26-7-2.09-2.57-4-5.29-7.82-8.08-11.62-6.53-8.86-13.43-17.45-20.54-25.85-11.72-13.82-24-27.13-36.61-40.18,32.23-11.74,63.2-29.62,94.16-44.2,22.18-10.44,45.35-22.87,69.33-28.61,23.91-5.57,47.34-21.27,68.73-32.8,50.84-27.41,100.72-56.69,152.5-82.32,11.23-5.56,22.58-11,34.27-15.51a114.8,114.8,0,0,1,14.22-4.68c6.59-1.61,13.42,5.25,18.41,9.25,19,15.25,33.1,37.66,28.18,62.88,4.27-19.46-3-38.26-15.76-52.86a103.64,103.64,0,0,0-20.13-17.61c-7.25-4.87-9.44-6.27-2.59-14.95,10.46-13.39,33.06-12.24,47.34-5.64,16.68,7.8,29.86,20.79,45.6,30.1,23.66,14,88.63,50.57,64.69,86.54-11.39,17.12-34.4,14.83-50.24,6.06-20.4-11.28-41.07-22.28-63-30.45,24,10.25,45.58,25.88,69.5,35.84,23,9.59,53.61-1.59,51-30.43C1523.31,448.82,1524.34,460.19,1523.83,454.5Z"/><path d="M1403.31,474.72c-10.76-1.19-21.26-5.45-30.92-10.16,16,12.89,46.81,21.89,60.67,1.19-8.17,7.66-18.77,10.35-29.75,9C1400.65,474.42,1408.62,475.39,1403.31,474.72Z"/><path d="M1018.51,835.74a26.24,26.24,0,0,0-7.31-2.08,25.86,25.86,0,0,0,13.81,6,26.43,26.43,0,0,0-6.5-3.92Z"/><path d="M1031.32,839.87a13.26,13.26,0,0,0-2.11-7.55,23.72,23.72,0,0,1-.28,15,13,13,0,0,0,2.39-7.46C1031.34,837.21,1031.28,842.53,1031.32,839.87Z"/><path d="M1082.25,860.46c-18.86-6.08-38.28-9.82-57.94-12.26,1.9-1.89,1.17-6.34.31-8.26-.75,5.93,2.32,8.53-4.92,7.72a523.29,523.29,0,0,1,70,17.29c13.2,4.32,26.47,8.43,39.5,13.25,5.87,2.17,13.64,4.31,18.28,8.72,3,2.85-.86,7.8-4.25,7.74,5.94.5,7-6.73,2.92-9.7-7.31-5.27-16.59-8.29-25-11.39-12.83-4.76-25.88-8.91-38.91-13.11Z"/><path d="M1161,920.08c15.77-6.53-17.18-24.92-19.63-26.16-14.08-7.15-30.47-15.47-46.2-18.26,14,4.77,28,11.59,41.28,18,8.12,3.87,17.66,8.2,24.24,14.5,3,2.92,4.43,13.36-2.52,12l2.83-.08Z"/><path d="M1152.33,932.35c5.43,1,6.7-3.39,6.62-7.82-.44-6-14.33-11.93-18.67-14.29a413.21,413.21,0,0,0-51.08-23.08c20.21,9.79,41.31,18.76,60.36,30.66,3.1,1.93,7.93,4.21,7.88,8.33-.35,10-13.51,3.09-18,.07-16.76-11.25-36.46-19-55.25-26.06,13.2,6,26.37,12.17,39.2,18.94,3.47,1.83,34.45,20.37,15.63,20.77-18.08.3-37.42-7.89-54.83-12.71,13.7,4.8,27.55,9.56,41.73,12.77,5.32,1.2,12.43,3.3,17.77,1.07,6.16-2.61,2.93-9.17-.65-12.14,3,1.27,6.06,2.84,9.28,3.49Z"/><path d="M950.26,703.5Q895,698.09,839.82,692.83c-17.49-1.67-35-3.28-52.48-4.93-32.6-3.06-66.6-3.46-98.58-10.22,28.72,7.05,60.06,8.05,89.42,11.07q47.31,4.88,94.68,9.09c38.22,3.47,76.47,6.79,114.76,9.48l-37.36-3.82Z"/><path d="M1018.89,991.33c23.27-1.06,42.16-22.77,54.78-40.2-14.55,18-38.88,44.77-64.77,36.12l-43.14-14.41-52.6-17.58q-11.22-3.75-22.42-7.59c-6.73-2.31-18.3-4.1-23.63-8.95-2.69-2.35-1.9-18.23,1.43-18-.07,0,19.67-33.73,22.14-37.11-8.44,10.35-16.53,21.49-22.47,33.48-2.83,5.81-10.31,2.3-16.15,1.43q-12.12-1.81-24.14-4.12c-27.8-5.31-55.42-11.65-82.58-19.62-54.54-16-107.72-37.95-156.44-67.36,44.73,20.56,92,13.28,137.09-1.6-32.36,8.71-64.61,15.93-98.26,10.41-29.76-4.88-60-16.77-68.34-48.42-8.55-32.33,1-66.55,3.81-99,3.3-8.36,6.53-16.75,9.47-25.24,1.68-4.84,4.44-10.71,4.29-16-.44-6.49-13.31-7.73-17.76-8.15,4.85,1.35,17.11,3.56,15.09,10.65-2.06,6.85-4.73,13.53-7.2,20.24-4.83,13.07-13.45,29.1-13.22,43.11.93-8.09,6.35-17.08,9.33-24.65-3.36,23-8.55,45.78-9.27,69.11Q549.52,744,545.1,730.1l-4.8-15.17c-1.24-3.89,2.13-7.3.16-10.61,4,3.22,11.79,8.27,12.74,13.84-.35-4.69-5.83-9.3-9-12.24-2.24-2.11-12.13-8.12-11.94-11.07.41-9.49,8.37-20.55,12.83-28.64l7.74-14.05c1-1.9,9-16.75.35-11.34,7.66-3.79.89,6.94-.65,9.45-5.34,8.7-10.64,17.43-15.28,26.52-3.74,7.32-4.58,13.46-6,20.68-.4,2-2.88,6.33-2.73,8.69.18,2.87,6.63,7.91,6.65,7.53-.28,4.33-.42,8.67-.5,13-.2,11.75-1.55,27.71,4.32,38.4-20.51-18.55-26.18-49.45-26.78-75.85-3,25,2.56,55.52,21.24,73.66a51.1,51.1,0,0,0,13.39,9.57,50.43,50.43,0,0,0,7.61,3,91.58,91.58,0,0,0,2.23,13c2.79,11.1,8.23,21.46,16.79,29.17-27.15-17.94-55.93-40.22-70.09-70.4-6.56-14-9.45-29.71-5-44.78a50.81,50.81,0,0,1,10.18-19c5.88,4.17,13.15,8.35,20.61,8-20-2.3-37.69-25.31-50-39.33,7.75,11.9,17.74,23.1,29.36,31.35-28,30.06-8.09,71.43,15.67,96.64,27.51,29.19,63.41,50.43,98.84,68.55,74.7,38.21,159.59,65.39,243.52,71.88-2.14,4.86-4.63,11.09-2.93,16.45,2,6.31,12.6,8.07,17.8,10,15.39,5.72,30.94,11,46.5,16.28q24.09,8.14,48.27,16c13,4.21,28.83,12.6,42.66,12C1022.31,991.18,1017.19,991.41,1018.89,991.33ZM547,771.15c.83.45,7.38,3.14,7.47,4.07a61.38,61.38,0,0,1-7.47-4.07C549.88,772.74,549.34,772.67,547,771.15Z"/><path d="M1156.73,809.05c-6.69,22.16-18.67,42.36-32.07,61.08,28.5-31.94,55-86.71,33-129,8.16,21.31,5.67,46.55-.93,67.91C1155.07,814.55,1160.12,798.07,1156.73,809.05Z"/><path d="M1297,795.38c-2.11-14.32-33.26-20.12-44-24.23-25.61-9.77-51.37-19.13-77.2-28.29-50.26-17.81-100.94-36.87-152.67-50-11.67-3-23.82-2.54-35.74-3.4-13.14-.94-26.26-2.63-39.37-3.93q-42.36-4.21-84.79-7.93-84.84-7.46-169.82-13.07c104.39,10.06,209,18.08,313.44,27.23-15.44,6.48-25,23-33.77,36.32a667.29,667.29,0,0,0-34.38,58.09c10.71-19.38,22.46-38,34.82-56.35,8-11.94,16-26.14,28.57-33.93,15.31-9.5,42.54,4.81,57.63,10.08,22.92,8,46,15.54,68.93,23.49,45.66,15.83,91.36,31.64,136.39,49.2,14.11,5.51,32.74,7,29.81,26.57-3.33,22.3-15.79,43.67-24.77,64,11.84-22.42,30.49-49.52,27-73.87C1295.37,784.36,1297.23,797,1297,795.38Z"/><path d="M1200.06,985.18c-9,15.48-17.32,36.41-29.88,49.29-8.59,8.81-26.93,3.11-37,.41-40.24-10.8-78.54-26.38-116.56-43.25a639.25,639.25,0,0,0,89.37,38.21c20.57,6.91,55.48,21.83,71-.81,16.91-24.64,29.58-51.36,47.56-75.47,19.44-26.08,32.38-54.72,45.43-84.31-11.12,21-21,42.76-33.53,63-12.2,19.73-27.51,37.56-39.19,57.59l2.73-4.68Z"/><path d="M355.24,484.25c11-8.19,24-15.31,36.38-21.35,18.13-8.87,41.34-4.64,60.22-.4,47.94,10.77,95.74,39.21,116.7,85.66-16.06-41.55-57.14-71.88-98.79-84.07-21.8-6.3-46.94-12.11-69.5-6.46-9.28,2.32-17.53,8.48-25.57,13.46-5.87,3.63-18,8.69-21.48,15.07l2-1.91C356,483.69,354.51,484.82,355.24,484.25Z"/><path d="M562.73,561.76c-7.42-20.82-30.25-36.55-48.19-47.58C492,500.3,467.91,492.41,442,487.48c-24.5-4.67-52.45-9.66-77.26-4.71-33.66,6.71,9.13,28.85,20.47,33.39-10.41-4.56-23.24-10-30.61-19-9.18-11.41,13-13.77,19.35-14.15,25.47-1.53,51.79,2.8,76.6,8.22,41.44,9.1,102.74,34.55,113.64,79.7q2.51-11.7,5-23.4l-5,20.81a24.93,24.93,0,0,0-1.43-6.54C561.7,558.86,563.48,563.86,562.73,561.76Z"/><path d="M575.05,528.14c-13.28-41.91-43.77-83.3-86.24-98.53-19.46-7-44-14.22-64.41-7.4-15.89,5.33-21.46,21.22-27.86,35.28,8.7-16.53,15.19-32.58,35.74-35.1,23.91-2.94,53.14,6.45,73.6,18.43,25,14.64,43.92,38.32,57.38,63.61,5,9.42,11.69,19.27,9.5,30-1,4.81-1.93,9.61-2.89,14.42q2.63-10.34,5.18-20.68Z"/><path d="M617.2,483.88c-3.46-31-26.5-57.24-48.93-77.09-24.26-21.46-55-44.36-86.82-52.85-33.55-9-62.57,5.54-87.2,27.82-11.17,10.1-21.58,21.79-22.82,37.53-1.28,16.13,7.52,31.6,19.11,42.2-11.81-11.51-20.38-28.84-16.94-45.58,3.59-17.46,18.54-29.81,32-40.09,15.88-12.13,34.44-21.69,54.91-21.26,22.68.48,43.2,11.87,62,23.47,32.86,20.21,67.81,47.12,84.9,82.74,15.62,32.57,10.93,84.53-34.25,85.39,35.87.81,47.46-31.69,44-62.28C616.09,474,618.3,493.62,617.2,483.88Z"/><path d="M397.22,483.2c-1.26,2.79-2.55,5.54-3.73,8.36s-2.37,5.6-3.46,8.42-2.11,5.68-2.9,8.58a25.57,25.57,0,0,0-1.22,8.63l-.05-.22a43.38,43.38,0,0,1,1.7,8.33,51.5,51.5,0,0,1,.25,8.42c-.07,1.4-.18,2.8-.37,4.19-.1.69-.2,1.38-.33,2.08s-.2,1.34-.3,2c-.38,2.73-.55,5.5-.77,8.26a82.73,82.73,0,0,1-.16-8.34c0-.69.07-1.39.14-2.1s.12-1.36.16-2c.07-1.37.13-2.74.12-4.11a61.55,61.55,0,0,0-.58-8.15,46.42,46.42,0,0,0-1.73-7.9l0-.12v-.1a17.17,17.17,0,0,1,.26-4.83,40.38,40.38,0,0,1,1.09-4.56,78.82,78.82,0,0,1,3.26-8.65c1.23-2.81,2.59-5.55,4-8.25S395.55,485.76,397.22,483.2Z"/><path d="M403.6,506.12a44.48,44.48,0,0,1,1,26.33,35.79,35.79,0,0,1-5.91,12.22,30.7,30.7,0,0,1-4.76,5,33.14,33.14,0,0,1-2.77,2.06c-.95.63-1.89,1.2-2.84,1.78a78.74,78.74,0,0,0-10.8,7,11.83,11.83,0,0,0-3.62,4.55,5.7,5.7,0,0,0,.78,5.17,18.81,18.81,0,0,0,4.31,4.43,24.6,24.6,0,0,0,5.48,3.18c3.94,1.74,8.28,2.72,12.4,4.27-4.3-.91-8.66-1.48-12.93-2.9a25.75,25.75,0,0,1-6.11-3,19.7,19.7,0,0,1-5.09-4.71,9.15,9.15,0,0,1-1.56-3.42,7.49,7.49,0,0,1,.24-3.9,14.27,14.27,0,0,1,4.23-5.84c3.49-3,7.41-5.2,11.13-7.48a40.17,40.17,0,0,0,5.29-3.52,30.28,30.28,0,0,0,4.38-4.46,35.69,35.69,0,0,0,5.92-11.15A51,51,0,0,0,403.6,506.12Z"/><path d="M388.28,581c.59,3.45.91,6.94,1.38,10.39.22,1.72.44,3.45.77,5.13a17.76,17.76,0,0,0,1.46,4.78l-.25-.28a28.7,28.7,0,0,0,7.83,3.27A69.42,69.42,0,0,0,408,606c2.87.4,5.76.65,8.66.77a81.07,81.07,0,0,0,8.68,0A49.17,49.17,0,0,0,442,602.79a86.6,86.6,0,0,0,15-8.92,67.18,67.18,0,0,1-14.4,10.21,43.93,43.93,0,0,1-8.37,3.13c-1.45.38-2.9.69-4.37.95a42.25,42.25,0,0,1-4.46.5,84.89,84.89,0,0,1-17.74-.76A62.34,62.34,0,0,1,399,606a28,28,0,0,1-8.21-3.72l-.18-.13-.07-.16a18.4,18.4,0,0,1-1.36-5.26c-.23-1.76-.36-3.51-.45-5.26Z"/><path d="M393.27,602.77c.19,1.6.29,3.2.34,4.8s.07,3.2,0,4.79l-.62-.9c1.76.49,3.46,1.1,5.18,1.7s3.39,1.31,5,2.09a40.1,40.1,0,0,1,4.83,2.59,17,17,0,0,1,2.24,1.65,7.15,7.15,0,0,1,1,1,2,2,0,0,1,.48,1.31,1.9,1.9,0,0,0-.76-1,8,8,0,0,0-1.1-.72c-.76-.43-1.57-.8-2.38-1.17-1.63-.71-3.3-1.34-5-2l-10.08-3.74-.67-.25.05-.65c.14-1.59.33-3.18.56-4.76S392.91,604.34,393.27,602.77Z"/><path d="M402.81,616.79a90.61,90.61,0,0,0-.26,18.55,38.53,38.53,0,0,0,1.84,9c1,2.83,2.56,5.56,5,7.06a52.8,52.8,0,0,0,17.31,5.69,86.84,86.84,0,0,0,18.37,1,111,111,0,0,0,18.31-2.37c3-.63,6-1.37,9-2.22a70.92,70.92,0,0,0,8.72-3,56.86,56.86,0,0,0,15.37-10A100.6,100.6,0,0,0,509,626.85a91.33,91.33,0,0,1-11.87,14.41A55.54,55.54,0,0,1,481.73,652c-1.44.66-2.9,1.25-4.4,1.77s-3,1-4.47,1.43c-3,.91-6,1.7-9.07,2.39a110.1,110.1,0,0,1-18.62,2.5,86.29,86.29,0,0,1-18.78-1.16,65.67,65.67,0,0,1-9.16-2.31,41,41,0,0,1-8.65-3.93,11.34,11.34,0,0,1-3.44-3.56,18.83,18.83,0,0,1-2-4.39,39.71,39.71,0,0,1-1.58-9.31,77.05,77.05,0,0,1,.11-9.37A82.13,82.13,0,0,1,402.81,616.79Z"/><path d="M471.09,549.82a15.17,15.17,0,0,1-4.85,1.75,46.19,46.19,0,0,1-5.1.79c-1.71.19-3.43.26-5.16.29a24.92,24.92,0,0,1-5.26-.47,50.38,50.38,0,0,1-9.88-3.07,18.24,18.24,0,0,1-4.43-2.83,14.9,14.9,0,0,1-3.18-4.09A19.65,19.65,0,0,0,437,545.5a20.92,20.92,0,0,0,4.43,2.17,48,48,0,0,0,4.79,1.41q2.43.63,4.92,1.15a24.88,24.88,0,0,0,4.87.53c1.67.08,3.35.06,5,0s3.37-.08,5.05-.21A20.6,20.6,0,0,0,471.09,549.82Z"/><path d="M433.2,542.16a22.75,22.75,0,0,1,10.11-6.83A27.89,27.89,0,0,1,455.64,534a34.38,34.38,0,0,1,6.09,1.29,20.19,20.19,0,0,1,5.66,2.75,10.75,10.75,0,0,1,3.92,5,8.59,8.59,0,0,1-.11,6.12,9.19,9.19,0,0,0-.79-5.74,10.29,10.29,0,0,0-3.9-4.06,20.59,20.59,0,0,0-5.33-2.23,34.21,34.21,0,0,0-5.77-1.12,30.43,30.43,0,0,0-11.63.81A28.84,28.84,0,0,0,433.2,542.16Z"/><path d="M387.54,531.82a10.59,10.59,0,0,1,4-2.55,8.5,8.5,0,0,1,5-.28,7.93,7.93,0,0,1,4.17,2.77,8.52,8.52,0,0,1,1.85,4.4,19.26,19.26,0,0,0-3-3.32,9.08,9.08,0,0,0-3.55-1.92,10.31,10.31,0,0,0-4.08-.14A39,39,0,0,0,387.54,531.82Z"/><path d="M386.87,533.82a18.31,18.31,0,0,0,1.6,4.12,7.45,7.45,0,0,0,2.69,2.84,9.25,9.25,0,0,0,3.84,1.14,8.21,8.21,0,0,0,4.2-.76,5.71,5.71,0,0,1-4.15,2.31,8,8,0,0,1-4.9-1,7.08,7.08,0,0,1-3.11-4A8.25,8.25,0,0,1,386.87,533.82Z"/><path d="M457,552.21h0a35.35,35.35,0,0,1-4.84-.27l-.14,0-.11-.09A10.16,10.16,0,0,1,455,534.51l.1,0h.12a34.18,34.18,0,0,1,3.39.52,23.89,23.89,0,0,1,7.86,2.93l.14.13a10,10,0,0,1,2,6,10.16,10.16,0,0,1-3.36,7.54l-.12.11-.16,0A69.89,69.89,0,0,1,457,552.21ZM452.43,551a60.38,60.38,0,0,0,12.27-.2,9.13,9.13,0,0,0,1.19-12,22.86,22.86,0,0,0-7.45-2.75c-1.05-.21-2.09-.37-3.18-.49A9.15,9.15,0,0,0,452.43,551Z"/><path d="M463.29,544.07a4.84,4.84,0,1,1-4.84-4.83A4.84,4.84,0,0,1,463.29,544.07Z"/><circle cx="396.13" cy="536.58" r="3.78"/><path d="M395.1,543.3h0c-2.65,0-5.59-1.26-5.93-2.55-1.54-5.69,1.17-9,3.33-11l.11-.09.15,0a5.86,5.86,0,0,1,.94-.08c4.57,0,8.83,5.42,9,5.65l.18.24-.12.27a39.55,39.55,0,0,1-3.19,5.77A5.67,5.67,0,0,1,395.1,543.3Zm-2-12.71a9.14,9.14,0,0,0-2.94,9.9c.15.54,2.38,1.81,5,1.81a4.85,4.85,0,0,0,3.73-1.47,37.07,37.07,0,0,0,2.9-5.25c-.86-1-4.45-5-8-5A4.44,4.44,0,0,0,393.07,530.59Z"/><path d="M431.2,515.82a28.27,28.27,0,0,1,11.42-7.58,32.22,32.22,0,0,1,27.32,2.2,32.61,32.61,0,0,1,10.26,9.05A100.15,100.15,0,0,0,468.28,514a46.88,46.88,0,0,0-12.16-2.73,45.74,45.74,0,0,0-12.43.73A64.72,64.72,0,0,0,431.2,515.82Z"/><path d="M387.87,501.16a7.48,7.48,0,0,1,4.21-3.06,8.75,8.75,0,0,1,5.51.18,9.11,9.11,0,0,1,4.3,3.34,8.82,8.82,0,0,1,1.65,4.87c-1.49-1-2.7-1.89-3.89-2.66a17.58,17.58,0,0,0-3.45-1.8,14,14,0,0,0-3.72-.82A34.64,34.64,0,0,0,387.87,501.16Z"/><ellipse class="cls-22" cx="398.54" cy="534.66" rx="1.67" ry="1.5"/><ellipse class="cls-22" cx="462.87" cy="541.32" rx="2" ry="1.5"/><path class="cls-23" d="M480.2,576.16c0,5.89-7.76,10.66-17.33,10.66s-17.33-4.77-17.33-10.66,7.76-10.67,17.33-10.67S480.2,570.27,480.2,576.16Z"/><path class="cls-24" d="M387.4,528.78a8.72,8.72,0,0,1,3.33-3,7.65,7.65,0,0,1,4.57-.79,9.16,9.16,0,0,1,4.21,1.88,13.14,13.14,0,0,1,3,3.33,25.73,25.73,0,0,0-3.48-2.69,10.08,10.08,0,0,0-3.91-1.53,7.87,7.87,0,0,0-4.09.51A12.16,12.16,0,0,0,387.4,528.78Z"/><path class="cls-24" d="M433.87,537.82a27.22,27.22,0,0,1,7.91-6.17,22.47,22.47,0,0,1,9.77-2.63,21.33,21.33,0,0,1,5.1.45,23,23,0,0,1,4.83,1.65,30.33,30.33,0,0,1,8.28,5.79l0,0h0a27.32,27.32,0,0,1,2.69,4.5,16,16,0,0,1,.91,2.45,5.55,5.55,0,0,1,.14,2.59,5.69,5.69,0,0,0-.36-2.52,14.47,14.47,0,0,0-1.06-2.34,32.37,32.37,0,0,0-2.85-4.27l0,0a33.89,33.89,0,0,0-8.22-5.43,22.69,22.69,0,0,0-9.52-2,23.9,23.9,0,0,0-9.5,2.3A31.4,31.4,0,0,0,433.87,537.82Z"/></g></g></svg>