<?xml version="1.0" encoding="utf-8"?>
<!-- Generator: Adobe Illustrator 25.2.0, SVG Export Plug-In . SVG Version: 6.00 Build 0)  -->
<svg version="1.1" id="Layer_1" xmlns="http://www.w3.org/2000/svg" xmlns:xlink="http://www.w3.org/1999/xlink" x="0px" y="0px"
	 viewBox="0 0 500 500" style="enable-background:new 0 0 500 500;" xml:space="preserve">
<style type="text/css">
	.st0{fill:#FFFFFF;}
	.st1{fill:#EBEBEB;}
	.st2{fill:#DBDBDB;}
	.st3{fill:#C7C7C7;}
	.st4{fill:#A6A6A6;}
	.st5{fill:#263238;}
	.st6{fill:#407BFF;}
	.st7{fill:#455A64;}
	.st8{opacity:0.3;fill:#407BFF;enable-background:new    ;}
	.st9{opacity:0.3;fill:#DBDBDB;enable-background:new    ;}
	.st10{fill:#DD6A57;}
	.st11{opacity:0.1;enable-background:new    ;}
	.st12{opacity:0.1;fill:#030402;enable-background:new    ;}
	.st13{fill:#FF9BBC;}
	.st14{fill:#37474F;}
	.st15{fill:none;}
	.st16{font-family:'ArialRoundedMTBold';}
	.st17{font-size:15.001px;}
	.st18{font-family:'AvalonPlain';}
	.st19{font-size:7px;}
	.st20{font-size:5.8866px;}
	.st21{font-size:7.8273px;}
</style>
<g>
	<rect class="st0" width="500" height="500"/>
	<g id="freepik--background-complete--inject-70">
		<path class="st1" d="M82.6,327.1l-13.1,0.3l-6.7,0.1c-2.2,0-4.5,0-6.7,0h-0.4v-0.4l-0.1-11.2v-0.5h0.5l13.2,0.1
			c4.4,0,8.8,0.1,13.2,0.2h0.3v0.3c0,1.9-0.1,3.8-0.1,5.6L82.6,327.1z M82.6,327.1l-0.1-5.7c0-1.9-0.1-3.7-0.1-5.5l0.3,0.3
			c-4.4,0-8.8,0.2-13.2,0.2l-13.2,0.1l0.5-0.5v11.2l-0.5-0.5c2.2,0,4.4,0,6.5,0l6.6,0.1L82.6,327.1z"/>
		<path class="st1" d="M67.8,341.2l-13.1,0.3l-6.7,0.1c-2.2,0-4.5,0-6.7,0h-0.4v-0.4L40.8,330v-0.5h0.5l13.2,0.1
			c4.4,0,8.8,0.1,13.2,0.2h0.3v0.3c0,1.9-0.1,3.8-0.1,5.6L67.8,341.2z M67.8,341.2l-0.1-5.7c-0.1-1.9-0.1-3.7-0.1-5.5l0.3,0.3
			c-4.4,0-8.8,0.2-13.2,0.2l-13.2,0.1l0.5-0.5l0,11.2l-0.5-0.5c2.2,0,4.4,0,6.5,0l6.6,0.1L67.8,341.2z"/>
		<path class="st1" d="M410.2,233.9l-13.1,0.3l-6.7,0.1c-2.2,0-4.5,0-6.7,0h-0.5v-0.4l0-11.2v-0.5h0.5l13.2,0.1
			c4.4,0,8.8,0.1,13.2,0.2h0.3v0.3c0,1.9-0.1,3.8-0.1,5.6L410.2,233.9z M410.2,233.9l-0.1-5.7c0-1.9-0.1-3.7-0.1-5.5l0.3,0.3
			c-4.4,0-8.8,0.2-13.2,0.2l-13.2,0.1l0.5-0.5l-0.1,11.2l-0.4-0.4c2.2,0,4.4,0,6.5,0.1l6.6,0.1L410.2,233.9z"/>
		<path class="st1" d="M395.5,248l-13.1,0.3l-6.7,0.1c-2.2,0.1-4.5,0-6.7,0.1h-0.4V248v-11.2v-0.5h0.5l13.2,0.1
			c4.4,0,8.8,0.1,13.2,0.2h0.3v0.3c0,1.9-0.1,3.8-0.1,5.6L395.5,248z M395.5,248l-0.1-5.7c0-1.9-0.1-3.7-0.1-5.5l0.3,0.3
			c-4.4,0.1-8.8,0.2-13.2,0.2l-13.2,0.1l0.5-0.5l-0.1,11.2l-0.5-0.4c2.2,0,4.4,0,6.5,0.1l6.6,0.1L395.5,248z"/>
		<path class="st1" d="M158,158.8l-13.1,0.3l-6.7,0.1c-2.2,0-4.5,0-6.7,0.1H131v-0.4v-11.2v-0.5h0.5l13.2,0.1
			c4.4,0,8.8,0.1,13.2,0.2h0.3v0.3c0,1.9-0.1,3.8-0.1,5.6L158,158.8z M158,158.8l-0.1-5.7c-0.1-1.9-0.1-3.7-0.1-5.5l0.3,0.3
			c-4.4,0.1-8.8,0.2-13.2,0.2l-13.2,0.1l0.5-0.5l-0.1,11.2l-0.4-0.4c2.2,0,4.4,0,6.5,0.1l6.6,0.1L158,158.8z"/>
		<path class="st1" d="M143.2,172.9l-13.1,0.3l-6.7,0.1c-2.2,0-4.5,0-6.7,0h-0.4v-0.4v-11.2v-0.5h0.5l13.2,0.1
			c4.4,0,8.8,0.1,13.2,0.2h0.3v0.3c0,1.9-0.1,3.8-0.1,5.6L143.2,172.9z M143.2,172.9l-0.1-5.7c0-1.9-0.1-3.7-0.1-5.5l0.3,0.3
			c-4.4,0-8.8,0.2-13.2,0.2l-13.2,0.1l0.5-0.5l-0.1,11.2l-0.4-0.4c2.2,0,4.3,0,6.5,0.1l6.6,0.1L143.2,172.9z"/>
		<path class="st1" d="M380.7,233.9l-13.1,0.3l-6.7,0.1c-2.2,0-4.5,0-6.7,0h-0.4v-0.4l-0.1-11.2v-0.5h0.5l13.2,0.1
			c4.4,0,8.8,0.1,13.2,0.2h0.3v0.3c0,1.9-0.1,3.8-0.1,5.6L380.7,233.9z M380.7,233.9l-0.1-5.7c0-1.9-0.1-3.7-0.1-5.5l0.3,0.3
			c-4.4,0-8.8,0.2-13.2,0.2l-13.2,0.1l0.5-0.5l0,11.2l-0.5-0.4c2.2,0,4.4,0,6.5,0.1l6.6,0.1L380.7,233.9z"/>
		<path class="st1" d="M458.7,341.2l-13.1,0.3l-6.7,0.1c-2.2,0-4.5,0-6.7,0h-0.5v-0.4l0-11.2v-0.5h0.5l13.2,0.1
			c4.4,0,8.8,0.1,13.2,0.2h0.3v0.3c0,1.9-0.1,3.8-0.1,5.6L458.7,341.2z M458.7,341.2l-0.1-5.7c0-1.9-0.1-3.7-0.1-5.5l0.3,0.3
			c-4.4,0-8.8,0.2-13.2,0.2l-13.2,0.1l0.5-0.5l-0.1,11.2l-0.4-0.5c2.2,0,4.4,0,6.5,0l6.6,0.1L458.7,341.2z"/>
		<path class="st1" d="M443.9,67.5l-13.1,0.3l-6.7,0.1c-2.2,0-4.5,0-6.7,0.1H417v-0.4V56.3v-0.5h0.5l13.2,0.1
			c4.4,0,8.8,0.1,13.2,0.2h0.3v0.3c0,1.9-0.1,3.8-0.1,5.7L443.9,67.5z M443.9,67.5l-0.1-5.7c0-1.9-0.1-3.7-0.1-5.5l0.3,0.3
			c-4.4,0-8.8,0.2-13.2,0.2l-13.2,0.1l0.5-0.5l-0.1,11.2l-0.4-0.4c2.2,0,4.4,0,6.5,0.1l6.6,0.1L443.9,67.5z"/>
		<path class="st1" d="M458.7,81.6l-13.1,0.3l-6.7,0.1c-2.2,0-4.5,0-6.7,0.1h-0.5v-0.4l0-11.2v-0.5h0.5l13.2,0.1
			c4.4,0,8.8,0.1,13.2,0.2h0.3v0.3c0,1.9-0.1,3.8-0.1,5.7L458.7,81.6z M458.7,81.6l-0.1-5.7c0-1.9-0.1-3.7-0.1-5.5l0.3,0.3
			c-4.4,0-8.8,0.2-13.2,0.2l-13.2,0.1l0.5-0.5l-0.1,11.2l-0.4-0.4c2.2,0,4.4,0,6.5,0.1l6.6,0.1L458.7,81.6z"/>
		<path class="st1" d="M82.6,67.5l-13.1,0.3l-6.7,0.1c-2.2,0-4.5,0-6.7,0.1h-0.4v-0.4l-0.1-11.2v-0.5h0.5l13.2,0.1
			c4.4,0,8.8,0.1,13.2,0.2h0.3v0.3c0,1.9-0.1,3.8-0.1,5.7L82.6,67.5z M82.6,67.5l-0.1-5.7c0-1.9-0.1-3.7-0.1-5.5l0.3,0.3
			c-4.4,0-8.8,0.2-13.2,0.2l-13.2,0.1l0.5-0.5v11.2L56.1,67c2.2,0,4.4,0,6.5,0.1l6.6,0.1L82.6,67.5z"/>
		<rect x="310.2" y="122.4" class="st1" width="148.3" height="6.5"/>
		<rect x="318.5" y="128.9" class="st1" width="6.5" height="21.5"/>
		<rect x="318.5" y="128.9" class="st2" width="6.5" height="6.6"/>
		<rect x="443.7" y="128.9" class="st1" width="6.5" height="21.5"/>
		<rect x="443.7" y="128.9" class="st2" width="6.5" height="6.6"/>
		<rect x="341.5" y="80.9" class="st3" width="10.4" height="41.4"/>
		<rect x="341.5" y="78.7" class="st2" width="10.4" height="4.5"/>
		<rect x="341.5" y="89.1" class="st2" width="10.4" height="1.7"/>
		<rect x="341.5" y="112.4" class="st2" width="11.7" height="4.5"/>
		<rect x="351.9" y="74" class="st2" width="7.3" height="48.3"/>
		<rect x="353.3" y="78.6" class="st1" width="4.4" height="18.6"/>
		
			<rect x="387.7" y="78.6" transform="matrix(0.703 -0.7112 0.7112 0.703 43.0988 308.8103)" class="st3" width="7.3" height="48.3"/>
		<rect x="391.6" y="96" transform="matrix(0.703 -0.7112 0.7112 0.703 42.1028 311.3416)" class="st2" width="4.4" height="18.6"/>
		<rect x="359.2" y="85.6" class="st4" width="12.4" height="36.7"/>
		<rect x="359.2" y="115.1" class="st3" width="12.4" height="3.4"/>
		<rect x="359.2" y="111.5" class="st3" width="12.4" height="1.3"/>
		<rect x="332.9" y="87.9" class="st4" width="8.6" height="34.5"/>
		<rect x="332.9" y="115.5" class="st3" width="8.6" height="3.2"/>
		<rect x="332.9" y="95" class="st3" width="8.6" height="3.2"/>
		<rect x="332.9" y="100.4" class="st3" width="8.6" height="1.2"/>
		<path class="st4" d="M432.1,78.2c-7.3,7.1-8.5,18.2-7,27.9c0,0.2,0.4,0.2,0.4-0.1c0-2.2-0.1-4.4-0.1-6.6l0.1-0.3
			c2-1.3,3.6-3.1,4.8-5.1c1.2-2.4,1.7-5.1,2.6-7.6c0.1-0.2-0.2-0.2-0.3,0c-4.4,3.3-5.9,6.8-7.1,11.5c0-2.5,0.3-4.9,0.8-7.3
			c0.9-4.6,3-8.8,6.1-12.2C432.4,78.2,432.2,78,432.1,78.2z"/>
		<path class="st2" d="M433.5,79c1.2,0,2,2.1,3,2.6c0.4,0.3,1,0.3,1.3-0.1c0,0,0-0.1,0.1-0.1c1-1.4-0.4-3-1.6-4
			c0.8,0.5,1.7,0.9,2.6,1.2c0.5,0.2,1-0.1,1.2-0.6c0,0,0-0.1,0-0.1c0.4-1.8-1.9-2.7-3.5-2.7c0.8-0.5,3-2,1.8-2.7s-3.8,1.4-4.6,2
			c-1.2,1-2.7,2.5-2.8,4.1C430.9,80.5,432.5,79.4,433.5,79z"/>
		<path class="st1" d="M433.1,79.3c1.6-0.7,4.7,0.3,5-0.3c0.5-1.2-1.9-2.1-3.3-2.2c1.2-0.3,3.6-0.9,3.5-2c-0.1-1.4-3.6-0.2-5.4,1.2
			c-2.2,1.7-2.2,3.4-1.9,3.7S432.8,79.4,433.1,79.3z"/>
		<path class="st4" d="M415.5,77.4c7.6,6.9,9.2,17.9,8,27.6c0,0.2-0.4,0.2-0.4,0c-0.1-2.2-0.1-4.4-0.2-6.6l-0.1-0.3
			c-2-1.2-3.7-2.9-4.9-4.9c-1.3-2.3-1.9-5-2.9-7.5c-0.1-0.2,0.2-0.2,0.3-0.1c4.6,3.1,6.1,6.6,7.6,11.2c-0.1-2.5-0.5-4.9-1.1-7.3
			c-1-4.5-3.3-8.7-6.5-12c-0.1-0.1-0.1-0.2,0-0.2C415.3,77.4,415.4,77.4,415.5,77.4L415.5,77.4z"/>
		<path class="st2" d="M414.1,78.3c-1.2,0.1-2,2.1-2.9,2.8c-0.4,0.3-1,0.3-1.3-0.1c0,0,0-0.1-0.1-0.1c-1-1.3,0.2-3,1.5-4
			c-0.8,0.5-1.7,1-2.5,1.3c-0.5,0.2-1-0.1-1.2-0.5c0,0,0-0.1,0-0.1c-0.5-1.8,1.8-2.7,3.4-2.8c-0.8-0.5-3-1.9-1.9-2.6
			s3.8,1.2,4.7,1.9c1.3,1,2.8,2.4,2.9,4C416.8,79.8,415.1,78.7,414.1,78.3z"/>
		<path class="st1" d="M414.5,78.6c-1.6-0.7-4.7,0.5-5-0.1c-0.6-1.2,1.9-2.2,3.2-2.4c-1.2-0.3-3.6-0.7-3.6-1.9c0-1.4,3.6-0.3,5.4,1
			c2.3,1.6,2.4,3.3,2,3.6S414.8,78.7,414.5,78.6z"/>
		<path class="st4" d="M423.2,95.6c0.5,3.7,1.3,7.3,2.4,10.9c0,0.1,0.2,0.2,0.3,0.2s0.2-0.2,0.2-0.3c-0.5-3.3-1.4-6.6-1.9-10
			c-0.5-3.4-0.7-6.8-0.6-10.2c0.3-5.6,1.9-11.6,5.5-16c0.1-0.1-0.1-0.2-0.2-0.2c-7.4,8.6-6.2,19.1-6.2,20c-1-3.6-2.1-7.6-6-11.2
			c-0.2-0.2-0.3-0.1-0.3,0.2c0.7,6.6,2.5,10,6.4,13.6C422.9,93.5,423,94.6,423.2,95.6z"/>
		<path class="st2" d="M429.2,71.1c1.3-0.6,3.1,1.1,4.5,1.2c0.6,0.1,1.2-0.2,1.3-0.8c0,0,0-0.1,0-0.1c0.3-1.9-1.9-3-3.7-3.3
			c1.1,0.1,2.2,0.1,3.3-0.1c0.6,0,1-0.5,0.9-1.1c0-0.1,0-0.2-0.1-0.2c-0.5-2.1-3.3-1.8-5-1.1c0.5-0.9,2.1-3.6,0.5-3.7
			s-3.2,3.3-3.8,4.4c-0.8,1.7-1.6,4-0.8,5.6C427.3,73.9,428.4,72,429.2,71.1z"/>
		<path class="st1" d="M429,71.6c1.3-1.6,5-2,5-2.8c-0.1-1.6-3-1.2-4.5-0.7c1.1-1,3.3-2.7,2.6-3.9c-0.8-1.5-3.8,1.6-5,3.9
			c-1.5,2.9-0.6,4.6-0.1,4.8C427.8,73.1,428.8,71.8,429,71.6z"/>
		<path class="st2" d="M418.4,97.6l-3.2,24.8h19.8c-0.4-2.2-4.1-24.8-4.1-24.8L418.4,97.6z"/>
		<rect x="42.2" y="45.5" class="st2" width="133" height="204"/>
		<rect x="49.4" y="53.6" class="st0" width="56.2" height="90.7"/>
		<rect x="111.8" y="53.6" class="st0" width="56.2" height="90.7"/>
		<rect x="49.4" y="150.5" class="st0" width="56.2" height="90.7"/>
		<rect x="111.8" y="150.5" class="st0" width="56.2" height="90.7"/>
		<rect x="42.2" y="45.5" class="st1" width="31.5" height="291.8"/>
		<polygon class="st0" points="67.7,59.3 68,90.9 68.1,122.4 68.2,185.6 68.1,248.6 68,280.2 67.7,311.8 67.5,280.2 67.4,248.6 
			67.2,185.6 67.4,122.4 67.5,90.9 		"/>
		<polygon class="st0" points="53.2,66.7 53.5,94.8 53.6,123 53.8,179.4 53.6,235.7 53.5,263.9 53.2,292 53,263.9 52.9,235.7 
			52.8,179.4 52.9,123 53,94.8 		"/>
		<polygon class="st0" points="60.5,73.3 60.7,106.3 60.8,139.3 61,205.3 60.8,271.2 60.7,304.2 60.5,337.2 60.2,304.2 60.2,271.2 
			60,205.3 60.2,139.3 60.2,106.3 		"/>
		<polygon class="st0" points="47.9,61 48.1,95.5 48.2,130.1 48.4,199.1 48.2,268.2 48.1,302.7 47.9,337.2 47.6,302.7 47.5,268.2 
			47.4,199.1 47.5,130.1 47.6,95.5 		"/>
		<rect x="143.7" y="45.5" class="st1" width="31.5" height="291.8"/>
		<polygon class="st0" points="149.7,59.3 149.9,90.9 150,122.4 150.2,185.6 150,248.6 149.9,280.2 149.7,311.8 149.4,280.2 
			149.3,248.6 149.2,185.6 149.3,122.4 149.4,90.9 		"/>
		<polygon class="st0" points="164.1,66.7 164.4,94.8 164.5,123 164.6,179.4 164.5,235.7 164.4,263.9 164.1,292 163.9,263.9 
			163.8,235.7 163.6,179.4 163.8,123 163.9,94.8 		"/>
		<polygon class="st0" points="156.9,73.3 157.1,106.3 157.2,139.3 157.4,205.3 157.2,271.2 157.1,304.2 156.9,337.2 156.7,304.2 
			156.6,271.2 156.4,205.3 156.6,139.3 156.7,106.3 		"/>
		<polygon class="st0" points="169.5,61 169.8,95.5 169.8,130.1 170,199.1 169.9,268.2 169.8,302.7 169.5,337.2 169.3,302.7 
			169.2,268.2 169,199.1 169.2,130.1 169.3,95.5 		"/>
	</g>
	<g id="freepik--Shadow--inject-70">
		<path class="st1" d="M448.3,449c0,11.3-88.8,20.4-198.3,20.4S51.7,460.3,51.7,449s88.8-20.4,198.3-20.4S448.3,437.8,448.3,449z"/>
	</g>
	<g id="freepik--Floor--inject-70">
		<polygon class="st5" points="41.5,406.4 93.6,406.2 145.8,406.1 250,406 354.2,406.1 406.4,406.2 458.5,406.4 406.4,406.7 
			354.2,406.8 250,406.9 145.8,406.8 93.6,406.7 		"/>
	</g>
	<g id="freepik--Plant--inject-70">
		<path class="st6" d="M405.1,285.1c-0.9,6.1-0.6,12.4,0.9,18.4c0.7,2.8,1.7,5.5,2.8,8.1c1.5,3.4,3,6.7,2.6,10.4
			c-0.4,0.2,0.9,0.2,0.9-0.2c9.9-5.6,22.5-6.6,30.1-15.8c3.6-4.4,5.4-9.9,6.3-15.4c0.9-6,1.2-12.6-0.4-18.6c-1.3-5-4.2-9.8-8.9-12.3
			c-4.9-2.5-11.2-2.3-16.3-0.7C412.1,262.5,406.6,274.4,405.1,285.1z"/>
		<path class="st5" d="M400,358.1c1.4-4.5,2.7-9,4.1-13.4c2.7-8.8,5.5-17.5,8.6-26.1c1.9-5.2,3.8-10.3,5.9-15.4
			c-0.4-3.2-0.5-6.4-1.2-9.5c-0.8-3.8-2-7.5-3.1-11.3c-0.1-0.2,0.3-0.4,0.4-0.1c2.2,5.1,5.1,11.8,5.2,17.9c2.4-5.7,5-11.4,7.8-17
			c0.3-4.7,0.2-9.5-0.4-14.1c0-0.1,0-0.2,0.1-0.2c0.1,0,0.2,0,0.2,0.1c0.9,4.1,1.2,8.3,1,12.5c2.1-4.2,4.4-8.3,6.7-12.4
			c0.2-0.4,0.7,0,0.5,0.4c-3.7,7.1-7.1,14.4-10.4,21.8c4.5-4,9.8-7,15.5-9c0.2-0.1,0.4,0.3,0.2,0.4c-6.2,2.7-11.9,6.4-16.7,11.1
			c-2.3,5.4-4.5,10.9-6.6,16.4c6.2-6,14.6-10,22.8-12.2c0.3-0.1,0.4,0.4,0.1,0.4c-9.5,2.9-16.8,8.2-24,14.6
			c-0.8,2.2-1.7,4.4-2.5,6.7c-3,8.4-5.9,17-8.7,25.5c-1.3,4.1-2.6,8.2-3.9,12.3c-1.4,4.4-2.5,9.1-4.2,13.4c-0.2,0.4-0.9,0.3-0.8-0.2
			C397.4,366.3,398.6,362.2,400,358.1z"/>
		<path class="st5" d="M416.4,276.5c1.7,2.7,3,5.7,3.5,8.9c0,0.1-0.1,0.1-0.1,0c-1.1-3-2.4-5.9-3.9-8.7
			C415.8,276.4,416.2,276.2,416.4,276.5z"/>
		<path class="st5" d="M434,297c2.7-1.5,5.7-2.5,8.9-3c0.1,0,0.1,0.1,0,0.1c-1.4,0.6-2.9,1-4.4,1.5s-2.9,1.2-4.3,1.7
			c-0.1,0-0.3-0.1-0.3-0.2C433.9,297.2,433.9,297.1,434,297z"/>
		<path class="st5" d="M438.9,272.3c0.9-0.7,1.8-1.3,2.9-1.8c0.1,0,0.2,0,0.2,0.1c0,0.1,0,0.1,0,0.2c-0.9,0.7-1.8,1.3-2.8,1.8
			C438.9,272.7,438.7,272.4,438.9,272.3z"/>
		<path class="st6" d="M371.8,318.6c7.1,2.1,14.2,4.1,21.3,6.1c0.6,0.2,12.6-22.8,8.3-34.7c-4-11-13.2-19.2-24.1-22.9
			c-5.1-1.7-11.3-3.2-16.7-2c-4.8,1.1-8.1,5-9.7,9.4c-2.1,6.1-1.4,13.4-0.3,19.6c1.1,5.8,3.2,11.4,7,16S366.3,316.9,371.8,318.6z"/>
		<path class="st5" d="M361.5,296.7c4.5,2.2,9.1,4,13.9,5.5c3.2,0.9,6.3,2,9.3,3.4c-3-6.7-6.3-13.2-9.8-19.7
			c-4.6-1.3-9.4-3.4-12.9-6.6c-0.1-0.1-0.1-0.2,0-0.3c0.1-0.1,0.2-0.1,0.2,0c3.8,2.7,8,4.3,12.1,6.1c-1-1.8-1.9-3.5-2.9-5.2
			c-0.3-0.5,0.4-1,0.7-0.5c3.7,5.4,7.1,11.1,10.1,17c0.8-5.1,1-10.3,0.7-15.5c0-0.1,0.2-0.1,0.2,0c0.9,5.7,0.8,11.4-0.2,17.1
			c2.5,5,4.8,10.1,6.8,15.2c0.8-3.1,1.9-6.1,2.6-9.3c1.1-4.5,1.4-9.1,1-13.7c0-0.1,0.2-0.1,0.2,0c1.2,8.5,0.2,17.1-3,25.1
			c1.2,3.1,2.3,6.2,3.4,9.3c5.4,15.9,8.5,32.5,9.4,49.3c0,0.2-0.1,0.3-0.3,0.3c-0.2,0-0.3-0.1-0.3-0.3c-1.9-16.6-5.4-32.9-10.6-48.7
			c-2.1-6.2-4.4-12.2-7-18.1c-4.2-1.2-8.4-2.9-12.5-4.4s-8.1-3-11.5-5.6C361.2,296.9,361.4,296.6,361.5,296.7z"/>
		<path class="st5" d="M354.9,290c4.4,1.5,8.5,3.7,12.8,5.3c0.2,0.1,0.1,0.4-0.1,0.4c-4.6-0.9-9.1-2.4-12.9-5.4
			C354.6,290.2,354.7,290,354.9,290z"/>
		<path class="st5" d="M390.4,280.6c0-0.2,0.3-0.4,0.4-0.1c1.2,4,2,8.2,0.9,12.3c0,0.2-0.3,0.2-0.3,0
			C391,288.7,391.3,284.7,390.4,280.6z"/>
		<path class="st5" d="M372.4,271.4c1.4,2,2,4.4,1.9,6.8c0,0.1-0.2,0.2-0.3,0.1c-0.5-2.3-1.4-4.4-2.1-6.6c-0.1-0.2,0-0.3,0.2-0.4
			C372.2,271.2,372.3,271.3,372.4,271.4z"/>
		<path class="st6" d="M456.3,328.7c-2.1,6.6-7,15.8-14.9,15.8c-5.1,0-10.2-0.5-15.3-0.6c-5.5-0.1-10.9-0.1-16.4,0.3
			c-0.5,0,0.6-16.3,13.8-24.3c3.7-2.2,8.2-2.9,12.3-3.8c4.8-1.1,9.7-1.6,14.6-1.5c3,0.1,5.5,0.8,6.6,3.9S457.3,325.6,456.3,328.7z"
			/>
		<path class="st5" d="M450.7,320.5c-3.2,0.8-6.4,1.8-9.6,2.8c0.8-0.9,1.7-1.8,2.6-2.6c1.4-1.1,2.9-2.1,4.4-3.1
			c0.1-0.1,0-0.3-0.1-0.2c-3.1,1.3-5.8,3.4-7.7,6.1c-4,1.3-7.9,2.7-11.7,4.3c-2.6,1.1-5.1,2.4-7.5,4c0.8-1.7,1.7-3.2,2.7-4.7
			c1.7-2.3,4.1-3.5,6.4-5.1c0.1-0.1,0.1-0.2,0.1-0.3c-0.1-0.1-0.2-0.1-0.3-0.1c-4.8,2.1-8.5,6.1-10.2,11.1c-2.7,2-5.2,4.2-7.4,6.8
			c-8.7,9.9-15.5,23-15.5,36.3c0,0.3,0.5,0.4,0.6,0.1c2.5-13.3,7.7-25.2,16.5-35.5c0.6-0.7,1.3-1.4,1.9-2.1c2.4-0.3,4.8-0.5,7.2-0.5
			c2.8,0,5.6,0.4,8.3,0.6c4.6,0.4,9.6,0.4,13.8-1.9c0.2-0.1,0.1-0.4-0.1-0.3c-9.2,3.3-18.9-0.9-28.1,1.1c3.9-3.8,8.6-6.7,13.6-8.8
			l0.8-0.3c5.9,0.7,12.1,2.2,17.9,0.3c0.1,0,0.1-0.1,0.1-0.2c0-0.1-0.1-0.1-0.2-0.1c-5.6,1.4-10.9-0.4-16.4-0.6c6-2.3,12-4.2,18-6.5
			C451.2,320.8,451.2,320.3,450.7,320.5z"/>
		<path class="st5" d="M453.3,326.3c-2.8,0.4-5.7,0.6-8.6,0.6c-0.1,0-0.1,0.1,0,0.1c2.9,0.5,5.9,0.4,8.7-0.5
			C453.5,326.5,453.4,326.2,453.3,326.3z"/>
		<path class="st5" d="M433.9,320.6c-1.6,0.7-3,1.7-4.3,3c-0.1,0.1,0.1,0.4,0.2,0.3c0.7-0.5,1.5-1,2.2-1.5c0.7-0.4,1.4-0.8,2.1-1.3
			C434.3,320.9,434.1,320.5,433.9,320.6z"/>
		<path class="st6" d="M387.6,341.9c0.1,0.2-0.2,0.4-0.3,0.2l0,0c0,0.1-0.1,0.1-0.2,0.1c-5.3,1.3-10.6,2.2-16,2.8
			c-4.3,0.4-9.3,0.6-13.1-1.9c-5.1-3.4-8.5-12.5-5.7-18.3c3.3-6.9,13.2-3.1,18.2-0.7C378,327.8,384.1,334.1,387.6,341.9z"/>
		<path class="st5" d="M391.4,345.1c-2.9-2.8-6.1-5.2-9.6-7.3c-2.5-3.9-5.8-7.3-9.7-9.9c-0.2-0.1-0.4,0.2-0.2,0.3
			c3.1,2.5,5.8,5.4,8.2,8.6c-3.9-2.1-7.9-3.9-12-5.5c-1.5-2.7-3.7-5-6.4-6.5c0,0-0.1,0-0.1,0.1c2.3,1.7,4.2,3.8,5.8,6.1
			c-2.4-0.9-4.9-1.8-7.4-2.6c-0.2-0.1-0.3,0.3-0.1,0.3c4.4,1.7,8.9,3.5,13.2,5.6c-5.3,0.8-10.7,0.8-16,0c-0.1,0-0.2,0.2-0.1,0.2
			c5.5,1.6,11.4,1.7,17,0.3c2.8,1.3,5.4,2.8,8,4.5c-2.2-0.2-4.4,0-6.5,0.5c-3.7,0.9-7.6,1.3-11.4,1.3c-0.1,0-0.2,0.2,0,0.3
			c6.6,1.1,12.9-1.9,19.5-1.1c2.4,1.7,4.7,3.5,6.8,5.6c4.1,4.1,7.5,8.9,10,14.1c2.8,5.6,4.3,11.6,6.5,17.4c0,0.1,0.1,0.2,0.3,0.2
			c0.1,0,0.2-0.1,0.1-0.3l0,0C405.5,365.9,399.8,353.2,391.4,345.1z"/>
		<path class="st5" d="M371.4,329.3c-0.4-0.8-1-1.5-1.7-2.1c-0.6-0.6-1.2-1.1-2-1.5c-0.1,0-0.1,0.1-0.1,0.1c0.5,0.6,1.3,1.1,1.9,1.7
			s1.1,1.3,1.7,1.9C371.4,329.5,371.5,329.4,371.4,329.3z"/>
		<path class="st5" d="M360.5,332.9c-1-0.2-2-0.2-3-0.4c-1-0.2-2-0.5-2.9-0.9c-0.1,0-0.1,0-0.2,0.1s0,0.1,0.1,0.2l0,0
			c1.8,1.1,3.9,1.6,6,1.4C360.7,333.2,360.6,332.9,360.5,332.9z"/>
		<polygon class="st7" points="418.7,363.2 417.9,373.1 414.9,406.4 388.8,406.4 385.1,373.1 384,363.2 		"/>
		<polygon class="st5" points="418.7,363.2 417.9,373.1 385.1,373.1 384,363.2 		"/>
		<rect x="381.4" y="360.5" class="st7" width="39.9" height="8"/>
	</g>
	<path class="st5" d="M334.5,52.7H165.5c-9.5,0.1-17.2,7.9-17.1,17.4c0,0,0,0,0,0v348c-0.1,9.5,7.6,17.3,17.1,17.4h169.1
		c9.5-0.1,17.2-7.9,17.1-17.4v-348C351.7,60.6,344.1,52.8,334.5,52.7z M340.9,407.4c0,9.2-6.9,16.6-15.3,16.6H174.4
		c-8.5,0-15.3-7.4-15.3-16.6V83.3c0-18.7,6.9-19.6,15.3-19.6h30.3c1.8,0,3.2,2,3.2,4.5v1.1c0,5.8,3.2,5.8,7.1,5.8h70
		c3.9,0,7.1,0,7.1-5.8v-1.1c0-2.5,1.4-4.5,3.2-4.5h30.3c8.5,0,15.3,2.5,15.3,19.6L340.9,407.4z"/>
	<path class="st0" d="M340.9,83.3v324.1c0,9.2-6.9,16.6-15.3,16.6H174.4c-8.5,0-15.3-7.4-15.3-16.6V83.3c0-18.7,6.9-19.6,15.3-19.6
		h30.3c1.8,0,3.2,2,3.2,4.5v1.1c0,5.8,3.2,5.8,7.1,5.8h70c3.9,0,7.1,0,7.1-5.8v-1.1c0-2.5,1.4-4.5,3.2-4.5h30.3
		C334.1,63.7,340.9,66.2,340.9,83.3z"/>
	<g id="freepik--u5Zjqx--inject-70">
		<path class="st2" d="M199.4,71l-0.3,0.3c-0.1,0-0.1,0.1-0.2,0.2c-1.6-1.6-4.1-1.6-5.6,0l-0.2-0.2l-0.3-0.3l0,0l0,0l0.4-0.3
			c0.3-0.2,0.6-0.4,0.9-0.6c0.4-0.2,0.7-0.3,1.1-0.4c0.2,0,0.4,0,0.6-0.1s0.5,0,0.5,0h0.4c0.3,0,0.7,0.1,1,0.2
			c0.2,0.1,0.5,0.2,0.7,0.3c0.2,0.1,0.5,0.3,0.7,0.5L199.4,71L199.4,71z"/>
		<path class="st2" d="M194.3,72.4c-0.1-0.2-0.3-0.3-0.5-0.5c1.3-1.3,3.4-1.3,4.7,0c0,0,0,0,0,0l-0.5,0.5c-0.5-0.5-1.2-0.8-1.9-0.8
			C195.5,71.6,194.8,71.9,194.3,72.4z"/>
		<path class="st2" d="M197.6,72.8l-0.5,0.5c-0.5-0.5-1.4-0.5-1.9,0l-0.5-0.5C195.5,72.1,196.8,72,197.6,72.8
			C197.6,72.8,197.6,72.8,197.6,72.8z"/>
		<path class="st2" d="M196.6,73.7c0,0.2-0.2,0.4-0.4,0.4l0,0c-0.2,0-0.4-0.1-0.5-0.4c0-0.2,0.1-0.4,0.4-0.5c0,0,0.1,0,0.1,0
			C196.4,73.3,196.6,73.5,196.6,73.7C196.6,73.7,196.6,73.7,196.6,73.7z"/>
	</g>
	<path class="st2" d="M170.9,71.9c0-0.7,0.5-1.2,1.2-1.2c0.7,0,1.2,0.5,1.2,1.2c0,0.7-0.5,1.2-1.2,1.2S170.9,72.6,170.9,71.9
		C170.9,71.9,170.9,71.9,170.9,71.9z"/>
	<path class="st2" d="M174.7,71.9c0-0.7,0.5-1.2,1.2-1.2c0.7,0,1.2,0.5,1.2,1.2c0,0.7-0.5,1.2-1.2,1.2S174.7,72.6,174.7,71.9
		C174.7,71.9,174.7,71.9,174.7,71.9z"/>
	<path class="st2" d="M178.5,71.9c0-0.7,0.5-1.2,1.2-1.2c0.7,0,1.2,0.5,1.2,1.2c0,0.7-0.5,1.2-1.2,1.2c0,0,0,0,0,0
		C179,73.1,178.5,72.6,178.5,71.9C178.5,71.9,178.5,71.9,178.5,71.9z"/>
	<path class="st2" d="M182.3,71.9c0-0.7,0.5-1.2,1.2-1.2c0.7,0,1.2,0.5,1.2,1.2c0,0.7-0.5,1.2-1.2,1.2c0,0,0,0,0,0
		C182.8,73.1,182.3,72.6,182.3,71.9C182.3,71.9,182.3,71.9,182.3,71.9z"/>
	<path class="st2" d="M186.1,71.9c0-0.7,0.5-1.2,1.2-1.2c0.7,0,1.2,0.5,1.2,1.2c0,0.7-0.5,1.2-1.2,1.2S186.1,72.6,186.1,71.9
		C186.1,71.9,186.1,71.9,186.1,71.9z"/>
	<path class="st2" d="M327.3,74.5h-9.8V70h9.8V74.5z M318,74h8.8v-3.5H318V74z"/>
	<rect x="318.3" y="70.8" class="st2" width="6.3" height="3"/>
	<rect x="327.3" y="71" class="st2" width="0.9" height="2.4"/>
	<rect x="176.8" y="377.5" class="st6" width="24.2" height="24.2"/>
	<path class="st0" d="M195.2,395.2l-1.8,1.4l-3.4-4.5l-1.2-1.6c0.3-0.1,0.5-0.2,0.7-0.4c0.4-0.3,0.7-0.7,0.9-1.2l1.3,1.8
		L195.2,395.2z"/>
	<path class="st0" d="M191.6,384.6c-1.7-2.2-4.8-2.6-7-0.9s-2.6,4.8-0.9,7c1.5,1.9,4.1,2.5,6.3,1.4c0.2-0.1,0.5-0.3,0.7-0.5
		c0.4-0.3,0.7-0.7,1-1.1C193,388.8,193,386.4,191.6,384.6z M189.5,390c-0.2,0.2-0.5,0.3-0.7,0.4c-1.5,0.6-3.3-0.1-3.9-1.7
		c-0.5-1.3-0.1-2.7,1-3.5c1.3-1,3.2-0.8,4.2,0.5c0.7,0.9,0.8,2,0.4,3C190.2,389.3,189.9,389.7,189.5,390L189.5,390z"/>
	<polygon class="st2" points="174.1,97.6 170.2,94 174.1,90.4 174.7,91 171.5,94 174.7,97 	"/>
	<rect x="299" y="377.5" class="st6" width="24.2" height="24.2"/>
	<rect x="309.8" y="382.6" class="st0" width="2.5" height="14"/>
	<rect x="304.1" y="388.4" class="st0" width="14" height="2.5"/>
	<rect x="313.8" y="119.6" class="st6" width="9.3" height="1.4"/>
	<rect x="313.8" y="116.4" class="st6" width="9.3" height="1.4"/>
	<rect x="313.8" y="113.2" class="st6" width="9.3" height="1.4"/>
	<path class="st0" d="M259.5,67.8h-19.1c-0.7,0-1.2-0.5-1.2-1.2l0,0c0-0.7,0.5-1.2,1.2-1.2h19.1c0.7,0,1.2,0.5,1.2,1.2l0,0
		C260.7,67.3,260.2,67.8,259.5,67.8z"/>
	<rect x="176.8" y="134.4" class="st8" width="146.3" height="20.4"/>
	<rect x="182.1" y="140.1" class="st6" width="9.1" height="9.1"/>
	<polygon class="st0" points="187.2,148 184.1,144.9 185.1,143.8 187,145.7 190.7,139.8 192,140.5 	"/>
	<rect x="176.8" y="160.3" class="st8" width="146.3" height="20.4"/>
	<rect x="182.1" y="165.9" class="st6" width="9.1" height="9.1"/>
	<polygon class="st0" points="187.2,173.8 184.1,170.7 185.1,169.7 187,171.5 190.7,165.6 192,166.4 	"/>
	<rect x="176.8" y="186.1" class="st8" width="146.3" height="20.4"/>
	<rect x="182.1" y="191.7" class="st6" width="9.1" height="9.1"/>
	<polygon class="st0" points="187.2,199.7 184.1,196.5 185.1,195.5 187,197.3 190.7,191.4 192,192.2 	"/>
	<rect x="176.8" y="211.9" class="st8" width="146.3" height="20.4"/>
	<rect x="182.1" y="217.6" class="st6" width="9.1" height="9.1"/>
	<polygon class="st0" points="187.2,225.5 184.1,222.4 185.1,221.3 187,223.1 190.7,217.2 192,218 	"/>
	<rect x="176.8" y="237.8" class="st9" width="146.3" height="20.5"/>
	<rect x="182.1" y="243.4" class="st0" width="9.1" height="9.1"/>
	<path class="st5" d="M191.3,252.5c-3,0.1-6,0.2-9.1,0.2h-0.2v-0.2l-0.1-9.1v-0.2h0.2c3.1,0,6.1,0,9.1,0.1h0.2v0.2
		C191.4,246.5,191.3,249.6,191.3,252.5z M191.3,252.5c-0.1-3.1-0.2-6.1-0.2-9.1l0.2,0.2c-3,0-6.1,0-9.1,0.1l0.2-0.2l-0.1,9.1
		l-0.2-0.2C185.1,252.4,188.2,252.5,191.3,252.5z"/>
	<rect x="176.8" y="263.6" class="st9" width="146.3" height="20.5"/>
	<rect x="182.1" y="269.2" class="st0" width="9.1" height="9.1"/>
	<path class="st5" d="M191.3,278.4c-3,0.1-6,0.2-9.1,0.2h-0.2v-0.2l-0.1-9.1V269h0.2c3.1,0,6.1,0,9.1,0.1h0.2v0.2
		C191.4,272.3,191.3,275.4,191.3,278.4z M191.3,278.4c-0.1-3.1-0.2-6.1-0.2-9.1l0.2,0.2c-3,0-6.1,0-9.1,0.1l0.2-0.2l-0.1,9.1
		l-0.2-0.2C185.1,278.2,188.2,278.3,191.3,278.4z"/>
	<rect x="176.8" y="289.4" class="st9" width="146.3" height="20.5"/>
	<rect x="182.1" y="295.1" class="st0" width="9.1" height="9.1"/>
	<path class="st5" d="M191.3,304.2c-3,0.1-6,0.2-9.1,0.2h-0.2v-0.2l-0.1-9.1v-0.2h0.2c3.1,0,6.1,0,9.1,0.1h0.2v0.2
		C191.4,298.2,191.3,301.2,191.3,304.2z M191.3,304.2c-0.1-3.1-0.2-6.1-0.2-9.1l0.2,0.2c-3,0-6.1,0-9.1,0.1l0.2-0.2l-0.1,9.1
		l-0.2-0.2C185.1,304,188.2,304.1,191.3,304.2z"/>
	<g id="freepik--Character--inject-70">
		<polygon class="st2" points="140.5,349.7 142.9,364 159,450.8 161.6,450.8 149.9,364 148.2,349.7 		"/>
		<polygon class="st4" points="148.2,349.7 140.5,349.7 142.9,364 149.9,364 		"/>
		<polygon class="st2" points="90.1,450.8 92.6,450.8 108.7,364 111.1,349.7 103.5,349.7 101.7,364 		"/>
		<polygon class="st4" points="103.5,349.7 101.7,364 108.7,364 111.1,349.7 		"/>
		<polygon class="st2" points="41.8,450.8 44.4,450.8 60.5,364 62.9,349.7 55.2,349.7 53.5,364 		"/>
		<polygon class="st4" points="53.5,364 60.5,364 62.9,349.7 55.2,349.7 		"/>
		<polygon class="st2" points="45.9,356.4 163.7,356.4 163.7,344 119.6,344 104.8,279.4 50.4,279.4 		"/>
		<polygon class="st4" points="45.9,356.4 52.4,356.4 56.5,279.4 50.4,279.4 		"/>
		<path class="st10" d="M229.6,436.5c-2.1,1.2-66.9,14.8-69.7,13.7c-1.1-0.4-3.6-9.7-6.3-21c-0.6-2.5-1.2-5-1.8-7.6
			c-3.8-16.7-7.5-34.5-7.5-34.5l43.3-9.2l6.3,34.8l1.4,7.6c0,0,27.1,5.9,30.1,7.4S231.7,435.3,229.6,436.5z"/>
		<path class="st6" d="M229.8,436.6c-2.1,1.2-67.2,14.9-70,13.8c-1.3-0.5-4.8-14.2-8.1-28.8l42.3-9l1.4,7.7c0,0,27.3,5.9,30.2,7.4
			S231.9,435.4,229.8,436.6z"/>
		<path class="st5" d="M228.3,434.2c-11,2-55,11.2-65.7,14c-0.1,0-0.1,0.1,0,0.1c10.9-1.8,54.9-11.3,65.8-13.9
			C228.6,434.3,228.5,434.1,228.3,434.2z"/>
		<path class="st5" d="M196.4,417.6c-4.5,0.1-9.6,1.9-12.2,5.6c-0.1,0.1,0.1,0.3,0.2,0.2c3.8-2.2,7.9-4,12.1-5.3
			c0.2,0,0.2-0.2,0.2-0.3C196.6,417.7,196.5,417.6,196.4,417.6z"/>
		<path class="st5" d="M199.9,418.8c-4.5,0.1-9.6,1.9-12.2,5.6c-0.1,0.1,0.1,0.3,0.2,0.2c3.8-2.2,7.9-4,12.1-5.3
			c0.2,0,0.2-0.2,0.2-0.3C200.2,418.9,200,418.8,199.9,418.8L199.9,418.8z"/>
		<path class="st5" d="M203.4,420c-4.5,0.1-9.6,1.9-12.2,5.6c-0.1,0.1,0.1,0.3,0.2,0.2c3.8-2.2,7.9-4,12.1-5.3
			c0.2,0,0.2-0.2,0.2-0.3C203.6,420.1,203.5,420,203.4,420z"/>
		<path class="st5" d="M206.9,421.2c-4.5,0.1-9.6,1.9-12.2,5.6c-0.1,0.1,0.1,0.3,0.2,0.2c3.8-2.2,7.9-3.9,12.1-5.3
			c0.1,0,0.2-0.2,0.2-0.3C207.1,421.3,207,421.2,206.9,421.2z"/>
		<path class="st5" d="M202.2,406c-2.2-2-5.1-0.3-6.6,1.6c-2.5,3.3-4,7.2-4.6,11.2c0,0.1,0.1,0.1,0.1,0.1c0,0.3,0.3,0.5,0.6,0.5
			c0.1,0,0.1,0,0.2-0.1c3.3-2.1,7-3.9,9.6-6.9C203.1,410.8,204.3,407.9,202.2,406z M196.3,415.2c-1.6,1-3.2,2-4.8,3.1
			c0.8-2.2,1.8-4.4,2.8-6.5c0.5-1,1.1-2,1.8-2.9c1-1.4,5.6-5,5.8-0.1C202.1,411.5,198.2,414,196.3,415.2L196.3,415.2z"/>
		<path class="st5" d="M179.9,420c3.9,0.8,7.9-0.2,11.8-0.6c0.3-0.1,0.5-0.4,0.4-0.7c0-0.1,0-0.1-0.1-0.1c0.1,0,0.1-0.1,0-0.2
			c0,0,0,0,0,0c-2.9-2.9-6.6-5-10.5-6c-2.3-0.6-5.7-0.1-6.1,2.8C174.9,418,177.7,419.5,179.9,420z M177.4,417.3
			c-2.9-4,2.9-4,4.6-3.5c1.1,0.3,2.2,0.7,3.2,1.2c2.1,1,4.2,2.1,6.2,3.4c-1.9,0.1-3.8,0.3-5.7,0.5
			C183.5,419,178.9,419.5,177.4,417.3L177.4,417.3z"/>
		<path class="st10" d="M170,472.2c-2.4,0.6-68.4-2.8-70.8-4.5c-0.9-0.6-1.2-27.2-0.5-29.7c2.3-8.6,12.7-34.7,12.7-34.7l44.2,2.2
			l-13.9,34.6l-0.6,7.7c0,0,24.7,12.6,27.2,14.8S172.4,471.6,170,472.2z"/>
		<path class="st6" d="M170.2,472.3c-2.4,0.7-68.8-2.8-71.2-4.5c-1.1-0.8-1-15-0.5-29.9l43.2,2.1l-0.6,7.8c0,0,24.9,12.7,27.3,14.9
			S172.6,471.7,170.2,472.3z"/>
		<path class="st5" d="M169.4,469.6c-11.1-0.9-56.1-3.2-67.1-3.2c-0.1,0-0.1,0.1,0,0.1c11,1.1,56,3.1,67.1,3.3
			C169.6,469.8,169.6,469.6,169.4,469.6z"/>
		<path class="st5" d="M142.8,445.4c-4.3-1-9.7-0.6-13.2,2.3c-0.1,0.1,0,0.3,0.2,0.3c4.2-1.1,8.6-1.8,13-2c0.2,0,0.3-0.1,0.3-0.2
			C143,445.6,142.9,445.4,142.8,445.4z"/>
		<path class="st5" d="M145.8,447.5c-4.3-1-9.7-0.6-13.2,2.3c-0.1,0.1,0,0.3,0.2,0.3c4.3-1.1,8.6-1.8,13-2c0.2,0,0.3-0.1,0.3-0.2
			S146,447.5,145.8,447.5L145.8,447.5z"/>
		<path class="st5" d="M148.9,449.6c-4.3-1-9.7-0.6-13.2,2.3c-0.1,0.1,0,0.3,0.2,0.3c4.3-1.1,8.6-1.8,13-2c0.2,0,0.3-0.1,0.3-0.2
			S149,449.6,148.9,449.6L148.9,449.6z"/>
		<path class="st5" d="M152,451.6c-4.3-1-9.7-0.6-13.2,2.3c-0.1,0.1,0,0.3,0.2,0.3c4.2-1.1,8.6-1.8,13-2c0.2,0,0.3-0.1,0.3-0.3
			C152.2,451.8,152.1,451.7,152,451.6z"/>
		<path class="st5" d="M151.4,435.7c-1.6-2.5-4.9-1.6-6.8-0.1c-3.2,2.5-5.7,5.9-7.3,9.7c0,0.1,0,0.1,0.1,0.2c0,0,0,0,0,0
			c0,0.3,0.2,0.6,0.5,0.6c0.1,0,0.1,0,0.2,0c3.7-1.1,7.8-1.9,11-4.2C151,440.5,152.9,438,151.4,435.7z M143.3,443.1
			c-1.8,0.6-3.6,1.1-5.4,1.8c1.4-1.9,2.8-3.8,4.4-5.6c0.8-0.9,1.6-1.7,2.5-2.4c1.4-1.1,6.6-3.4,5.6,1.4
			C149.8,441,145.5,442.4,143.3,443.1L143.3,443.1z"/>
		<path class="st5" d="M126.2,443.6c3.5,1.7,7.7,1.9,11.5,2.4c0.3,0,0.6-0.2,0.6-0.5c0,0,0-0.1,0-0.1c0.1,0,0.1-0.1,0.1-0.2
			c0,0,0,0,0,0c-2.1-3.5-5.1-6.4-8.7-8.5c-2.1-1.1-5.5-1.5-6.7,1.2C121.9,440.4,124.2,442.5,126.2,443.6z M124.4,440.3
			c-1.8-4.6,3.8-3.1,5.4-2.2c1,0.6,1.9,1.3,2.8,2c1.9,1.5,3.5,3.2,5.2,4.8c-1.9-0.4-3.7-0.6-5.6-1
			C129.9,443.6,125.4,442.9,124.4,440.3z"/>
		<path class="st7" d="M68.6,339c13.2,14.7,57.4,3.1,60.1,8.9c2.3,5.1-30.1,85.5-30.1,85.5l46.8,4.3c0,0,45.4-88.1,30.5-114.4
			c-8.1-14.2-43.5-8.6-64.9-11.2c-6.5-0.8-9.5-14.1-9.5-14.1H63.2C63.2,298,53.6,322.2,68.6,339z"/>
		<path class="st5" d="M162.5,315.1l-40.6,31c-13.5-0.3-43,4.4-53.3-7.1c-15-16.8-5.4-41-5.4-41h38.3c0,0,3,13.3,9.5,14.1
			C126,313.9,148,311.7,162.5,315.1z"/>
		<path class="st5" d="M148.1,428.6c-1.3-0.4-13.9-1.8-16.6-2.1c-5.5-0.6-22.9-2.2-26.1-2.2c0,0-0.1,0.1,0,0.1c0,0,0,0,0,0
			c2.7,0.6,13.8,1.9,16.6,2.2c5.5,0.6,24.6,2.4,26.1,2.3c0.1,0,0.1,0,0.1-0.1C148.3,428.6,148.2,428.6,148.1,428.6L148.1,428.6z"/>
		<path class="st5" d="M134.9,342.4c-3.1-1.5-18.7-0.9-25.2-1.1l-9.9-0.3c-2.9-0.1-5.9-0.1-8.8-0.3c-5.5-0.4-11-1.7-15.2-5.3
			c-3.7-3.3-6.3-7.6-7.5-12.4c-1.6-5.8-1.4-11.8-1.2-17.7c0.1-1.5,0.2-2.9,0.3-4.4c0-0.1-0.2-0.1-0.2,0c-1.3,10.6-2.3,22.4,4.6,31.6
			c3.1,4,7.4,6.9,12.3,8.1c5.7,1.4,11.6,1.3,17.4,1.4l19.6,0.4c3.3,0.1,11.5,0.2,12.8,1.2c1.6,1.2-7.7,30-9.9,35.8
			c-4.5,11.7-8.9,23.5-13.3,35.3c-0.5,1.4-2,5.5-2.5,7c-0.1,0.3,0.4,0.5,0.5,0.2c2.4-5.8,5.6-14.4,7.9-20.2s4.6-11.6,6.8-17.5
			C128,372.5,137.6,343.7,134.9,342.4z"/>
		<path class="st5" d="M177.7,325.8c-2.6-5.7-7.5-9.4-15.1-10.8c-0.1,0-0.1,0.2,0,0.2c6.7,2,11.4,4.6,14.2,10.1
			c1.6,3.6,2.3,7.5,2.1,11.4c-0.3,11.2-4.3,27.4-6.6,35.1s-5,15.4-7.9,22.9s-9.6,23.3-10,24.3c0,0,0,0.1,0,0.1s0.1,0,0.1,0
			c3-5.1,12.5-28,17.8-44.6C174.6,366.8,183.2,338,177.7,325.8z"/>
		<path class="st7" d="M195.1,410.5l-40.8,8.7c0,0,33.1-87.1,19.6-98.2c-3.8-3.1-11.9-4.1-21.7,0c-14.5,6.3-31.4,19.1-47.2,23.8
			c-14.8,4.4-32.5,0.4-38.6-6.3c-12.8-14-3.2-40.5-3.2-40.5l45.4-2c0,0-0.9,2,1.6,4.2c0,0,38.3-8.4,51.7-0.2
			C186.2,314.9,195.1,410.5,195.1,410.5z"/>
		<path class="st5" d="M86,301C86,301,86,300.9,86,301c-0.1-0.1-0.2,0-0.2,0l0,0c0,2-0.1,4-0.5,5.9c-0.4,1.9-1.3,3.6-2.6,4.9
			c-2.9,2.9-7,3.9-10.8,5.1c-0.2,0.1-0.2,0.4,0.1,0.4c4.2-0.6,8.6-1.7,11.7-4.9c1.4-1.4,2.4-3.3,2.7-5.3C86.8,305.1,86.6,303,86,301
			z"/>
		<path class="st5" d="M172.9,319.4c-5.6-3.5-14.4-0.9-18.6,0.8c-0.1,0,0,0.2,0.1,0.1c3.9-1.4,13.5-3.5,18.7,0.1
			c11.9,8.4-6.8,63.8-18.7,98.3c-0.2,0.5,0.2,0.4,0.4-0.1c1.7-3.8,19.3-50.3,22.2-72.3C177.5,342.2,181.1,324.5,172.9,319.4z"/>
		<path class="st5" d="M190.1,402.1c-1.1,0-10.6,2.1-12.7,2.5c-4.2,0.9-17.2,4.1-19.5,5c-0.1,0,0,0.1,0,0.1c2.2-0.2,10.6-2,12.7-2.5
			c4.2-1,18.5-4.4,19.5-5C190.3,402.3,190.2,402.1,190.1,402.1z"/>
		<path class="st5" d="M171.1,317.9c-3.8-2.1-8.3-2.4-12.5-1.9c-4.4,0.7-8.7,2-12.8,4c-8.6,3.9-16.7,8.7-25.3,12.6s-17.6,6.9-27,7.2
			c-8,0.2-18.2-1.2-23.3-8.4c-8-11.1-3.3-30.3-3.3-31.5c0-0.1-0.1-0.1-0.2,0c-6.2,23.6,1.8,32.7,7.1,36.6c4.2,3.1,10.4,3.8,14.4,4.2
			c9.3,0.8,18.7-1.5,27.4-5c8.9-3.5,17.2-8.3,25.7-12.6c8.1-4.2,17.2-8.5,26.5-6.1C169,317.2,170.1,317.5,171.1,317.9L171.1,317.9z"
			/>
		<path class="st5" d="M111.4,203.7c6.7,1.2,10,9.6,11.5,16.9s0.7,13.2,5.7,16.9c0,0-4.2,7.6-20.2,8.8c-13.3,1-20.8-1.8-20.8-1.8
			c-1.3-5.4-2-10.9-2.1-16.5c0-8.9,2.3-18.2,8.4-22.4C104.2,198.6,111.4,203.7,111.4,203.7z"/>
		<path class="st5" d="M111.4,203.7c1.6,0.4,3.1,1.1,4.4,2.1c1.3,1,2.4,2.2,3.2,3.6c1.7,2.8,2.9,5.8,3.6,9c0.8,3.2,1.4,6.4,2.2,9.7
			c0.4,1.6,0.9,3.2,1.6,4.8c0.7,1.5,1.9,2.8,3.3,3.7c-1.3-1-2.3-2.3-2.9-3.9c-0.6-1.5-1-3.1-1.3-4.7c-0.6-3.2-1.1-6.5-1.9-9.8
			c-0.7-3.3-2-6.4-3.9-9.2c-1-1.4-2.2-2.6-3.6-3.6C114.7,204.4,113.1,203.8,111.4,203.7z"/>
		<path class="st5" d="M98.3,203.2c-3.6,1.4-6.7,3.9-8.8,7.1c-2.2,3.3-3.6,7-4.2,10.9c-0.6,3.9-0.6,7.8-0.2,11.7
			c0.4,3.9,1,7.7,1.7,11.5l-0.5-5.8c-0.2-1.9-0.3-3.9-0.5-5.8c-0.3-3.8-0.2-7.7,0.4-11.5c0.5-3.8,1.8-7.4,3.8-10.6
			c1-1.6,2.2-3.1,3.6-4.3C95,205.1,96.6,204,98.3,203.2z"/>
		<path class="st10" d="M98.3,250.8c3.8,15.4,12.9,39.2,21,39.1c7.4-0.1,23.9-13.2,30.8-17.5s-8.6-21.2-12.5-18.5
			c-6.1,4.2-15.3,11.8-16.9,11.3c-1.9-0.6-4.4-5.4-15.4-19.4C100.8,240.1,96.7,244.2,98.3,250.8z"/>
		<path class="st10" d="M145,247.4c3.2-1.1,6.9-2.7,10.5-2.7s6.6,4.8,6.6,6.2s-1.4,9.9-5,9.9s-1.4-6.6-1.6-7.3s-0.3-1.7-1-1.6
			s-12.5,5.7-12.5,5.7L145,247.4z"/>
		<path class="st10" d="M145.2,247.9c0.2,0,9.9-3.8,13.5-3.8s6.6,4.8,6.6,6.2s-1.4,9.9-5,9.9s-1.4-6.6-1.6-7.3s-0.3-1.7-1-1.6
			s-12.6,5.7-12.6,5.7V247.9z"/>
		<path class="st5" d="M159.1,259.8c-0.4-0.6-0.6-1.4-0.6-2.1c-0.1-0.8,0-1.5,0.1-2.3c0.2-0.7,0.3-1.3,0.4-2c0-0.7-0.2-1.3-0.5-1.9
			c-0.3-0.5-0.8-0.3-1.3-0.2c-0.7,0.3-1.4,0.5-2,0.9l-2.1,1.1c-0.7,0.3-1.4,0.7-2.1,1.1c0,0,0,0.1,0.1,0.1c0.6-0.2,1.2-0.5,1.8-0.8
			l2.1-0.9c0.6-0.3,1.3-0.6,1.9-0.9c0.3-0.2,0.6-0.3,1-0.3c0.3,0.1,0.4,0.7,0.5,1c0.2,0.7,0.1,1.4-0.1,2c-0.2,0.7-0.3,1.3-0.4,2
			c-0.1,0.6,0,1.3,0.1,1.9c0.2,0.6,0.5,1.1,0.9,1.6C159.1,259.9,159.2,259.8,159.1,259.8z"/>
		<path class="st10" d="M133.8,257.4c0,0,10-9.1,12.1-10.9c4.2-3.6,21.8-10.8,24.3-11.1s3.3,4.8-8.6,10c-6.3,2.8-7.4,6.4-7.3,8.4
			s2,5.7,5.4,5.6s5.6-5,8.6-5.6s1,5.1-1.1,8.4c-2.3,3.2-5.4,5.6-9.1,7.1c-2.9,1.1-11.9,5-11.9,5L133.8,257.4z"/>
		<path class="st5" d="M163.8,257c-1.3,1-2.7,2.2-4.4,2.3s-2.9-1-3.6-2.5c-0.9-1.4-1.2-3-0.9-4.6c0.4-1.5,1.2-2.8,2.3-3.8
			c1.4-1.2,2.9-2.2,4.6-3c0.1,0,0-0.1-0.1-0.1c-1.6,0.7-6.4,2.7-7.3,6.9c-0.3,1.6,0,3.3,0.9,4.7c0.6,1.4,1.9,2.5,3.5,2.8
			c2,0.2,3.7-1.5,5.1-2.7C163.9,257,163.8,256.9,163.8,257z"/>
		<path class="st6" d="M101,282.5l19-18c0,0-5.1-7.4-12.2-16.4c-6.9-8.6-11.2-8.3-11.1,7.1C96.9,264.5,98.3,273.7,101,282.5z"/>
		<path class="st5" d="M117.4,261.7c-1.6,1.2-3,2.6-4.4,3.9s-2.8,2.5-4.1,3.8c-2.8,2.7-5.5,5.4-8.2,8.2c0,0,0,0.1,0.1,0.1
			c2.9-2.5,5.7-5.1,8.5-7.7c1.4-1.3,2.7-2.6,4.1-4S116.2,263.3,117.4,261.7C117.5,261.8,117.5,261.7,117.4,261.7z"/>
		<path class="st11" d="M96.8,255.2c0.1,9.3,1.5,18.4,4.2,27.3l18.8-17.7L100,242.6C97.8,243.2,96.7,247.2,96.8,255.2z"/>
		<path class="st6" d="M116.8,302.6l-57.2,0.9c0,0,15.1-46.6,27-59.1c5.4-5.7,10.7-4.8,15.1-1c1.1,0.9,14.7,18.5,15.8,24.6
			c1,5.4-3.4,11.3-3.4,11.3L116.8,302.6z"/>
		<path class="st12" d="M90,241.6h9.1c0.5,0.3,1.1,0.6,1.6,1H88.5C89,242.3,89.5,241.9,90,241.6z M84.7,246.6h19.5
			c-0.3-0.4-0.5-0.7-0.8-1H85.5C85.2,245.9,85,246.2,84.7,246.6L84.7,246.6z M82,250.5h25.2l-0.8-1H82.6
			C82.4,249.9,82.2,250.2,82,250.5z M79.7,254.5H110l-0.7-1H80.2L79.7,254.5z M77.6,258.4h35.1l-0.7-1H78.1
			C77.9,257.8,77.7,258.1,77.6,258.4L77.6,258.4z M75.6,262.4H115c-0.2-0.3-0.4-0.7-0.6-1H76.1C75.9,261.7,75.8,262,75.6,262.4
			L75.6,262.4z M73.8,266.3h43.1c-0.1-0.3-0.3-0.6-0.4-1H74.3C74.1,265.6,74,266,73.8,266.3L73.8,266.3z M72.1,270.3h45.5
			c0-0.3,0-0.7,0-1H72.5L72.1,270.3z M70.4,274.2h46.3c0.1-0.3,0.2-0.7,0.3-1H70.8C70.7,273.5,70.5,273.9,70.4,274.2z M68.8,278.2
			h46c0.2-0.3,0.4-0.6,0.6-1H69.2C69.1,277.5,68.9,277.8,68.8,278.2L68.8,278.2z M67.2,282.1h47.1l-0.1-1H67.6
			C67.5,281.4,67.4,281.8,67.2,282.1L67.2,282.1z M65.8,286.1h49l-0.1-1H66.1C66,285.4,65.9,285.7,65.8,286.1L65.8,286.1z M64.3,290
			h51l-0.1-1H64.7C64.5,289.3,64.4,289.7,64.3,290z M62.9,293.9h52.9l-0.1-1H63.2C63.1,293.3,63,293.6,62.9,293.9L62.9,293.9z
			 M61.5,297.9h54.8l-0.1-1H61.8C61.7,297.2,61.6,297.5,61.5,297.9L61.5,297.9z M60.1,301.8h56.6l-0.1-1H60.5
			C60.3,301.2,60.2,301.5,60.1,301.8L60.1,301.8z"/>
		<path class="st5" d="M105.7,277c-2.5,0.2-5.1,0.6-7.5,1.2c-1.2,0.3-2.4,0.7-3.7,1.1c-0.6,0.2-1.2,0.4-1.8,0.6
			c-0.6,0.2-1.3,0.3-2,0.4c0,0-0.1,0.1,0,0.1c0.6,0,1.2,0,1.9,0c0.6-0.1,1.2-0.2,1.8-0.3c1.2-0.3,2.5-0.7,3.7-1
			c2.5-0.7,5-1.3,7.6-1.8C105.8,277.2,105.8,277,105.7,277z"/>
		<path class="st5" d="M111.8,279.9c-2.1-0.3-4.1-0.6-6.2-0.6c-1,0-2.1,0-3.1,0.1l-1.5,0.1c-0.6,0.1-1.1,0.2-1.6,0.3
			c-0.1,0-0.1,0.1,0,0.1c0.5,0,1,0,1.6,0.1h1.6c1,0,2.1,0,3.1,0c2.1,0,4.2,0,6.2,0.1C111.9,280.1,111.9,280,111.8,279.9z"/>
		<path class="st10" d="M93,242.2c0,1,3.5,8.4,8.1,9.1c1.5,0.2,3-7.9,3-7.9l0.2-0.6l3.5-8l-8.6-8.2l-1.2-1.1c0,0-0.8,2.2-1.8,5
			c0,0.1-0.1,0.3-0.1,0.4s-0.1,0.3-0.2,0.5c-0.2,0.4-0.3,0.8-0.4,1.3s-0.2,0.6-0.3,1s-0.2,0.7-0.3,1C94,237.1,93.4,239.7,93,242.2z"
			/>
		<path class="st5" d="M96.2,230.6c0.8,5.1,3.8,9.5,8.1,12.2l3.5-8l-8.6-8.2l-1.3-1.1C98,225.6,97.2,227.8,96.2,230.6z"/>
		<path class="st10" d="M121,224.6c-3,15-12.3,14.9-15.5,14.2c-2.9-0.6-12.8-3-11.4-18.2s9.3-18.6,16.1-17.6S124,209.6,121,224.6z"
			/>
		<path class="st5" d="M119.4,221.6c-0.3-0.1-0.7-0.3-1-0.4c-0.4-0.1-0.7-0.3-0.9-0.6c-0.1-0.2-0.1-0.5,0.1-0.6
			c0.4-0.3,0.9-0.3,1.4,0c0.5,0.2,0.8,0.5,1.1,1c0.1,0.3-0.1,0.6-0.4,0.7C119.6,221.6,119.5,221.6,119.4,221.6z"/>
		<path class="st5" d="M109.2,219.3c0.4,0,0.7,0,1.1,0c0.4,0.1,0.8,0,1.1-0.2c0.2-0.2,0.2-0.4,0.1-0.6c-0.3-0.4-0.7-0.6-1.2-0.6
			c-0.5,0-1,0.1-1.4,0.4c-0.2,0.2-0.3,0.6-0.1,0.8C108.9,219.2,109.1,219.3,109.2,219.3z"/>
		<path class="st5" d="M110.8,223.5C110.8,223.5,110.7,223.5,110.8,223.5c-0.3,1.1-0.6,2.2-1.6,2.4 M109.1,225.9
			c1.2,0.1,1.6-1.5,1.6-2.5L109.1,225.9z"/>
		<path class="st5" d="M110.1,222.2c-1.6-0.5-2.4,2.8-0.9,3.2S111.4,222.6,110.1,222.2z"/>
		<path class="st5" d="M109.4,222.2c-0.3,0.1-0.7,0.4-1,0.3s-0.6-0.5-0.8-0.9c0,0,0,0-0.1,0c-0.2,0.6-0.1,1.3,0.6,1.6
			c0.6,0.2,1.3-0.2,1.5-0.8C109.6,222.4,109.5,222.2,109.4,222.2z"/>
		<path class="st5" d="M116.4,224.6c0,0,0.1,0.1,0.1,0.1c-0.3,1-0.4,2.2,0.4,2.8c0,0,0,0.1,0,0.1C115.8,227.1,116,225.5,116.4,224.6
			z"/>
		<path class="st5" d="M117.6,223.8c1.7,0.3,1,3.6-0.6,3.3S116.2,223.6,117.6,223.8z"/>
		<path class="st5" d="M118.2,224.1c0.2,0.2,0.4,0.6,0.7,0.7s0.7-0.2,1-0.5c0,0,0.1,0,0,0c-0.1,0.6-0.5,1.2-1.1,1.2
			s-0.9-0.6-0.9-1.3C118,224.2,118.2,224.1,118.2,224.1z"/>
		<path class="st5" d="M108.7,231.8c0.2,0.3,0.3,0.7,0.7,0.8c0.4,0.1,0.8,0.1,1.1,0.1c0,0,0.1,0,0,0.1c-0.4,0.3-0.9,0.4-1.4,0.2
			c-0.4-0.2-0.6-0.7-0.5-1.1C108.5,231.7,108.5,231.7,108.7,231.8C108.6,231.7,108.6,231.7,108.7,231.8z"/>
		<path class="st5" d="M113.7,229.1c0,0-0.1,1.6-0.3,2.3c0,0.1-0.2,0.1-0.4,0l0,0c-1.3-0.1-2.5-0.8-3-2c0,0,0-0.1,0.1-0.1
			c0,0,0.1,0,0.1,0c0.8,0.8,1.8,1.4,2.9,1.6c0.1-0.2,0.1-2.7,0.3-2.7c0.5,0.2,1.1,0.4,1.5,0.7c0.4-3.2,0.2-6.5,0.6-9.8
			c0-0.1,0-0.1,0.1-0.1c0.1,0,0.1,0,0.1,0.1c0.3,3.5,0.2,7-0.2,10.5C115.3,230.1,114,229.2,113.7,229.1z"/>
		<path class="st5" d="M113,231c-0.5,0.5-1.2,0.9-1.9,1.1c-0.4,0.1-0.8,0.1-1.2-0.1c-0.8-0.4-0.7-1.1-0.4-1.7
			c0.1-0.3,0.3-0.6,0.5-0.9C110.8,230.1,111.9,230.8,113,231z"/>
		<path class="st13" d="M111.1,232c-0.4,0.1-0.8,0.1-1.2-0.1c-0.8-0.4-0.7-1.1-0.4-1.7C110.4,230.3,111,231.1,111.1,232z"/>
		<path class="st5" d="M95,222.1c1.7,0.2,6.7-3.6,8.1-11.6c0,0-1.8,7-2.5,8s2.8-2.1,4-8.5c1.8,1.8,3.8,3.3,6,4.5
			c2.9,1.3,4.7,1.6,5,1.4s-4-2.3-4.9-3.9c0,0,7.4,5,11.1,5.9c0.4,0.1,1-8.3-4.2-13s-13.4-2.4-16.2-0.5c0,0-2.9-0.1-6.7,3.7
			S93.2,221.9,95,222.1z"/>
		<path class="st10" d="M93,226.2c0.2,0.2,0.4,0.3,0.6,0.4c0.2,0.1,0.4,0.2,0.7,0.2c0.3,0.1,0.6,0.1,0.9,0c0.2-0.1,0.5-0.2,0.7-0.3
			c0.3-0.2,0.6-0.4,0.8-0.7l0.3-4.1c0,0-1.9-5.5-4.3-5S90.8,224.6,93,226.2z"/>
		<path class="st5" d="M92.9,218.8C92.9,218.8,92.8,218.8,92.9,218.8c1.5,1.2,1.9,3.1,2.1,4.9c-0.2-0.8-0.9-1.2-1.7-1.1
			c-0.1,0-0.2,0-0.2,0.1c0,0-0.1,0-0.1,0.1s0,0.1,0.1,0.1c0.7,0,1.3,0.4,1.5,1c0.2,0.5,0.3,1.1,0.4,1.6c0,0.2,0.3,0.2,0.3,0l0,0
			C96,223.2,95.2,219.7,92.9,218.8z"/>
		<path class="st0" d="M93.3,225.6c0,0.4,0.3,0.7,0.7,0.7c0.3,0,0.6-0.2,0.7-0.6c0-0.4-0.2-0.7-0.6-0.8c0,0,0,0,0,0
			C93.7,225,93.4,225.2,93.3,225.6z"/>
		<path class="st0" d="M92.2,224.2c0,0.3,0.2,0.5,0.4,0.5s0.5-0.2,0.5-0.4c0-0.3-0.2-0.5-0.4-0.5c0,0,0,0,0,0
			C92.5,223.7,92.3,223.9,92.2,224.2C92.2,224.2,92.2,224.2,92.2,224.2z"/>
		<path class="st10" d="M84.7,257.5c2.7,15.7,12.3,46,20.8,48.8c9.9,3.2,46.4-8.4,53.1-13.3c2.7-2-11.7-19.9-15.1-18.8
			c-13,4.4-27.2,7.8-28.2,7.2c-3-1.5-12.5-18.6-19.9-28.6C86.3,240.2,83.5,250.5,84.7,257.5z"/>
		<path class="st10" d="M157.8,293.5c1.5-0.5,12.1-8.2,15.2-11.8c3.4-3.7,6.1-8,8.1-12.6c3.1-7.3,4.6-12.6,3.9-15
			c-0.9-2.8-1.1-3.2-8.4,8.9c-4.1,6.9-8.1,7.6-11.5,7.5c-8.4-0.2-16.7,1.7-24.2,5.4C140.8,275.9,151.9,295.5,157.8,293.5z"/>
		<path class="st14" d="M189,246.9l-18.2,23c-0.5,0.6-1.4,0.8-2.2,0.5l-12.4-6.7c-0.5-0.4-0.7-1.1-0.4-1.6c0,0,0.1-0.1,0.1-0.1
			l18.2-23c0.5-0.6,1.4-0.8,2.2-0.5l12.4,6.6c0.5,0.3,0.7,1.1,0.4,1.6C189.1,246.8,189,246.9,189,246.9z"/>
		<path class="st5" d="M187.9,244.7l-12.4-6.7c-0.7-0.4-1.6-0.2-2.2,0.5l-18.2,23c-0.4,0.5-0.4,1.2,0.1,1.7c0.1,0.1,0.2,0.1,0.2,0.2
			l12.4,6.7c0.7,0.4,1.6,0.2,2.2-0.5l18.2-23c0.4-0.5,0.4-1.2-0.1-1.7C188.1,244.8,188,244.7,187.9,244.7z M169.8,268.4
			c-0.5,0.6-1.3,0.8-2,0.5l-11.1-6c-0.5-0.3-0.7-0.9-0.4-1.5c0-0.1,0.1-0.2,0.2-0.2l16.9-21.4c1-1.2,1.5-1,2.1-0.7l2.2,1.2
			c0.1,0.1,0.1,0.3,0,0.4l-0.1,0.1c-0.3,0.4-0.1,0.5,0.2,0.7l5.1,2.8c0.3,0.1,0.5,0.3,0.8-0.1l0.1-0.1c0.1-0.2,0.3-0.2,0.5-0.2
			l2.2,1.2c0.6,0.3,1,0.8,0.1,1.9L169.8,268.4z"/>
		<line class="st15" x1="157.6" y1="259.9" x2="157.6" y2="259.9"/>
		<path class="st0" d="M186.8,247l-16.9,21.4c-0.5,0.6-1.3,0.8-2,0.5l-11.1-6c-0.5-0.3-0.7-0.9-0.4-1.5c0-0.1,0.1-0.2,0.2-0.2
			l16.9-21.4c1-1.2,1.5-1,2.1-0.7l2.2,1.2c0.1,0.1,0.1,0.3,0,0.4l-0.1,0.1c-0.3,0.4-0.1,0.5,0.2,0.7l5.1,2.8
			c0.3,0.1,0.5,0.3,0.8-0.1l0.1-0.1c0.1-0.2,0.3-0.2,0.5-0.2l2.2,1.2C187.3,245.4,187.7,245.8,186.8,247z"/>
		<g id="freepik--u5zjqx--inject-70">
			<path class="st2" d="M177.1,240.6L177.1,240.6c-0.1-0.1-0.1-0.2-0.2-0.2c-0.1,0-0.2,0-0.3,0l0,0l0,0l0,0c0,0,0.1,0,0.1,0h0.1l0,0
				l0,0l0,0c0,0,0,0,0.1,0.1l0,0c0,0,0,0,0,0.1l0,0L177.1,240.6z"/>
			<path class="st2" d="M176.6,240.4L176.6,240.4c0.1,0,0.1,0,0.2,0c0.1,0,0.1,0.1,0.2,0.2h-0.1c0-0.1-0.1-0.1-0.1-0.1
				C176.8,240.5,176.7,240.4,176.6,240.4z"/>
			<path class="st2" d="M176.8,240.6L176.8,240.6c-0.1,0-0.1-0.1-0.1-0.1c0,0-0.1,0-0.1,0v-0.1C176.7,240.5,176.8,240.5,176.8,240.6
				z"/>
			<path class="st2" d="M176.7,240.6L176.7,240.6C176.7,240.6,176.7,240.6,176.7,240.6L176.7,240.6L176.7,240.6z"/>
		</g>
		<path class="st2" d="M174.9,239.5c0,0,0.1,0,0.1,0c0,0,0,0.1,0,0.1c0,0,0,0,0,0c0,0-0.1,0-0.1,0
			C174.9,239.6,174.9,239.5,174.9,239.5C174.9,239.5,174.9,239.5,174.9,239.5z"/>
		<path class="st2" d="M175.2,239.6c0,0,0.1,0,0.2,0c0,0,0,0.1,0,0.1c0,0,0,0,0,0c0,0-0.1,0-0.1,0
			C175.2,239.7,175.2,239.7,175.2,239.6C175.2,239.7,175.2,239.7,175.2,239.6z"/>
		<path class="st2" d="M175.5,239.8c0,0,0.1,0,0.1,0c0,0,0,0.1,0,0.1c0,0,0,0,0,0c0,0-0.1,0-0.1,0
			C175.5,239.9,175.4,239.9,175.5,239.8C175.5,239.8,175.5,239.8,175.5,239.8z"/>
		<path class="st2" d="M175.8,240c0,0,0.1,0,0.1,0c0,0,0,0.1,0,0.1c0,0,0,0,0,0c0,0-0.1,0-0.2,0C175.7,240.1,175.7,240.1,175.8,240
			C175.8,240,175.8,240,175.8,240z"/>
		<path class="st2" d="M176.1,240.1c0,0,0.1,0,0.1,0c0,0,0,0.1,0,0.1c0,0,0,0,0,0c0,0-0.1,0-0.1,0C176,240.2,176,240.2,176.1,240.1
			C176,240.1,176,240.1,176.1,240.1z"/>
		<path class="st2" d="M186.2,245.8l-0.7-0.4l0.2-0.3l0.7,0.4L186.2,245.8z M185.6,245.4l0.6,0.4l0.2-0.2l-0.6-0.3L185.6,245.4z"/>
		<polygon class="st2" points="186.2,245.5 185.8,245.2 185.6,245.4 186.1,245.7 		"/>
		<polygon class="st2" points="186.4,245.8 186.3,245.8 186.4,245.6 186.5,245.6 		"/>
		<polygon class="st6" points="159.9,262.5 158.1,261.6 159.4,260 161.2,260.9 		"/>
		<path class="st0" d="M159.8,261.9h-0.2v-0.6h0.1c0,0,0.1,0,0.1,0V261.9L159.8,261.9z"/>
		<path class="st0" d="M160.1,261c0-0.2-0.2-0.4-0.4-0.3c0,0,0,0,0,0c-0.2,0-0.4,0.2-0.4,0.4c0,0.2,0.2,0.3,0.4,0.3h0.1
			c0,0,0.1,0,0.1,0C160,261.4,160.1,261.2,160.1,261z M159.7,261.3L159.7,261.3c-0.2,0-0.3-0.1-0.3-0.2c0-0.1,0.1-0.3,0.3-0.3l0,0
			c0.1,0,0.3,0.1,0.3,0.2c0,0,0,0,0,0c0,0.1-0.1,0.2-0.1,0.2C159.8,261.3,159.7,261.3,159.7,261.3L159.7,261.3z"/>
		<polygon class="st2" points="173.8,241.3 173.7,240.9 174.2,240.9 174.2,240.9 173.8,241 173.9,241.3 		"/>
		<path class="st2" d="M174.4,241.5L174.4,241.5C174.4,241.5,174.4,241.5,174.4,241.5l0.2-0.4l0,0l0,0l0,0v0.4l0.2-0.2 M174.9,241.3
			L174.9,241.3l-0.3,0.3 M174.6,241.6L174.6,241.6L174.6,241.6v-0.4V241.6z"/>
		<path class="st2" d="M174.9,241.7c0,0,0-0.1,0-0.1c0,0,0.1-0.1,0.1-0.1c0,0,0.1,0,0.1,0c0,0,0.1,0.1,0.1,0.1c0,0,0,0.1,0,0.1
			c0,0-0.1,0.1-0.1,0.1c0,0-0.1,0-0.1,0C174.9,241.8,174.9,241.8,174.9,241.7z M175,241.6C175,241.7,175,241.7,175,241.6
			c0,0.1,0.1,0.1,0.1,0.1h0.1c0,0,0,0,0-0.1c0,0,0,0,0-0.1h-0.1C175.1,241.6,175,241.6,175,241.6L175,241.6z"/>
		<path class="st2" d="M175.5,241.8C175.5,241.8,175.5,241.8,175.5,241.8L175.5,241.8l-0.2,0.1l0,0c0,0,0,0-0.1,0c0,0,0-0.1,0-0.1
			c0,0,0,0,0,0l0.1-0.2l0,0l0,0 M175.5,241.7L175.5,241.7L175.5,241.7c0.1-0.1,0.1-0.1,0.1-0.1l0,0L175.5,241.7L175.5,241.7
			c0,0,0.1,0.1,0.1,0.1L175.5,241.7z"/>
		<path class="st2" d="M175.5,241.9c0.1-0.1,0.2-0.1,0.2-0.1c0.1,0,0.1,0.1,0.1,0.2c0,0,0,0,0,0l0,0c0,0,0,0-0.1,0L175.5,241.9
			C175.6,242,175.6,242,175.5,241.9c0.1,0.1,0.1,0.1,0.1,0.2h0.1 M175.7,242.1L175.7,242.1c0,0-0.1,0-0.1,0c0,0-0.1-0.1-0.1-0.2
			L175.7,242.1z M175.6,241.9l0.2,0.1c0,0,0-0.1-0.1-0.1C175.7,241.9,175.6,241.9,175.6,241.9L175.6,241.9z"/>
		<path class="st2" d="M175.8,242.2L175.8,242.2C175.8,242.2,175.8,242.2,175.8,242.2l0.2,0.1l0,0l0,0l0,0l0,0c0,0,0,0,0-0.1l0,0
			c0,0,0.1,0,0.1,0h0.1c0,0,0.1,0,0.1,0.1 M176.2,242.3C176.2,242.2,176.2,242.2,176.2,242.3l-0.2-0.1l0,0l0,0l0,0c0,0,0,0,0,0.1
			c0,0,0,0,0,0.1c0,0-0.1,0-0.1,0c0,0-0.1,0-0.1,0c0,0-0.1-0.1-0.1-0.1c0,0,0.1,0,0.1,0L176.2,242.3z"/>
		<path class="st6" d="M172.9,242.9l0.5-0.6c0,0,0.1,0,0.1,0c0,0,0,0.1,0,0.1c0,0,0,0,0,0L173,243l0.3,0.2c0,0,0,0.1,0,0.1
			c0,0,0,0,0,0c0,0-0.1,0-0.1,0l-0.4-0.2l0,0C172.8,243,172.8,243,172.9,242.9C172.9,242.9,172.9,242.9,172.9,242.9z"/>
		<path class="st6" d="M174.1,242.7c0,0-0.1,0-0.1,0c0,0,0-0.1,0-0.1c0,0,0,0,0,0l0,0c0,0,0.1,0,0.1,0
			C174.2,242.7,174.2,242.7,174.1,242.7C174.2,242.7,174.2,242.7,174.1,242.7L174.1,242.7z M174,242.9l-0.3,0.4c0,0-0.1,0-0.1,0
			c0,0,0,0,0-0.1c0,0,0,0,0,0l0.3-0.4C173.9,242.8,174,242.8,174,242.9C174,242.9,174,242.9,174,242.9
			C174,242.9,174,242.9,174,242.9L174,242.9z"/>
		<path class="st6" d="M173.9,243.4c0,0,0.1,0,0.1,0c0,0.1,0,0.1,0.1,0.1c0,0,0.1,0,0.1,0c0,0,0,0,0.1,0l0,0l0,0c0,0,0-0.1-0.1-0.1
			l0,0l-0.1-0.1c0,0,0-0.1,0-0.1c0,0,0-0.1,0-0.1c0,0,0.1-0.1,0.2-0.1c0.1,0,0.1,0,0.2,0c0.1,0,0.1,0.1,0.1,0.2c0,0,0,0.1-0.1,0.1
			c0,0-0.1,0-0.1,0c0,0,0-0.1-0.1-0.1c0,0-0.1,0-0.1,0l0,0l0,0l0.1,0.1l0,0c0,0,0.1,0.1,0.1,0.1c0,0,0,0.1,0,0.1v0.1
			c0,0-0.1,0.1-0.2,0.1c-0.1,0-0.1,0-0.2,0C174,243.6,173.9,243.5,173.9,243.4C173.9,243.4,173.9,243.4,173.9,243.4z"/>
		<path class="st6" d="M175.1,243.5c0,0-0.1,0-0.1,0l0,0l-0.2,0.3c0,0,0,0.1,0,0.1c0,0-0.1,0-0.1,0c-0.1,0-0.1-0.1,0-0.2
			c0,0,0,0,0,0l0.2-0.3l0,0c0,0,0-0.1,0-0.1c0,0,0,0,0,0c0,0,0.1,0,0.1,0l0,0l0.1-0.2c0,0,0.1,0,0.1,0c0,0,0,0.1,0,0.1c0,0,0,0,0,0
			l-0.1,0.2l0,0C175.1,243.4,175.1,243.5,175.1,243.5C175.1,243.5,175.1,243.5,175.1,243.5z"/>
		<polygon class="st8" points="181.7,251 171,245.2 172.1,243.9 182.8,249.6 		"/>
		<path class="st5" d="M173.2,245.5L173.2,245.5C173.2,245.6,173.2,245.6,173.2,245.5l0.1,0.1h0.1 M173.4,245.6
			C173.4,245.5,173.4,245.5,173.4,245.6L173.4,245.6l-0.1-0.1 M173.3,245.4C173.3,245.4,173.4,245.4,173.3,245.4c0.1,0,0.1,0,0.1,0
			c0,0,0,0,0.1,0.1l0,0l0,0c0,0,0,0,0-0.1h-0.1l0,0l0,0c0,0,0,0,0,0.1l0,0l0.1,0.1c0,0,0,0,0,0.1c0,0,0,0-0.1,0c0,0-0.1,0-0.1,0
			c0,0-0.1-0.1-0.1-0.1L173.3,245.4z"/>
		<path class="st5" d="M173.5,245.6c0.1,0,0.1,0,0.2,0c0,0,0,0.1,0,0.1c0,0,0,0,0,0l0,0L173.5,245.6c0,0.1,0,0.1,0,0.1c0,0,0,0,0,0
			c0,0,0.1,0,0.1,0l0,0l0,0c0,0-0.1,0-0.1,0C173.4,245.8,173.4,245.7,173.5,245.6C173.4,245.7,173.4,245.6,173.5,245.6z
			 M173.5,245.6l0.1,0.1c0,0,0-0.1,0-0.1c0,0,0,0,0,0C173.6,245.6,173.5,245.6,173.5,245.6L173.5,245.6z"/>
		<path class="st5" d="M173.9,245.8C173.9,245.8,173.9,245.8,173.9,245.8c0-0.1-0.1-0.1-0.1-0.1l-0.1,0.1l0,0l0.1-0.1l0,0v-0.1l0,0
			l0,0l0,0h0.1C173.9,245.7,173.9,245.8,173.9,245.8C173.9,245.8,173.9,245.8,173.9,245.8l-0.1,0.1l0,0l0,0L173.9,245.8z"/>
		<path class="st5" d="M174.1,246c0,0-0.1,0-0.1,0c0,0,0-0.1,0-0.1c0,0,0,0,0,0c0.1,0,0.1,0,0.2,0c0,0,0,0,0.1,0.1l0.1-0.1l0,0l0,0
			L174.1,246L174.1,246L174.1,246L174.1,246L174.1,246z M174.1,246L174.1,246c0,0,0-0.1,0-0.1c0,0,0,0,0,0c0,0-0.1,0-0.1,0
			c0,0,0,0.1,0,0.1c0,0,0,0,0,0C174,246,174.1,246.1,174.1,246C174.1,246,174.1,246,174.1,246L174.1,246z"/>
		<path class="st5" d="M174.5,246.3c0,0-0.1,0-0.1,0c0,0,0-0.1,0-0.1c0,0,0,0,0,0c0.1,0,0.1,0,0.2,0
			C174.6,246.1,174.6,246.2,174.5,246.3l0.1-0.2l0,0l0,0L174.5,246.3L174.5,246.3L174.5,246.3L174.5,246.3L174.5,246.3L174.5,246.3z
			 M174.5,246.2L174.5,246.2C174.5,246.2,174.5,246.1,174.5,246.2c0-0.1,0-0.1,0-0.1c0,0-0.1,0-0.1,0c0,0,0,0.1,0,0.1c0,0,0,0,0,0
			C174.4,246.2,174.5,246.3,174.5,246.2C174.5,246.2,174.5,246.2,174.5,246.2L174.5,246.2z"/>
		<path class="st5" d="M174.8,246.2c0,0,0,0.1,0,0.1c0,0,0,0,0,0c-0.1,0-0.1,0-0.2,0c0,0,0-0.1,0-0.1c0,0,0,0,0,0
			C174.7,246.2,174.7,246.2,174.8,246.2z M174.7,246.4c0,0,0.1,0,0.1,0c0,0,0-0.1,0-0.1c0,0,0,0,0,0c0,0-0.1,0-0.1,0
			C174.6,246.3,174.6,246.3,174.7,246.4C174.7,246.4,174.7,246.4,174.7,246.4z"/>
		<path class="st5" d="M174.9,246.4c0.1,0,0.1,0,0.2,0l0.1,0.1l0,0l0,0C175.1,246.4,175,246.4,174.9,246.4c0.1,0.1,0.1,0.1,0.1,0.2
			c0,0,0,0,0,0h0l0,0c0,0-0.1,0-0.1,0C174.9,246.6,174.8,246.5,174.9,246.4C174.8,246.4,174.9,246.4,174.9,246.4z"/>
		<path class="st5" d="M175.2,246.4L175.2,246.4L175.2,246.4l-0.1,0.1c0,0,0,0.1,0,0.1c0,0,0.1,0,0.1,0l0.1-0.1l0,0l0,0l-0.1,0.1
			c0,0-0.1,0-0.1,0c0,0,0-0.1,0-0.1c0,0,0,0,0,0L175.2,246.4z"/>
		<path class="st5" d="M175.7,246.8C175.7,246.8,175.7,246.7,175.7,246.8c0-0.1-0.1-0.1-0.1-0.1l-0.1,0.1l0,0l0.1-0.1
			c0,0,0-0.1,0-0.1c0,0,0,0,0,0c0,0-0.1,0-0.1,0l-0.1,0.1l0,0l0,0l0,0l0.1-0.1l0,0v-0.1l0,0l0,0l0,0c0,0,0.1,0,0.1,0
			c0,0,0,0.1,0,0.1c0,0,0.1,0,0.1,0C175.7,246.7,175.7,246.7,175.7,246.8C175.7,246.7,175.7,246.8,175.7,246.8L175.7,246.8
			L175.7,246.8L175.7,246.8L175.7,246.8z"/>
		<path class="st5" d="M175.8,246.9c0.1,0,0.1,0,0.2,0c0,0,0,0.1,0,0.1l0,0L175.8,246.9c0,0.1,0,0.1,0,0.1c0,0,0,0,0,0h0.1
			c0,0-0.1,0-0.1,0C175.7,247,175.7,246.9,175.8,246.9C175.7,246.9,175.8,246.9,175.8,246.9z M175.8,246.9l0.2,0.1c0,0,0-0.1,0-0.1
			C175.9,246.8,175.8,246.8,175.8,246.9L175.8,246.9z"/>
		<path class="st5" d="M176.2,247.1C176.2,247.1,176.2,247,176.2,247.1C176.2,247,176.2,247,176.2,247.1c0-0.1-0.1-0.1-0.1-0.1
			l-0.1,0.1l0,0l0.1-0.1l0,0l0.1-0.1l0,0l0,0c0,0,0.1,0,0.1,0C176.2,246.9,176.2,247,176.2,247.1C176.2,247,176.2,247,176.2,247.1
			L176.2,247.1L176.2,247.1L176.2,247.1L176.2,247.1z"/>
		<path class="st5" d="M176.4,247.1L176.4,247.1l-0.1,0.1l0,0l0,0l0,0l0,0L176.4,247.1L176.4,247.1L176.4,247.1L176.4,247.1
			L176.4,247.1L176.4,247.1L176.4,247.1L176.4,247.1L176.4,247.1L176.4,247.1C176.4,247.1,176.4,247.1,176.4,247.1z"/>
		<polygon class="st6" points="172.4,245.4 171.7,245.1 172.2,244.4 172.9,244.8 		"/>
		<polygon class="st0" points="172.1,245.2 172.1,244.9 172.2,244.8 172.2,245 172.8,244.8 172.9,244.9 		"/>
		<polygon class="st8" points="180.4,252.7 169.7,246.9 170.8,245.6 181.4,251.3 		"/>
		<path class="st5" d="M172.1,247.1C172.2,247.1,172.2,247.1,172.1,247.1L172.1,247.1C172.2,247.1,172.2,247.1,172.1,247.1
			c-0.1,0-0.1,0-0.2,0c-0.1,0-0.1,0.1,0,0.2c0,0,0,0,0,0c0,0,0.1,0,0.1,0l0,0l0,0h-0.1c-0.1,0-0.1-0.1,0-0.2c0,0,0,0,0,0
			C172,247,172.1,247.1,172.1,247.1z"/>
		<path class="st5" d="M172.3,247.4C172.4,247.4,172.4,247.4,172.3,247.4C172.3,247.4,172.3,247.3,172.3,247.4
			c0-0.1-0.1-0.1-0.1-0.1l-0.1,0.1l0,0l0.1-0.1l0,0l0.1-0.1l0,0l0,0l-0.1,0.1h0.1C172.4,247.3,172.4,247.4,172.3,247.4
			C172.4,247.4,172.4,247.4,172.3,247.4L172.3,247.4L172.3,247.4L172.3,247.4L172.3,247.4z"/>
		<path class="st5" d="M172.4,247.5c0.1,0,0.1,0,0.2,0c0,0,0,0.1,0,0.1c0,0,0,0,0,0l0,0L172.4,247.5c0,0.1,0,0.1,0,0.1c0,0,0,0,0,0
			c0,0,0.1,0,0.1,0l0,0c0,0-0.1,0-0.1,0C172.4,247.6,172.3,247.6,172.4,247.5C172.4,247.5,172.4,247.5,172.4,247.5z M172.4,247.5
			l0.1,0.1c0,0,0-0.1,0-0.1c0,0,0,0,0,0C172.5,247.5,172.5,247.5,172.4,247.5L172.4,247.5z"/>
		<path class="st5" d="M172.7,247.6c0.1,0,0.1,0,0.2,0c0,0,0,0,0,0.1l0,0l0,0C172.8,247.6,172.7,247.6,172.7,247.6
			c0,0.1,0,0.1,0,0.2c0,0,0,0,0,0h0.1c0,0-0.1,0-0.1,0C172.6,247.8,172.6,247.7,172.7,247.6C172.6,247.7,172.6,247.6,172.7,247.6z"
			/>
		<path class="st5" d="M173,247.6L173,247.6L173,247.6l-0.1,0.2h0.2l0,0l0,0h-0.1v0.1l0,0l0,0v-0.1h-0.1l0,0l0,0l0,0L173,247.6z"/>
		<path class="st5" d="M173.3,248L173.3,248L173.3,248L173.3,248L173.3,248c0.1-0.1,0.1-0.1,0.2-0.1c0,0,0,0.1,0,0.1c0,0,0,0,0,0
			C173.4,248.1,173.3,248.1,173.3,248C173.2,248,173.2,248,173.3,248L173.3,248L173.3,248L173.3,248L173.3,248z M173.3,248
			C173.2,248,173.2,248.1,173.3,248c0,0.1,0,0.1,0,0.1c0,0,0.1,0,0.1,0c0,0,0-0.1,0-0.1c0,0,0,0,0,0C173.4,248,173.3,248,173.3,248
			L173.3,248z"/>
		<path class="st5" d="M173.6,248L173.6,248L173.6,248L173.6,248L173.6,248c0,0,0.1,0,0.1,0l0,0l0,0C173.7,248,173.7,248,173.6,248
			L173.6,248L173.6,248L173.6,248L173.6,248L173.6,248L173.6,248z"/>
		<path class="st5" d="M173.9,248.1c0,0,0,0.1,0,0.1c0,0,0,0,0,0c-0.1,0-0.1,0-0.2,0c0,0,0-0.1,0-0.1
			C173.7,248.1,173.8,248.1,173.9,248.1z M173.7,248.3c0,0,0.1,0,0.1,0c0,0,0-0.1,0-0.1c0,0,0,0,0,0c0,0-0.1,0-0.1,0
			C173.7,248.2,173.7,248.3,173.7,248.3C173.7,248.3,173.7,248.3,173.7,248.3z"/>
		<path class="st5" d="M173.8,248.5L173.8,248.5l0.2-0.2l0,0l0,0L173.8,248.5 M173.8,248.5L173.8,248.5z M174.1,248.2L174.1,248.2
			L174.1,248.2L174.1,248.2z"/>
		<path class="st5" d="M174.1,248.4c0.1,0,0.1,0,0.2,0c0,0,0,0.1,0,0.1l0,0L174.1,248.4c0,0.1,0,0.1,0,0.2c0,0,0,0,0,0
			c0,0,0.1,0,0.1,0l0,0l0,0c0,0-0.1,0-0.1,0C174,248.5,174,248.5,174.1,248.4C174,248.4,174,248.4,174.1,248.4z M174.1,248.4
			l0.1,0.1c0,0,0-0.1,0-0.1c0,0,0,0,0,0C174.2,248.3,174.1,248.3,174.1,248.4L174.1,248.4z"/>
		<path class="st5" d="M174.3,248.5c0.1,0,0.1,0,0.2,0c0,0,0,0,0,0.1l0,0l0,0l0,0C174.4,248.5,174.4,248.5,174.3,248.5
			c0,0.1,0,0.1,0,0.2c0,0,0,0,0,0h0.1l0,0l0,0h-0.1C174.3,248.7,174.2,248.6,174.3,248.5C174.3,248.5,174.3,248.5,174.3,248.5z"/>
		<path class="st5" d="M174.7,248.6L174.7,248.6L174.7,248.6l-0.1,0.1l0,0l0,0l0,0c0,0,0,0,0-0.1L174.7,248.6L174.7,248.6
			L174.7,248.6L174.7,248.6l0.1-0.1l0,0l0,0L174.7,248.6L174.7,248.6C174.7,248.6,174.7,248.6,174.7,248.6z"/>
		<path class="st5" d="M175,248.9C175,248.8,175,248.8,175,248.9C175,248.8,175,248.8,175,248.9c0-0.1-0.1-0.1-0.1-0.1l-0.1,0.1l0,0
			l0.1-0.1l0,0l0.1-0.1l0,0l0,0c0,0,0.1,0,0.1,0C175.1,248.7,175.1,248.8,175,248.9C175,248.8,175,248.8,175,248.9L175,248.9
			L175,248.9L175,248.9L175,248.9z"/>
		<path class="st5" d="M175.2,248.9c0,0,0,0.1,0,0.1c0,0,0,0,0,0c-0.1,0-0.1,0-0.2,0c0,0,0-0.1,0-0.1c0,0,0,0,0,0
			C175.1,248.9,175.2,248.9,175.2,248.9z M175.1,249.1c0,0,0.1,0,0.1,0c0,0,0-0.1,0-0.1c0,0,0,0,0,0c0,0-0.1,0-0.1,0
			C175.1,249,175.1,249,175.1,249.1C175.1,249.1,175.1,249.1,175.1,249.1z"/>
		<path class="st5" d="M175.5,249L175.5,249l-0.1,0.1l0,0l0,0l0,0 M175.4,249.1l0.1-0.1l0,0l0,0l0,0l0.1-0.1l0,0l0,0l-0.1,0.1l0,0
			c0,0,0,0.1,0,0.1L175.4,249.1z"/>
		<path class="st5" d="M175.5,249.1c0,0,0.1,0,0.2,0c0,0,0,0.1,0,0.1c0,0,0,0,0,0l0,0L175.5,249.1c0,0.1,0,0.1,0,0.1c0,0,0,0,0,0
			c0,0,0.1,0,0.1,0l0,0c0,0-0.1,0-0.1,0C175.4,249.3,175.4,249.2,175.5,249.1C175.5,249.2,175.5,249.2,175.5,249.1z M175.5,249.1
			l0.2,0.1c0,0,0-0.1,0-0.1C175.6,249.1,175.5,249.1,175.5,249.1L175.5,249.1z"/>
		<path class="st5" d="M175.7,249.3L175.7,249.3L175.7,249.3L175.7,249.3L175.7,249.3L175.7,249.3L175.7,249.3L175.7,249.3
			L175.7,249.3L175.7,249.3C175.7,249.3,175.7,249.3,175.7,249.3h0.1c0,0,0,0,0,0.1l0,0l0,0l0,0
			C175.8,249.4,175.8,249.4,175.7,249.3L175.7,249.3L175.7,249.3L175.7,249.3L175.7,249.3L175.7,249.3c0.1,0.1,0.1,0.1,0.1,0.1
			c0,0,0,0-0.1,0c0,0,0,0-0.1,0c0,0,0,0-0.1-0.1L175.7,249.3z"/>
		<polygon class="st6" points="171,247.1 170.4,246.8 170.8,246.2 171.5,246.5 		"/>
		<polygon class="st0" points="170.8,246.9 170.7,246.6 170.9,246.5 170.9,246.7 171.5,246.5 171.5,246.6 		"/>
		<polygon class="st8" points="179,254.4 168.3,248.6 169.4,247.3 180.1,253.1 		"/>
		<path class="st5" d="M170.5,249.1L170.5,249.1l0.1-0.3l0,0l0,0L170.5,249.1l0.3-0.2l0,0l0,0L170.5,249.1L170.5,249.1L170.5,249.1z
			"/>
		<path class="st5" d="M170.9,248.9L170.9,248.9L170.9,248.9L170.9,248.9z M170.9,249L170.9,249L170.9,249l-0.1,0.2l0,0l0,0
			L170.9,249z"/>
		<path class="st5" d="M171,249.3c0,0-0.1,0-0.1,0c0,0,0-0.1,0-0.1c0,0,0,0,0,0c0.1,0,0.1,0,0.2,0
			C171.1,249.1,171.1,249.2,171,249.3l0.1-0.2l0,0l0,0L171,249.3L171,249.3L171,249.3L171,249.3L171,249.3L171,249.3z M171,249.2
			L171,249.2C171,249.2,171,249.2,171,249.2c0-0.1,0-0.1,0-0.1c0,0-0.1,0-0.1,0c0,0,0,0.1,0,0.1c0,0,0,0,0,0
			C170.9,249.3,171,249.3,171,249.2C171,249.3,171.1,249.3,171,249.2L171,249.2z"/>
		<path class="st5" d="M171.2,249.3c0.1,0,0.1,0,0.2,0c0,0,0,0.1,0,0.1c0,0,0,0,0,0l0,0L171.2,249.3c0,0.1,0,0.1,0,0.1c0,0,0,0,0,0
			c0,0,0.1,0,0.1,0l0,0c0,0-0.1,0-0.1,0C171.1,249.4,171.1,249.3,171.2,249.3C171.2,249.3,171.2,249.3,171.2,249.3z M171.2,249.3
			l0.1,0.1c0,0,0-0.1,0-0.1c0,0,0,0,0,0C171.3,249.2,171.2,249.2,171.2,249.3L171.2,249.3z"/>
		<path class="st5" d="M171.6,249.4c0,0,0,0.1,0,0.1c0,0,0,0,0,0c-0.1,0-0.1,0-0.2,0c0,0,0-0.1,0-0.1c0,0,0,0,0,0
			C171.5,249.3,171.5,249.3,171.6,249.4z M171.5,249.5c0,0,0.1,0,0.1,0c0,0,0-0.1,0-0.1c0,0,0,0,0,0c0,0-0.1,0-0.1,0
			C171.4,249.4,171.4,249.5,171.5,249.5C171.4,249.5,171.5,249.5,171.5,249.5L171.5,249.5z"/>
		<path class="st5" d="M171.7,249.5c0.1,0,0.1,0,0.2,0c0,0,0,0,0.1,0.1l0,0l0,0C171.9,249.6,171.8,249.6,171.7,249.5
			c0,0.1,0,0.1,0.1,0.2c0,0,0,0,0,0l0,0c-0.1,0-0.1,0-0.1-0.1C171.6,249.6,171.6,249.6,171.7,249.5z"/>
		<path class="st5" d="M172.2,249.7l-0.1,0.2l0,0l0,0c0,0-0.1,0-0.1,0c0,0,0-0.1,0-0.1C172,249.7,172,249.7,172.2,249.7
			c0,0,0,0.1,0,0.1l0,0l0,0C172.1,249.8,172.2,249.7,172.2,249.7z M172.1,249.8C172.1,249.7,172.1,249.7,172.1,249.8
			c0-0.1,0-0.1,0-0.1c0,0-0.1,0-0.1,0c0,0,0,0.1,0,0.1c0,0,0,0,0,0C172,249.8,172,249.8,172.1,249.8z"/>
		<path class="st5" d="M172.3,249.6L172.3,249.6L172.3,249.6l-0.2,0.2l0,0L172.3,249.6z"/>
		<path class="st5" d="M172.4,249.7L172.4,249.7L172.4,249.7l-0.2,0.2l0,0l0,0L172.4,249.7z"/>
		<path class="st5" d="M172.5,250c0.1,0,0.1,0,0.2,0c0,0,0,0,0,0.1l0,0l0,0l0,0C172.6,250,172.6,250,172.5,250c0,0.1,0,0.1,0,0.2
			c0,0,0,0,0,0c0,0,0,0,0.1,0l0,0c0,0-0.1,0-0.1,0C172.5,250.1,172.4,250.1,172.5,250C172.5,250,172.5,250,172.5,250z"/>
		<path class="st5" d="M172.9,250L172.9,250L172.9,250l-0.2,0.2l0,0l0,0L172.9,250z"/>
		<path class="st5" d="M173,250L173,250L173,250z M172.9,250.1L172.9,250.1l-0.1,0.2l0,0l0,0L172.9,250.1z"/>
		<path class="st5" d="M173,250.2c0.1,0,0.1,0,0.2,0c0,0,0,0.1,0,0.1c0,0,0,0,0,0l0,0L173,250.2c0,0.1,0,0.1,0,0.1c0,0,0,0,0,0
			c0,0,0.1,0,0.1,0l0,0l0,0c0,0-0.1,0-0.1,0C172.9,250.4,172.9,250.3,173,250.2C173,250.3,173,250.2,173,250.2z M173,250.2l0.1,0.1
			c0,0,0-0.1,0-0.1c0,0,0,0,0,0C173.1,250.2,173.1,250.2,173,250.2C173,250.2,173,250.2,173,250.2L173,250.2z"/>
		<path class="st5" d="M173.4,250.4C173.4,250.4,173.4,250.4,173.4,250.4c0-0.1-0.1-0.1-0.1-0.1l-0.1,0.1l0,0l0.1-0.1l0,0l0.1-0.1
			l0,0l0,0h0.1C173.4,250.3,173.4,250.4,173.4,250.4C173.4,250.4,173.4,250.4,173.4,250.4L173.4,250.4L173.4,250.4L173.4,250.4
			L173.4,250.4z"/>
		<path class="st5" d="M173.6,250.5L173.6,250.5l-0.2,0.1l0,0l0,0l0,0c0,0,0,0,0-0.1L173.6,250.5L173.6,250.5L173.6,250.5
			L173.6,250.5l0.1-0.1l0,0L173.6,250.5L173.6,250.5L173.6,250.5z"/>
		<polygon class="st6" points="169.7,248.8 169,248.5 169.5,247.9 170.2,248.2 		"/>
		<polygon class="st0" points="169.4,248.6 169.4,248.3 169.5,248.2 169.6,248.4 170.1,248.2 170.2,248.3 		"/>
		<polygon class="st8" points="177.7,256.1 167,250.4 168.1,249 178.8,254.8 		"/>
		<path class="st5" d="M169.3,250.5L169.3,250.5L169.3,250.5c0.1,0,0.1,0.1,0.1,0.1c0,0,0,0,0,0c0,0-0.1,0-0.1,0h-0.1l-0.1,0.1l0,0
			l0,0L169.3,250.5z M169.3,250.6c0,0,0.1,0,0.1,0c0,0,0-0.1,0-0.1L169.3,250.6L169.3,250.6L169.3,250.6z"/>
		<path class="st5" d="M169.6,250.8l-0.1,0.2l0,0l0,0l0,0h-0.1c0,0,0-0.1,0-0.1c0,0,0,0,0,0C169.4,250.7,169.5,250.7,169.6,250.8
			c0,0,0,0.1,0,0.1l0,0l0,0L169.6,250.8z M169.5,250.8c0,0,0-0.1,0-0.1c0,0,0,0,0,0c0,0-0.1,0-0.1,0c0,0,0,0.1,0,0.1c0,0,0,0,0,0
			C169.4,250.9,169.5,250.9,169.5,250.8L169.5,250.8z"/>
		<path class="st5" d="M169.7,250.8L169.7,250.8L169.7,250.8l-0.1,0.1c0,0,0,0,0,0.1c0,0,0,0,0,0c0,0,0.1,0,0.1,0c0,0,0,0,0,0
			l0.1-0.1l0,0l-0.1,0.1l0,0v0.1c-0.1,0-0.1,0-0.2,0l0,0l0,0l0,0l0,0c0,0,0.1,0,0.1,0h-0.1c0,0,0-0.1,0-0.1c0,0,0,0,0,0L169.7,250.8
			z"/>
		<path class="st5" d="M170,251.1c0.1,0,0.1,0,0.2,0c0,0,0,0.1,0,0.1l0,0L170,251.1c0,0.1,0,0.1,0,0.1c0,0,0,0,0,0c0,0,0.1,0,0.1,0
			l0,0l0,0c0,0-0.1,0-0.1,0C169.9,251.2,169.9,251.2,170,251.1C170,251.1,170,251.1,170,251.1z M170,251.1l0.2,0.1c0,0,0-0.1,0-0.1
			C170.1,251,170,251,170,251.1z"/>
		<path class="st5" d="M170.6,251.4C170.6,251.3,170.6,251.3,170.6,251.4c0-0.1-0.1-0.1-0.1-0.1l-0.1,0.1l0,0l0.1-0.1
			c0,0,0-0.1,0-0.1c0,0,0,0,0,0c0,0-0.1,0-0.1,0l-0.1,0.1l0,0l0.1-0.1l0,0l0.1-0.1l0,0l0,0h0.1c0,0,0,0.1,0,0.1h0.1
			C170.6,251.2,170.6,251.3,170.6,251.4C170.6,251.3,170.6,251.3,170.6,251.4L170.6,251.4L170.6,251.4L170.6,251.4z"/>
		<path class="st5" d="M170.7,251.4L170.7,251.4L170.7,251.4L170.7,251.4L170.7,251.4L170.7,251.4c0.1-0.1,0.1-0.1,0.2-0.1
			c0,0,0,0.1,0,0.1c0,0,0,0,0,0C170.8,251.5,170.7,251.5,170.7,251.4C170.6,251.5,170.6,251.5,170.7,251.4l-0.1,0.1l0,0l0,0
			L170.7,251.4z M170.7,251.4c0,0,0,0.1,0,0.1c0,0,0,0,0,0c0,0,0.1,0,0.1,0c0,0,0-0.1,0-0.1c0,0,0,0,0,0
			C170.8,251.4,170.7,251.4,170.7,251.4L170.7,251.4z"/>
		<path class="st5" d="M171.1,251.4L171.1,251.4L171.1,251.4l-0.2,0.2l0,0l0,0L171.1,251.4z"/>
		<path class="st5" d="M171.2,251.6c0,0,0,0.1,0,0.1c0,0,0,0,0,0c0,0-0.1,0-0.2,0c0,0,0-0.1,0-0.1c0,0,0,0,0,0
			C171.1,251.6,171.1,251.6,171.2,251.6z M171.1,251.8c0,0,0.1,0,0.1,0c0,0,0-0.1,0-0.1c0,0,0,0,0,0c0,0-0.1,0-0.1,0
			C171,251.7,171,251.7,171.1,251.8C171.1,251.7,171.1,251.7,171.1,251.8z"/>
		<path class="st5" d="M171.4,251.7L171.4,251.7L171.4,251.7l-0.1,0.1 M171.3,251.9c0,0,0.1,0,0.1,0l0.1-0.1l0,0l-0.1,0.1l0,0H171.3
			c0,0.1-0.1,0.1-0.1,0.1l0,0l0,0l0,0l0,0C171.2,251.9,171.3,251.9,171.3,251.9L171.3,251.9C171.3,251.9,171.2,251.9,171.3,251.9
			C171.2,251.8,171.2,251.8,171.3,251.9L171.3,251.9z"/>
		<path class="st5" d="M171.5,251.9c0.1,0,0.1,0,0.2,0c0,0,0,0.1,0,0.1c0,0,0,0,0,0l0,0L171.5,251.9c0,0.1,0,0.1,0,0.1c0,0,0,0,0,0
			h0.1c0,0-0.1,0-0.1,0C171.5,252,171.5,252,171.5,251.9C171.5,251.9,171.5,251.9,171.5,251.9z M171.5,251.9l0.1,0.1
			c0,0,0-0.1,0-0.1c0,0,0,0,0,0C171.6,251.9,171.6,251.9,171.5,251.9L171.5,251.9z"/>
		<path class="st5" d="M171.8,252c0.1,0,0.1,0,0.2,0c0,0,0,0.1,0,0.1c0,0,0,0,0,0l0,0L171.8,252c0,0.1,0,0.1,0,0.1c0,0,0,0,0,0
			c0,0,0.1,0,0.1,0l0,0c0,0-0.1,0-0.1,0C171.7,252.1,171.7,252.1,171.8,252C171.7,252,171.8,252,171.8,252z M171.8,252l0.1,0.1
			c0,0,0-0.1,0-0.1c0,0,0,0,0,0C171.9,252,171.8,252,171.8,252L171.8,252z"/>
		<path class="st5" d="M172,252.2L172,252.2C172,252.2,172,252.2,172,252.2L172,252.2L172,252.2L172,252.2L172,252.2L172,252.2
			L172,252.2L172,252.2l0.1,0.1h0.1h0.1l0,0l0,0l0,0h-0.1l0,0l0,0l0,0l0,0 M172.1,252.3L172.1,252.3H172c0,0,0,0-0.1-0.1
			L172.1,252.3z"/>
		<polygon class="st6" points="168.3,250.6 167.7,250.2 168.1,249.6 168.8,249.9 		"/>
		<polygon class="st0" points="168.1,250.3 168,250 168.2,249.9 168.2,250.1 168.8,249.9 168.8,250 		"/>
		<polygon class="st9" points="176.3,257.8 165.6,252.1 166.7,250.7 177.4,256.5 		"/>
		<path class="st5" d="M167.8,252.4L167.8,252.4C167.8,252.4,167.8,252.4,167.8,252.4c0.1,0.1,0.1,0.1,0.2,0.1h0.1l0,0v-0.1l0,0
			c0,0,0,0-0.1-0.1c0,0,0,0,0-0.1c0,0,0,0,0.1,0c0,0,0.1,0,0.1,0c0,0,0,0,0.1,0.1l0,0l0,0c0,0,0-0.1-0.1-0.1c0,0,0,0-0.1,0l0,0l0,0
			c0,0,0,0,0,0.1l0,0l0.1,0.1c0,0,0,0,0,0.1c0,0,0,0-0.1,0c0,0-0.1,0-0.1,0C167.9,252.4,167.8,252.4,167.8,252.4L167.8,252.4z"/>
		<path class="st5" d="M168.2,252.3L168.2,252.3L168.2,252.3L168.2,252.3z M168.1,252.4L168.1,252.4L168.1,252.4l-0.1,0.2l0,0
			L168.1,252.4z"/>
		<path class="st5" d="M168.3,252.7c-0.1,0-0.1,0-0.2,0l0,0l0,0l0,0C168.2,252.7,168.2,252.7,168.3,252.7
			C168.3,252.7,168.3,252.7,168.3,252.7L168.3,252.7c-0.1,0-0.1,0-0.1,0c0,0,0-0.1,0-0.1c0,0,0,0,0,0c0.1,0,0.1,0,0.2,0
			C168.3,252.6,168.3,252.6,168.3,252.7L168.3,252.7L168.3,252.7L168.3,252.7L168.3,252.7z M168.3,252.6
			C168.3,252.6,168.3,252.6,168.3,252.6c0-0.1,0-0.1,0-0.1c0,0-0.1,0-0.1,0c0,0,0,0.1,0,0.1C168.2,252.7,168.3,252.7,168.3,252.6
			C168.3,252.6,168.3,252.6,168.3,252.6L168.3,252.6z"/>
		<path class="st5" d="M168.6,252.7C168.6,252.7,168.7,252.7,168.6,252.7C168.6,252.7,168.6,252.7,168.6,252.7
			c0-0.1-0.1-0.1-0.1-0.1l-0.1,0.1l0,0l0.1-0.1l0,0l0.1-0.1l0,0l0,0c0,0,0.1,0,0.1,0C168.7,252.6,168.7,252.7,168.6,252.7
			C168.7,252.7,168.7,252.7,168.6,252.7L168.6,252.7L168.6,252.7L168.6,252.7L168.6,252.7z"/>
		<path class="st5" d="M168.8,252.9L168.8,252.9L168.8,252.9L168.8,252.9L168.8,252.9L168.8,252.9c0.1-0.1,0.1-0.1,0.2-0.1
			c0,0,0,0.1,0,0.1c0,0,0,0,0,0C169,253,168.9,253,168.8,252.9C168.8,252.9,168.8,252.9,168.8,252.9L168.8,252.9L168.8,252.9
			L168.8,252.9L168.8,252.9z M168.8,252.9c0,0,0,0.1,0,0.1c0,0,0,0,0,0c0,0,0.1,0,0.1,0c0,0,0-0.1,0-0.1c0,0,0,0,0,0
			C168.9,252.9,168.9,252.9,168.8,252.9z"/>
		<path class="st5" d="M169.3,253l-0.1,0.2l0,0l0,0l0,0c0,0-0.1,0-0.1,0c0,0,0-0.1,0-0.1c0,0,0,0,0,0C169.2,253,169.2,253,169.3,253
			c-0.1,0-0.1,0.1-0.1,0.1l0,0l0,0C169.3,253.1,169.4,253,169.3,253z M169.3,253.1C169.3,253,169.3,253,169.3,253.1
			c0-0.1,0-0.1,0-0.1c0,0-0.1,0-0.1,0c0,0,0,0.1,0,0.1c0,0,0,0,0,0C169.2,253.1,169.2,253.1,169.3,253.1L169.3,253.1z"/>
		<path class="st5" d="M169.4,253.2L169.4,253.2L169.4,253.2L169.4,253.2L169.4,253.2L169.4,253.2c0.1-0.1,0.1-0.1,0.2-0.1
			c0,0,0,0.1,0,0.1c0,0,0,0,0,0C169.5,253.3,169.4,253.3,169.4,253.2C169.3,253.2,169.3,253.2,169.4,253.2L169.4,253.2L169.4,253.2
			L169.4,253.2z M169.4,253.2C169.3,253.2,169.3,253.2,169.4,253.2c0,0.1,0,0.1,0,0.1c0,0,0.1,0,0.1,0c0,0,0-0.1,0-0.1c0,0,0,0,0,0
			C169.5,253.1,169.4,253.1,169.4,253.2L169.4,253.2z"/>
		<path class="st5" d="M169.6,253.3c0.1,0,0.1,0,0.2,0c0,0,0,0.1,0,0.1c0,0,0,0,0,0l0,0L169.6,253.3c0,0.1,0,0.1,0,0.1c0,0,0,0,0,0
			c0,0,0.1,0,0.1,0l0,0l0,0c0,0-0.1,0-0.1,0C169.6,253.4,169.6,253.3,169.6,253.3C169.6,253.3,169.6,253.3,169.6,253.3z
			 M169.6,253.3l0.1,0.1c0,0,0-0.1,0-0.1c0,0,0,0,0,0C169.7,253.3,169.7,253.3,169.6,253.3L169.6,253.3z"/>
		<path class="st5" d="M169.9,253.4L169.9,253.4L169.9,253.4L169.9,253.4L169.9,253.4c0,0,0.1,0,0.1,0l0,0l0,0H169.9L169.9,253.4
			L169.9,253.4L169.9,253.4L169.9,253.4L169.9,253.4L169.9,253.4z"/>
		<path class="st5" d="M170,253.6L170,253.6C170,253.6,170,253.6,170,253.6l0.1,0.1l0,0l0,0l0,0l0,0l0,0l0,0l0,0h0.1v0.1l0,0l0,0
			l0,0h-0.1l0,0l0,0l0,0l0,0c0,0,0,0,0,0.1l0,0H170c0,0,0,0,0-0.1L170,253.6z"/>
		<polygon class="st0" points="167,252.3 166.3,251.9 166.8,251.3 167.5,251.6 		"/>
		<path class="st5" d="M167,252.3l-0.7-0.4l0,0l0.5-0.6l0,0l0.7,0.4l0,0C167.3,251.9,167.1,252.1,167,252.3z M167,252.3l0.5-0.6l0,0
			l-0.7-0.4l0,0l-0.5,0.6l0,0L167,252.3z"/>
		<polygon class="st9" points="175,259.5 164.3,253.8 165.4,252.4 176.1,258.2 		"/>
		<path class="st5" d="M166.6,254.1l-0.1-0.1h-0.1l0,0l0.3-0.2l0,0l0,0L166.6,254.1L166.6,254.1L166.6,254.1z M166.5,254.1l0.1,0.1
			l0.1-0.2L166.5,254.1z"/>
		<path class="st5" d="M166.7,254.2L166.7,254.2C166.7,254.2,166.7,254.2,166.7,254.2L166.7,254.2L166.7,254.2L166.7,254.2
			L166.7,254.2L166.7,254.2L166.7,254.2 M166.7,254.2L166.7,254.2L166.7,254.2L166.7,254.2L166.7,254.2L166.7,254.2L166.7,254.2
			L166.7,254.2L166.7,254.2L166.7,254.2L166.7,254.2L166.7,254.2L166.7,254.2L166.7,254.2L166.7,254.2c-0.1,0-0.1,0-0.1-0.1
			C166.6,254.2,166.6,254.2,166.7,254.2L166.7,254.2z"/>
		<path class="st5" d="M166.9,254.3L166.9,254.3L166.9,254.3h0.1l0,0l0,0l0,0l0,0l0,0c0,0,0,0,0.1,0h0.1c0,0,0,0,0,0.1l0,0l0,0l0,0
			l0,0l0,0l0,0l0,0l0,0l0,0c0,0,0,0,0,0.1h-0.1H167C167,254.4,166.9,254.4,166.9,254.3L166.9,254.3z"/>
		<path class="st5" d="M167.2,254.2L167.2,254.2L167.2,254.2z M167.2,254.3L167.2,254.3L167.2,254.3l-0.1,0.2l0,0l0,0L167.2,254.3z"
			/>
		<path class="st5" d="M167.4,254.6c0,0-0.1,0-0.2,0l0,0l0,0l0,0C167.2,254.7,167.3,254.7,167.4,254.6L167.4,254.6
			c-0.1,0-0.1,0-0.1,0c0,0,0-0.1,0-0.1c0,0,0,0,0,0c0.1,0,0.1,0,0.2,0C167.4,254.5,167.4,254.5,167.4,254.6L167.4,254.6L167.4,254.6
			L167.4,254.6L167.4,254.6z M167.4,254.5C167.4,254.5,167.4,254.5,167.4,254.5c0-0.1,0-0.1,0-0.1c0,0-0.1,0-0.1,0c0,0,0,0.1,0,0.1
			c0,0,0,0,0,0C167.2,254.6,167.3,254.6,167.4,254.5C167.4,254.6,167.4,254.6,167.4,254.5L167.4,254.5z"/>
		<path class="st5" d="M167.7,254.7C167.7,254.6,167.7,254.6,167.7,254.7C167.7,254.6,167.7,254.6,167.7,254.7
			c0-0.1-0.1-0.1-0.1-0.1l-0.1,0.1l0,0l0.1-0.1l0,0v-0.1l0,0l0,0l0,0c0,0,0.1,0,0.1,0C167.7,254.5,167.7,254.6,167.7,254.7
			C167.6,254.6,167.6,254.6,167.7,254.7l-0.1,0.1l0,0l0,0L167.7,254.7z"/>
		<path class="st5" d="M168,254.9C168,254.8,168,254.8,168,254.9c0-0.1-0.1-0.1-0.1-0.1l-0.1,0.1l0,0l0.1-0.1l0,0v-0.1l0,0l0,0l0,0
			c0,0,0.1,0,0.1,0C168,254.7,168,254.8,168,254.9C168,254.8,168,254.8,168,254.9l-0.1,0.1l0,0L168,254.9z"/>
		<path class="st5" d="M168.1,254.9c0.1,0,0.1,0,0.2,0c0,0,0,0.1,0,0.1c0,0,0,0,0,0l0,0L168.1,254.9c0,0.1,0,0.1,0,0.1c0,0,0,0,0,0
			c0,0,0.1,0,0.1,0l0,0c0,0-0.1,0-0.1,0C168.1,255,168.1,255,168.1,254.9C168.1,254.9,168.1,254.9,168.1,254.9z M168.1,254.9
			l0.1,0.1c0,0,0-0.1,0-0.1c0,0,0,0,0,0C168.2,254.9,168.2,254.9,168.1,254.9L168.1,254.9z"/>
		<path class="st5" d="M168.4,255.2L168.4,255.2V255l0,0l0,0V255.2l0.1-0.1l0,0v0.1l0.2-0.1l0,0l0,0L168.4,255.2L168.4,255.2
			L168.4,255.2L168.4,255.2L168.4,255.2L168.4,255.2z"/>
		<path class="st5" d="M168.9,255.3L168.9,255.3L168.9,255.3L168.9,255.3L168.9,255.3L168.9,255.3c0.1-0.1,0.1-0.1,0.2-0.1
			c0,0,0,0.1,0,0.1C169,255.4,168.9,255.4,168.9,255.3C168.8,255.4,168.8,255.3,168.9,255.3L168.9,255.3L168.9,255.3L168.9,255.3
			L168.9,255.3z M168.9,255.3C168.8,255.4,168.8,255.4,168.9,255.3c0,0.1,0,0.1,0,0.1c0,0,0.1,0,0.1,0c0,0,0-0.1,0-0.1c0,0,0,0,0,0
			C169,255.3,168.9,255.3,168.9,255.3L168.9,255.3z"/>
		<path class="st5" d="M169.3,255.4c0,0,0,0.1,0,0.1c0,0,0,0,0,0c0,0-0.1,0-0.2,0c0,0,0-0.1,0-0.1c0,0,0,0,0,0
			C169.2,255.4,169.2,255.4,169.3,255.4z M169.1,255.6c0,0,0.1,0,0.1,0c0,0,0,0,0-0.1c0,0,0,0,0,0c0,0-0.1,0-0.1,0
			C169.1,255.5,169.1,255.6,169.1,255.6C169.1,255.6,169.1,255.6,169.1,255.6z"/>
		<path class="st5" d="M169.3,255.7L169.3,255.7C169.3,255.7,169.3,255.7,169.3,255.7L169.3,255.7L169.3,255.7L169.3,255.7
			L169.3,255.7L169.3,255.7L169.3,255.7 M169.4,255.7L169.4,255.7L169.4,255.7c0.1,0,0.1,0,0.1,0.1l0,0c0,0,0,0,0-0.1L169.4,255.7
			L169.4,255.7L169.4,255.7L169.4,255.7L169.4,255.7L169.4,255.7L169.4,255.7L169.4,255.7C169.3,255.7,169.3,255.7,169.4,255.7
			L169.4,255.7z"/>
		<path class="st5" d="M169.7,255.6L169.7,255.6L169.7,255.6L169.7,255.6L169.7,255.6L169.7,255.6z M169.7,255.6L169.7,255.6
			L169.7,255.6l-0.1,0.2l0,0l0,0L169.7,255.6z"/>
		<path class="st5" d="M169.8,255.7L169.8,255.7l-0.1,0.1l0,0l0,0l0,0c0,0,0,0,0-0.1L169.8,255.7L169.8,255.7L169.8,255.7
			L169.8,255.7l0.1-0.1l0,0L169.8,255.7L169.8,255.7C169.8,255.7,169.8,255.7,169.8,255.7z"/>
		<path class="st5" d="M170,255.7L170,255.7L170,255.7L170,255.7L170,255.7z M170,255.8L170,255.8L170,255.8l-0.1,0.2l0,0l0,0
			L170,255.8z"/>
		<path class="st5" d="M170.1,255.9c0,0,0,0.1,0,0.1c0,0,0,0,0,0c-0.1,0-0.1,0-0.2,0c0,0,0-0.1,0-0.1c0,0,0,0,0,0
			C170,255.9,170.1,255.9,170.1,255.9z M170,256c0,0,0.1,0,0.1,0c0,0,0-0.1,0-0.1c0,0,0,0,0,0c0,0-0.1,0-0.1,0
			C170,255.9,170,256,170,256L170,256z"/>
		<path class="st5" d="M170.4,256.1C170.4,256.1,170.4,256.1,170.4,256.1C170.4,256.1,170.4,256,170.4,256.1c0-0.1-0.1-0.1-0.1-0.1
			l-0.1,0.1l0,0l0.1-0.1l0,0l0.1-0.1l0,0l0,0l0,0c0,0,0.1,0,0.1,0C170.5,256,170.5,256,170.4,256.1
			C170.4,256.1,170.4,256.1,170.4,256.1L170.4,256.1L170.4,256.1L170.4,256.1L170.4,256.1z"/>
		<polygon class="st0" points="165.6,254 165,253.6 165.4,253 166.1,253.4 		"/>
		<path class="st5" d="M165.6,254l-0.7-0.4l0,0l0.5-0.6l0,0l0.7,0.4l0,0L165.6,254z M165.6,254l0.5-0.6l0,0l-0.7-0.4l0,0l-0.5,0.6
			l0,0L165.6,254z"/>
		<polygon class="st9" points="173.6,261.2 162.9,255.5 164,254.1 174.7,259.9 		"/>
		<path class="st5" d="M165.2,255.6l-0.2,0.2l0,0l0,0L165.2,255.6L165.2,255.6l0,0.3l0.2-0.2l0,0l0,0l-0.2,0.2l0,0L165.2,255.6z"/>
		<path class="st5" d="M165.4,255.9c0.1,0,0.1,0,0.2,0c0,0,0,0.1,0,0.1c0,0,0,0,0,0l0,0L165.4,255.9c0,0.1,0,0.1,0,0.2c0,0,0,0,0,0
			h0.1l0,0l0,0c0,0-0.1,0-0.1,0C165.3,256.1,165.3,256,165.4,255.9C165.3,255.9,165.4,255.9,165.4,255.9z M165.4,255.9l0.1,0.1
			c0,0,0-0.1,0-0.1c0,0,0,0,0,0C165.5,255.9,165.5,255.9,165.4,255.9L165.4,255.9z"/>
		<path class="st5" d="M165.6,256.2L165.6,256.2l0.1-0.2l0,0l0,0L165.6,256.2l0.2-0.1l0,0v0.1l0.2-0.1l0,0l0,0l-0.2,0.1l0,0v-0.1
			L165.6,256.2L165.6,256.2L165.6,256.2z"/>
		<path class="st5" d="M166.1,256.3L166.1,256.3L166.1,256.3L166.1,256.3L166.1,256.3L166.1,256.3l0.2-0.1c0,0,0,0.1,0,0.1
			c0,0,0,0,0,0C166.2,256.4,166.2,256.4,166.1,256.3C166.1,256.4,166.1,256.3,166.1,256.3L166.1,256.3L166.1,256.3L166.1,256.3
			L166.1,256.3z M166.1,256.3C166.1,256.3,166.1,256.4,166.1,256.3c0,0.1,0,0.1,0,0.1c0,0,0.1,0,0.1,0c0,0,0-0.1,0-0.1c0,0,0,0,0,0
			C166.2,256.3,166.2,256.3,166.1,256.3z"/>
		<path class="st5" d="M166.5,256.4L166.5,256.4L166.5,256.4L166.5,256.4L166.5,256.4c0,0,0.1,0,0.1,0l0,0H166.5L166.5,256.4
			L166.5,256.4l-0.1,0.1l0,0l0,0L166.5,256.4z"/>
		<path class="st5" d="M166.7,256.5c0,0,0,0.1,0,0.1c0,0,0,0,0,0c-0.1,0-0.1,0-0.2,0c0,0,0-0.1,0-0.1c0,0,0,0,0,0
			C166.6,256.5,166.7,256.5,166.7,256.5z M166.6,256.7c0,0,0.1,0,0.1,0c0,0,0-0.1,0-0.1c0,0,0,0,0,0c0,0-0.1,0-0.1,0
			C166.6,256.5,166.6,256.6,166.6,256.7z"/>
		<path class="st5" d="M166.7,256.8L166.7,256.8l0.2-0.2l0,0l0,0L166.7,256.8C166.7,256.8,166.7,256.8,166.7,256.8L166.7,256.8
			L166.7,256.8z M166.9,256.5L166.9,256.5L166.9,256.5L166.9,256.5L166.9,256.5z"/>
		<path class="st5" d="M166.9,256.7c0.1,0,0.1,0,0.2,0c0,0,0,0.1,0,0.1c0,0,0,0,0,0l0,0L166.9,256.7c0,0.1,0,0.1,0,0.1c0,0,0,0,0,0
			c0,0,0.1,0,0.1,0l0,0c0,0-0.1,0-0.1,0C166.9,256.9,166.8,256.8,166.9,256.7C166.9,256.7,166.9,256.7,166.9,256.7z M166.9,256.7
			l0.2,0.1c0,0,0-0.1,0-0.1c0,0,0,0,0,0C167.1,256.7,167,256.7,166.9,256.7L166.9,256.7z"/>
		<path class="st5" d="M167.2,256.9c0.1,0,0.1,0,0.2,0c0,0,0,0,0.1,0l0,0c0,0,0,0,0,0C167.4,256.8,167.3,256.8,167.2,256.9
			c0,0,0,0.1,0.1,0.1c0,0,0,0,0,0c0,0,0,0,0.1,0l0,0c0,0-0.1,0-0.1,0C167.2,257,167.2,256.9,167.2,256.9z"/>
		<path class="st5" d="M167.6,257L167.6,257L167.6,257l-0.1,0.1l0,0l0,0c0,0,0,0,0,0L167.6,257L167.6,257L167.6,257L167.6,257l0-0.1
			l0,0l0,0L167.6,257L167.6,257L167.6,257z"/>
		<polygon class="st0" points="164.3,255.7 163.6,255.3 164.1,254.7 164.8,255.1 		"/>
		<path class="st5" d="M164.3,255.7l-0.7-0.4l0,0l0.5-0.6l0,0l0.7,0.4l0,0L164.3,255.7z M164.3,255.7l0.5-0.6l0,0l-0.7-0.4l0,0
			l-0.5,0.6l0,0L164.3,255.7z"/>
		<polygon class="st6" points="168.8,267.3 167.1,266.4 168.3,264.8 170.1,265.7 		"/>
		<polygon class="st0" points="168.3,266.6 168.1,266.5 168.9,265.5 169,265.6 		"/>
		<polygon class="st0" points="169.1,266.2 169,266.4 168,265.9 168.1,265.7 		"/>
		<path class="st0" d="M181.6,242.7l-1.4-0.8c0,0,0-0.1,0-0.1c0,0,0,0,0,0l0,0c0,0,0.1,0,0.1,0l1.4,0.8c0,0,0,0.1,0,0.1c0,0,0,0,0,0
			l0,0C181.7,242.8,181.7,242.8,181.6,242.7z"/>
		<path class="st10" d="M168,272.3c-3.5-0.4,8.7-6.1,9.4-10s-3.4-3.2-6.7-1.3c-11.6,6.5-19.5,5.1-25.8,11.9S168,272.3,168,272.3z"/>
		<path class="st5" d="M157.8,266.2c-1.4,0.5-2.7,0.9-4.1,1.5c-1.3,0.5-2.6,1.1-3.9,1.8c-0.6,0.3-1.2,0.7-1.7,1.2
			c-0.5,0.5-1.1,1-1.6,1.5c-1,1-2,2-3,3l-0.1,0.1h-0.1c-2.4,0.7-4.8,1.5-7.3,2.1s-4.9,1.3-7.3,2s-4.9,1.2-7.4,1.7
			c-1.2,0.3-2.5,0.5-3.8,0.6c-0.6,0.1-1.3,0.1-1.9-0.1c-0.6-0.3-1.1-0.7-1.5-1.2c0.5,0.4,1,0.7,1.6,1c0.6,0.1,1.2,0.1,1.8-0.1
			c1.2-0.2,2.4-0.5,3.7-0.8c2.4-0.6,4.9-1.3,7.3-2s4.9-1.4,7.3-2l7.3-2.1l-0.2,0.1c1-1.1,2-2.1,3.1-3c0.6-0.5,1.1-1,1.7-1.4
			c0.6-0.5,1.2-0.8,1.9-1.2c1.3-0.6,2.7-1.2,4.1-1.6C154.9,266.9,156.3,266.5,157.8,266.2z"/>
		<path class="st6" d="M87.4,285.9l19-18c-3.3-5.8-7-11.5-11-16.9c-6.8-9.2-12.4-7.8-12.2,7.6C83.3,267.9,84.7,277.1,87.4,285.9z"/>
		<path class="st5" d="M103.8,265.1c-1.6,1.2-3,2.6-4.4,3.9s-2.8,2.5-4.1,3.8c-2.8,2.7-5.6,5.4-8.2,8.2c-4,4.2,0,0.1,0.1,0.1
			c2.9-2.5,5.7-5.1,8.5-7.7c1.4-1.3,2.7-2.6,4.1-4S102.6,266.7,103.8,265.1C103.9,265.2,103.8,265.1,103.8,265.1z"/>
		<path class="st5" d="M105.3,265.4c-0.5-0.8-1-1.6-1.5-2.5c-0.1-0.2-0.2-0.3-0.3-0.5c-0.4-1.1-0.9-2.2-1.4-3.3 M102.1,259.2
			c0.3,0.9,0.6,1.7,1,2.6c-0.8-1.2-1.6-2.5-2.5-3.6 M100.5,258.2c0.9,1.7,2,3.3,2.9,5c0.5,0.8,2.9,4.7,2.8,4.7
			c-0.2,0.2-0.4,0.4-0.6,0.6c-0.1,0.1,0,0.1,0.1,0.1l0.9-0.7c0,0-1-1.7-1.4-2.4L100.5,258.2z"/>
		<path class="st5" d="M91.8,281.7c-1.4,1.5-2.8,3-4.2,4.4l-0.3,0.3l-0.1-0.4c-0.6-1.7-1.1-3.4-1.5-5.1c-0.4-1.7-0.8-3.5-1.1-5.2
			c-0.6-3.5-1.1-7-1.3-10.5c0.4,1.7,0.7,3.5,1,5.2l1,5.2c0.7,3.5,1.4,6.9,2.4,10.3l-0.4-0.1C88.7,284.4,90.2,283,91.8,281.7z"/>
		<path class="st5" d="M82.8,267.8c0.4,0.6,0.7,1.2,1,1.9c0.3,0.6,0.5,1.3,0.6,2c-0.5-0.6-0.8-1.2-1.1-1.8
			C83,269.2,82.8,268.5,82.8,267.8z"/>
	</g>
	<g id="freepik--speech-bubble--inject-70">
		<path class="st0" d="M170.3,182.9c-1.3,12.4-12.4,21.4-24.8,20.2c-4.8-0.5-9.4-2.6-13-5.8l-11.3,1.7l5.7-9.8
			c-4.7-11.6,0.8-24.8,12.4-29.5c11.6-4.7,24.8,0.8,29.5,12.4C170.1,175.4,170.7,179.2,170.3,182.9L170.3,182.9z"/>
		<path class="st5" d="M170.3,182.9c-0.4,4.2-2,8.1-4.6,11.5c-1.2,1.7-2.7,3.2-4.4,4.4c-3.4,2.5-7.4,4.1-11.5,4.5
			c-1,0.1-2.1,0.1-3.1,0.1c-1.1,0-2.1-0.1-3.1-0.3c-4.2-0.8-8-2.7-11.2-5.5l0.3,0.1l-11.3,1.7l-0.8,0.1l0.4-0.7l5.6-9.8v0.4
			c-4.8-11.7,0.8-25,12.5-29.8c11.7-4.8,25,0.8,29.8,12.5C170.2,175.3,170.7,179.1,170.3,182.9L170.3,182.9z M170.3,182.9
			c1.1-10.6-5.4-20.5-15.6-23.7c-3.3-1-6.7-1.3-10.1-0.8c-3.4,0.5-6.6,1.8-9.3,3.7c-2.8,1.9-5.1,4.5-6.8,7.4
			c-3.4,5.9-3.8,13.1-1.3,19.4l0.1,0.2l-0.1,0.2l-5.7,9.7l-0.4-0.6l11.3-1.6h0.1l0.1,0.1c3,2.8,6.8,4.8,10.8,5.6
			c1,0.2,2,0.3,3.1,0.4c1,0.1,2.1,0.1,3.1,0c2.1-0.2,4.1-0.6,6-1.3c2-0.7,3.8-1.7,5.4-2.9c0.8-0.6,1.6-1.3,2.4-2
			c0.7-0.7,1.4-1.5,2.1-2.3C168.2,191,169.8,187,170.3,182.9z"/>
		<polygon class="st6" points="145.1,193.4 135.5,183.6 138.7,180.4 144.4,186.1 156.1,167.8 159.9,170.2 		"/>
	</g>
	<text transform="matrix(1 0 0 1 175.5592 120.4043)" class="st6 st16 st17">Packages</text>
	<text transform="matrix(1 0 0 1 198.7988 147.2091)" class="st18 st19">Contacts</text>
	<text transform="matrix(1 0 0 1 198.91 172.5824)" class="st18 st19">Hourly Rate</text>
	<text transform="matrix(1 0 0 1 198.91 198.0213)" class="st18 st19">Monthly Emailing Limits</text>
	<text transform="matrix(1 0 0 1 198.91 224.0103)" class="st18 st19">Sending Domains</text>
	<text transform="matrix(1 0 0 1 198.91 249.7296)" class="st18 st20">Sending Nodes</text>
	<text transform="matrix(1 0 0 1 198.91 275.9474)" class="st18 st20">Triggers</text>
	<text transform="matrix(1 0 0 1 198.91 301.5104)" class="st18 st20">Segments</text>
	<text transform="matrix(1 0 0 1 297.6591 147.5981)" class="st18 st19">5000</text>
	<text transform="matrix(1 0 0 1 300.8806 172.7757)" class="st18 st19">500</text>
	<text transform="matrix(1 0 0 1 298.1101 197.9127)" class="st18 st19">6000</text>
	<text transform="matrix(1 0 0 1 307.3463 223.987)" class="st18 st19">2</text>
	<text transform="matrix(1 0 0 1 290.4053 250.0612)" class="st18 st20">Default</text>
	<text transform="matrix(1 0 0 1 290.4053 276.0503)" class="st18 st20">Default</text>
	<text transform="matrix(1 0 0 1 290.4053 302.4655)" class="st18 st20">Default</text>
	<text transform="matrix(1 0 0 1 179.71 96.58)" class="st2 st16 st21">User Settings</text>
</g>
</svg>
