<svg id="Layer_1" data-name="Layer 1" xmlns="http://www.w3.org/2000/svg" viewBox="0 0 500 372.56"><defs><style>.cls-1{fill:#ebebeb;}.cls-2{fill:#99beff;}.cls-3{fill:#f5f5f5;}.cls-4{fill:#407bff;}.cls-16,.cls-17,.cls-25,.cls-5,.cls-6,.cls-7{fill:none;}.cls-5{stroke:#e0e0e0;}.cls-16,.cls-25,.cls-5,.cls-6,.cls-7{stroke-linecap:round;stroke-linejoin:round;}.cls-5,.cls-6,.cls-7{stroke-width:2px;}.cls-6{stroke:#d4e4ff;stroke-dasharray:5.03 5.03;}.cls-7{stroke:#a9c8ff;}.cls-8{fill:#e0e0e0;}.cls-9{fill:#e6e6e6;}.cls-10{fill:#a6c6ff;}.cls-11,.cls-13,.cls-22{opacity:0.2;}.cls-11,.cls-12,.cls-13,.cls-14,.cls-15,.cls-16{isolation:isolate;}.cls-12,.cls-13,.cls-14,.cls-15,.cls-18{fill:#fff;}.cls-12{opacity:0.5;}.cls-14,.cls-16{opacity:0.4;}.cls-15,.cls-19{opacity:0.6;}.cls-16{stroke:#fff;}.cls-20{opacity:0.1;}.cls-21{fill:#263238;}.cls-23{fill:#e4897b;}.cls-24{fill:#de5753;}.cls-25{stroke:#263238;stroke-width:0.71px;}</style></defs><g id="freepik--background-complete--inject-8"><rect class="cls-1" y="327.4" width="500" height="0.25"/><rect class="cls-1" x="416.78" y="343.49" width="33.12" height="0.25"/><rect class="cls-1" x="322.53" y="346.21" width="8.69" height="0.25"/><rect class="cls-1" x="396.59" y="334.21" width="19.19" height="0.25"/><rect class="cls-1" x="52.46" y="335.89" width="43.19" height="0.25"/><rect class="cls-1" x="104.56" y="335.89" width="6.33" height="0.25"/><rect class="cls-1" x="131.47" y="340.11" width="93.68" height="0.25"/><path class="cls-1" d="M237,337.8H43.91a5.71,5.71,0,0,1-5.7-5.71V60.66A5.71,5.71,0,0,1,43.91,55H237a5.71,5.71,0,0,1,5.71,5.71h0V332.09A5.71,5.71,0,0,1,237,337.8ZM43.91,55.2a5.46,5.46,0,0,0-5.45,5.46V332.09a5.46,5.46,0,0,0,5.45,5.46H237a5.48,5.48,0,0,0,5.46-5.46V60.66A5.48,5.48,0,0,0,237,55.2Z" transform="translate(0 -55)"/><path class="cls-1" d="M453.31,337.8H260.21a5.73,5.73,0,0,1-5.71-5.71V60.66A5.72,5.72,0,0,1,260.21,55h193.1A5.71,5.71,0,0,1,459,60.66V332.09A5.7,5.7,0,0,1,453.31,337.8ZM260.21,55.2a5.48,5.48,0,0,0-5.46,5.46V332.09a5.48,5.48,0,0,0,5.46,5.46h193.1a5.48,5.48,0,0,0,5.46-5.46V60.66a5.48,5.48,0,0,0-5.46-5.46Z" transform="translate(0 -55)"/><path class="cls-2" d="M117.78,94a6.75,6.75,0,0,1,8.71-6.48,14.34,14.34,0,0,1,12.12-16.26,14.17,14.17,0,0,1,2.06-.15,14.57,14.57,0,0,1,2.64.25,12.53,12.53,0,0,1,23.23,6.33h.2a11.55,11.55,0,0,1,.68,23.09c-.23,0-.45,0-.68,0H124.36A6.76,6.76,0,0,1,117.78,94Z" transform="translate(0 -55)"/><path class="cls-3" d="M390.51,188.61a6.77,6.77,0,0,1,6.77-6.77,7.05,7.05,0,0,1,1.94.28,14.29,14.29,0,0,1,14.29-16.35A13.9,13.9,0,0,1,416,166a12.52,12.52,0,0,1,23.22,6.34h.21a11.55,11.55,0,0,1,.68,23.09h-43A6.76,6.76,0,0,1,390.51,188.61Z" transform="translate(0 -55)"/><path class="cls-3" d="M227.8,221.74a6.77,6.77,0,0,1,6.77-6.77h0a6.7,6.7,0,0,1,1.94.29,14.3,14.3,0,0,1,16.82-16.16,12.52,12.52,0,0,1,23.22,6.33h.21a11.54,11.54,0,1,1,0,23.08H234.38A6.76,6.76,0,0,1,227.8,221.74Z" transform="translate(0 -55)"/><path class="cls-3" d="M58.91,183.35A4.09,4.09,0,0,1,63,179.26a4.19,4.19,0,0,1,1.17.17,8.67,8.67,0,0,1,7.33-9.83,8.6,8.6,0,0,1,2.84.06,7.56,7.56,0,0,1,14,3.83h.13a7,7,0,1,1,0,14H62.88A4.09,4.09,0,0,1,58.91,183.35Z" transform="translate(0 -55)"/><path class="cls-3" d="M291.47,124.47a4.09,4.09,0,0,1,4.09-4.09,3.86,3.86,0,0,1,1.17.18,8.67,8.67,0,0,1,7.33-9.83,8.6,8.6,0,0,1,2.84.06,7.57,7.57,0,0,1,14,3.82H321a7,7,0,0,1,0,14H295.44A4.09,4.09,0,0,1,291.47,124.47Z" transform="translate(0 -55)"/><path class="cls-4" d="M354.71,81.16a4.09,4.09,0,0,1,4.09-4.09,4.19,4.19,0,0,1,1.17.17,8.67,8.67,0,0,1,7.33-9.83,8.6,8.6,0,0,1,2.84.06,7.57,7.57,0,0,1,14,3.83h.13a7,7,0,0,1,0,14H358.68A4.09,4.09,0,0,1,354.71,81.16Z" transform="translate(0 -55)"/><polygon class="cls-3" points="440.02 270.28 440.02 259.23 442.63 259.23 442.63 257.27 440.02 257.27 440.02 255.56 417.74 255.56 417.74 257.27 415.14 257.27 415.14 259.23 417.74 259.23 417.74 262.94 410.07 262.94 410.07 270.28 407.04 270.28 407.04 224.31 406.07 224.31 406.07 223.77 408.33 223.77 408.33 222.99 406.07 222.99 406.07 221.22 401.49 221.22 401.49 208.75 400.18 208.75 400.18 221.22 399.49 221.22 399.49 222.99 398.69 222.99 398.69 223.77 399.49 223.77 399.49 249.34 393.32 249.34 393.32 246.32 391.74 246.32 391.74 236.7 390.03 236.7 390.03 246.32 386.73 246.32 386.73 249.34 381.53 249.34 381.53 241.56 349.22 241.56 349.22 214.64 343.24 214.64 343.24 181.73 338.45 181.73 338.45 214.04 327.08 214.04 327.08 261.91 305.55 261.91 305.55 214.04 301.02 214.04 301.02 207.46 302.73 207.46 302.73 205.58 295.71 205.58 295.71 203.49 293.9 203.49 293.9 199.25 291.25 199.25 291.25 188.84 290.2 188.84 290.2 199.25 287.96 199.25 287.96 203.49 285.46 203.49 285.46 193.58 284.8 193.58 284.8 184.48 284.17 184.48 284.17 193.58 282.88 193.58 282.88 203.49 270.06 203.49 270.06 214.04 266.65 214.04 266.65 230.48 247.77 230.48 247.77 203.62 244.17 203.62 244.17 198.33 236.4 198.33 236.4 186.46 235.75 186.46 235.75 198.33 228.62 198.33 228.62 203.62 223.74 203.62 223.74 214.04 194.46 214.04 194.46 261.91 172.91 261.91 172.91 214.04 161.55 214.04 161.55 181.73 156.76 181.73 156.76 214.64 150.78 214.64 150.78 241.56 118.47 241.56 118.47 249.34 100.52 249.34 100.52 221.22 98.2 221.22 98.2 206.59 96.89 206.59 96.89 221.22 93.93 221.22 93.93 270.28 74.47 270.28 74.47 262.68 72.62 262.68 72.62 260.64 73.58 260.64 73.58 258.24 72.62 258.24 72.62 256.09 63.52 256.09 63.52 258.24 62.73 258.24 62.73 260.64 63.52 260.64 63.52 262.68 59.96 262.68 59.96 239.08 58.72 239.08 58.72 262.68 53.76 262.68 53.76 270.28 47.26 270.28 47.26 327.73 250 327.13 452.74 327.73 452.74 270.28 440.02 270.28"/><path class="cls-5" d="M165.5,375.27l-2.24-1.12" transform="translate(0 -55)"/><path class="cls-6" d="M158.8,371.84c-24-12.63-103.26-57.69-85.62-93,36.2-72.54,301.49-14.19,333-69.14,27.59-48.09-53.88-84.63-74.63-93" transform="translate(0 -55)"/><path class="cls-7" d="M329.21,115.76c-1.5-.35-2.34-.53-2.34-.53" transform="translate(0 -55)"/><polygon class="cls-8" points="326.37 44.72 320.39 48.84 318.73 59.88 314.68 52.06 304.44 57.22 286.4 42.75 326.37 44.72"/><polygon class="cls-9" points="318.73 59.88 286.4 42.75 314.68 52.06 318.73 59.88"/><polygon class="cls-10" points="326.37 44.72 320.39 48.84 318.73 59.88 314.68 52.06 304.44 57.22 286.4 42.75 326.37 44.72"/><polygon class="cls-4" points="320.39 48.84 286.4 42.75 314.68 52.06 318.73 59.88 320.39 48.84"/></g><g id="freepik--Shadow--inject-8"><ellipse id="freepik--path--inject-8" class="cls-3" cx="250" cy="361.24" rx="193.89" ry="11.32"/></g><g id="freepik--Plant--inject-8"><path class="cls-4" d="M399.43,384.8c.15-1,3.65-25.17-3.36-33.51a7.6,7.6,0,0,0-5.82-2.87c-14.16-.33-16.09,11-16.11,11.15l1.67.26c.06-.41,1.74-10,14.39-9.72a5.88,5.88,0,0,1,4.57,2.27c6.53,7.76,3,31.93,3,32.17Z" transform="translate(0 -55)"/><path class="cls-4" d="M400.28,383.7l1.69-.05c0-.23-.56-22.25,10.29-26.81,10.64-4.45,15.42,4.71,15.62,5.1l1.51-.76c-.05-.11-5.67-11-17.78-5.89C399.69,360.29,400.25,382.74,400.28,383.7Z" transform="translate(0 -55)"/><path class="cls-4" d="M400.23,385.43c0-.35.1-35.19,6.9-45.38,6.52-9.78,17-5.18,17.48-5l.7-1.53c-.12-.06-12.26-5.42-19.59,5.57-7.07,10.61-7.17,44.86-7.18,46.32Z" transform="translate(0 -55)"/><path class="cls-4" d="M388.22,349.26s6.18,2.28,4.34,7.66-21.37,14.23-21.37,14.23-8.19-7.51-.67-19.7S388.05,345.41,388.22,349.26Z" transform="translate(0 -55)"/><path class="cls-4" d="M407.43,338.21s-4.38-.47-4-3.14,17.05-9.55,26.91,1.57c0,0-6.31,10.84-15.43,11S407.43,338.21,407.43,338.21Z" transform="translate(0 -55)"/><path class="cls-4" d="M411.94,356.07s-3-2.45.24-3.64,19.3-.86,19.46,15c0,0-18.67,3.1-21-2.95S411.94,356.07,411.94,356.07Z" transform="translate(0 -55)"/><path class="cls-11" d="M388.22,349.26s6.18,2.28,4.34,7.66-21.37,14.23-21.37,14.23-8.19-7.51-.67-19.7S388.05,345.41,388.22,349.26Z" transform="translate(0 -55)"/><path class="cls-11" d="M407.43,338.21s-4.38-.47-4-3.14,17.05-9.55,26.91,1.57c0,0-6.31,10.84-15.43,11S407.43,338.21,407.43,338.21Z" transform="translate(0 -55)"/><path class="cls-11" d="M411.94,356.07s-3-2.45.24-3.64,19.3-.86,19.46,15c0,0-18.67,3.1-21-2.95S411.94,356.07,411.94,356.07Z" transform="translate(0 -55)"/><polygon class="cls-4" points="384.9 362.15 413.88 362.15 417 330.43 381.77 330.43 384.9 362.15"/><polygon class="cls-12" points="384.9 362.15 413.88 362.15 417 330.43 381.77 330.43 384.9 362.15"/><rect class="cls-4" x="380.23" y="326.92" width="38.32" height="7"/><rect class="cls-13" x="380.23" y="326.92" width="38.32" height="7"/></g><g id="freepik--Device--inject-8"><path class="cls-4" d="M257,114.35v288a4.2,4.2,0,0,1-4.19,4.21H118.73a3.77,3.77,0,0,1-2.68-1.08,3.88,3.88,0,0,1-1.14-2.79V114a3.39,3.39,0,0,1,3.24-3.53h38a2.68,2.68,0,0,1,2.45,1.71l1.57,3.88a2.68,2.68,0,0,0,2.45,1.69h46.58a2.64,2.64,0,0,0,2.45-1.66l1.57-3.9a2.68,2.68,0,0,1,2.45-1.72h37.51A3.84,3.84,0,0,1,257,114.35Z" transform="translate(0 -55)"/><path class="cls-4" d="M263,114.35v288a4.2,4.2,0,0,1-4.19,4.21H124.73a3.77,3.77,0,0,1-2.68-1.08,3.88,3.88,0,0,1-1.14-2.79V114a3.39,3.39,0,0,1,3.25-3.53h38a2.68,2.68,0,0,1,2.45,1.71l1.57,3.88a2.68,2.68,0,0,0,2.45,1.69h46.58a2.64,2.64,0,0,0,2.45-1.66l1.57-3.9a2.68,2.68,0,0,1,2.45-1.72h37.51A3.84,3.84,0,0,1,263,114.35Z" transform="translate(0 -55)"/><path class="cls-14" d="M263,114.35v288a4.2,4.2,0,0,1-4.19,4.21H124.73a3.77,3.77,0,0,1-2.68-1.08,3.88,3.88,0,0,1-1.14-2.79V114a3.39,3.39,0,0,1,3.25-3.53h38a2.68,2.68,0,0,1,2.45,1.71l1.57,3.88a2.68,2.68,0,0,0,2.45,1.69h46.58a2.64,2.64,0,0,0,2.45-1.66l1.57-3.9a2.68,2.68,0,0,1,2.45-1.72h37.51A3.84,3.84,0,0,1,263,114.35Z" transform="translate(0 -55)"/><path class="cls-4" d="M235.8,219.77a43.88,43.88,0,0,1-34.89,43,44.36,44.36,0,0,1-18,0,43.89,43.89,0,1,1,52.87-43Z" transform="translate(0 -55)"/><rect class="cls-15" x="138.54" y="64.42" width="1.98" height="2.64"/><rect class="cls-15" x="135.31" y="63.55" width="1.98" height="3.52"/><rect class="cls-15" x="132.09" y="62.67" width="1.98" height="4.4"/><rect class="cls-15" x="128.85" y="61.79" width="1.98" height="5.28"/><rect class="cls-15" x="243.65" y="63.46" width="1.17" height="2.64"/><rect class="cls-15" x="245.64" y="62.49" width="9.35" height="4.57"/><path class="cls-16" d="M178.17,229.29a15.74,15.74,0,0,1,15.77-24.35" transform="translate(0 -55)"/><path class="cls-16" d="M199.67,207.18a15.45,15.45,0,0,1,4.53,4.4" transform="translate(0 -55)"/><circle class="cls-17" cx="191.17" cy="165.43" r="17.63"/><path class="cls-18" d="M208.87,208.4a21.4,21.4,0,1,0-7.82,31l2.3,3.38a3.71,3.71,0,0,0,.53,3l17.28,25.41a3.77,3.77,0,1,0,6.37-4,2.43,2.43,0,0,0-.14-.2l-17.28-25.4A3.73,3.73,0,0,0,207.5,240l-2.3-3.38A21.41,21.41,0,0,0,208.87,208.4Zm-32.26,21.95a17.63,17.63,0,1,1,24.5,4.65h0a17.64,17.64,0,0,1-24.49-4.65Z" transform="translate(0 -55)"/><rect class="cls-11" x="136.32" y="237.81" width="17.45" height="17.44" rx="2.45"/><path class="cls-11" d="M154.85,316.5H135.23a1,1,0,0,1-1-1h0a1,1,0,0,1,1-1h19.62a1,1,0,0,1,1,1h0A1,1,0,0,1,154.85,316.5Z" transform="translate(0 -55)"/><rect class="cls-11" x="167.57" y="237.81" width="17.44" height="17.44" rx="2.45"/><path class="cls-11" d="M186.1,316.5H166.49a1,1,0,0,1-1-1h0a1,1,0,0,1,1-1H186.1a1,1,0,0,1,1,1h0A1,1,0,0,1,186.1,316.5Z" transform="translate(0 -55)"/><rect class="cls-11" x="198.82" y="237.81" width="17.44" height="17.44" rx="2.45"/><path class="cls-11" d="M217.35,316.5H197.74a1,1,0,0,1-1-1h0a1,1,0,0,1,1-1h19.61a1,1,0,0,1,1,1h0A1,1,0,0,1,217.35,316.5Z" transform="translate(0 -55)"/><rect class="cls-11" x="230.08" y="237.81" width="17.44" height="17.44" rx="2.45"/><path class="cls-11" d="M248.61,316.5H229a1,1,0,0,1-1-1h0a1,1,0,0,1,1-1h19.62a1,1,0,0,1,1,1h0a1,1,0,0,1-1,1Z" transform="translate(0 -55)"/><rect class="cls-11" x="136.32" y="279.66" width="17.45" height="17.45" rx="2.45"/><path class="cls-11" d="M154.85,358.36H135.23a1,1,0,0,1-1-1h0a1,1,0,0,1,1-1h19.62a1,1,0,0,1,1,1h0A1,1,0,0,1,154.85,358.36Z" transform="translate(0 -55)"/><rect class="cls-11" x="167.57" y="279.66" width="17.44" height="17.45" rx="2.45"/><path class="cls-11" d="M186.1,358.36H166.49a1,1,0,0,1-1-1h0a1,1,0,0,1,1-1H186.1a1,1,0,0,1,1,1h0A1,1,0,0,1,186.1,358.36Z" transform="translate(0 -55)"/><rect class="cls-11" x="198.82" y="279.66" width="17.44" height="17.45" rx="2.45"/><path class="cls-11" d="M217.35,358.36H197.74a1,1,0,0,1-1-1h0a1,1,0,0,1,1-1h19.61a1,1,0,0,1,1,1h0A1,1,0,0,1,217.35,358.36Z" transform="translate(0 -55)"/><rect class="cls-11" x="230.08" y="279.66" width="17.44" height="17.45" rx="2.45"/><path class="cls-11" d="M248.61,358.36H229a1,1,0,0,1-1-1h0a1,1,0,0,1,1-1h19.62a1,1,0,0,1,1,1h0a1,1,0,0,1-1,1Z" transform="translate(0 -55)"/><rect class="cls-15" x="128.86" y="83.27" width="126.13" height="18.07" rx="2.72"/><g class="cls-19"><path d="M143.4,144.11l-1.87,5.52h-.61l-1.62-4.71-1.62,4.71h-.61l-1.86-5.52h.6l1.59,4.75,1.65-4.75h.54l1.63,4.77,1.62-4.77Z" transform="translate(0 -55)"/><path d="M152.17,144.11l-1.86,5.52h-.62l-1.62-4.71-1.62,4.71h-.61L144,144.11h.6l1.59,4.75,1.65-4.75h.55l1.62,4.77,1.62-4.77Z" transform="translate(0 -55)"/><path d="M160.94,144.11l-1.86,5.52h-.62l-1.61-4.71-1.63,4.71h-.61l-1.86-5.52h.6l1.59,4.75,1.65-4.75h.55l1.62,4.77,1.62-4.77Z" transform="translate(0 -55)"/><path d="M161.36,149.23a.43.43,0,0,1,.85,0h0a.44.44,0,0,1-.43.44.43.43,0,0,1-.42-.44Z" transform="translate(0 -55)"/><path d="M163.52,144.11h2.25a2.77,2.77,0,1,1,.47,5.52h-2.72Zm2.22,5a2.26,2.26,0,1,0,.3-4.51H164.1v4.51Z" transform="translate(0 -55)"/><path d="M169.55,146.87a2.9,2.9,0,1,1,3,2.81h-.08a2.78,2.78,0,0,1-2.91-2.65Zm5.22,0a2.32,2.32,0,1,0-2.35,2.29h0a2.24,2.24,0,0,0,2.31-2.17Z" transform="translate(0 -55)"/><path d="M182.4,144.11v5.52h-.56v-4.42l-2.17,3.72h-.27l-2.17-3.7v4.4h-.56v-5.52h.48l2.4,4.09,2.37-4.09Z" transform="translate(0 -55)"/><path d="M187.67,148.15h-3.08l-.66,1.48h-.61l2.53-5.52h.57l2.53,5.52h-.62Zm-.21-.47-1.33-3-1.32,3Z" transform="translate(0 -55)"/><path d="M189.87,144.11h.58v5.52h-.58Z" transform="translate(0 -55)"/><path d="M196.87,144.11v5.52h-.49l-3.55-4.48v4.48h-.58v-5.52h.48l3.56,4.48v-4.48Z" transform="translate(0 -55)"/><path d="M203.28,144.11v5.52h-.48l-3.55-4.48v4.48h-.58v-5.52h.48l3.56,4.48v-4.48Z" transform="translate(0 -55)"/><path d="M208.55,148.15h-3.07l-.67,1.48h-.6l2.52-5.52h.58l2.52,5.52h-.62Zm-.21-.47-1.33-3-1.32,3Z" transform="translate(0 -55)"/><path d="M216.48,144.11v5.52h-.56v-4.42l-2.17,3.72h-.27l-2.17-3.7v4.4h-.56v-5.52h.48l2.4,4.09,2.37-4.09Z" transform="translate(0 -55)"/><path d="M222.19,149.12v.51h-3.9v-5.52h3.79v.5h-3.21v2h2.86v.49h-2.86v2.05Z" transform="translate(0 -55)"/><path d="M223,149l.23-.45a2.77,2.77,0,0,0,1.82.67c1,0,1.49-.43,1.49-1,0-1.51-3.4-.58-3.4-2.63,0-.81.63-1.51,2-1.51a3,3,0,0,1,1.71.49l-.19.46a2.93,2.93,0,0,0-1.52-.45c-1,0-1.46.45-1.46,1,0,1.51,3.4.6,3.4,2.61,0,.81-.64,1.51-2.06,1.51A3,3,0,0,1,223,149Z" transform="translate(0 -55)"/><path d="M228.1,149.23a.43.43,0,0,1,.85,0h0a.44.44,0,0,1-.43.44.43.43,0,0,1-.42-.44Z" transform="translate(0 -55)"/><path d="M229.61,146.87a2.77,2.77,0,0,1,2.73-2.81h.17a2.72,2.72,0,0,1,2,.8l-.37.37a2.23,2.23,0,0,0-1.64-.65,2.29,2.29,0,0,0,0,4.58,2.16,2.16,0,0,0,1.64-.67l.37.37a2.69,2.69,0,0,1-2,.82,2.78,2.78,0,0,1-2.9-2.66Z" transform="translate(0 -55)"/><path d="M235.17,146.87a2.9,2.9,0,1,1,3,2.81h-.09a2.78,2.78,0,0,1-2.9-2.66Zm5.21,0a2.32,2.32,0,1,0-2.35,2.29h0a2.24,2.24,0,0,0,2.31-2.15Z" transform="translate(0 -55)"/><path d="M248,144.11v5.52h-.56v-4.42l-2.17,3.72H245l-2.17-3.7v4.4h-.56v-5.52h.48l2.4,4.09,2.38-4.09Z" transform="translate(0 -55)"/></g><g class="cls-20"><path class="cls-18" d="M184.8,117.75,143.89,271h0l-.46,1.72h0l-.73,2.76h0l-.47,1.72-21.36,80V260.39l40-149.92h1.31a2.68,2.68,0,0,1,2.45,1.71l1.57,3.88a2.68,2.68,0,0,0,2.45,1.69Z" transform="translate(0 -55)"/><polygon class="cls-18" points="262.97 141.01 262.97 237.84 237.46 333.42 236.84 335.74 232.63 351.51 206.78 351.51 210.99 335.75 211.66 333.21 215.04 320.55 215.71 318.02 217.07 312.96 217.74 310.42 219.09 305.36 219.77 302.83 241.03 223.17 241.03 223.16 242.02 219.48 242.02 219.47 262.97 141.01"/><path class="cls-18" d="M198.81,117.75,158.15,270l-.24.91-2.23,8.34-.24.91L122,405.43a3.88,3.88,0,0,1-1.14-2.79V387.91l28.76-107.72.24-.91,2.23-8.34.24-.91L193,117.75Z" transform="translate(0 -55)"/></g></g><g id="freepik--Globe--inject-8"><rect class="cls-21" x="90.17" y="333.62" width="8.94" height="26.01"/><g class="cls-22"><rect class="cls-18" x="90.17" y="333.62" width="8.94" height="26.01"/></g><path class="cls-21" d="M62.62,378.75a1.26,1.26,0,0,0,.9-.37l64.24-64.24a1.28,1.28,0,0,0-1.81-1.8L61.72,376.58a1.27,1.27,0,0,0,.9,2.17Z" transform="translate(0 -55)"/><path class="cls-21" d="M94.74,390.76a45.42,45.42,0,0,0,32.11-77.52l-3.61,3.61A40.32,40.32,0,0,1,67.79,375.4c-.53-.5-1.05-1-1.55-1.55l-3.61,3.61A45.29,45.29,0,0,0,94.74,390.76Z" transform="translate(0 -55)"/><polygon class="cls-21" points="68.01 361.07 68.01 362.15 121.03 362.15 121.03 361.07 104.39 353.88 84.65 353.88 68.01 361.07"/><g class="cls-22"><path class="cls-18" d="M62.62,378.75a1.26,1.26,0,0,0,.9-.37l64.24-64.24a1.28,1.28,0,0,0-1.81-1.8L61.72,376.58a1.27,1.27,0,0,0,.9,2.17Z" transform="translate(0 -55)"/></g><circle class="cls-4" cx="94.74" cy="290.36" r="38.96"/><circle class="cls-13" cx="94.74" cy="290.36" r="38.96"/><path class="cls-12" d="M55.88,348.07c4.84-2.34,7.19-4.24,6.74-1.61a28.88,28.88,0,0,0,.05,6.89s.81,1.52,3.17.85,2.18-1,3.19-1,7.58.16,5.55,2.69-1.17,3.7-3,4.21-2.53,3-2.7,3.54a12.91,12.91,0,0,1-2,2.18l-4.21,1.64a39.38,39.38,0,0,0,7.55,8.18,8.37,8.37,0,0,1,3.72-1.23c2.18,0,2.51,1.18,3.59,1.62s1,0,1,0,1,1.24,2.11.68,5,.05,5.63.05,3.7-1.34,5.07-.37,1.67.72,1.83,1.89c.13.91.07,2.74-1.72,5.9a38.45,38.45,0,0,0,12.19-.87c-1.63-1-.87-7.23-2.19-9.92s-1.37-3.36-.87-4.54,1.52,0,2.36,0A3.08,3.08,0,0,0,105.4,366a20.53,20.53,0,0,1,.83-3.87s1.52-2.86,2.19-2.86,2.7.17,3.37-.17.67-.84,1-1.72.5-4.85-.34-4.67a5.86,5.86,0,0,1-2.52-.69,20.45,20.45,0,0,0-3-.61c-.49,0-.67-1.57-.67-1.57s3.2-1.85,3.2-2.53-1.17-.83-1.34-2.86,1.51-2,3.36-1.66,0,.82,0,2.41.16,1.45,2.19,0,1.51.09,2,0a19,19,0,0,1,3,.51s-.17,4.13,0,8.34,6.39.17,8.24-1.34c.9-.73,3.49-.37,5.89.85a38.84,38.84,0,0,0-6.1-30.42.38.38,0,0,1-.45.08c-.74-.32-3,.36-3.54-.14s-2.69.5-3.78,0a4.07,4.07,0,0,1-2-3.61,22.85,22.85,0,0,0-1.77-6.21c-.27-.71-.32-1-.14-1.14A39,39,0,0,0,83.58,308c1.44,2.44,2.54,5.24,1,6.45-3,2.36-1.31,4.38.73,6.23s.65,3.53,0,4.21-1.81,2.35-.73,3.19S88.13,330,86.4,331s-.7,3.54-3.57,1.36-1.85-4.22-4-4.22-2.52,2.53-5.38,3.37-3,.68-3.87.33-.84-2.51-2.69-4.37a2.6,2.6,0,0,0-3.67-.2,2.41,2.41,0,0,0-.56.71c-.32.84-.85,4.76,0,5.24s-.15,3.17-1.84,3.68-3.34-2.16-4-.42a2.17,2.17,0,0,0-.11.42.61.61,0,0,1,0,.19A38.58,38.58,0,0,0,55.88,348.07ZM96,367c-2.69.67,0,0-2.81-3.2s1.59-1,1.59-1A40.52,40.52,0,0,0,96,358.07c.35-2,2.86,0,4.25,0s2.81,2,1.16,4.71c0,0,.14,1.69-1.16,1.35S98.66,366.32,96,367Zm-1.22,4.55c.79-.51,2.74.67,2.42,2.86l-2.53.67a13.15,13.15,0,0,1-2.43-2.16c-.77-1,1.7-.92,2.5-1.38Zm-20.66-30c0-1.68.5-2.93,1.85-3.24,2.18-.5,2.7,1.56,4.64,1.73s1.09,5.3,1.09,5.3.68,2.61-2.77,1.77-5.31-.19-5.65-1.44.8-2.41.8-4.1Z" transform="translate(0 -55)"/></g><g id="freepik--Character--inject-8"><path class="cls-21" d="M327.52,172.29a44.75,44.75,0,0,0,3.29-19.2c-.39-11.47,8.05-15.69,18.6-13.58s16.63,7.66,14.24,34.38A61.52,61.52,0,0,1,327.52,172.29Z" transform="translate(0 -55)"/><path class="cls-4" d="M336.47,174.77s12.63-4.54,21,.47c0,0-8.1,10.86-13.2,10.37S336.47,174.77,336.47,174.77Z" transform="translate(0 -55)"/><path class="cls-14" d="M336.47,174.77s12.63-4.54,21,.47c0,0-8.1,10.86-13.2,10.37S336.47,174.77,336.47,174.77Z" transform="translate(0 -55)"/><path class="cls-23" d="M267.12,159l-5.87-4s-1.1-3.12-3.1-4.29a34.54,34.54,0,0,0-8.52-2.83c-1.33-.11-.22,9.31,0,10s7.86,1.91,9,1.59l5.86,5.32Z" transform="translate(0 -55)"/><path class="cls-4" d="M325.56,179.14S298.64,177,295,175.37s-31.2-19.49-31.2-19.49L262.13,167s21.74,18.45,29.39,21.35,34,9.51,34,9.51Z" transform="translate(0 -55)"/><path class="cls-15" d="M325.56,179.14S298.64,177,295,175.37s-31.2-19.49-31.2-19.49L262.13,167s21.74,18.45,29.39,21.35,34,9.51,34,9.51Z" transform="translate(0 -55)"/><path class="cls-23" d="M365,394.39l-4.82,2.84a93.88,93.88,0,0,0-7.35-8.7h0c-1.39-1.48-2.87-3.12-4.39-4.88-3.07-3.51-6.38-7.52-9.85-11.83l-3.11-3.89c-12.09-15.21-25.16-33.09-30-45.18-1.53-3.76-2.26-6.95-1.94-9.34,1-7.22,3.8-18.09,7-28.59,4.88-16.05,10.37-31.26,10.37-31.26l13.49,22.85s-4.14,9.87-7.91,20.38c-3.71,10.32-7.06,21.27-5.82,24.12l.44,1c2.24,4.64,8.44,15.15,15.48,26.76.71,1.17,1.44,2.35,2.15,3.53,3.79,6.2,7.72,12.57,11.35,18.42,1.42,2.3,2.8,4.52,4.12,6.62C360.41,387.16,365,394.39,365,394.39Z" transform="translate(0 -55)"/><path class="cls-11" d="M335.25,367.92c6.38,8,12.51,15.3,17.07,20.6.65-3.26,1.31-7.12,1.83-11.33-5.27-8.46-11.72-18.9-17.58-28.57A111.31,111.31,0,0,1,335.25,367.92Z" transform="translate(0 -55)"/><path class="cls-23" d="M359.32,301.8c-1.67,11.39-4.05,21.71-5.59,27.86-.94,3.69-1.57,5.87-1.57,5.87a307.78,307.78,0,0,1-2.06,35c-.51,4.58-1.06,9-1.62,13.07-2.11,15.14-4.32,26-4.32,26l-5.75-.75.22-37.09.12-19.66.16-26.75.07-4.66.27-20.34.41-30,20-9C362.34,272.8,361.34,288.08,359.32,301.8Z" transform="translate(0 -55)"/><path class="cls-11" d="M334.41,276.4s-3.87,9.23-7.54,19.34a97.13,97.13,0,0,1-17-8.81c.21-.71.42-1.41.64-2.12,4.88-16.05,10.37-31.26,10.37-31.26Z" transform="translate(0 -55)"/><path class="cls-11" d="M359.42,301.09a73.33,73.33,0,0,1-20.09-6.22l.33-24.47,20-9C362.29,272.6,361.37,287.56,359.42,301.09Z" transform="translate(0 -55)"/><path class="cls-21" d="M364.6,391.24c-.59-.43-5.57,7-5.57,7S360.14,406,357.9,411s2.11,4.59,5.74-.16l9-11.75C375.2,395.77,370.71,395.68,364.6,391.24Z" transform="translate(0 -55)"/><path class="cls-4" d="M357.18,403.92a.92.92,0,0,1-.72-.43,1,1,0,0,1-.2-.74,3.66,3.66,0,0,1,1.05-1.73c-.75.34-1.51.56-1.9.3s-.34-.49-.25-.93a1.4,1.4,0,0,1,.68-.94c1.14-.65,3.24,0,3.35,0l.08.05h0l.05.06h0v.07h0v.1c-.14.64-.87,3.87-2,4.13Zm1.55-3.59c-.79.66-1.9,1.74-2,2.48a.46.46,0,0,0,.1.39c.22.29.36.25.41.24.53-.12,1.13-1.73,1.49-3.11Zm-1.57-.7a2.13,2.13,0,0,0-1.08.23.89.89,0,0,0-.45.63c0,.13-.06.37,0,.44.34.22,1.66-.37,2.87-1.12a6.75,6.75,0,0,0-1.34-.18Z" transform="translate(0 -55)"/><path class="cls-21" d="M346.2,406c0-.72-9-.15-9-.15s-5.5,5.6-10.85,6.86-2.36,4.46,3.62,4.46h14.78C349,417.15,346.38,413.54,346.2,406Z" transform="translate(0 -55)"/><path class="cls-4" d="M332.52,408.12a1.23,1.23,0,0,1-.79-.22.85.85,0,0,1-.21-.95.92.92,0,0,1,.48-.61,3.7,3.7,0,0,1,2-.22c-.73-.39-1.36-.86-1.39-1.33a.84.84,0,0,1,.59-.75,1.38,1.38,0,0,1,1.16,0c1.2.5,2,2.57,2,2.68a.17.17,0,0,1,0,.1h0v.07h0V407h0l-.08.05A11,11,0,0,1,332.52,408.12Zm.77-1.56a2.27,2.27,0,0,0-1.06.19.53.53,0,0,0-.26.31c-.08.36,0,.45.06.48.43.35,2.06-.15,3.38-.71a10.89,10.89,0,0,0-2.12-.27Zm.52-2.19a.86.86,0,0,0-.41.1c-.12,0-.33.17-.32.3,0,.4,1.3,1.09,2.63,1.6a3.9,3.9,0,0,0-1.54-1.93.89.89,0,0,0-.36-.07Z" transform="translate(0 -55)"/><path class="cls-21" d="M368.75,292.42c-41.16.07-59.83-10.87-59.83-10.87,7.14-18.69,12.45-32.57,12.45-32.57l3.5-16.48,32,2.47C363.88,248.21,367.19,272.89,368.75,292.42Z" transform="translate(0 -55)"/><polygon class="cls-4" points="263.35 100.14 260.77 111.87 262.58 113.31 266.24 100.63 263.35 100.14"/><path class="cls-4" d="M324.74,179.08s-3.36,7.43-3.36,25.3V235l-5.73,23.68,52.7,6.33s-2.37-16.88-8.64-31.09l7.19-50.65S345.1,174.67,324.74,179.08Z" transform="translate(0 -55)"/><path class="cls-4" d="M367,183.56c3.24,2,6,28.55,6,28.55l8.86-3.89s-.51,19.87-8.49,25.09-12.22-20.22-12.22-20.22a60.14,60.14,0,0,1,.53-15.28C363.47,187.7,367,183.56,367,183.56Z" transform="translate(0 -55)"/><g class="cls-19"><path class="cls-18" d="M367,183.56c3.24,2,6,28.55,6,28.55l8.86-3.89s-.51,19.87-8.49,25.09-12.22-20.22-12.22-20.22a60.14,60.14,0,0,1,.53-15.28C363.47,187.7,367,183.56,367,183.56Z" transform="translate(0 -55)"/></g><path class="cls-11" d="M373,212.11l-1.52,1L369,222.76s-3-8.72,3.74-12Z" transform="translate(0 -55)"/><path class="cls-23" d="M341.7,185.61c7.95-1,10.34-4.42,10.34-4.42-3.25-3.06-2.66-7.58-1.83-10.4a16.41,16.41,0,0,1,1-2.6L341.62,170a28.19,28.19,0,0,1,.37,4,12.06,12.06,0,0,1-.27,3c-.65,2.86-2.28,2.9-2.28,2.9C337.76,183,341.7,185.61,341.7,185.61Z" transform="translate(0 -55)"/><path class="cls-11" d="M342,174a12.06,12.06,0,0,1-.27,3c3.8-.5,6.68-3.54,8.49-6.18a16.41,16.41,0,0,1,1-2.6l-9.6,1.78A28.21,28.21,0,0,1,342,174Z" transform="translate(0 -55)"/><path class="cls-23" d="M343.88,144.44c-8.33-.12-11.07,4.3-11.8,12.87-.91,10.71,1.36,18.37,11.8,16.22C358.06,170.62,357.71,144.63,343.88,144.44Z" transform="translate(0 -55)"/><path class="cls-24" d="M337.47,156.92a18,18,0,0,1-2.47,3.42,2.27,2.27,0,0,0,2.18,1Z" transform="translate(0 -55)"/><path class="cls-21" d="M342.57,156.31c0,.69.33,1.26.78,1.27s.85-.52.88-1.2-.33-1.26-.78-1.27S342.6,155.63,342.57,156.31Z" transform="translate(0 -55)"/><path class="cls-21" d="M343.64,155.15l-1.47-.64S342.86,155.79,343.64,155.15Z" transform="translate(0 -55)"/><path class="cls-21" d="M334.08,155.85c0,.69.32,1.25.78,1.27s.84-.52.87-1.21-.32-1.25-.78-1.26S334.11,155.17,334.08,155.85Z" transform="translate(0 -55)"/><path class="cls-21" d="M335.14,154.69l-1.46-.64S334.37,155.33,335.14,154.69Z" transform="translate(0 -55)"/><path class="cls-25" d="M342.74,150.56a4.34,4.34,0,0,1,3.59,1.31" transform="translate(0 -55)"/><path class="cls-25" d="M336.69,150.13a3.88,3.88,0,0,0-3.33.64" transform="translate(0 -55)"/><path class="cls-21" d="M352.78,158.6s-3.79-6.9-3.13-12.17c0,0-16.41-7-17.46,9.76,0,0-1.4-14.89,12.92-15s14,20.81,6.48,26.94C351.59,168.11,355.13,162.91,352.78,158.6Z" transform="translate(0 -55)"/><path class="cls-23" d="M351.4,160.34a3.64,3.64,0,0,1,4-3.28h0c2.57.31,3.73,5.63-2.71,6.81C351.75,164,351.24,163.13,351.4,160.34Z" transform="translate(0 -55)"/><path class="cls-25" d="M338.23,165.84s3.48.85,5-2.25" transform="translate(0 -55)"/><path class="cls-21" d="M351.19,139.91s-18.14-4.81-21.83,12a21.46,21.46,0,0,1,5.82-1.2A16.51,16.51,0,0,1,339,145.9a16.38,16.38,0,0,0-2.93,4.72,25.2,25.2,0,0,1,5.06.28,17.71,17.71,0,0,1,1.75-4.55,28.11,28.11,0,0,0-.71,4.74,24.57,24.57,0,0,1,5.15,1.66,20.61,20.61,0,0,1-.39-5.37,12.48,12.48,0,0,0,1.29,5.79c.54.27,1.08.56,1.63.88,0,0-2-5.8,1.32-8.94S351.19,139.91,351.19,139.91Z" transform="translate(0 -55)"/><path class="cls-21" d="M364.36,198.93a.81.81,0,0,0,.18,1.13.41.41,0,0,0,.11.07l8,4.39a1.06,1.06,0,0,0,1.35-.31l10.45-14.84a.92.92,0,0,0-.17-1.28l0,0-8-4.39a1.16,1.16,0,0,0-1.4.42Z" transform="translate(0 -55)"/><path class="cls-12" d="M375.76,184.47l-10.56,15a.71.71,0,0,0,0,1,.57.57,0,0,0,.18.12l6.8,3.72c.45.25,1.43.45,1.72,0l10.59-15c.3-.42-.28-1.21-.74-1.45L377,184.09A1,1,0,0,0,375.76,184.47Z" transform="translate(0 -55)"/><path class="cls-23" d="M380.44,209.44l-.3-9.38s2.05-3.72,2.17-4.79-2.9-5.3-3.86-5.45-5.27,7-5.07,8.4,2.15,3.88,2.15,3.88l-.94,1.29-1.6,8.72Z" transform="translate(0 -55)"/><polygon class="cls-4" points="382.56 154.56 381.93 152.41 371.31 156.19 370.65 159.63 382.56 154.56"/><path class="cls-14" d="M340.72,187.24s-4,16-1.7,43.32l-2.33,20h1.72l2.31-19.78s-2.69-27.1,1.45-43.52Z" transform="translate(0 -55)"/><path class="cls-4" d="M336.47,174.77s5.07,3.5,7.95,4,13-3.56,13-3.56l-1.3,6.07.55,2.25s-9,6.06-15.06,5.26-6-7.91-6-7.91l1.07-1.12Z" transform="translate(0 -55)"/><path class="cls-15" d="M336.47,174.77s5.07,3.5,7.95,4,13-3.56,13-3.56l-1.3,6.07.55,2.25s-9,6.06-15.06,5.26-6-7.91-6-7.91l1.07-1.12Z" transform="translate(0 -55)"/></g></svg>