<svg xmlns="http://www.w3.org/2000/svg" viewBox="0 0 500 500"><!--Segment--><g id="freepik--background-simple--inject-1--inject-40"><path d="M418.24,217.31c-5.56-13.3-17.53-24.9-26.49-35.82-23.21-28.29-20.52-75-51.38-96.5-24.24-16.9-58.58-22.71-86.8-13.4C218.92,83,207.33,125.9,172,136.8c-51.89,16-89.62,32-102.6,66s31.84,47,22.41,77-27.12,35-14.15,64,79,56,196.93,43c24.34-2.68,49.39-7.36,72.38-15.95,25.12-9.4,57.16-28.08,61.76-57.23,1.93-12.25-3.68-24-3-36.24C406.83,254.75,428.3,241.38,418.24,217.31Z" style="fill:#92E3A9"></path><path d="M418.24,217.31c-5.56-13.3-17.53-24.9-26.49-35.82-23.21-28.29-20.52-75-51.38-96.5-24.24-16.9-58.58-22.71-86.8-13.4C218.92,83,207.33,125.9,172,136.8c-51.89,16-89.62,32-102.6,66s31.84,47,22.41,77-27.12,35-14.15,64,79,56,196.93,43c24.34-2.68,49.39-7.36,72.38-15.95,25.12-9.4,57.16-28.08,61.76-57.23,1.93-12.25-3.68-24-3-36.24C406.83,254.75,428.3,241.38,418.24,217.31Z" style="fill:#fff;opacity:0.7000000000000001"></path></g><g id="freepik--Plants--inject-1--inject-40"><path d="M208.58,148.23c-5.07-5.65-12.26,6.83-20.2,21.85-4.36,8.24-14,15.8-18.21,26-4.1,10-2.61,22.24-5.89,31.28-4.84,13.34-8.82,13.59-12.66,20.62a27.55,27.55,0,0,1-2.91-13c.34-6.06,10.18-12.72,10.4-20.4.19-6.57-9.23-13.76-9.19-21,0-6.83,9.56-13.9,9.43-20.88s-9.89-13.72-10.23-20.49c-.37-7.28,8.65-15,8-21.48-.8-7.79-11.23-13.27-12.52-19.05-2.39-10.63-1.69-22.86-6.2-22.24-4.26.58-1.81,13.54-3.75,25.08-1.07,6.38-11.31,12.93-11.85,21.35-.44,7.06,8.82,15.07,8.66,23-.14,7.36-9.72,14.91-9.66,22.53s9.74,15,9.93,22.42c.2,7.84-9.08,15.77-8.8,22.88.15,3.63,2.11,7.05,4.3,10.29-2.74-3.43-6.27-6.91-7.65-11.13-2-6.06,1.1-14.29-1.41-20.14-2.71-6.33-10.73-9.51-14-14.37-4.35-6.49-6.14-15.48-11.33-16.69-8-1.86-6.8,8.08-3.69,20.34,1.64,6.5-1,16.05,2.45,24.23,3,7,11.6,12,15.25,19.14s2.63,17.18,6.47,23.6c3.19,5.34,8.43,8.73,12.71,11.84l.25.67a1.31,1.31,0,0,0,1.1.33,23,23,0,0,1,3.92,3.58c2.17,2.68-.25,8.51,1.15,9.79,3.81,3.51,4,.34,3.78-3-.13-1.92,4.32-5.42,4.06-8.28.32-.44.6-.76.84-.83,1.5-.47,8.4,4.75,9.33,2.8.69-1.44-7.67-6.46-7.17-8.36.34-1.3,6.2-1.39,9-2.2a1,1,0,0,1,.22.19c.81,1,1.23,5.65,3.56,4.58,3.13-1.45,7.38-16.42,16.21-31.18,5.32-8.89,16-16.45,21.17-26.93s4.63-23.55,7.95-33.25C206.54,166.8,213.23,153.41,208.58,148.23ZM133.52,248.84c.38,7.09-2,10-4.34,12.75-1.42-7.92,4.12-8.46,1.37-18.8a11.43,11.43,0,0,0-1.11-2.59C131.54,243.22,133.38,246.09,133.52,248.84Zm3.53,23.72a1.86,1.86,0,0,1,.25,1.45c-.87-.44-1.8-.85-2.63-1.28C135.84,272.38,136.75,272.23,137.05,272.56Z" style="fill:#92E3A9"></path><path d="M208.58,148.23c-5.07-5.65-12.26,6.83-20.2,21.85-4.36,8.24-14,15.8-18.21,26-4.1,10-2.61,22.24-5.89,31.28-4.84,13.34-8.82,13.59-12.66,20.62a27.55,27.55,0,0,1-2.91-13c.34-6.06,10.18-12.72,10.4-20.4.19-6.57-9.23-13.76-9.19-21,0-6.83,9.56-13.9,9.43-20.88s-9.89-13.72-10.23-20.49c-.37-7.28,8.65-15,8-21.48-.8-7.79-11.23-13.27-12.52-19.05-2.39-10.63-1.69-22.86-6.2-22.24-4.26.58-1.81,13.54-3.75,25.08-1.07,6.38-11.31,12.93-11.85,21.35-.44,7.06,8.82,15.07,8.66,23-.14,7.36-9.72,14.91-9.66,22.53s9.74,15,9.93,22.42c.2,7.84-9.08,15.77-8.8,22.88.15,3.63,2.11,7.05,4.3,10.29-2.74-3.43-6.27-6.91-7.65-11.13-2-6.06,1.1-14.29-1.41-20.14-2.71-6.33-10.73-9.51-14-14.37-4.35-6.49-6.14-15.48-11.33-16.69-8-1.86-6.8,8.08-3.69,20.34,1.64,6.5-1,16.05,2.45,24.23,3,7,11.6,12,15.25,19.14s2.63,17.18,6.47,23.6c3.19,5.34,8.43,8.73,12.71,11.84l.25.67a1.31,1.31,0,0,0,1.1.33,23,23,0,0,1,3.92,3.58c2.17,2.68-.25,8.51,1.15,9.79,3.81,3.51,4,.34,3.78-3-.13-1.92,4.32-5.42,4.06-8.28.32-.44.6-.76.84-.83,1.5-.47,8.4,4.75,9.33,2.8.69-1.44-7.67-6.46-7.17-8.36.34-1.3,6.2-1.39,9-2.2a1,1,0,0,1,.22.19c.81,1,1.23,5.65,3.56,4.58,3.13-1.45,7.38-16.42,16.21-31.18,5.32-8.89,16-16.45,21.17-26.93s4.63-23.55,7.95-33.25C206.54,166.8,213.23,153.41,208.58,148.23ZM133.52,248.84c.38,7.09-2,10-4.34,12.75-1.42-7.92,4.12-8.46,1.37-18.8a11.43,11.43,0,0,0-1.11-2.59C131.54,243.22,133.38,246.09,133.52,248.84Zm3.53,23.72a1.86,1.86,0,0,1,.25,1.45c-.87-.44-1.8-.85-2.63-1.28C135.84,272.38,136.75,272.23,137.05,272.56Z" style="fill:#fff;opacity:0.5"></path><g style="opacity:0.2"><polygon points="147.25 240.11 146.35 239.78 143.66 249.02 143.76 227.64 148.66 213.28 147.75 212.98 143.78 224.63 143.88 204.74 151.74 190.94 150.9 190.47 143.89 202.79 144 181 151.28 169.39 150.47 168.88 144.01 179.19 144.1 160.71 148.73 150.61 147.87 150.21 144.11 158.43 144.21 137.88 150.28 124.91 149.42 124.51 144.23 135.6 144.32 116.16 143.37 116.15 143.27 135.39 132.98 120.84 132.2 121.39 143.26 137.03 143.15 159.64 132.9 149.8 132.23 150.49 143.14 160.96 143.05 179.93 133.12 172.14 132.53 172.89 143.04 181.14 142.93 203.17 132.71 192.28 132.01 192.93 142.93 204.56 142.81 227.47 142.74 227.69 132.8 213.81 132.02 214.36 142.8 229.43 142.69 251.49 134.48 235.71 133.63 236.15 142.68 253.53 142.54 280.5 143.5 280.51 143.64 251.76 147.25 240.11"></polygon><polygon points="198.3 187.29 197.88 186.44 187.97 191.42 192.95 180.73 204.09 173.45 203.57 172.65 193.72 179.09 201.98 161.36 201.12 160.96 193.77 176.71 195.64 159.72 194.69 159.62 192.52 179.41 187.19 190.83 187.81 173.44 186.85 173.4 186.16 193.05 180.11 206.02 178.39 193.89 177.45 194.02 179.37 207.6 172.45 222.45 171.86 207.56 170.9 207.6 171.57 224.34 163.85 240.89 163.03 234.88 162.08 234.98 163.07 242.56 150.67 269.16 151.54 269.56 163.27 244.39 163.32 244.83 174.39 239.39 173.97 238.53 164.12 243.37 164.05 242.72 172.32 224.98 182.9 220.77 182.55 219.88 172.91 223.72 180.38 207.7 192.47 201.5 192.04 200.66 181.03 206.29 187.32 192.82 198.3 187.29"></polygon><polygon points="126.46 247.13 125.51 247.07 124.85 256.61 119.91 246.42 122.36 234.03 121.42 233.85 119.22 245 112.53 231.21 114.32 216.13 113.37 216.02 111.76 229.61 106.2 218.15 106.76 218.33 107.56 203.58 106.61 203.53 105.87 217.04 105.63 216.96 99.37 204.06 100.58 190.19 99.63 190.1 98.56 202.39 91.96 188.78 91.1 189.2 98.11 203.66 90.44 199.63 90 200.47 98.82 205.11 104.37 216.56 97.07 214.2 96.78 215.11 104.94 217.75 110.7 229.62 102.08 225.48 101.67 226.34 111.37 231 118.24 245.16 110.54 243.01 110.29 243.93 118.79 246.31 124.72 258.53 124.67 259.23 117.28 255.95 116.89 256.83 125.53 260.65 125.56 260.26 136.88 283.61 137.74 283.2 125.69 258.34 126.46 247.13"></polygon></g><path d="M134.18,282.61s.84-2.85-5.06-5.63a71.83,71.83,0,0,0-7.34-3.2s1.4,4,4.45,6,4.34,2.83,4.34,2.83a18.64,18.64,0,0,0-7.9-1.29,13.21,13.21,0,0,0-7,2.59,65.38,65.38,0,0,0,8,2.86,30.66,30.66,0,0,0,10.08.91s-7.7-.2-9.21,1.42a38.57,38.57,0,0,0-3.73,5.62,54,54,0,0,1,9.54-.8c4.09.17,9.49-2.38,9.49-2.38l4.62,1.88,1.93-3.05s1.1-.19,4.76,1.41a75.16,75.16,0,0,0,10.47,3.08l-6.88-8.23,6.94,1c3.47.51,9.07-.94,9.07-.94s-.53-1.71-4.34-2.83-11.08-2.75-11.08-2.75,6,.73,10-2.24a35.87,35.87,0,0,0,6.52-6.34s-5.67-2.84-11-1.19a30.93,30.93,0,0,0-10,5.84,17.42,17.42,0,0,0,4.62-6.91,36.56,36.56,0,0,0,1.35-6.32s-6.5,2.74-8.15,4.84-4.43,8-4.43,8,2.78-5.91-.47-8.93-6-5.37-6-5.37-2.74,4.22-3.31,7.48,3.55,8.6,3.55,8.6L134.29,277Z" style="fill:#92E3A9"></path><path d="M134.18,282.61s.84-2.85-5.06-5.63a71.83,71.83,0,0,0-7.34-3.2s1.4,4,4.45,6,4.34,2.83,4.34,2.83a18.64,18.64,0,0,0-7.9-1.29,13.21,13.21,0,0,0-7,2.59,65.38,65.38,0,0,0,8,2.86,30.66,30.66,0,0,0,10.08.91s-7.7-.2-9.21,1.42a38.57,38.57,0,0,0-3.73,5.62,54,54,0,0,1,9.54-.8c4.09.17,9.49-2.38,9.49-2.38l4.62,1.88,1.93-3.05s1.1-.19,4.76,1.41a75.16,75.16,0,0,0,10.47,3.08l-6.88-8.23,6.94,1c3.47.51,9.07-.94,9.07-.94s-.53-1.71-4.34-2.83-11.08-2.75-11.08-2.75,6,.73,10-2.24a35.87,35.87,0,0,0,6.52-6.34s-5.67-2.84-11-1.19a30.93,30.93,0,0,0-10,5.84,17.42,17.42,0,0,0,4.62-6.91,36.56,36.56,0,0,0,1.35-6.32s-6.5,2.74-8.15,4.84-4.43,8-4.43,8,2.78-5.91-.47-8.93-6-5.37-6-5.37-2.74,4.22-3.31,7.48,3.55,8.6,3.55,8.6L134.29,277Z" style="fill:#fff;opacity:0.30000000000000004"></path><path d="M414.74,272.81c-.13-.89-.17-1.78-.26-2.67s-.12-1.79-.15-2.68a57.26,57.26,0,0,1,.58-10.71,40.35,40.35,0,0,1,2.86-10.29,40.37,40.37,0,0,0-2.64,10.32,57.58,57.58,0,0,0-.36,10.66c.31,7.09,2.36,13.93,3.45,21a27.08,27.08,0,0,1,1.16-3.37c.78-1.73,1.94-3.1,3.81-2.57,2.3.66,2.83,3.7.22,5.33a10.93,10.93,0,0,1-5.06,1.57c.22,1.49.41,3,.55,4.48.09,1.11.16,2.22.2,3.33a18.48,18.48,0,0,1,.78-2.11c.79-1.73,1.94-3.1,3.81-2.57,2.3.66,2.84,3.69.22,5.33a11,11,0,0,1-4.77,1.55,51.17,51.17,0,0,1-1,9.71,18.46,18.46,0,0,1,1.35-2c1.19-1.49,2.64-2.54,4.32-1.57,2.08,1.19,1.86,4.27-1.07,5.22a10.85,10.85,0,0,1-5.05.34,52.74,52.74,0,0,1-3.43,9.7,17.85,17.85,0,0,1,1.57-1.28c1.56-1.09,3.24-1.69,4.59-.28,1.65,1.74.57,4.62-2.51,4.71a11,11,0,0,1-4.71-1,65.76,65.76,0,0,1-4,6.76l-.71,1a2,2,0,0,1,0,.35c.32-.19.64-.37,1-.53,1.7-.84,3.46-1.17,4.57.43,1.37,2-.14,4.65-3.2,4.27a10.92,10.92,0,0,1-4.32-1.6l-.21.08c-1.19,1.55-2.44,3-3.74,4.52-1,1.09-2,2.15-3,3.2,1.43,1.46.86,4.05-1.86,4.76a10.4,10.4,0,0,1-3.46.27q-3.12,2.72-6.42,5.2a2.23,2.23,0,0,1,1.89,1.2,2.92,2.92,0,0,1-.43,3.34,2.54,2.54,0,0,1-.77,1.72c1.68-.32,3.36-.7,5-1.12a12,12,0,0,1,.41-5c1-3.11,3.95-3.63,5.09-1.61.93,1.64-.11,3.24-1.57,4.6a19.53,19.53,0,0,1-1.75,1.43l1.84-.5c1.55-.42,3.05-1,4.59-1.44.38-.11.74-.25,1.11-.39a12.3,12.3,0,0,1-.53-5c.36-3.24,3.2-4.31,4.7-2.54,1.22,1.44.5,3.2-.67,4.81a22.11,22.11,0,0,1-1.69,2l1.58-.62a79.52,79.52,0,0,0,10.15-5.09,12.24,12.24,0,0,1-1.17-5.21c0-3.25,2.75-4.6,4.42-3,1.36,1.31.82,3.13-.19,4.85a26,26,0,0,1-1.83,2.61c1.85-1.13,3.67-2.32,5.44-3.58,1.12-.76,2.18-1.6,3.26-2.42a12.15,12.15,0,0,1-1.94-5.17c-.38-3.24,2.14-4.93,4-3.55,1.52,1.13,1.22,3,.44,4.84a28.86,28.86,0,0,1-1.77,3.31c1.21-1,2.43-2,3.6-3a71.43,71.43,0,0,0,6.86-6.84,71.67,71.67,0,0,1-6.66,7.06c-1.08,1-2.21,2-3.34,3a24.28,24.28,0,0,1,3.09-1.07c1.85-.45,3.64-.4,4.38,1.4.91,2.22-1.14,4.51-4.05,3.48a11.24,11.24,0,0,1-4.38-3c-1,.84-2.06,1.7-3.14,2.48-1.69,1.28-3.43,2.5-5.2,3.66a20.48,20.48,0,0,1,2.7-.53c1.88-.21,3.65.07,4.15,1.95.62,2.32-1.71,4.33-4.46,2.93a11,11,0,0,1-3.85-3.41,80.18,80.18,0,0,1-10,5.42l-1.06.45c.61-.07,1.26-.13,1.88-.14,1.9,0,3.63.44,3.94,2.36.38,2.37-2.14,4.14-4.73,2.47a11.21,11.21,0,0,1-3.44-3.68c-.36.15-.73.3-1.1.42-1.54.54-3.07,1.14-4.62,1.62l-1.34.4c.49,0,1,.1,1.47.18,1.87.34,3.48,1.12,3.42,3.06-.07,2.4-2.87,3.66-5.11,1.53a10.88,10.88,0,0,1-2.57-4c-1.75.5-3.52,1-5.31,1.35-.68.16-1.36.3-2,.44a19.79,19.79,0,0,1,2.28.23c1.87.34,3.48,1.12,3.43,3.06-.07,2.39-2.88,3.66-5.11,1.53a11.07,11.07,0,0,1-2.75-4.43c-.86.14-1.74.26-2.62.36-.14,1.76-2,3.08-4.36,2.12a10.72,10.72,0,0,1-3.09-2l-.55-.08h-.09a170.59,170.59,0,0,1-15.27,7.72c-3.29,1.46-6.62,2.84-10,4.1s-6.75,2.45-10.29,3.47l-.92-3.45c3.34-.89,6.74-2,10.07-3.16s6.63-2.45,9.89-3.82c4.33-1.83,8.61-3.83,12.78-6h0a6.63,6.63,0,0,1-.64-.4,3.09,3.09,0,0,1-.7-.66l1.93-1.38,0,0,0,0,.05,0,.15.12c.1.09.26.17.38.26a5.7,5.7,0,0,0,.93.43l.38.15a12.2,12.2,0,0,1-1.13-4.19c-.24-3.25,2.35-4.82,4.15-3.36,1.46,1.19,1.08,3.06.22,4.86a16.56,16.56,0,0,1-.82,1.49l1.35-.77c1.31-.77,2.62-1.57,3.91-2.38a12.14,12.14,0,0,1-1.27-4.48c-.24-3.25,2.35-4.82,4.15-3.36,1.46,1.19,1.08,3.06.22,4.85-.25.52-.54,1-.83,1.53.92-.61,1.84-1.23,2.75-1.86.67-.47,1.34-.95,2-1.44.86-.78,1.7-1.58,2.51-2.4.45-.46.88-.92,1.32-1.39a12.1,12.1,0,0,1-3.44-2.69c-2.14-2.46-1-5.27,1.32-5.18,1.88.08,2.69,1.8,3.08,3.76a23.09,23.09,0,0,1,.32,2.67,51,51,0,0,0,4.88-6.54,43,43,0,0,0,2.31-4.21,12.18,12.18,0,0,1-3.73-2.85c-2.13-2.46-1-5.27,1.32-5.17,1.89.08,2.69,1.8,3.08,3.76a19.23,19.23,0,0,1,.28,2.12,35.29,35.29,0,0,0,1.51-4.56,31.75,31.75,0,0,0,.92-9.57,12.12,12.12,0,0,1-4.86-1.27c-2.9-1.49-2.89-4.52-.7-5.29,1.78-.63,3.17.67,4.25,2.34a18.45,18.45,0,0,1,1.11,2v-.06a49.33,49.33,0,0,0-2.19-9.85,12.31,12.31,0,0,1-5.21-.46c-3.09-1-3.57-4-1.53-5.11,1.65-.91,3.23.15,4.57,1.63a21,21,0,0,1,1.46,1.84c-1.18-3.35-2.47-6.7-3.5-10.13h0l0-.08a12.05,12.05,0,0,1-5.28-1.69c-2.78-1.7-2.55-4.72-.31-5.33,1.82-.49,3.11.91,4.07,2.66.27.49.51,1,.73,1.51a73.28,73.28,0,0,1-1.47-7.19h-.24l0-.08a12.27,12.27,0,0,1-5.34-1.7c-2.77-1.7-2.54-4.72-.3-5.33,1.82-.49,3.11.91,4.07,2.66a39.65,39.65,0,0,1,1.71,3.94q-.19-1.32-.33-2.64a101.79,101.79,0,0,1-.54-12.22,97.36,97.36,0,0,0,1.14,14,22.61,22.61,0,0,1,1-3c.79-1.73,1.94-3.1,3.81-2.56,2.3.65,2.84,3.69.23,5.33a11,11,0,0,1-4.84,1.55,67.18,67.18,0,0,0,2.13,8.72l.09.27a24.72,24.72,0,0,1,1.1-3.19c.79-1.73,1.94-3.1,3.81-2.57,2.31.66,2.84,3.7.23,5.34a11.1,11.1,0,0,1-4.78,1.54c1.13,3.39,2.51,6.69,3.79,10.05l.18.5a20.09,20.09,0,0,1,.31-2.82c.36-1.86,1.16-3.47,3.1-3.38,2.4.1,3.62,2.93,1.46,5.13a10.89,10.89,0,0,1-4.3,2.62,50.26,50.26,0,0,1,2.45,9.86s0,.07,0,.11a17.35,17.35,0,0,1,.57-2c.66-1.79,1.71-3.24,3.61-2.85a2.65,2.65,0,0,1,1.93,3.7,2.46,2.46,0,0,1,1.17,0c1.82.5,2.23,2.36,2.17,4.35,0,.52-.07,1-.13,1.56a50.3,50.3,0,0,0,3.24-8.81,12.26,12.26,0,0,1-4.1-2.69c-2.29-2.33-1.33-5.2,1-5.25,1.89,0,2.8,1.63,3.31,3.56.16.63.29,1.3.39,1.94a49.32,49.32,0,0,0,1-8.9,12.38,12.38,0,0,1-4.92-1.66c-2.77-1.7-2.54-4.72-.3-5.33,1.82-.49,3.11.91,4.07,2.66a22.48,22.48,0,0,1,1.17,2.57c0-1.2-.07-2.4-.14-3.61-.11-1.56-.27-3.12-.48-4.67a12.29,12.29,0,0,1-4.82-1.65c-2.78-1.7-2.54-4.72-.3-5.33,1.82-.49,3.11.91,4.07,2.66.22.4.42.83.61,1.26-.43-2.7-.94-5.39-1.42-8.09C415.24,276.36,415,274.59,414.74,272.81Zm-11.55,56.86c-.13-.24-.24-.49-.35-.75-.18.62-.38,1.22-.59,1.83.2-.25.4-.5.61-.74Zm-19.06,29c0-.2,0-.41,0-.63a10.85,10.85,0,0,1-2.28-1.61l-.12.09-.25-.37c-.95.63-1.92,1.25-2.89,1.86a2.94,2.94,0,0,1,2.58,1C382.14,358.92,383.14,358.8,384.13,358.67Zm14.49-20.22c-.44.74-.91,1.47-1.39,2.19l.19,0q1.88-1.81,3.64-3.72c.83-.89,1.63-1.8,2.42-2.73a12.17,12.17,0,0,1-2.5-.24A45.09,45.09,0,0,1,398.62,338.45ZM408.7,318.3a4.2,4.2,0,0,1-.5-2.87,11.11,11.11,0,0,1-4.09,1.56,32.9,32.9,0,0,1-.18,6.87,2.29,2.29,0,0,1,1.79.07c1.72.77,1.83,2.67,1.46,4.63a.36.36,0,0,1,0,.1l.11.06a2.77,2.77,0,0,1,.29.22l.17-.24a65.39,65.39,0,0,0,4.14-6.66A12.26,12.26,0,0,1,408.7,318.3Z" style="fill:#92E3A9"></path><path d="M417.77,246.46a40.37,40.37,0,0,0-2.64,10.32,57.58,57.58,0,0,0-.36,10.66l0,.4a26.64,26.64,0,0,1,1.19-3.48c.78-1.73,1.94-3.1,3.81-2.56,2.3.66,2.83,3.69.22,5.33a11.12,11.12,0,0,1-5.17,1.57,73.39,73.39,0,0,0,1.25,8.73,27.47,27.47,0,0,1,1.15-3.32c.78-1.73,1.94-3.1,3.81-2.56,2.3.65,2.83,3.69.22,5.33a11.1,11.1,0,0,1-5,1.56c.66,3.31,1.4,6.63,1.92,10a27.08,27.08,0,0,1,1.16-3.37c.78-1.73,1.94-3.1,3.81-2.57,2.3.66,2.83,3.7.22,5.33a10.93,10.93,0,0,1-5.06,1.57c.22,1.49.41,3,.55,4.48.09,1.11.16,2.22.2,3.33a18.48,18.48,0,0,1,.78-2.11c.79-1.73,1.94-3.1,3.81-2.57,2.3.66,2.84,3.69.22,5.33a11,11,0,0,1-4.77,1.55,51.17,51.17,0,0,1-1,9.71,18.46,18.46,0,0,1,1.35-2c1.19-1.49,2.64-2.54,4.32-1.57,2.08,1.19,1.86,4.27-1.07,5.22a10.85,10.85,0,0,1-5.05.34,52.74,52.74,0,0,1-3.43,9.7,17.85,17.85,0,0,1,1.57-1.28c1.56-1.09,3.24-1.69,4.59-.28,1.65,1.74.57,4.62-2.51,4.71a11,11,0,0,1-4.71-1,65.76,65.76,0,0,1-4,6.76l-.71,1a2,2,0,0,1,0,.35c.32-.19.64-.37,1-.53,1.7-.84,3.46-1.17,4.57.43,1.37,2-.14,4.65-3.2,4.27a10.92,10.92,0,0,1-4.32-1.6l-.21.08c-1.19,1.55-2.44,3-3.74,4.52-1,1.09-2,2.15-3,3.2,1.43,1.46.86,4.05-1.86,4.76a10.4,10.4,0,0,1-3.46.27q-3.12,2.72-6.42,5.2a2.23,2.23,0,0,1,1.89,1.2,2.92,2.92,0,0,1-.43,3.34,2.54,2.54,0,0,1-.77,1.72c1.68-.32,3.36-.7,5-1.12a12,12,0,0,1,.41-5c1-3.11,3.95-3.63,5.09-1.61.93,1.64-.11,3.24-1.57,4.6a19.53,19.53,0,0,1-1.75,1.43l1.84-.5c1.55-.42,3.05-1,4.59-1.44.38-.11.74-.25,1.11-.39a12.3,12.3,0,0,1-.53-5c.36-3.24,3.2-4.31,4.7-2.54,1.22,1.44.5,3.2-.67,4.81a22.11,22.11,0,0,1-1.69,2l1.58-.62a79.52,79.52,0,0,0,10.15-5.09,12.24,12.24,0,0,1-1.17-5.21c0-3.25,2.75-4.6,4.42-3,1.36,1.31.82,3.13-.19,4.85a26,26,0,0,1-1.83,2.61c1.85-1.13,3.67-2.32,5.44-3.58,1.12-.76,2.18-1.6,3.26-2.42a12.15,12.15,0,0,1-1.94-5.17c-.38-3.24,2.14-4.93,4-3.55,1.52,1.13,1.22,3,.44,4.84a28.86,28.86,0,0,1-1.77,3.31c1.21-1,2.43-2,3.6-3a71.43,71.43,0,0,0,6.86-6.84,71.67,71.67,0,0,1-6.66,7.06c-1.08,1-2.21,2-3.34,3a24.28,24.28,0,0,1,3.09-1.07c1.85-.45,3.64-.4,4.38,1.4.91,2.22-1.14,4.51-4.05,3.48a11.24,11.24,0,0,1-4.38-3c-1,.84-2.06,1.7-3.14,2.48-1.69,1.28-3.43,2.5-5.2,3.66a20.48,20.48,0,0,1,2.7-.53c1.88-.21,3.65.07,4.15,1.95.62,2.32-1.71,4.33-4.46,2.93a11,11,0,0,1-3.85-3.41,80.18,80.18,0,0,1-10,5.42l-1.06.45c.61-.07,1.26-.13,1.88-.14,1.9,0,3.63.44,3.94,2.36.38,2.37-2.14,4.14-4.73,2.47a11.21,11.21,0,0,1-3.44-3.68c-.36.15-.73.3-1.1.42-1.54.54-3.07,1.14-4.62,1.62l-1.34.4c.49,0,1,.1,1.47.18,1.87.34,3.48,1.12,3.42,3.06-.07,2.4-2.87,3.66-5.11,1.53a10.88,10.88,0,0,1-2.57-4c-1.75.5-3.52,1-5.31,1.35-.68.16-1.36.3-2,.44a19.79,19.79,0,0,1,2.28.23c1.87.34,3.48,1.12,3.43,3.06-.07,2.39-2.88,3.66-5.11,1.53a11.07,11.07,0,0,1-2.75-4.43c-.86.14-1.74.26-2.62.36-.14,1.76-2,3.08-4.36,2.12a10.72,10.72,0,0,1-3.09-2l-.55-.08h-.09a170.59,170.59,0,0,1-15.27,7.72c-3.29,1.46-6.62,2.84-10,4.1s-6.75,2.45-10.29,3.47l-.92-3.45c3.34-.89,6.74-2,10.07-3.16s6.63-2.45,9.89-3.82c4.33-1.83,8.61-3.83,12.78-6h0a6.63,6.63,0,0,1-.64-.4,3.09,3.09,0,0,1-.7-.66l1.93-1.38,0,0,0,0,.05,0,.15.12c.1.09.26.17.38.26a5.7,5.7,0,0,0,.93.43l.38.15a12.2,12.2,0,0,1-1.13-4.19c-.24-3.25,2.35-4.82,4.15-3.36,1.46,1.19,1.08,3.06.22,4.86a16.56,16.56,0,0,1-.82,1.49l1.35-.77c1.31-.77,2.62-1.57,3.91-2.38a12.14,12.14,0,0,1-1.27-4.48c-.24-3.25,2.35-4.82,4.15-3.36,1.46,1.19,1.08,3.06.22,4.85-.25.52-.54,1-.83,1.53.92-.61,1.84-1.23,2.75-1.86.67-.47,1.34-.95,2-1.44.86-.78,1.7-1.58,2.51-2.4.45-.46.88-.92,1.32-1.39a12.1,12.1,0,0,1-3.44-2.69c-2.14-2.46-1-5.27,1.32-5.18,1.88.08,2.69,1.8,3.08,3.76a23.09,23.09,0,0,1,.32,2.67,51,51,0,0,0,4.88-6.54,43,43,0,0,0,2.31-4.21,12.18,12.18,0,0,1-3.73-2.85c-2.13-2.46-1-5.27,1.32-5.17,1.89.08,2.69,1.8,3.08,3.76a19.23,19.23,0,0,1,.28,2.12,35.29,35.29,0,0,0,1.51-4.56,31.75,31.75,0,0,0,.92-9.57,12.12,12.12,0,0,1-4.86-1.27c-2.9-1.49-2.89-4.52-.7-5.29,1.78-.63,3.17.67,4.25,2.34a18.45,18.45,0,0,1,1.11,2v-.06a49.33,49.33,0,0,0-2.19-9.85,12.31,12.31,0,0,1-5.21-.46c-3.09-1-3.57-4-1.53-5.11,1.65-.91,3.23.15,4.57,1.63a21,21,0,0,1,1.46,1.84c-1.18-3.35-2.47-6.7-3.5-10.13h0l0-.08a12.05,12.05,0,0,1-5.28-1.69c-2.78-1.7-2.55-4.72-.31-5.33,1.82-.49,3.11.91,4.07,2.66.27.49.51,1,.73,1.51a73.28,73.28,0,0,1-1.47-7.19h-.24l0-.08a12.27,12.27,0,0,1-5.34-1.7c-2.77-1.7-2.54-4.72-.3-5.33,1.82-.49,3.11.91,4.07,2.66a39.65,39.65,0,0,1,1.71,3.94q-.19-1.32-.33-2.64a101.79,101.79,0,0,1-.54-12.22,97.36,97.36,0,0,0,1.14,14,22.61,22.61,0,0,1,1-3c.79-1.73,1.94-3.1,3.81-2.56,2.3.65,2.84,3.69.23,5.33a11,11,0,0,1-4.84,1.55,67.18,67.18,0,0,0,2.13,8.72l.09.27a24.72,24.72,0,0,1,1.1-3.19c.79-1.73,1.94-3.1,3.81-2.57,2.31.66,2.84,3.7.23,5.34a11.1,11.1,0,0,1-4.78,1.54c1.13,3.39,2.51,6.69,3.79,10.05l.18.5a20.09,20.09,0,0,1,.31-2.82c.36-1.86,1.16-3.47,3.1-3.38,2.4.1,3.62,2.93,1.46,5.13a10.89,10.89,0,0,1-4.3,2.62,50.26,50.26,0,0,1,2.45,9.86s0,.07,0,.11a17.35,17.35,0,0,1,.57-2c.66-1.79,1.71-3.24,3.61-2.85a2.65,2.65,0,0,1,1.93,3.7,2.46,2.46,0,0,1,1.17,0c1.82.5,2.23,2.36,2.17,4.35,0,.52-.07,1-.13,1.56a50.3,50.3,0,0,0,3.24-8.81,12.26,12.26,0,0,1-4.1-2.69c-2.29-2.33-1.33-5.2,1-5.25,1.89,0,2.8,1.63,3.31,3.56.16.63.29,1.3.39,1.94a49.32,49.32,0,0,0,1-8.9,12.38,12.38,0,0,1-4.92-1.66c-2.77-1.7-2.54-4.72-.3-5.33,1.82-.49,3.11.91,4.07,2.66a22.48,22.48,0,0,1,1.17,2.57c0-1.2-.07-2.4-.14-3.61-.11-1.56-.27-3.12-.48-4.67a12.29,12.29,0,0,1-4.82-1.65c-2.78-1.7-2.54-4.72-.3-5.33,1.82-.49,3.11.91,4.07,2.66.22.4.42.83.61,1.26-.41-2.62-.91-5.23-1.38-7.85a12.35,12.35,0,0,1-5.13-1.67c-2.78-1.7-2.54-4.73-.3-5.34,1.82-.49,3.11.91,4.07,2.66a22.46,22.46,0,0,1,1,2.12c-.18-1.1-.35-2.21-.48-3.32-.13-.89-.17-1.78-.26-2.67-.05-.51-.08-1-.1-1.52a12.4,12.4,0,0,1-5.17-1.68c-2.78-1.7-2.54-4.73-.3-5.34,1.82-.49,3.11.91,4.06,2.66a25.7,25.7,0,0,1,1.36,3,57.27,57.27,0,0,1,.58-10.55A40.35,40.35,0,0,1,417.77,246.46ZM378.57,358a2.94,2.94,0,0,1,2.58,1c1-.07,2-.19,3-.32,0-.2,0-.41,0-.63a10.85,10.85,0,0,1-2.28-1.61l-.12.09-.25-.37C380.51,356.78,379.54,357.4,378.57,358Zm20.05-19.56c-.44.74-.91,1.47-1.39,2.19l.19,0q1.88-1.81,3.64-3.72c.83-.89,1.63-1.8,2.42-2.73a12.17,12.17,0,0,1-2.5-.24A45.09,45.09,0,0,1,398.62,338.45Zm3.63-7.7c.2-.25.4-.5.61-.74l.33-.34c-.13-.24-.24-.49-.35-.75C402.66,329.54,402.46,330.14,402.25,330.75Zm6.45-12.45a4.2,4.2,0,0,1-.5-2.87,11.11,11.11,0,0,1-4.09,1.56,32.9,32.9,0,0,1-.18,6.87,2.29,2.29,0,0,1,1.79.07c1.72.77,1.83,2.67,1.46,4.63a.36.36,0,0,1,0,.1l.11.06a2.77,2.77,0,0,1,.29.22l.17-.24a65.39,65.39,0,0,0,4.14-6.66A12.26,12.26,0,0,1,408.7,318.3Z" style="fill:#92E3A9"></path><g style="opacity:0.5"><path d="M414.74,272.81c-.13-.89-.17-1.78-.26-2.67s-.12-1.79-.15-2.68a57.26,57.26,0,0,1,.58-10.71,40.35,40.35,0,0,1,2.86-10.29,40.37,40.37,0,0,0-2.64,10.32,57.58,57.58,0,0,0-.36,10.66c.31,7.09,2.36,13.93,3.45,21a27.08,27.08,0,0,1,1.16-3.37c.78-1.73,1.94-3.1,3.81-2.57,2.3.66,2.83,3.7.22,5.33a10.93,10.93,0,0,1-5.06,1.57c.22,1.49.41,3,.55,4.48.09,1.11.16,2.22.2,3.33a18.48,18.48,0,0,1,.78-2.11c.79-1.73,1.94-3.1,3.81-2.57,2.3.66,2.84,3.69.22,5.33a11,11,0,0,1-4.77,1.55,51.17,51.17,0,0,1-1,9.71,18.46,18.46,0,0,1,1.35-2c1.19-1.49,2.64-2.54,4.32-1.57,2.08,1.19,1.86,4.27-1.07,5.22a10.85,10.85,0,0,1-5.05.34,52.74,52.74,0,0,1-3.43,9.7,17.85,17.85,0,0,1,1.57-1.28c1.56-1.09,3.24-1.69,4.59-.28,1.65,1.74.57,4.62-2.51,4.71a11,11,0,0,1-4.71-1,65.76,65.76,0,0,1-4,6.76l-.71,1a2,2,0,0,1,0,.35c.32-.19.64-.37,1-.53,1.7-.84,3.46-1.17,4.57.43,1.37,2-.14,4.65-3.2,4.27a10.92,10.92,0,0,1-4.32-1.6l-.21.08c-1.19,1.55-2.44,3-3.74,4.52-1,1.09-2,2.15-3,3.2,1.43,1.46.86,4.05-1.86,4.76a10.4,10.4,0,0,1-3.46.27q-3.12,2.72-6.42,5.2a2.23,2.23,0,0,1,1.89,1.2,2.92,2.92,0,0,1-.43,3.34,2.54,2.54,0,0,1-.77,1.72c1.68-.32,3.36-.7,5-1.12a12,12,0,0,1,.41-5c1-3.11,3.95-3.63,5.09-1.61.93,1.64-.11,3.24-1.57,4.6a19.53,19.53,0,0,1-1.75,1.43l1.84-.5c1.55-.42,3.05-1,4.59-1.44.38-.11.74-.25,1.11-.39a12.3,12.3,0,0,1-.53-5c.36-3.24,3.2-4.31,4.7-2.54,1.22,1.44.5,3.2-.67,4.81a22.11,22.11,0,0,1-1.69,2l1.58-.62a79.52,79.52,0,0,0,10.15-5.09,12.24,12.24,0,0,1-1.17-5.21c0-3.25,2.75-4.6,4.42-3,1.36,1.31.82,3.13-.19,4.85a26,26,0,0,1-1.83,2.61c1.85-1.13,3.67-2.32,5.44-3.58,1.12-.76,2.18-1.6,3.26-2.42a12.15,12.15,0,0,1-1.94-5.17c-.38-3.24,2.14-4.93,4-3.55,1.52,1.13,1.22,3,.44,4.84a28.86,28.86,0,0,1-1.77,3.31c1.21-1,2.43-2,3.6-3a71.43,71.43,0,0,0,6.86-6.84,71.67,71.67,0,0,1-6.66,7.06c-1.08,1-2.21,2-3.34,3a24.28,24.28,0,0,1,3.09-1.07c1.85-.45,3.64-.4,4.38,1.4.91,2.22-1.14,4.51-4.05,3.48a11.24,11.24,0,0,1-4.38-3c-1,.84-2.06,1.7-3.14,2.48-1.69,1.28-3.43,2.5-5.2,3.66a20.48,20.48,0,0,1,2.7-.53c1.88-.21,3.65.07,4.15,1.95.62,2.32-1.71,4.33-4.46,2.93a11,11,0,0,1-3.85-3.41,80.18,80.18,0,0,1-10,5.42l-1.06.45c.61-.07,1.26-.13,1.88-.14,1.9,0,3.63.44,3.94,2.36.38,2.37-2.14,4.14-4.73,2.47a11.21,11.21,0,0,1-3.44-3.68c-.36.15-.73.3-1.1.42-1.54.54-3.07,1.14-4.62,1.62l-1.34.4c.49,0,1,.1,1.47.18,1.87.34,3.48,1.12,3.42,3.06-.07,2.4-2.87,3.66-5.11,1.53a10.88,10.88,0,0,1-2.57-4c-1.75.5-3.52,1-5.31,1.35-.68.16-1.36.3-2,.44a19.79,19.79,0,0,1,2.28.23c1.87.34,3.48,1.12,3.43,3.06-.07,2.39-2.88,3.66-5.11,1.53a11.07,11.07,0,0,1-2.75-4.43c-.86.14-1.74.26-2.62.36-.14,1.76-2,3.08-4.36,2.12a10.72,10.72,0,0,1-3.09-2l-.55-.08h-.09a170.59,170.59,0,0,1-15.27,7.72c-3.29,1.46-6.62,2.84-10,4.1s-6.75,2.45-10.29,3.47l-.92-3.45c3.34-.89,6.74-2,10.07-3.16s6.63-2.45,9.89-3.82c4.33-1.83,8.61-3.83,12.78-6h0a6.63,6.63,0,0,1-.64-.4,3.09,3.09,0,0,1-.7-.66l1.93-1.38,0,0,0,0,.05,0,.15.12c.1.09.26.17.38.26a5.7,5.7,0,0,0,.93.43l.38.15a12.2,12.2,0,0,1-1.13-4.19c-.24-3.25,2.35-4.82,4.15-3.36,1.46,1.19,1.08,3.06.22,4.86a16.56,16.56,0,0,1-.82,1.49l1.35-.77c1.31-.77,2.62-1.57,3.91-2.38a12.14,12.14,0,0,1-1.27-4.48c-.24-3.25,2.35-4.82,4.15-3.36,1.46,1.19,1.08,3.06.22,4.85-.25.52-.54,1-.83,1.53.92-.61,1.84-1.23,2.75-1.86.67-.47,1.34-.95,2-1.44.86-.78,1.7-1.58,2.51-2.4.45-.46.88-.92,1.32-1.39a12.1,12.1,0,0,1-3.44-2.69c-2.14-2.46-1-5.27,1.32-5.18,1.88.08,2.69,1.8,3.08,3.76a23.09,23.09,0,0,1,.32,2.67,51,51,0,0,0,4.88-6.54,43,43,0,0,0,2.31-4.21,12.18,12.18,0,0,1-3.73-2.85c-2.13-2.46-1-5.27,1.32-5.17,1.89.08,2.69,1.8,3.08,3.76a19.23,19.23,0,0,1,.28,2.12,35.29,35.29,0,0,0,1.51-4.56,31.75,31.75,0,0,0,.92-9.57,12.12,12.12,0,0,1-4.86-1.27c-2.9-1.49-2.89-4.52-.7-5.29,1.78-.63,3.17.67,4.25,2.34a18.45,18.45,0,0,1,1.11,2v-.06a49.33,49.33,0,0,0-2.19-9.85,12.31,12.31,0,0,1-5.21-.46c-3.09-1-3.57-4-1.53-5.11,1.65-.91,3.23.15,4.57,1.63a21,21,0,0,1,1.46,1.84c-1.18-3.35-2.47-6.7-3.5-10.13h0l0-.08a12.05,12.05,0,0,1-5.28-1.69c-2.78-1.7-2.55-4.72-.31-5.33,1.82-.49,3.11.91,4.07,2.66.27.49.51,1,.73,1.51a73.28,73.28,0,0,1-1.47-7.19h-.24l0-.08a12.27,12.27,0,0,1-5.34-1.7c-2.77-1.7-2.54-4.72-.3-5.33,1.82-.49,3.11.91,4.07,2.66a39.65,39.65,0,0,1,1.71,3.94q-.19-1.32-.33-2.64a101.79,101.79,0,0,1-.54-12.22,97.36,97.36,0,0,0,1.14,14,22.61,22.61,0,0,1,1-3c.79-1.73,1.94-3.1,3.81-2.56,2.3.65,2.84,3.69.23,5.33a11,11,0,0,1-4.84,1.55,67.18,67.18,0,0,0,2.13,8.72l.09.27a24.72,24.72,0,0,1,1.1-3.19c.79-1.73,1.94-3.1,3.81-2.57,2.31.66,2.84,3.7.23,5.34a11.1,11.1,0,0,1-4.78,1.54c1.13,3.39,2.51,6.69,3.79,10.05l.18.5a20.09,20.09,0,0,1,.31-2.82c.36-1.86,1.16-3.47,3.1-3.38,2.4.1,3.62,2.93,1.46,5.13a10.89,10.89,0,0,1-4.3,2.62,50.26,50.26,0,0,1,2.45,9.86s0,.07,0,.11a17.35,17.35,0,0,1,.57-2c.66-1.79,1.71-3.24,3.61-2.85a2.65,2.65,0,0,1,1.93,3.7,2.46,2.46,0,0,1,1.17,0c1.82.5,2.23,2.36,2.17,4.35,0,.52-.07,1-.13,1.56a50.3,50.3,0,0,0,3.24-8.81,12.26,12.26,0,0,1-4.1-2.69c-2.29-2.33-1.33-5.2,1-5.25,1.89,0,2.8,1.63,3.31,3.56.16.63.29,1.3.39,1.94a49.32,49.32,0,0,0,1-8.9,12.38,12.38,0,0,1-4.92-1.66c-2.77-1.7-2.54-4.72-.3-5.33,1.82-.49,3.11.91,4.07,2.66a22.48,22.48,0,0,1,1.17,2.57c0-1.2-.07-2.4-.14-3.61-.11-1.56-.27-3.12-.48-4.67a12.29,12.29,0,0,1-4.82-1.65c-2.78-1.7-2.54-4.72-.3-5.33,1.82-.49,3.11.91,4.07,2.66.22.4.42.83.61,1.26-.43-2.7-.94-5.39-1.42-8.09C415.24,276.36,415,274.59,414.74,272.81Zm-11.55,56.86c-.13-.24-.24-.49-.35-.75-.18.62-.38,1.22-.59,1.83.2-.25.4-.5.61-.74Zm-19.06,29c0-.2,0-.41,0-.63a10.85,10.85,0,0,1-2.28-1.61l-.12.09-.25-.37c-.95.63-1.92,1.25-2.89,1.86a2.94,2.94,0,0,1,2.58,1C382.14,358.92,383.14,358.8,384.13,358.67Zm14.49-20.22c-.44.74-.91,1.47-1.39,2.19l.19,0q1.88-1.81,3.64-3.72c.83-.89,1.63-1.8,2.42-2.73a12.17,12.17,0,0,1-2.5-.24A45.09,45.09,0,0,1,398.62,338.45ZM408.7,318.3a4.2,4.2,0,0,1-.5-2.87,11.11,11.11,0,0,1-4.09,1.56,32.9,32.9,0,0,1-.18,6.87,2.29,2.29,0,0,1,1.79.07c1.72.77,1.83,2.67,1.46,4.63a.36.36,0,0,1,0,.1l.11.06a2.77,2.77,0,0,1,.29.22l.17-.24a65.39,65.39,0,0,0,4.14-6.66A12.26,12.26,0,0,1,408.7,318.3Z" style="fill:#fff"></path><path d="M417.77,246.46a40.37,40.37,0,0,0-2.64,10.32,57.58,57.58,0,0,0-.36,10.66l0,.4a26.64,26.64,0,0,1,1.19-3.48c.78-1.73,1.94-3.1,3.81-2.56,2.3.66,2.83,3.69.22,5.33a11.12,11.12,0,0,1-5.17,1.57,73.39,73.39,0,0,0,1.25,8.73,27.47,27.47,0,0,1,1.15-3.32c.78-1.73,1.94-3.1,3.81-2.56,2.3.65,2.83,3.69.22,5.33a11.1,11.1,0,0,1-5,1.56c.66,3.31,1.4,6.63,1.92,10a27.08,27.08,0,0,1,1.16-3.37c.78-1.73,1.94-3.1,3.81-2.57,2.3.66,2.83,3.7.22,5.33a10.93,10.93,0,0,1-5.06,1.57c.22,1.49.41,3,.55,4.48.09,1.11.16,2.22.2,3.33a18.48,18.48,0,0,1,.78-2.11c.79-1.73,1.94-3.1,3.81-2.57,2.3.66,2.84,3.69.22,5.33a11,11,0,0,1-4.77,1.55,51.17,51.17,0,0,1-1,9.71,18.46,18.46,0,0,1,1.35-2c1.19-1.49,2.64-2.54,4.32-1.57,2.08,1.19,1.86,4.27-1.07,5.22a10.85,10.85,0,0,1-5.05.34,52.74,52.74,0,0,1-3.43,9.7,17.85,17.85,0,0,1,1.57-1.28c1.56-1.09,3.24-1.69,4.59-.28,1.65,1.74.57,4.62-2.51,4.71a11,11,0,0,1-4.71-1,65.76,65.76,0,0,1-4,6.76l-.71,1a2,2,0,0,1,0,.35c.32-.19.64-.37,1-.53,1.7-.84,3.46-1.17,4.57.43,1.37,2-.14,4.65-3.2,4.27a10.92,10.92,0,0,1-4.32-1.6l-.21.08c-1.19,1.55-2.44,3-3.74,4.52-1,1.09-2,2.15-3,3.2,1.43,1.46.86,4.05-1.86,4.76a10.4,10.4,0,0,1-3.46.27q-3.12,2.72-6.42,5.2a2.23,2.23,0,0,1,1.89,1.2,2.92,2.92,0,0,1-.43,3.34,2.54,2.54,0,0,1-.77,1.72c1.68-.32,3.36-.7,5-1.12a12,12,0,0,1,.41-5c1-3.11,3.95-3.63,5.09-1.61.93,1.64-.11,3.24-1.57,4.6a19.53,19.53,0,0,1-1.75,1.43l1.84-.5c1.55-.42,3.05-1,4.59-1.44.38-.11.74-.25,1.11-.39a12.3,12.3,0,0,1-.53-5c.36-3.24,3.2-4.31,4.7-2.54,1.22,1.44.5,3.2-.67,4.81a22.11,22.11,0,0,1-1.69,2l1.58-.62a79.52,79.52,0,0,0,10.15-5.09,12.24,12.24,0,0,1-1.17-5.21c0-3.25,2.75-4.6,4.42-3,1.36,1.31.82,3.13-.19,4.85a26,26,0,0,1-1.83,2.61c1.85-1.13,3.67-2.32,5.44-3.58,1.12-.76,2.18-1.6,3.26-2.42a12.15,12.15,0,0,1-1.94-5.17c-.38-3.24,2.14-4.93,4-3.55,1.52,1.13,1.22,3,.44,4.84a28.86,28.86,0,0,1-1.77,3.31c1.21-1,2.43-2,3.6-3a71.43,71.43,0,0,0,6.86-6.84,71.67,71.67,0,0,1-6.66,7.06c-1.08,1-2.21,2-3.34,3a24.28,24.28,0,0,1,3.09-1.07c1.85-.45,3.64-.4,4.38,1.4.91,2.22-1.14,4.51-4.05,3.48a11.24,11.24,0,0,1-4.38-3c-1,.84-2.06,1.7-3.14,2.48-1.69,1.28-3.43,2.5-5.2,3.66a20.48,20.48,0,0,1,2.7-.53c1.88-.21,3.65.07,4.15,1.95.62,2.32-1.71,4.33-4.46,2.93a11,11,0,0,1-3.85-3.41,80.18,80.18,0,0,1-10,5.42l-1.06.45c.61-.07,1.26-.13,1.88-.14,1.9,0,3.63.44,3.94,2.36.38,2.37-2.14,4.14-4.73,2.47a11.21,11.21,0,0,1-3.44-3.68c-.36.15-.73.3-1.1.42-1.54.54-3.07,1.14-4.62,1.62l-1.34.4c.49,0,1,.1,1.47.18,1.87.34,3.48,1.12,3.42,3.06-.07,2.4-2.87,3.66-5.11,1.53a10.88,10.88,0,0,1-2.57-4c-1.75.5-3.52,1-5.31,1.35-.68.16-1.36.3-2,.44a19.79,19.79,0,0,1,2.28.23c1.87.34,3.48,1.12,3.43,3.06-.07,2.39-2.88,3.66-5.11,1.53a11.07,11.07,0,0,1-2.75-4.43c-.86.14-1.74.26-2.62.36-.14,1.76-2,3.08-4.36,2.12a10.72,10.72,0,0,1-3.09-2l-.55-.08h-.09a170.59,170.59,0,0,1-15.27,7.72c-3.29,1.46-6.62,2.84-10,4.1s-6.75,2.45-10.29,3.47l-.92-3.45c3.34-.89,6.74-2,10.07-3.16s6.63-2.45,9.89-3.82c4.33-1.83,8.61-3.83,12.78-6h0a6.63,6.63,0,0,1-.64-.4,3.09,3.09,0,0,1-.7-.66l1.93-1.38,0,0,0,0,.05,0,.15.12c.1.09.26.17.38.26a5.7,5.7,0,0,0,.93.43l.38.15a12.2,12.2,0,0,1-1.13-4.19c-.24-3.25,2.35-4.82,4.15-3.36,1.46,1.19,1.08,3.06.22,4.86a16.56,16.56,0,0,1-.82,1.49l1.35-.77c1.31-.77,2.62-1.57,3.91-2.38a12.14,12.14,0,0,1-1.27-4.48c-.24-3.25,2.35-4.82,4.15-3.36,1.46,1.19,1.08,3.06.22,4.85-.25.52-.54,1-.83,1.53.92-.61,1.84-1.23,2.75-1.86.67-.47,1.34-.95,2-1.44.86-.78,1.7-1.58,2.51-2.4.45-.46.88-.92,1.32-1.39a12.1,12.1,0,0,1-3.44-2.69c-2.14-2.46-1-5.27,1.32-5.18,1.88.08,2.69,1.8,3.08,3.76a23.09,23.09,0,0,1,.32,2.67,51,51,0,0,0,4.88-6.54,43,43,0,0,0,2.31-4.21,12.18,12.18,0,0,1-3.73-2.85c-2.13-2.46-1-5.27,1.32-5.17,1.89.08,2.69,1.8,3.08,3.76a19.23,19.23,0,0,1,.28,2.12,35.29,35.29,0,0,0,1.51-4.56,31.75,31.75,0,0,0,.92-9.57,12.12,12.12,0,0,1-4.86-1.27c-2.9-1.49-2.89-4.52-.7-5.29,1.78-.63,3.17.67,4.25,2.34a18.45,18.45,0,0,1,1.11,2v-.06a49.33,49.33,0,0,0-2.19-9.85,12.31,12.31,0,0,1-5.21-.46c-3.09-1-3.57-4-1.53-5.11,1.65-.91,3.23.15,4.57,1.63a21,21,0,0,1,1.46,1.84c-1.18-3.35-2.47-6.7-3.5-10.13h0l0-.08a12.05,12.05,0,0,1-5.28-1.69c-2.78-1.7-2.55-4.72-.31-5.33,1.82-.49,3.11.91,4.07,2.66.27.49.51,1,.73,1.51a73.28,73.28,0,0,1-1.47-7.19h-.24l0-.08a12.27,12.27,0,0,1-5.34-1.7c-2.77-1.7-2.54-4.72-.3-5.33,1.82-.49,3.11.91,4.07,2.66a39.65,39.65,0,0,1,1.71,3.94q-.19-1.32-.33-2.64a101.79,101.79,0,0,1-.54-12.22,97.36,97.36,0,0,0,1.14,14,22.61,22.61,0,0,1,1-3c.79-1.73,1.94-3.1,3.81-2.56,2.3.65,2.84,3.69.23,5.33a11,11,0,0,1-4.84,1.55,67.18,67.18,0,0,0,2.13,8.72l.09.27a24.72,24.72,0,0,1,1.1-3.19c.79-1.73,1.94-3.1,3.81-2.57,2.31.66,2.84,3.7.23,5.34a11.1,11.1,0,0,1-4.78,1.54c1.13,3.39,2.51,6.69,3.79,10.05l.18.5a20.09,20.09,0,0,1,.31-2.82c.36-1.86,1.16-3.47,3.1-3.38,2.4.1,3.62,2.93,1.46,5.13a10.89,10.89,0,0,1-4.3,2.62,50.26,50.26,0,0,1,2.45,9.86s0,.07,0,.11a17.35,17.35,0,0,1,.57-2c.66-1.79,1.71-3.24,3.61-2.85a2.65,2.65,0,0,1,1.93,3.7,2.46,2.46,0,0,1,1.17,0c1.82.5,2.23,2.36,2.17,4.35,0,.52-.07,1-.13,1.56a50.3,50.3,0,0,0,3.24-8.81,12.26,12.26,0,0,1-4.1-2.69c-2.29-2.33-1.33-5.2,1-5.25,1.89,0,2.8,1.63,3.31,3.56.16.63.29,1.3.39,1.94a49.32,49.32,0,0,0,1-8.9,12.38,12.38,0,0,1-4.92-1.66c-2.77-1.7-2.54-4.72-.3-5.33,1.82-.49,3.11.91,4.07,2.66a22.48,22.48,0,0,1,1.17,2.57c0-1.2-.07-2.4-.14-3.61-.11-1.56-.27-3.12-.48-4.67a12.29,12.29,0,0,1-4.82-1.65c-2.78-1.7-2.54-4.72-.3-5.33,1.82-.49,3.11.91,4.07,2.66.22.4.42.83.61,1.26-.41-2.62-.91-5.23-1.38-7.85a12.35,12.35,0,0,1-5.13-1.67c-2.78-1.7-2.54-4.73-.3-5.34,1.82-.49,3.11.91,4.07,2.66a22.46,22.46,0,0,1,1,2.12c-.18-1.1-.35-2.21-.48-3.32-.13-.89-.17-1.78-.26-2.67-.05-.51-.08-1-.1-1.52a12.4,12.4,0,0,1-5.17-1.68c-2.78-1.7-2.54-4.73-.3-5.34,1.82-.49,3.11.91,4.06,2.66a25.7,25.7,0,0,1,1.36,3,57.27,57.27,0,0,1,.58-10.55A40.35,40.35,0,0,1,417.77,246.46ZM378.57,358a2.94,2.94,0,0,1,2.58,1c1-.07,2-.19,3-.32,0-.2,0-.41,0-.63a10.85,10.85,0,0,1-2.28-1.61l-.12.09-.25-.37C380.51,356.78,379.54,357.4,378.57,358Zm20.05-19.56c-.44.74-.91,1.47-1.39,2.19l.19,0q1.88-1.81,3.64-3.72c.83-.89,1.63-1.8,2.42-2.73a12.17,12.17,0,0,1-2.5-.24A45.09,45.09,0,0,1,398.62,338.45Zm3.63-7.7c.2-.25.4-.5.61-.74l.33-.34c-.13-.24-.24-.49-.35-.75C402.66,329.54,402.46,330.14,402.25,330.75Zm6.45-12.45a4.2,4.2,0,0,1-.5-2.87,11.11,11.11,0,0,1-4.09,1.56,32.9,32.9,0,0,1-.18,6.87,2.29,2.29,0,0,1,1.79.07c1.72.77,1.83,2.67,1.46,4.63a.36.36,0,0,1,0,.1l.11.06a2.77,2.77,0,0,1,.29.22l.17-.24a65.39,65.39,0,0,0,4.14-6.66A12.26,12.26,0,0,1,408.7,318.3Z" style="fill:#fff"></path></g></g><g id="freepik--Chart--inject-1--inject-40"><polygon points="114.23 336.52 114.23 326.46 227.21 342.31 227.21 352.36 114.23 336.52" style="fill:#2e353a;stroke:#2e353a;stroke-linecap:round;stroke-linejoin:round"></polygon><polygon points="227.21 342.31 273.06 277.09 273.06 287.14 227.21 352.36 227.21 342.31" style="fill:#2e353a;stroke:#2e353a;stroke-linecap:round;stroke-linejoin:round"></polygon><line x1="227.21" y1="342.31" x2="227.21" y2="348" style="fill:none;stroke:#fff;stroke-linecap:round;stroke-linejoin:round"></line><path d="M367.44,351.23c-7.68-27.61-43.44-50-90.38-57.68l-45.85,65.22-113-15.84V332.87s-5.35,16.14-4.76,19.45v10.06c0,39.59,57.2,71.68,127.76,71.68S369,402,369,362.38V352.32Z" style="fill:#2e353a;stroke:#2e353a;stroke-linecap:round;stroke-linejoin:round"></path><line x1="130.72" y1="382.8" x2="130.72" y2="396.93" style="fill:none;stroke:#fff;stroke-linecap:round;stroke-linejoin:round"></line><line x1="135.57" y1="384.41" x2="135.57" y2="398.14" style="fill:none;stroke:#fff;stroke-linecap:round;stroke-linejoin:round"></line><line x1="141.62" y1="393.3" x2="141.62" y2="399.35" style="fill:none;stroke:#fff;stroke-linecap:round;stroke-linejoin:round"></line><line x1="141.62" y1="403.39" x2="141.62" y2="406.29" style="fill:none;stroke:#fff;stroke-linecap:round;stroke-linejoin:round"></line><line x1="152.12" y1="394.91" x2="152.12" y2="412.28" style="fill:none;stroke:#fff;stroke-linecap:round;stroke-linejoin:round"></line><line x1="171.1" y1="407.43" x2="171.1" y2="420.35" style="fill:none;stroke:#fff;stroke-linecap:round;stroke-linejoin:round"></line><line x1="187.66" y1="424.72" x2="187.66" y2="426.97" style="fill:none;stroke:#fff;stroke-linecap:round;stroke-linejoin:round"></line><line x1="187.66" y1="414.29" x2="187.66" y2="421.91" style="fill:none;stroke:#fff;stroke-linecap:round;stroke-linejoin:round"></line><line x1="208.67" y1="420" x2="208.67" y2="430.33" style="fill:none;stroke:#fff;stroke-linecap:round;stroke-linejoin:round"></line><line x1="350.33" y1="385.67" x2="350.33" y2="398" style="fill:none;stroke:#fff;stroke-linecap:round;stroke-linejoin:round"></line><line x1="353.67" y1="383" x2="353.67" y2="392" style="fill:none;stroke:#fff;stroke-linecap:round;stroke-linejoin:round"></line><line x1="358.67" y1="375.33" x2="358.67" y2="387.67" style="fill:none;stroke:#fff;stroke-linecap:round;stroke-linejoin:round"></line><line x1="363.67" y1="371.67" x2="363.67" y2="377.33" style="fill:none;stroke:#fff;stroke-linecap:round;stroke-linejoin:round"></line><path d="M277.06,283.5l-45.85,65.22-113-15.85a43.13,43.13,0,0,0-4.76,19.45c0,39.59,57.2,71.69,127.76,71.69S369,391.91,369,352.32C369,319.71,330.17,292.19,277.06,283.5Z" style="fill:#92E3A9;stroke:#2e353a;stroke-linecap:round;stroke-linejoin:round"></path><path d="M273.06,277.09a222.48,222.48,0,0,0-35.84-2.86c-58.54,0-107.89,22.09-123,52.23l113,15.85Z" style="fill:#92E3A9;stroke:#2e353a;stroke-linecap:round;stroke-linejoin:round"></path><path d="M273.06,277.09a222.48,222.48,0,0,0-35.84-2.86c-58.54,0-107.89,22.09-123,52.23l113,15.85Z" style="opacity:0.30000000000000004"></path><line x1="347.93" y1="256.34" x2="382.38" y2="256.34" style="fill:none;stroke:#2e353a;stroke-linecap:round;stroke-linejoin:round"></line><line x1="347.93" y1="260.34" x2="382.38" y2="260.34" style="fill:none;stroke:#2e353a;stroke-linecap:round;stroke-linejoin:round"></line><line x1="347.93" y1="264.33" x2="382.38" y2="264.33" style="fill:none;stroke:#2e353a;stroke-linecap:round;stroke-linejoin:round"></line><line x1="347.93" y1="268.33" x2="382.38" y2="268.33" style="fill:none;stroke:#2e353a;stroke-linecap:round;stroke-linejoin:round"></line><line x1="347.93" y1="272.33" x2="382.38" y2="272.33" style="fill:none;stroke:#2e353a;stroke-linecap:round;stroke-linejoin:round"></line><line x1="347.93" y1="276.33" x2="382.38" y2="276.33" style="fill:none;stroke:#2e353a;stroke-linecap:round;stroke-linejoin:round"></line><polyline points="333.5 332 333.5 255.95 340.5 255.95" style="fill:none;stroke:#2e353a;stroke-linecap:round;stroke-linejoin:round"></polyline><line x1="255.93" y1="101.01" x2="290.38" y2="101.01" style="fill:none;stroke:#2e353a;stroke-linecap:round;stroke-linejoin:round"></line><line x1="255.93" y1="105" x2="290.38" y2="105" style="fill:none;stroke:#2e353a;stroke-linecap:round;stroke-linejoin:round"></line><line x1="255.93" y1="109" x2="290.38" y2="109" style="fill:none;stroke:#2e353a;stroke-linecap:round;stroke-linejoin:round"></line><line x1="255.93" y1="113" x2="290.38" y2="113" style="fill:none;stroke:#2e353a;stroke-linecap:round;stroke-linejoin:round"></line><line x1="255.93" y1="117" x2="290.38" y2="117" style="fill:none;stroke:#2e353a;stroke-linecap:round;stroke-linejoin:round"></line><line x1="255.93" y1="120.99" x2="290.38" y2="120.99" style="fill:none;stroke:#2e353a;stroke-linecap:round;stroke-linejoin:round"></line><polyline points="241.5 249.29 241.5 100.62 248.5 100.62" style="fill:none;stroke:#2e353a;stroke-linecap:round;stroke-linejoin:round"></polyline><line x1="241.5" y1="286" x2="241.5" y2="256.86" style="fill:none;stroke:#2e353a;stroke-linecap:round;stroke-linejoin:round"></line><ellipse cx="299.29" cy="363.02" rx="26.83" ry="14.01" style="fill:#92E3A9"></ellipse><ellipse cx="299.29" cy="363.02" rx="26.83" ry="14.01" style="opacity:0.30000000000000004"></ellipse><ellipse cx="194.57" cy="313.4" rx="27.59" ry="14.41" style="fill:#92E3A9"></ellipse><ellipse cx="194.57" cy="313.4" rx="27.59" ry="14.41" style="opacity:0.5"></ellipse></g><g id="freepik--character-2--inject-1--inject-40"><path d="M280.27,361.93s-.83.67.66,1.5,3.66.66,6.48-.5a35.58,35.58,0,0,1,6.32-2.16c1.16-.17,1.66.17,2.15-1.33s-.49-4.32-1-4.32-3,.67-6.81,2.83S281.93,362.1,280.27,361.93Z" style="fill:#fff;stroke:#2e353a;stroke-linecap:round;stroke-linejoin:round"></path><path d="M279.61,306.62s3.48,12.12,4.31,16.11,4,18.11,4.32,22.59.67,6.65.67,7.14-4.49,4.82-5.15,6.15-3,2.66-3.49,3.32,4,.67,5,.5,5-3.65,6.32-4.15,3.48.16,3.82-2.16-1.33-5-1.33-5a72.44,72.44,0,0,1,0-11.29c.5-5.81.66-8.31,0-12.63a78.18,78.18,0,0,1-1-12.95c0-5-.17-7.64-.17-7.64A15.43,15.43,0,0,1,279.61,306.62Z" style="fill:#fff;stroke:#2e353a;stroke-linecap:round;stroke-linejoin:round"></path><path d="M283.59,359.44l2.49,3.08,3.74-3-2.91-4.23S284.09,357.28,283.59,359.44Z" style="fill:#2e353a;stroke:#2e353a;stroke-linecap:round;stroke-linejoin:round"></path><path d="M308.07,365.61s-.72,2.47.44,4.13a3.55,3.55,0,0,0,5,1.16c1.21-.77,1.58-1.48.87-5.72S308.79,362.48,308.07,365.61Z" style="fill:#fff;stroke:#2e353a;stroke-linecap:round;stroke-linejoin:round"></path><path d="M287.91,309.77s1.83,7.81,4.49,12.63,10,19.76,13.12,24.08c4.25,5.82,1.81,19.95,2.82,21.27,1.66,2.16,5.15,2.32,6-.17s-2.32-11.13-2.65-13-.84-12-2.83-20.1-6.65-17-7.15-20.21a16.92,16.92,0,0,1,0-5.53l-14.29.33" style="fill:#fff;stroke:#2e353a;stroke-linecap:round;stroke-linejoin:round"></path><path d="M314.36,365.18a29.7,29.7,0,0,0-.62-3.13,8.61,8.61,0,0,0-5.62.16c0,1.31-.06,2.47-.05,3.4A10.86,10.86,0,0,1,314.36,365.18Z" style="fill:#2e353a;stroke:#2e353a;stroke-linecap:round;stroke-linejoin:round"></path><path d="M281.39,311.5a18.41,18.41,0,0,0,10.68,6.29c6.92,1.25,10.06.31,10.06.31l-.63-6.28-20.74-5Z" style="fill:#92E3A9;opacity:0.62;mix-blend-mode:multiply"></path><path d="M270.51,245.19s-2.62,8.75-2,17.07,7.16,43.38,7.16,43.38a36.27,36.27,0,0,0,14.22,7c8.1,1.75,13.13-1.75,13.13-1.75s7.73-46,6.41-54.54-4.15-12-4.15-12Z" style="fill:#2e353a;stroke:#2e353a;stroke-linecap:round;stroke-linejoin:round"></path><path d="M299.67,251.92S291,264.16,285,271.33" style="fill:none;stroke:#fff;stroke-linecap:round;stroke-linejoin:round;stroke-width:0.5px"></path><path d="M292.8,264.76s-9,15.53-9.56,24.5" style="fill:none;stroke:#fff;stroke-linecap:round;stroke-linejoin:round;stroke-width:0.5px"></path><path d="M281.45,166.19s-4.81-.22-7.66-6.34,3.07-10.51,6.79-10.95,5.91,2.85,8.31,2.85a90.87,90.87,0,0,1,11.38,0c6.57.44,9.63,7.44,10.51,14.66s-2.85,15.54.65,21.66,16.2,19.26,14.23,31.52-11.6,17.06-19.7,17.94-11.6-2.63-13.57-7.44-6.34-26-7.44-30.42-.65-13.35,1.1-17.72,1.31-12.48,1.75-14.88S281.45,166.19,281.45,166.19Z" style="fill:#2e353a;stroke:#2e353a;stroke-linecap:round;stroke-linejoin:round"></path><path d="M282.81,160.67s-5.07-3-6.55-1.9,2.75,3.38,2.75,3.38" style="fill:none;stroke:#fff;stroke-linecap:round;stroke-linejoin:round;stroke-width:0.5px"></path><path d="M288.1,151.58a37.16,37.16,0,0,0,10.15,6.34c5.49,2.12,8.88.85,8.88.85" style="fill:none;stroke:#fff;stroke-linecap:round;stroke-linejoin:round;stroke-width:0.5px"></path><path d="M297,164.9s7.4-2.75,10.57-1.48" style="fill:none;stroke:#fff;stroke-linecap:round;stroke-linejoin:round;stroke-width:0.5px"></path><path d="M294.86,166.17s-.21,4.44,3,4.86,7.62,2.12,8.88,11.21,1.06,16.91,9.94,24.53,7.61,13.74,5.71,19.45" style="fill:none;stroke:#fff;stroke-linecap:round;stroke-linejoin:round;stroke-width:0.5px"></path><path d="M299.52,164.27a6.87,6.87,0,0,1-5.08-1.06c-5.07-3.17-7.61-8.67-11.84-10.36s-5.92,4-5.92,4" style="fill:none;stroke:#fff;stroke-linecap:round;stroke-linejoin:round;stroke-width:0.5px"></path><path d="M279.26,193.11s-5.39.23-8.14,2.59-13.34,24.2-14.26,27S257,227,258.17,227s7.46-3.53,9.29-5.37,9-15.83,10.86-19.23S281.65,192.74,279.26,193.11Z" style="fill:#fff;stroke:#2e353a;stroke-linecap:round;stroke-linejoin:round"></path><path d="M272.65,213c2.34-4.28,4.72-8.88,5.67-10.64,1.83-3.4,3.33-9.63.94-9.26,0,0-5.39.23-8.14,2.59-1.23,1.06-4.05,6.05-6.87,11.48Z" style="fill:#fff;stroke:#2e353a;stroke-linecap:round;stroke-linejoin:round"></path><path d="M287.36,190.48s-7.44,1.53-8.1,2.63-9,18.6-8.53,22.54,4.38,10.28,4.16,14.88-4.38,14.66-4.38,14.66a16.35,16.35,0,0,0,10.94,5.69c7.44.87,18.6.44,24.95-4.6,0,0-3.72-9.19-3.72-14s.44-12.69.44-12.69,3.28-22.32,2.62-24.08-6.56-5.25-9.84-5.47A57.58,57.58,0,0,0,287.36,190.48Z" style="fill:#92E3A9;stroke:#2e353a;stroke-linecap:round;stroke-linejoin:round"></path><path d="M300.55,191.55A13.76,13.76,0,0,0,295.9,190a57.58,57.58,0,0,0-8.54.44s-1.91.39-3.87.92c-.72,2.27-3.58,11.94-2,16.37C283.15,212.65,291.65,219,300.55,191.55Z" style="fill:#fff;stroke:#2e353a;stroke-linecap:round;stroke-linejoin:round"></path><path d="M288.24,189.39a3,3,0,0,0-3.29,1.75c-.87,2.19-3.94,10.72-3.94,10.72s6.13-1.09,7-1.31,7.66,5,7.66,5A27.36,27.36,0,0,0,299,194.2C299.18,188.07,290.21,186.76,288.24,189.39Z" style="fill:#fff;stroke:#2e353a;stroke-linecap:round;stroke-linejoin:round"></path><path d="M286.7,183.7s.22,6.34.66,10.5-2.84,9.19,0,8.75,8.54-10.06,8.54-12.91-.66-11.81-.66-11.81Z" style="fill:#fff;stroke:#2e353a;stroke-linecap:round;stroke-linejoin:round"></path><path d="M287,189.21a10,10,0,0,0,4.47-.9,13.32,13.32,0,0,0,4.24-3.37c-.19-3.29-.44-6.71-.44-6.71l-8.54,5.47S286.79,186.27,287,189.21Z" style="fill:#92E3A9;opacity:0.62;mix-blend-mode:multiply"></path><path d="M297.5,164.19a7.1,7.1,0,0,1-5.37,0c-2.78-1.19-7.55-4.57-8.55-4a6.31,6.31,0,0,0-1.79,2.18,25.36,25.36,0,0,0-.79,6.17c.2,2.18-2,3.57-2,5.16s1.59,10.54,4.57,11.73,12.33-4.77,12.33-4.77,3.18-1.59,4-3.18.8-5.17-1.19-5.17-2.78,2.39-2.78,2.39-1.79-4-1.39-6.16S297.5,164.19,297.5,164.19Z" style="fill:#fff;stroke:#2e353a;stroke-linecap:round;stroke-linejoin:round"></path><path d="M287.8,167.07a19.56,19.56,0,0,0,6.78,1.22c.55-2.09,2.92-4.1,2.92-4.1a7.1,7.1,0,0,1-5.37,0c-2.78-1.19-7.55-4.57-8.55-4a5.1,5.1,0,0,0-1.49,1.67C283.68,164,285.75,166.22,287.8,167.07Z" style="fill:#92E3A9;opacity:0.62;mix-blend-mode:multiply"></path><path d="M282,167.54s3.22-1,2.9,1.44-.81,2.9-.81,2.9" style="fill:none;stroke:#2e353a;stroke-linecap:round;stroke-linejoin:round;stroke-width:0.5px"></path><path d="M282.62,178.63s2.41,1.6,4.18,0" style="fill:none;stroke:#2e353a;stroke-linecap:round;stroke-linejoin:round;stroke-width:0.5px"></path><path d="M283.42,170.46c0,.62-.29,1.11-.56,1.09s-.45-.54-.4-1.15.29-1.11.56-1.09S283.46,169.84,283.42,170.46Z" style="fill:#2e353a"></path><path d="M288.24,172.09c-.12.61-.42,1.07-.68,1s-.39-.59-.27-1.2.42-1.06.68-1S288.35,171.48,288.24,172.09Z" style="fill:#2e353a"></path><path d="M287.44,168.82s1.45-1.12,4.34,1.45" style="fill:none;stroke:#2e353a;stroke-linecap:round;stroke-linejoin:round;stroke-width:0.5px"></path><line x1="282.94" y1="176.06" x2="284.87" y2="177.02" style="fill:none;stroke:#2e353a;stroke-linecap:round;stroke-linejoin:round;stroke-width:0.5px"></line><path d="M299.34,175.09s.16-1.29-.65-1.29-1.93,2.58-1.93,2.58,2.41.32.81,1.12" style="fill:none;stroke:#2e353a;stroke-linecap:round;stroke-linejoin:round;stroke-width:0.5px"></path><path d="M304.87,194.64s-3.72,5.91-4.6,11.16,2.19,15.1,2.19,15.1-12.25,2-18.16,2-8.1.22-8.1.22,13.79,5.91,22.1,9,14,2.84,14.23,0-.88-20.13-1.75-25.82S308.37,194.2,304.87,194.64Z" style="fill:#fff;stroke:#2e353a;stroke-linecap:round;stroke-linejoin:round"></path><path d="M310.78,206.24c-.88-5.69-2.41-12-5.91-11.6,0,0-3.72,5.91-4.6,11.16-.48,2.87.22,7.1,1,10.36l10.39-2.08C311.34,210.87,311.05,208,310.78,206.24Z" style="fill:#fff;stroke:#2e353a;stroke-linecap:round;stroke-linejoin:round"></path><path d="M279.24,221.34a35.27,35.27,0,0,1-4.45-4.84c-.92-1.57-5.24-3.79-6.15-4.05s-2.49.65-2.49.65-1.83,2.09-1.18,2.75,3,1.83,3.14,2.22a7.14,7.14,0,0,0,3.54,3.67,20.58,20.58,0,0,0,5.62,1.3Z" style="fill:#fff;stroke:#2e353a;stroke-linecap:round;stroke-linejoin:round"></path><path d="M265.23,215.06a26.82,26.82,0,0,1,3,1.44l1.18.79" style="fill:none;stroke:#2e353a;stroke-linecap:round;stroke-linejoin:round;stroke-width:0.75px"></path><path d="M265.76,213.88a12.72,12.72,0,0,1,4.71,2.36" style="fill:none;stroke:#2e353a;stroke-linecap:round;stroke-linejoin:round;stroke-width:0.75px"></path><path d="M267.07,212.71s3.92,1.7,4.71,2.88" style="fill:none;stroke:#2e353a;stroke-linecap:round;stroke-linejoin:round;stroke-width:0.75px"></path><path d="M258.48,221.56s-3.29,3.5-2.19,5.25,7.22,3.06,16,1.53,21.67-3.5,21.67-3.5,4.81-.22,6.12-1.32a13.35,13.35,0,0,1,4.38-1.75s5,.66,5.69,0-.22-3.93-2.41-5-5.69-1.09-7.66.22a14.46,14.46,0,0,0-3.5,3.72s-16.63.88-22.76,0-8.53-1.31-10.06-.88" style="fill:#fff;stroke:#2e353a;stroke-linecap:round;stroke-linejoin:round"></path><path d="M303.12,219.59a13.92,13.92,0,0,1,4.12.71,21.9,21.9,0,0,1,2.88,1.47" style="fill:none;stroke:#2e353a;stroke-linecap:round;stroke-linejoin:round;stroke-width:0.75px"></path><path d="M303.05,218.33s3.66,0,4.84.66a11.34,11.34,0,0,1,2.22,1.7" style="fill:none;stroke:#2e353a;stroke-linecap:round;stroke-linejoin:round;stroke-width:0.75px"></path><path d="M303.18,216.89s3.66-.13,5.89,1.05" style="fill:none;stroke:#2e353a;stroke-linecap:round;stroke-linejoin:round;stroke-width:0.75px"></path></g><g id="freepik--character-1--inject-1--inject-40"><path d="M202.38,303.07s6.06,4.57,7.93,6.09.87,2.2-1.35,3.55-6-.72-9-2.28a39.64,39.64,0,0,1-5.4-3.35S198.53,302.92,202.38,303.07Z" style="fill:#2e353a;stroke:#2e353a;stroke-linecap:round;stroke-linejoin:round"></path><path d="M185.22,311s3.34,6.87,5.42,8.87,5.08,5.26,7.09,3.17.53-7.19-.36-9.15a54.5,54.5,0,0,0-2.92-5.16Z" style="fill:#2e353a;stroke:#2e353a;stroke-linecap:round;stroke-linejoin:round"></path><path d="M176.17,212.81s1.21,35.88,2.09,43.85,1,16.63,2.93,23,3.53,20.1,3.36,24.18-.48,6,.67,7.24,1.15,1.49,4.75,1.63,6.37-2.87,6.88-3.81a3,3,0,0,0,.32-1.91s3.67-1.54,4.89-2,2.31-3.75,2.31-3.75a26.52,26.52,0,0,1,.81-8.15c1.09-3.32,7.38-16.29,8.7-25.14s2.69-37.16,2.76-39.08-.65-19.74-.65-19.74-26.68-.11-31.73-.31S176.06,203.43,176.17,212.81Z" style="fill:#92E3A9;stroke:#2e353a;stroke-linecap:round;stroke-linejoin:round"></path><path d="M206.44,231.58l-6.24,5.52s-2.32,40.06-2.12,47-.91,22.81-.91,22.81" style="fill:none;stroke:#2e353a;stroke-linecap:round;stroke-linejoin:round"></path><path d="M187.32,307.1a12.23,12.23,0,0,0,1.07,3.43" style="fill:none;stroke:#2e353a;stroke-linecap:round;stroke-linejoin:round;stroke-width:0.75px"></path><path d="M182.66,235.86c0,8.39.15,17.71.88,22.77,1.52,10.62,3,19.42,3.64,25.19s1.52,12.44.3,17.6a14.21,14.21,0,0,0-.37,3.6" style="fill:none;stroke:#2e353a;stroke-linecap:round;stroke-linejoin:round;stroke-width:0.75px"></path><path d="M182.93,218.57s-.19,6.32-.25,14.15" style="fill:none;stroke:#2e353a;stroke-linecap:round;stroke-linejoin:round;stroke-width:0.75px"></path><path d="M206.6,215.84s-2.73,3.34-2.73,4.25,3.34,1.21,3,3.94-3.95,5.16-3.95,5.16" style="fill:none;stroke:#2e353a;stroke-linecap:round;stroke-linejoin:round;stroke-width:0.75px"></path><path d="M195.37,216.45a19.07,19.07,0,0,0,15.18-.31" style="fill:none;stroke:#2e353a;stroke-linecap:round;stroke-linejoin:round;stroke-width:0.75px"></path><path d="M200.2,237.1l10.65-4.87" style="fill:none;stroke:#2e353a;stroke-linecap:round;stroke-linejoin:round;stroke-width:0.75px"></path><path d="M202,290.07a11.72,11.72,0,0,1-2.11,1.94" style="fill:none;stroke:#2e353a;stroke-linecap:round;stroke-linejoin:round;stroke-width:0.75px"></path><path d="M211.46,275a102.57,102.57,0,0,1-8.12,13.46" style="fill:none;stroke:#2e353a;stroke-linecap:round;stroke-linejoin:round;stroke-width:0.75px"></path><path d="M218,151.89s4.05,1.54,6.54,8,13,23.6,12.9,25.88-2.88,3.55-5.69,5.26-5.5.24-7-1-4.31-12.29-5.12-20.55S218,151.89,218,151.89Z" style="fill:#2e353a;stroke:#2e353a;stroke-linecap:round;stroke-linejoin:round"></path><path d="M184,151.22s-9.81,5.32-11.68,6.16-2.63,3.1-2.71,4.92.35,59.9.35,59.9a27.33,27.33,0,0,0,10,2,47.84,47.84,0,0,0,12.86-1.54l-1-10.1L189,150.28l12.12-.2L213,212.5l1.7,9s7.59-2.3,9.27-3.06c2.32-1,3.81-4,3.81-4s-9.2-61.4-9.84-62.57-13.3-4.64-23.39-3.9S184,151.22,184,151.22Z" style="fill:#2e353a;stroke:#2e353a;stroke-linecap:round;stroke-linejoin:round"></path><path d="M171.33,158a11.59,11.59,0,0,0-4.77,5.06c-1.74,3.59-11.54,31.32-11.59,32.68s4.2,3.6,6.45,4.38S170.2,192,170.2,192l4.37-12.17" style="fill:#2e353a;stroke:#2e353a;stroke-linecap:round;stroke-linejoin:round"></path><path d="M159.64,187.5s-6.22,7.07-4.09,10.81,14.42,10.86,16,10.47,8.49-6.52,8.08-7.67-15.23-13.64-15.23-13.64" style="fill:#2e353a;stroke:#2e353a;stroke-linecap:round;stroke-linejoin:round"></path><path d="M232.72,183.34c2.06.08,5.15,2.72,4.66,3.62s-1.47,8.17-4.58,11.7-6.75,8.64-6.75,8.64a29.26,29.26,0,0,0-3.92-5,17,17,0,0,1-3.43-5.63l5.36-8.24s3.59-4,5.64-3.89" style="fill:#2e353a;stroke:#2e353a;stroke-linecap:round;stroke-linejoin:round"></path><path d="M180.61,198.27s-7.39-8-10-8.35-7.71,2.57-7.71,2.57" style="fill:none;stroke:#fff;stroke-linecap:round;stroke-linejoin:round;stroke-width:0.5px"></path><path d="M165.19,186.39s4.5.32,5.46,3.53" style="fill:none;stroke:#fff;stroke-linecap:round;stroke-linejoin:round;stroke-width:0.5px"></path><line x1="177.07" y1="171.93" x2="175.15" y2="192.81" style="fill:none;stroke:#fff;stroke-linecap:round;stroke-linejoin:round;stroke-width:0.5px"></line><line x1="216.58" y1="169.37" x2="224.06" y2="188.48" style="fill:none;stroke:#fff;stroke-linecap:round;stroke-linejoin:round;stroke-width:0.5px"></line><line x1="218.7" y1="196.72" x2="228.47" y2="183.5" style="fill:none;stroke:#fff;stroke-linecap:round;stroke-linejoin:round;stroke-width:0.5px"></line><path d="M188,205.66s1.29,4.82-1,8" style="fill:none;stroke:#fff;stroke-linecap:round;stroke-linejoin:round;stroke-width:0.5px"></path><path d="M189.92,212.41a26.75,26.75,0,0,1-4.17,5.46" style="fill:none;stroke:#fff;stroke-linecap:round;stroke-linejoin:round;stroke-width:0.5px"></path><path d="M224.93,212.09a7.13,7.13,0,0,1-5.78,3.85" style="fill:none;stroke:#fff;stroke-linecap:round;stroke-linejoin:round;stroke-width:0.5px"></path><path d="M190.93,142.35s-4.62,1.19-6.58,4.54-6,13-4.73,15.36,7.45,8.07,8.56,9,18.32-.86,19.3-2.65,5.66-10.06,4.2-13.55-5.05-10.94-11.6-12.81S190.93,142.35,190.93,142.35Z" style="fill:#92E3A9;stroke:#2e353a;stroke-linecap:round;stroke-linejoin:round"></path><path d="M182.15,197.5s-8.21,10.87-11.49,12.8l3.06,3.55s10.45-9.87,11.75-13.7Z" style="fill:#92E3A9;stroke:#2e353a;stroke-linecap:round;stroke-linejoin:round"></path><polygon points="217.57 196.07 226.44 207.89 224.24 209.72 215.17 197.68 217.57 196.07" style="fill:#92E3A9;stroke:#2e353a;stroke-linecap:round;stroke-linejoin:round"></polygon><path d="M189.47,144.58a32.88,32.88,0,0,0-2,15.24c1,8,4.29,52.74,4.29,52.74s4,2.59,7.62,2.63c8.41.09,13.64-2.69,13.64-2.69l-10.3-62.59S200,139.29,189.47,144.58Z" style="fill:#fff;stroke:#2e353a;stroke-linecap:round;stroke-linejoin:round"></path><path d="M201.65,147.38l6.2,66.7L213,212.5l-10.3-62.59A11.32,11.32,0,0,0,201.65,147.38Z" style="fill:#92E3A9;opacity:0.62;mix-blend-mode:multiply"></path><path d="M187.42,138.79s2.21,7.63,2.52,11.3,4.07,6.79,7,7.82,5-4.37,4.2-7.83S199.26,140,199.26,140Z" style="fill:#fff;stroke:#2e353a;stroke-linecap:round;stroke-linejoin:round"></path><path d="M200.3,145.9c-.55-3-1-6-1-6l-11.84-1.16s1.35,4.66,2.08,8.45a7.57,7.57,0,0,0,6.41,1.47A7.72,7.72,0,0,0,200.3,145.9Z" style="fill:#92E3A9;opacity:0.62;mix-blend-mode:multiply"></path><path d="M200.07,119.63s2,12.2,1.9,15.39-.75,7.29-4.46,8.51-7.75-.31-8.84-1.72-3.25-4.48-3.25-4.48-3.87-.38-4.69-2.7-.35-3.19,1.28-3.71l3.62,1.17s-3.21-5.39-2.81-9.72,7.28-5,9.56-4.87S200.07,119.63,200.07,119.63Z" style="fill:#fff;stroke:#2e353a;stroke-linecap:round;stroke-linejoin:round"></path><path d="M200.88,124.86c-.42-2.89-.81-5.23-.81-5.23s-5.4-2-7.69-2.13-9.16.55-9.56,4.87,2.81,9.72,2.81,9.72-1-5.06,2.1-7.58S192.87,126.81,200.88,124.86Z" style="fill:#92E3A9;opacity:0.62;mix-blend-mode:multiply"></path><path d="M198.71,124.28a3.84,3.84,0,0,0-2.31,1.09c-.88,1,1.76,5.94,1.21,6.93s-1.54,1.76-2.2,1.43" style="fill:none;stroke:#2e353a;stroke-linecap:round;stroke-linejoin:round;stroke-width:0.5px"></path><path d="M192.77,125.48a4.33,4.33,0,0,0-4.18,1.32" style="fill:none;stroke:#2e353a;stroke-linecap:round;stroke-linejoin:round;stroke-width:0.5px"></path><path d="M192.44,129.12c.05.57-.15,1.06-.45,1.09s-.59-.41-.65-1,.15-1.06.45-1.09S192.39,128.54,192.44,129.12Z" style="fill:#2e353a"></path><path d="M198.6,127.52c.05.58-.15,1.07-.45,1.09s-.59-.41-.65-1,.15-1.07.45-1.1S198.54,127,198.6,127.52Z" style="fill:#2e353a"></path><path d="M197,136.59s-1.1,1.21-3.63.77" style="fill:none;stroke:#2e353a;stroke-linecap:round;stroke-linejoin:round;stroke-width:0.5px"></path><path d="M182,134.26s-.77-1.65.55-1.65S185,134.7,185,134.7s-1.65-1.65-1.65-.66" style="fill:none;stroke:#2e353a;stroke-linecap:round;stroke-linejoin:round;stroke-width:0.5px"></path><path d="M181.57,130.78l.44.14,3.62,1.17s-1.34-6.46-.84-7.58,2.23-4.25,5.19-4.14,6.16.25,12.56.28,7.16-7.49,5-11.23-9.06-2-8.41-1,2.8,4.22-1.3,3.83-8.74-4.23-14.59-1-6.3,9.12-4.58,11.7S181.57,130.78,181.57,130.78Z" style="fill:#2e353a;stroke:#2e353a;stroke-linecap:round;stroke-linejoin:round"></path><path d="M181.11,122.82s1.69-4,7-3.59,7.82,1.69,10.78,1.69" style="fill:none;stroke:#fff;stroke-linecap:round;stroke-linejoin:round;stroke-width:0.5px"></path><line x1="180.9" y1="126.84" x2="184.79" y2="124.51" style="fill:none;stroke:#fff;stroke-linecap:round;stroke-linejoin:round;stroke-width:0.5px"></line></g></svg>